<?xml version="1.0" encoding="UTF-8" standalone="no"?>
<!-- Created with Inkscape (http://www.inkscape.org/) -->

<svg
   xmlns:dc="http://purl.org/dc/elements/1.1/"
   xmlns:cc="http://creativecommons.org/ns#"
   xmlns:rdf="http://www.w3.org/1999/02/22-rdf-syntax-ns#"
   xmlns:svg="http://www.w3.org/2000/svg"
   xmlns="http://www.w3.org/2000/svg"
   xmlns:sodipodi="http://sodipodi.sourceforge.net/DTD/sodipodi-0.dtd"
   xmlns:inkscape="http://www.inkscape.org/namespaces/inkscape"
   width="643.07239"
   height="363.99829"
   id="svg2"
   version="1.1"
   inkscape:version="0.48.1 r9760"
   sodipodi:docname="polyhedron.svg">
  <sodipodi:namedview
     id="base"
     pagecolor="#ffffff"
     bordercolor="#666666"
     borderopacity="1.0"
     inkscape:pageopacity="0.0"
     inkscape:pageshadow="2"
     inkscape:zoom="1.4"
     inkscape:cx="234.09013"
     inkscape:cy="155.28197"
     inkscape:document-units="px"
     inkscape:current-layer="layer1"
     showgrid="false"
     inkscape:window-width="1918"
     inkscape:window-height="1059"
     inkscape:window-x="0"
     inkscape:window-y="19"
     inkscape:window-maximized="1"
     fit-margin-top="0"
     fit-margin-left="0"
     fit-margin-right="0"
     fit-margin-bottom="0" />
  <defs
     id="defs4" />
  <metadata
     id="metadata7">
    <rdf:RDF>
      <cc:Work
         rdf:about="">
        <dc:format>image/svg+xml</dc:format>
        <dc:type
           rdf:resource="http://purl.org/dc/dcmitype/StillImage" />
        <dc:title />
      </cc:Work>
    </rdf:RDF>
  </metadata>
  <g
     id="layer1"
     inkscape:groupmode="layer"
     inkscape:label="Layer 1"
     transform="translate(-40.21459,-385.09545)">
    <g
       id="g3018"
       transform="translate(-143.44166,-433.35544)">
      <g
         transform="translate(160,702.85714)"
         id="g3823">
        <path
           style="font-style:normal;font-variant:normal;font-weight:normal;font-stretch:normal;letter-spacing:normal;word-spacing:normal;text-anchor:start;fill:#000000;stroke:#000000;stroke-width:0;stroke-linecap:butt;stroke-linejoin:miter;stroke-miterlimit:10.43299961;stroke-opacity:1;stroke-dasharray:none;stroke-dashoffset:0"
           inkscape:connector-curvature="0"
           d="m 45.099131,125.48308 0,-0.21098 0.07033,-0.21098 0.07033,-0.21098 0.07033,-0.2813 0.07033,-0.28131 0.07033,-0.2813 0.07033,-0.28131 0.140652,-0.35163 0.07033,-0.2813 0.140653,-0.35163 0.140652,-0.35163 0.140652,-0.35163 0.140653,-0.35164 0.210978,-0.35163 0.140653,-0.35163 0.210978,-0.35163 0.210979,-0.35163 0.210978,-0.2813 0.210979,-0.35163 0.281304,-0.28131 0.281305,-0.35163 0.281305,-0.2813 0.281304,-0.28131 0.281305,-0.21098 0.351631,-0.21098 0.351631,-0.21097 0.140652,-0.0703 0.210979,-0.14065 0.140652,-0.0703 0.210979,-0.0703 0.210978,-0.0703 0.210979,0 0.210978,-0.0703 0.140652,-0.0703 0.281305,0 0.210979,0 0.210978,-0.0703 0.210979,0 c 0.35163,0 2.039459,0 3.516308,0.91424 -1.969133,0.35163 -3.375656,2.10979 -3.375656,3.79761 0,1.12522 0.773588,2.46142 2.672394,2.46142 1.547176,0 3.797614,-1.26587 3.797614,-4.07892 0,-3.65696 -4.149244,-4.64153 -6.540334,-4.64153 -4.078918,0 -6.540334,3.72729 -7.313922,5.34479 -1.758154,-4.64152 -5.555767,-5.34479 -7.595226,-5.34479 -7.243596,0 -11.252187,9.07208 -11.252187,10.75991 0,0.70326 0.703261,0.70326 0.843914,0.70326 0.562609,0 0.773587,-0.14065 0.91424,-0.77359 2.39109,-7.38425 6.962291,-9.1424 9.35338,-9.1424 1.336198,0 3.797614,0.63294 3.797614,4.71185 0,2.18011 -1.195545,6.82164 -3.797614,16.59698 -1.125218,4.36022 -3.586634,7.31392 -6.61066,7.31392 -0.421957,0 -2.039459,0 -3.516308,-0.91424 1.758154,-0.35163 3.30533,-1.82848 3.30533,-3.79761 0,-1.89881 -1.547176,-2.46142 -2.602068,-2.46142 -2.109786,0 -3.86794,1.82848 -3.86794,4.07892 0,3.235 3.516309,4.5712 6.61066,4.5712 4.571201,0 7.102943,-4.8525 7.313922,-5.27446 0.843914,2.60207 3.375656,5.27446 7.5249,5.27446 7.243596,0 11.252187,-9.00175 11.252187,-10.7599 0,-0.70326 -0.632935,-0.70326 -0.843914,-0.70326 -0.632935,0 -0.773588,0.2813 -0.91424,0.77358 -2.320764,7.5249 -7.102943,9.21273 -9.353381,9.21273 -2.672394,0 -3.797613,-2.25044 -3.797613,-4.64153 0,-1.54717 0.421957,-3.09435 1.195545,-6.11837 z"
           id="path3762" />
        <path
           style="font-style:normal;font-variant:normal;font-weight:normal;font-stretch:normal;letter-spacing:normal;word-spacing:normal;text-anchor:start;fill:#000000;stroke:#000000;stroke-width:0;stroke-linecap:butt;stroke-linejoin:miter;stroke-miterlimit:10.43299961;stroke-opacity:1;stroke-dasharray:none;stroke-dashoffset:0"
           inkscape:connector-curvature="0"
           d="m 78.152431,125.97536 0,-0.0703 0,-0.0703 0,-0.0703 0,-0.0703 0,0 0,-0.0703 0,-0.0703 0,-0.0703 0,0 0,-0.0703 0,-0.0703 0,0 0,-0.0703 0,0 -0.07033,-0.0703 0,0 0,-0.0703 0,0 0,-0.0703 0,-0.0703 -0.07033,-0.0703 0,0 0,-0.0703 -0.07033,-0.0703 0,0 -0.07033,-0.0703 0,0 -0.07033,0 -0.07033,-0.0703 -0.07033,0 -0.07033,0 0,0 -0.07033,0 -0.07033,0 0,0 -0.07033,-0.0703 0,0 -0.07033,0 0,0 -0.07033,0 -0.07033,0 -0.07033,0 0,0 -0.07033,0 -0.07033,0 -0.07033,0 0,0 -0.07033,0 -0.07033,0 -0.07033,0 c -3.164677,3.09435 -7.595226,3.16468 -9.634685,3.16468 v 1.75815 c 1.195545,0 4.430549,0 7.173269,-1.40652 v 24.96579 c 0,1.6175 0,2.25043 -4.922832,2.25043 h -1.898806 v 1.75816 c 0.91424,-0.0703 6.962291,-0.21098 8.720445,-0.21098 1.547176,0 7.735879,0.14065 8.790771,0.21098 v -1.75816 h -1.82848 c -4.922832,0 -4.922832,-0.63293 -4.922832,-2.25043 z"
           id="path3764" />
      </g>
    </g>
    <g
       id="g3023"
       transform="translate(-425.27422,-136.28866)">
      <g
         transform="translate(348.57143,725.71429)"
         id="g3827">
        <path
           style="font-style:normal;font-variant:normal;font-weight:normal;font-stretch:normal;letter-spacing:normal;word-spacing:normal;text-anchor:start;fill:#000000;stroke:#000000;stroke-width:0;stroke-linecap:butt;stroke-linejoin:miter;stroke-miterlimit:10.43299961;stroke-opacity:1;stroke-dasharray:none;stroke-dashoffset:0"
           inkscape:connector-curvature="0"
           d="m 139.89881,125.48308 0.0703,-0.21098 0,-0.21098 0.0703,-0.21098 0.0703,-0.2813 0.0703,-0.28131 0.0703,-0.2813 0.14065,-0.28131 0.0703,-0.35163 0.14065,-0.2813 0.0703,-0.35163 0.14065,-0.35163 0.14065,-0.35163 0.21098,-0.35164 0.14065,-0.35163 0.21098,-0.35163 0.14065,-0.35163 0.21098,-0.35163 0.21098,-0.2813 0.2813,-0.35163 0.21098,-0.28131 0.28131,-0.35163 0.2813,-0.2813 0.28131,-0.28131 0.2813,-0.21098 0.35163,-0.21098 0.35163,-0.21097 0.14066,-0.0703 0.21097,-0.14065 0.21098,-0.0703 0.14065,-0.0703 0.21098,-0.0703 0.21098,0 0.21098,-0.0703 0.21098,-0.0703 0.21098,0 0.21098,0 0.21097,-0.0703 0.21098,0 c 0.35163,0 2.03946,0 3.51631,0.91424 -1.96913,0.35163 -3.37565,2.10979 -3.37565,3.79761 0,1.12522 0.77358,2.46142 2.67239,2.46142 1.54718,0 3.79761,-1.26587 3.79761,-4.07892 0,-3.65696 -4.14924,-4.64153 -6.54033,-4.64153 -4.00859,0 -6.47001,3.72729 -7.31392,5.34479 -1.75816,-4.64152 -5.55577,-5.34479 -7.5249,-5.34479 -7.31392,0 -11.32252,9.07208 -11.32252,10.75991 0,0.70326 0.70327,0.70326 0.84392,0.70326 0.56261,0 0.77359,-0.14065 0.91424,-0.77359 2.39109,-7.38425 7.03261,-9.1424 9.4237,-9.1424 1.26588,0 3.72729,0.63294 3.72729,4.71185 0,2.18011 -1.19554,6.82164 -3.72729,16.59698 -1.12521,4.36022 -3.58663,7.31392 -6.68098,7.31392 -0.42196,0 -2.03946,0 -3.51631,-0.91424 1.75815,-0.35163 3.30533,-1.82848 3.30533,-3.79761 0,-1.89881 -1.54718,-2.46142 -2.60207,-2.46142 -2.10978,0 -3.79761,1.82848 -3.79761,4.07892 0,3.235 3.44598,4.5712 6.54033,4.5712 4.64153,0 7.10295,-4.8525 7.31392,-5.27446 0.84392,2.60207 3.37566,5.27446 7.59523,5.27446 7.17327,0 11.18186,-9.00175 11.18186,-10.7599 0,-0.70326 -0.63293,-0.70326 -0.84391,-0.70326 -0.63294,0 -0.77359,0.2813 -0.91424,0.77358 -2.32077,7.5249 -7.03262,9.21273 -9.28306,9.21273 -2.74272,0 -3.86794,-2.25044 -3.86794,-4.64153 0,-1.54717 0.42196,-3.09435 1.19555,-6.11837 z"
           id="path3766" />
        <path
           style="font-style:normal;font-variant:normal;font-weight:normal;font-stretch:normal;letter-spacing:normal;word-spacing:normal;text-anchor:start;fill:#000000;stroke:#000000;stroke-width:0;stroke-linecap:butt;stroke-linejoin:miter;stroke-miterlimit:10.43299961;stroke-opacity:1;stroke-dasharray:none;stroke-dashoffset:0"
           inkscape:connector-curvature="0"
           d="m 181.32092,148.1281 h -1.68783 c -0.14065,1.12522 -0.63293,4.0086 -1.26587,4.50088 -0.42195,0.2813 -4.14924,0.2813 -4.8525,0.2813 h -9.00175 c 5.13381,-4.5712 6.82164,-5.90739 9.77534,-8.22816 3.65696,-2.88337 7.03261,-5.9074 7.03261,-10.54892 0,-5.9074 -5.20413,-9.56436 -11.46316,-9.56436 -6.11838,0 -10.1973,4.28989 -10.1973,8.79077 0,2.46142 2.10979,2.74272 2.60207,2.74272 1.19555,0 2.60207,-0.84391 2.60207,-2.60207 0,-0.91424 -0.35163,-2.60207 -2.88337,-2.60207 1.47685,-3.51631 4.8525,-4.5712 7.10294,-4.5712 4.92283,0 7.45457,3.79762 7.45457,7.80621 0,4.21957 -3.02402,7.59522 -4.5712,9.35338 l -11.81479,11.67414 c -0.49229,0.42196 -0.49229,0.49229 -0.49229,1.89881 h 20.18361 z"
           id="path3768" />
      </g>
    </g>
    <g
       id="g3010"
       transform="translate(145.46197,-16.162441)">
      <g
         transform="translate(-185.71428,382.85714)"
         id="g3925">
        <path
           style="font-style:normal;font-variant:normal;font-weight:normal;font-stretch:normal;letter-spacing:normal;word-spacing:normal;text-anchor:start;fill:#000000;stroke:#000000;stroke-width:0;stroke-linecap:butt;stroke-linejoin:miter;stroke-miterlimit:10.43299961;stroke-opacity:1;stroke-dasharray:none;stroke-dashoffset:0"
           inkscape:connector-curvature="0"
           d="m 430.69752,167.67878 0.0703,0 0.14065,0 0.0703,0 0.0703,0 0.0703,0 0.14065,0 0.0703,0 0.0703,0 0.0703,0 0.0703,0 0.0703,0 0.0703,0 0.14065,0 0.14065,0 0.14065,-0.0703 0.0703,0 0.14065,0 0.0703,0 0.0703,-0.0703 0.0703,0 0.0703,0 0.0703,-0.0703 0.0703,0 0.0703,-0.0703 0.0703,-0.0703 0.0703,0 0.0703,-0.0703 0.0703,-0.0703 0,-0.0703 0.0703,-0.0703 0.0703,-0.0703 0.0703,-0.0703 0,-0.0703 0.0703,-0.14066 0.0703,-0.0703 0.0703,-0.0703 0.0703,-0.14065 0.0703,-0.14065 38.25744,-79.74988 c 0.49228,-0.91424 0.49228,-1.054893 0.49228,-1.265871 0,-0.773588 -0.56261,-1.406524 -1.40652,-1.406524 -0.91424,0 -1.19555,0.632936 -1.54718,1.406524 l -36.07732,75.178671 -14.90915,-34.6708 -9.77534,7.45458 1.05489,1.12522 4.99316,-3.79762 z"
           id="path3778" />
        <line
           style="font-style:normal;font-variant:normal;font-weight:normal;font-stretch:normal;letter-spacing:normal;word-spacing:normal;text-anchor:start;fill:none;stroke:#000000;stroke-width:2.79898167;stroke-linecap:butt;stroke-linejoin:miter;stroke-miterlimit:10.43299961;stroke-opacity:1;stroke-dasharray:none;stroke-dashoffset:0"
           x1="471.06464"
           y1="85.256424"
           x2="498.28107"
           y2="85.256424"
           id="line3780" />
        <path
           style="font-style:normal;font-variant:normal;font-weight:normal;font-stretch:normal;letter-spacing:normal;word-spacing:normal;text-anchor:start;fill:#000000;stroke:#000000;stroke-width:0;stroke-linecap:butt;stroke-linejoin:miter;stroke-miterlimit:10.43299961;stroke-opacity:1;stroke-dasharray:none;stroke-dashoffset:0"
           inkscape:connector-curvature="0"
           d="m 494.20205,163.31856 0,-0.0703 0,0 0,0 0,-0.0703 0,0 0,0 0,-0.0703 0,0 0,0 0,-0.0703 -0.0703,0 0,-0.0703 0,0 -0.0703,-0.0703 0,0 -0.0703,-0.0703 0,-0.0703 -0.0703,0 0,-0.0703 0,0 -0.0703,-0.0703 0,0 0,0 -0.0703,-0.0703 0,0 -0.0703,-0.0703 0,0 -0.0703,-0.0703 0,0 -0.0703,-0.0703 0,0 -0.0703,-0.0703 0,-0.0703 -0.0703,0 -0.0703,-0.0703 0,-0.0703 -0.0703,0 -0.0703,-0.0703 0,-0.0703 -0.0703,0 -0.0703,-0.0703 -0.0703,-0.0703 c -8.72045,-8.79077 -10.97088,-22.01209 -10.97088,-32.70167 0,-12.16642 2.67239,-24.26253 11.25218,-33.053297 0.91424,-0.843914 0.91424,-0.984567 0.91424,-1.195545 0,-0.492283 -0.2813,-0.632936 -0.70326,-0.632936 -0.70326,0 -6.96229,4.711854 -11.11153,13.572948 -3.58664,7.66556 -4.36023,15.47176 -4.36023,21.30883 0,5.48544 0.70327,13.92458 4.5712,21.80112 4.21957,8.57979 10.1973,13.15099 10.90056,13.15099 0.42196,0 0.70326,-0.21098 0.70326,-0.70326 z"
           id="path3782" />
        <path
           style="font-style:normal;font-variant:normal;font-weight:normal;font-stretch:normal;letter-spacing:normal;word-spacing:normal;text-anchor:start;fill:#000000;stroke:#000000;stroke-width:0;stroke-linecap:butt;stroke-linejoin:miter;stroke-miterlimit:10.43299961;stroke-opacity:1;stroke-dasharray:none;stroke-dashoffset:0"
           inkscape:connector-curvature="0"
           d="m 529.71677,132.5157 0,-0.77359 -0.0703,-0.77359 -0.0703,-0.77359 -0.0703,-0.70326 -0.14065,-0.77359 -0.21098,-0.70326 -0.21098,-0.70326 -0.21098,-0.70326 -0.2813,-0.70326 -0.28131,-0.63294 -0.2813,-0.63294 -0.35163,-0.63293 -0.35163,-0.63294 -0.42196,-0.56261 -0.42196,-0.56261 -0.42195,-0.49228 -0.42196,-0.56261 -0.49228,-0.42196 -0.49229,-0.49228 -0.56261,-0.42196 -0.49228,-0.42195 -0.56261,-0.35163 -0.56261,-0.35163 -0.63293,-0.28131 -0.63294,-0.2813 -0.56261,-0.28131 -0.70326,-0.21098 -0.63294,-0.14065 -0.63293,-0.14065 -0.70326,-0.14065 -0.70327,0 -0.70326,-0.0703 c -3.37565,0 -6.32935,1.12522 -8.8611,3.58663 v -13.64327 c 1.40653,0.42195 3.72729,0.91424 5.9074,0.91424 8.65012,0 13.57295,-6.32936 13.57295,-7.2436 0,-0.42195 -0.21097,-0.77359 -0.77358,-0.77359 -0.0703,0 -0.21098,0 -0.49229,0.21098 -1.40652,0.63294 -4.8525,2.03946 -9.56436,2.03946 -2.81304,0 -5.97772,-0.49228 -9.28305,-1.96913 -0.56261,-0.21098 -0.70326,-0.21098 -0.84391,-0.21098 -0.70327,0 -0.70327,0.56261 -0.70327,1.68783 v 20.67589 c 0,1.26587 0,1.82848 0.98457,1.82848 0.49228,0 0.63294,-0.21098 0.91424,-0.63293 0.77359,-1.12522 3.37566,-4.92283 9.00175,-4.92283 3.65696,0 5.41512,3.235 5.97772,4.50087 1.12522,2.60207 1.26588,5.27446 1.26588,8.79077 0,2.46142 0,6.61066 -1.68783,9.56436 -1.68783,2.74272 -4.2899,4.5712 -7.5249,4.5712 -5.06349,0 -9.07208,-3.72728 -10.26762,-7.87653 0.21097,0.0703 0.42195,0.14065 1.19554,0.14065 2.32076,0 3.51631,-1.75815 3.51631,-3.37565 0,-1.68783 -1.19555,-3.44599 -3.51631,-3.44599 -0.98457,0 -3.44598,0.49229 -3.44598,3.72729 0,5.97773 4.8525,12.72904 12.65871,12.72904 8.15784,0 15.26078,-6.68099 15.26078,-15.54208 z"
           id="path3784" />
        <path
           style="font-style:normal;font-variant:normal;font-weight:normal;font-stretch:normal;letter-spacing:normal;word-spacing:normal;text-anchor:start;fill:#000000;stroke:#000000;stroke-width:0;stroke-linecap:butt;stroke-linejoin:miter;stroke-miterlimit:10.43299961;stroke-opacity:1;stroke-dasharray:none;stroke-dashoffset:0"
           inkscape:connector-curvature="0"
           d="m 553.55734,129.06971 0,-0.49228 0,-0.56261 0,-0.56261 0,-0.56261 -0.0703,-1.19554 -0.0703,-1.19555 -0.14065,-1.26587 -0.14066,-1.3362 -0.21098,-1.40652 -0.21097,-1.40652 -0.28131,-1.40653 -0.35163,-1.47685 -0.35163,-1.47685 -0.42196,-1.47685 -0.49228,-1.47685 -0.56261,-1.47684 -0.2813,-0.77359 -0.35164,-0.77359 -0.2813,-0.70326 -0.42196,-0.77359 c -4.14924,-8.579793 -10.19729,-13.080668 -10.90055,-13.080668 -0.42196,0 -0.70327,0.210979 -0.70327,0.632936 0,0.210978 0,0.351631 1.3362,1.617502 6.89197,6.96229 10.83023,18.07383 10.83023,32.63134 0,11.95545 -2.53174,24.26253 -11.25219,33.0533 -0.91424,0.84392 -0.91424,0.98457 -0.91424,1.19555 0,0.42195 0.28131,0.70326 0.70327,0.70326 0.70326,0 7.03261,-4.78218 11.11153,-13.64328 3.58664,-7.66555 4.43055,-15.40143 4.43055,-21.30883 z"
           id="path3786" />
      </g>
    </g>
    <path
       style="font-style:normal;font-variant:normal;font-weight:normal;font-stretch:normal;letter-spacing:normal;word-spacing:normal;text-anchor:start;fill:#000000;stroke:#000000;stroke-width:0;stroke-linecap:butt;stroke-linejoin:miter;stroke-miterlimit:10.43299961;stroke-opacity:1;stroke-dasharray:none;stroke-dashoffset:0"
       inkscape:connector-curvature="0"
       d="m 238.74389,704.32407 0,-0.0703 0,-0.0703 0,-0.14066 0,-0.0703 0,0 0,-0.0703 0,-0.0703 0,-0.0703 0,-0.0703 0,-0.0703 0,-0.0703 0,-0.0703 0,0 0,-0.0703 0,-0.0703 0,0 0,-0.0703 0,-0.0703 0,-0.0703 -0.0703,-0.0703 0,-0.0703 0,-0.0703 -0.0703,-0.0703 0,0 0,-0.0703 -0.0703,-0.0703 -0.0703,0 0,-0.0703 -0.0703,0 -0.0703,-0.0703 -0.0703,0 0,0 -0.0703,0 0,0 -0.0703,0 0,0 -0.0703,-0.0703 -0.0703,0 0,0 -0.0703,0 -0.0703,0 0,0 -0.0703,0 -0.0703,0 -0.0703,0 -0.0703,0 -0.0703,0 0,0 -0.0703,0 -0.0703,0 -0.0703,0 -0.0703,0 c -4.36022,4.43055 -10.54892,4.43055 -12.79936,4.43055 v 2.18011 c 1.40652,0 5.55577,0 9.21273,-1.75815 v 36.14765 c 0,2.53174 -0.21098,3.37566 -6.54034,3.37566 h -2.25043 v 2.18011 c 2.46141,-0.28131 8.57979,-0.28131 11.39283,-0.28131 2.74273,0 8.8611,0 11.32252,0.28131 v -2.18011 h -2.25044 c -6.32935,0 -6.54033,-0.77359 -6.54033,-3.37566 z"
       id="path3788" />
    <g
       id="g3028"
       transform="translate(137.38075,380.82751)">
      <path
         id="path3770-2"
         d="m 504.01823,243.8616 0.0703,-0.21098 0.0703,-0.21098 0,-0.21098 0.0703,-0.2813 0.0703,-0.28131 0.14065,-0.2813 0.0703,-0.28131 0.0703,-0.35163 0.14066,-0.2813 0.14065,-0.35163 0.14065,-0.35163 0.14065,-0.35163 0.14066,-0.35164 0.14065,-0.35163 0.21098,-0.35163 0.21098,-0.35163 0.21097,-0.35163 0.21098,-0.2813 0.21098,-0.35163 0.28131,-0.28131 0.21097,-0.35163 0.28131,-0.2813 0.2813,-0.28131 0.35163,-0.21098 0.35164,-0.21098 0.2813,-0.21097 0.21098,-0.0703 0.14065,-0.14065 0.21098,-0.0703 0.21098,-0.0703 0.21098,-0.0703 0.14065,0 0.21098,-0.0703 0.21098,-0.0703 0.21097,0 0.21098,0 0.28131,-0.0703 0.21098,0 c 0.35163,0 2.03946,0 3.5163,0.91424 -1.96913,0.35163 -3.37565,2.10979 -3.37565,3.79761 0,1.12522 0.77359,2.46142 2.67239,2.46142 1.47685,0 3.72729,-1.26587 3.72729,-4.07892 0,-3.65696 -4.07892,-4.64153 -6.47001,-4.64153 -4.07892,0 -6.54033,3.72729 -7.38425,5.34479 -1.68782,-4.64152 -5.48544,-5.34479 -7.5249,-5.34479 -7.31392,0 -11.25218,9.07208 -11.25218,10.75991 0,0.70326 0.70326,0.70326 0.84391,0.70326 0.56261,0 0.77359,-0.14065 0.91424,-0.77359 2.32076,-7.38425 6.96229,-9.1424 9.35338,-9.1424 1.3362,0 3.79762,0.63294 3.79762,4.71185 0,2.18011 -1.19555,6.82164 -3.79762,16.59698 -1.12522,4.36022 -3.58663,7.31392 -6.68098,7.31392 -0.42196,0 -1.96914,0 -3.44599,-0.91424 1.68783,-0.35163 3.23501,-1.82848 3.23501,-3.79761 0,-1.89881 -1.54718,-2.46142 -2.53174,-2.46142 -2.10979,0 -3.86794,1.82848 -3.86794,4.07892 0,3.235 3.5163,4.5712 6.54033,4.5712 4.64153,0 7.17327,-4.8525 7.38425,-5.27446 0.84391,2.60207 3.37565,5.27446 7.5249,5.27446 7.24359,0 11.25218,-9.00175 11.25218,-10.7599 0,-0.70326 -0.70326,-0.70326 -0.91424,-0.70326 -0.5626,0 -0.70326,0.2813 -0.84391,0.77358 -2.32076,7.5249 -7.10294,9.21273 -9.35338,9.21273 -2.67239,0 -3.79761,-2.25044 -3.79761,-4.64153 0,-1.54717 0.35163,-3.09435 1.12522,-6.11837 z"
         inkscape:connector-curvature="0"
         style="font-style:normal;font-variant:normal;font-weight:normal;font-stretch:normal;letter-spacing:normal;word-spacing:normal;text-anchor:start;fill:#000000;stroke:#000000;stroke-width:0;stroke-linecap:butt;stroke-linejoin:miter;stroke-miterlimit:10.43299961;stroke-opacity:1;stroke-dasharray:none;stroke-dashoffset:0" />
      <path
         id="path3772-4"
         d="m 534.0475,259.12238 0.42196,0 0.35163,0 0.2813,0.0703 0.35163,0 0.35163,0.0703 0.28131,0.14065 0.35163,0.0703 0.2813,0.14065 0.28131,0.14065 0.2813,0.14065 0.28131,0.14066 0.2813,0.14065 0.28131,0.21098 0.21098,0.21098 0.21097,0.21098 0.28131,0.2813 0.21098,0.21098 0.14065,0.2813 0.21098,0.28131 0.21098,0.35163 0.14065,0.2813 0.14065,0.35163 0.14065,0.35163 0.14066,0.35164 0.14065,0.35163 0.0703,0.42195 0.0703,0.35163 0.0703,0.42196 0.0703,0.49228 0,0.42196 0.0703,0.49228 0,0.49229 c 0,6.04805 -3.51631,7.87653 -6.39968,7.87653 -1.96913,0 -6.25903,-0.56261 -8.29849,-3.44598 2.32076,-0.14066 2.81305,-1.68783 2.81305,-2.74272 0,-1.54718 -1.12522,-2.6724 -2.6724,-2.6724 -1.33619,0 -2.74272,0.77359 -2.74272,2.81305 0,4.5712 5.06349,7.59522 11.04121,7.59522 6.82164,0 11.46317,-4.5712 11.46317,-9.4237 0,-3.86794 -3.09436,-7.66555 -8.50947,-8.79077 5.13381,-1.82848 7.03262,-5.48544 7.03262,-8.50947 0,-3.86794 -4.50088,-6.75131 -9.91599,-6.75131 -5.41512,0 -9.56436,2.67239 -9.56436,6.54033 0,1.68783 1.05489,2.60207 2.53174,2.60207 1.47685,0 2.46142,-1.12522 2.46142,-2.46142 0,-1.40652 -0.98457,-2.46141 -2.46142,-2.53174 1.68783,-2.18011 5.06348,-2.74272 6.89196,-2.74272 2.18012,0 5.27447,1.12522 5.27447,5.34479 0,2.03946 -0.70326,4.2899 -1.96914,5.83707 -1.6175,1.82848 -2.95369,1.96914 -5.41511,2.10979 -1.19555,0.0703 -1.3362,0.0703 -1.54718,0.14065 -0.14065,0 -0.49228,0.0703 -0.49228,0.63294 0,0.70326 0.42196,0.70326 1.26587,0.70326 z"
         inkscape:connector-curvature="0"
         style="font-style:normal;font-variant:normal;font-weight:normal;font-stretch:normal;letter-spacing:normal;word-spacing:normal;text-anchor:start;fill:#000000;stroke:#000000;stroke-width:0;stroke-linecap:butt;stroke-linejoin:miter;stroke-miterlimit:10.43299961;stroke-opacity:1;stroke-dasharray:none;stroke-dashoffset:0" />
    </g>
    <g
       id="g3921"
       transform="translate(-226.04138,210.55487)">
      <path
         id="path3774-6"
         d="m 592.27315,504.35384 0,-0.21098 0.0703,-0.21098 0.0703,-0.21098 0.0703,-0.2813 0.0703,-0.28131 0.0703,-0.2813 0.0703,-0.28131 0.14065,-0.35163 0.14065,-0.2813 0.0703,-0.35163 0.14065,-0.35163 0.14065,-0.35163 0.14065,-0.35164 0.21098,-0.35163 0.14065,-0.35163 0.21098,-0.35163 0.21098,-0.35163 0.21098,-0.2813 0.2813,-0.35163 0.21098,-0.28131 0.28131,-0.35163 0.2813,-0.2813 0.28131,-0.28131 0.2813,-0.21098 0.35163,-0.21098 0.35163,-0.21097 0.14066,-0.0703 0.21097,-0.14065 0.21098,-0.0703 0.14066,-0.0703 0.21097,-0.0703 0.21098,0 0.21098,-0.0703 0.21098,-0.0703 0.21098,0 0.21098,0 0.21097,-0.0703 0.21098,0 c 0.35163,0 2.03946,0 3.51631,0.91424 -1.96913,0.35163 -3.37565,2.10979 -3.37565,3.79761 0,1.12522 0.77358,2.46142 2.67239,2.46142 1.54718,0 3.79761,-1.26587 3.79761,-4.07892 0,-3.65696 -4.14924,-4.64153 -6.54033,-4.64153 -4.00859,0 -6.47001,3.72729 -7.31392,5.34479 -1.75816,-4.64152 -5.55577,-5.34479 -7.59523,-5.34479 -7.24359,0 -11.25219,9.07208 -11.25219,10.75991 0,0.70326 0.70327,0.70326 0.84392,0.70326 0.56261,0 0.77359,-0.14065 0.91424,-0.77359 2.39109,-7.38425 7.03262,-9.1424 9.35338,-9.1424 1.3362,0 3.79761,0.63294 3.79761,4.71185 0,2.18011 -1.19554,6.82164 -3.79761,16.59698 -1.12522,4.36022 -3.51631,7.31392 -6.61066,7.31392 -0.42196,0 -2.03946,0 -3.51631,-0.91424 1.75815,-0.35163 3.30533,-1.82848 3.30533,-3.79761 0,-1.89881 -1.54718,-2.46142 -2.60207,-2.46142 -2.10978,0 -3.86794,1.82848 -3.86794,4.07892 0,3.235 3.51631,4.5712 6.61066,4.5712 4.64153,0 7.10295,-4.8525 7.31392,-5.27446 0.84392,2.60207 3.37566,5.27446 7.59523,5.27446 7.17327,0 11.18186,-9.00175 11.18186,-10.7599 0,-0.70326 -0.63293,-0.70326 -0.84391,-0.70326 -0.63294,0 -0.77359,0.2813 -0.91424,0.77358 -2.32077,7.5249 -7.03262,9.21273 -9.28306,9.21273 -2.74272,0 -3.86794,-2.25044 -3.86794,-4.64153 0,-1.54717 0.42196,-3.09435 1.19555,-6.11837 z"
         inkscape:connector-curvature="0"
         style="font-style:normal;font-variant:normal;font-weight:normal;font-stretch:normal;letter-spacing:normal;word-spacing:normal;text-anchor:start;fill:#000000;stroke:#000000;stroke-width:0;stroke-linecap:butt;stroke-linejoin:miter;stroke-miterlimit:10.43299961;stroke-opacity:1;stroke-dasharray:none;stroke-dashoffset:0" />
      <path
         id="path3776-5"
         d="m 634.82048,527.91311 v -1.75816 h -5.41511 v -21.80111 c 0,-1.05489 0,-1.40653 -1.0549,-1.40653 -0.63293,0 -0.84391,0 -1.33619,0.70327 l -16.17502,22.50437 v 1.75816 h 14.41686 l 0.35163,-1.75816 h -12.94001 l 12.94001,-17.93317 v 17.93317 l -0.35163,1.75816 v 4.00859 c 0,1.6175 0,2.25043 -4.00859,2.25043 h -1.3362 v 1.75816 c 2.46142,-0.14065 5.6261,-0.21098 7.38425,-0.21098 1.82848,0 4.92283,0.0703 7.38425,0.21098 v -1.75816 h -1.3362 c -3.93826,0 -3.93826,-0.63293 -3.93826,-2.25043 v -4.00859 z"
         inkscape:connector-curvature="0"
         style="font-style:normal;font-variant:normal;font-weight:normal;font-stretch:normal;letter-spacing:normal;word-spacing:normal;text-anchor:start;fill:#000000;stroke:#000000;stroke-width:0;stroke-linecap:butt;stroke-linejoin:miter;stroke-miterlimit:10.43299961;stroke-opacity:1;stroke-dasharray:none;stroke-dashoffset:0" />
    </g>
    <path
       sodipodi:type="arc"
       style="fill:#000000;stroke:#000000;stroke-width:2.5;stroke-miterlimit:4;stroke-dasharray:none;stroke-dashoffset:0"
       id="path3873"
       sodipodi:cx="-297.14285"
       sodipodi:cy="520.93359"
       sodipodi:rx="88.571426"
       sodipodi:ry="88.571426"
       d="m -208.57143,520.93359 c 0,48.91665 -39.65477,88.57143 -88.57142,88.57143 -48.91665,0 -88.57143,-39.65478 -88.57143,-88.57143 0,-48.91664 39.65478,-88.57142 88.57143,-88.57142 48.91665,0 88.57142,39.65478 88.57142,88.57142 z"
       transform="matrix(0.15705763,0,0,0.15705763,-326.18859,363.40271)" />
    <path
       sodipodi:type="arc"
       style="fill:#000000;stroke:#000000;stroke-width:2.5;stroke-miterlimit:4;stroke-dasharray:none;stroke-dashoffset:0"
       id="path3873-2"
       sodipodi:cx="-297.14285"
       sodipodi:cy="520.93359"
       sodipodi:rx="88.571426"
       sodipodi:ry="88.571426"
       d="m -208.57143,520.93359 c 0,48.91665 -39.65477,88.57143 -88.57142,88.57143 -48.91665,0 -88.57143,-39.65478 -88.57143,-88.57143 0,-48.91664 39.65478,-88.57142 88.57143,-88.57142 48.91665,0 88.57142,39.65478 88.57142,88.57142 z"
       transform="matrix(0.15705763,0,0,0.15705763,-607.61716,550.54559)" />
    <path
       style="font-style:normal;font-variant:normal;font-weight:normal;font-stretch:normal;letter-spacing:normal;word-spacing:normal;text-anchor:start;fill:#000000;stroke:#000000;stroke-width:0;stroke-linecap:butt;stroke-linejoin:miter;stroke-miterlimit:10.43299961;stroke-opacity:1;stroke-dasharray:none;stroke-dashoffset:0"
       inkscape:connector-curvature="0"
       d="m 539.92016,704.32407 0,-0.0703 0,-0.0703 0,-0.14066 0,-0.0703 0,0 0,-0.0703 0,-0.0703 0,-0.0703 0,-0.0703 0,-0.0703 0,-0.0703 0,-0.0703 0,0 0,-0.0703 0,-0.0703 0,0 0,-0.0703 0,-0.0703 0,-0.0703 -0.0703,-0.0703 0,-0.0703 0,-0.0703 -0.0703,-0.0703 0,0 0,-0.0703 -0.0703,-0.0703 -0.0703,0 0,-0.0703 -0.0703,0 -0.0703,-0.0703 -0.0703,0 0,0 -0.0703,0 0,0 -0.0703,0 0,0 -0.0703,-0.0703 -0.0703,0 0,0 -0.0703,0 -0.0703,0 0,0 -0.0703,0 -0.0703,0 -0.0703,0 -0.0703,0 -0.0703,0 0,0 -0.0703,0 -0.0703,0 -0.0703,0 -0.0703,0 c -4.36022,4.43055 -10.54892,4.43055 -12.79936,4.43055 v 2.18011 c 1.40652,0 5.55577,0 9.21273,-1.75815 v 36.14765 c 0,2.53174 -0.21098,3.37566 -6.54034,3.37566 h -2.25043 v 2.18011 c 2.46141,-0.28131 8.57979,-0.28131 11.39283,-0.28131 2.74273,0 8.8611,0 11.32252,0.28131 v -2.18011 h -2.25044 c -6.32935,0 -6.54033,-0.77359 -6.54033,-3.37566 z"
       id="path3788-1" />
    <path
       style="font-style:normal;font-variant:normal;font-weight:normal;font-stretch:normal;letter-spacing:normal;word-spacing:normal;text-anchor:start;fill:#000000;stroke:#000000;stroke-width:0;stroke-linecap:butt;stroke-linejoin:miter;stroke-miterlimit:10.43299961;stroke-opacity:1;stroke-dasharray:none;stroke-dashoffset:0"
       inkscape:connector-curvature="0"
       d="m 81.088324,529.3964 0,-0.0703 0,-0.0703 0,-0.14065 0,-0.0703 0,0 0,-0.0703 0,-0.0703 0,-0.0703 0,-0.0703 0,-0.0703 0,-0.0703 0,-0.0703 0,0 0,-0.0703 0,-0.0703 0,0 0,-0.0703 0,-0.0703 0,-0.0703 -0.0703,-0.0703 0,-0.0703 0,-0.0703 -0.0703,-0.0703 0,0 0,-0.0703 -0.0703,-0.0703 -0.0703,0 0,-0.0703 -0.0703,0 -0.0703,-0.0703 -0.0703,0 0,0 -0.0703,0 0,0 -0.0703,0 0,0 -0.0703,-0.0703 -0.0703,0 0,0 -0.0703,0 -0.0703,0 0,0 -0.0703,0 -0.0703,0 -0.0703,0 -0.0703,0 -0.0703,0 0,0 -0.0703,0 -0.0703,0 -0.0703,0 -0.0703,0 c -4.36022,4.43055 -10.54892,4.43055 -12.79936,4.43055 v 2.18011 c 1.40652,0 5.55577,0 9.21273,-1.75815 v 36.14765 c 0,2.53174 -0.21098,3.37566 -6.54034,3.37566 h -2.25043 v 2.18011 c 2.46141,-0.28131 8.57979,-0.28131 11.39283,-0.28131 2.74273,0 8.8611,0 11.32252,0.28131 v -2.18011 h -2.25044 c -6.32935,0 -6.54033,-0.77359 -6.54033,-3.37566 z"
       id="path3788-6" />
    <path
       inkscape:connector-curvature="0"
       id="path2985"
       d="m 128.57142,432.36218 0,248.57143 502.85715,0 z"
       style="fill:none;stroke:#000000;stroke-width:2.5;stroke-linecap:butt;stroke-linejoin:miter;stroke-miterlimit:4;stroke-opacity:1;stroke-dasharray:none" />
    <path
       sodipodi:type="arc"
       style="fill:#000000;stroke:#000000;stroke-width:2.5;stroke-miterlimit:4;stroke-dasharray:none;stroke-dashoffset:0"
       id="path3873-9"
       sodipodi:cx="-297.14285"
       sodipodi:cy="520.93359"
       sodipodi:rx="88.571426"
       sodipodi:ry="88.571426"
       d="m -208.57143,520.93359 c 0,48.91665 -39.65477,88.57143 -88.57142,88.57143 -48.91665,0 -88.57143,-39.65478 -88.57143,-88.57143 0,-48.91664 39.65478,-88.57142 88.57143,-88.57142 48.91665,0 88.57142,39.65478 88.57142,88.57142 z"
       transform="matrix(0,0.15705763,-0.15705763,0,210.38802,727.60216)" />
    <path
       sodipodi:type="arc"
       style="fill:#000000;stroke:#000000;stroke-width:2.5;stroke-miterlimit:4;stroke-dasharray:none;stroke-dashoffset:0"
       id="path3873-6"
       sodipodi:cx="-297.14285"
       sodipodi:cy="520.93359"
       sodipodi:rx="88.571426"
       sodipodi:ry="88.571426"
       d="m -208.57143,520.93359 c 0,48.91665 -39.65477,88.57143 -88.57142,88.57143 -48.91665,0 -88.57143,-39.65478 -88.57143,-88.57143 0,-48.91664 39.65478,-88.57142 88.57143,-88.57142 48.91665,0 88.57142,39.65478 88.57142,88.57142 z"
       transform="matrix(0,0.15705763,-0.15705763,0,461.81659,727.60216)" />
    <path
       sodipodi:type="arc"
       style="fill:#000000;stroke:#000000;stroke-width:2.5;stroke-miterlimit:4;stroke-dasharray:none;stroke-dashoffset:0"
       id="path3873-5"
       sodipodi:cx="-297.14285"
       sodipodi:cy="520.93359"
       sodipodi:rx="88.571426"
       sodipodi:ry="88.571426"
       d="m -208.57143,520.93359 c 0,48.91665 -39.65477,88.57143 -88.57142,88.57143 -48.91665,0 -88.57143,-39.65478 -88.57143,-88.57143 0,-48.91664 39.65478,-88.57142 88.57143,-88.57142 48.91665,0 88.57142,39.65478 88.57142,88.57142 z"
       transform="matrix(0,0.15705763,-0.15705763,0,707.53088,727.60216)" />
    <path
       sodipodi:type="arc"
       style="fill:#000000;stroke:#000000;stroke-width:2.5;stroke-miterlimit:4;stroke-dasharray:none;stroke-dashoffset:0"
       id="path3873-8"
       sodipodi:cx="-297.14285"
       sodipodi:cy="520.93359"
       sodipodi:rx="88.571426"
       sodipodi:ry="88.571426"
       d="m -208.57143,520.93359 c 0,48.91665 -39.65477,88.57143 -88.57142,88.57143 -48.91665,0 -88.57143,-39.65478 -88.57143,-88.57143 0,-48.91664 39.65478,-88.57142 88.57143,-88.57142 48.91665,0 88.57142,39.65478 88.57142,88.57142 z"
       transform="matrix(0,0.15705763,-0.15705763,0,210.38802,481.88788)" />
    <path
       style="fill:none;stroke:#000000;stroke-width:2.5;stroke-linecap:butt;stroke-linejoin:miter;stroke-miterlimit:4;stroke-opacity:1;stroke-dasharray:none"
       d="M 126.66574,436.01843 380.95145,678.87557"
       id="path3983"
       inkscape:connector-curvature="0" />
  </g>
</svg>
