<?xml version="1.0" encoding="UTF-8" standalone="no"?>
<!-- Created with Inkscape (http://www.inkscape.org/) -->

<svg
   xmlns:dc="http://purl.org/dc/elements/1.1/"
   xmlns:cc="http://creativecommons.org/ns#"
   xmlns:rdf="http://www.w3.org/1999/02/22-rdf-syntax-ns#"
   xmlns:svg="http://www.w3.org/2000/svg"
   xmlns="http://www.w3.org/2000/svg"
   xmlns:xlink="http://www.w3.org/1999/xlink"
   xmlns:sodipodi="http://sodipodi.sourceforge.net/DTD/sodipodi-0.dtd"
   xmlns:inkscape="http://www.inkscape.org/namespaces/inkscape"
   width="1370.0128"
   height="634.17065"
   id="svg2"
   version="1.1"
   inkscape:version="0.48.1 r9760"
   sodipodi:docname="graphlet.svg"
   inkscape:export-filename="/home/bgauzere/Documents/article_gbr/graphlet.png"
   inkscape:export-xdpi="90"
   inkscape:export-ydpi="90">
  <defs
     id="defs4">
    <inkscape:perspective
       sodipodi:type="inkscape:persp3d"
       inkscape:vp_x="0 : 526.18109 : 1"
       inkscape:vp_y="0 : 1000 : 0"
       inkscape:vp_z="744.09448 : 526.18109 : 1"
       inkscape:persp3d-origin="372.04724 : 350.78739 : 1"
       id="perspective2985" />
  </defs>
  <sodipodi:namedview
     id="base"
     pagecolor="#ffffff"
     bordercolor="#666666"
     borderopacity="1.0"
     inkscape:pageopacity="0.0"
     inkscape:pageshadow="2"
     inkscape:zoom="0.90509668"
     inkscape:cx="849.57281"
     inkscape:cy="467.3337"
     inkscape:document-units="px"
     inkscape:current-layer="layer1"
     showgrid="true"
     inkscape:snap-global="false"
     inkscape:window-width="1918"
     inkscape:window-height="1059"
     inkscape:window-x="0"
     inkscape:window-y="19"
     inkscape:window-maximized="1"
     fit-margin-top="0"
     fit-margin-left="0"
     fit-margin-right="0"
     fit-margin-bottom="0"
     showguides="true"
     inkscape:guide-bbox="true">
    <inkscape:grid
       type="xygrid"
       id="grid3138"
       empspacing="5"
       visible="true"
       enabled="true"
       snapvisiblegridlinesonly="true" />
    <sodipodi:guide
       orientation="0,1"
       position="1087.8086,539.055"
       id="guide3183" />
    <sodipodi:guide
       orientation="1,0"
       position="-1.1048543,381.17475"
       id="guide3812" />
  </sodipodi:namedview>
  <metadata
     id="metadata7">
    <rdf:RDF>
      <cc:Work
         rdf:about="">
        <dc:format>image/svg+xml</dc:format>
        <dc:type
           rdf:resource="http://purl.org/dc/dcmitype/StillImage" />
        <dc:title />
      </cc:Work>
    </rdf:RDF>
  </metadata>
  <g
     inkscape:label="Calque 1"
     inkscape:groupmode="layer"
     id="layer1"
     transform="translate(-19.726676,-66.894618)">
    <g
       id="g4097">
      <text
         sodipodi:linespacing="125%"
         id="text3972-8"
         y="689.14203"
         x="998.7124"
         style="font-size:40px;font-style:normal;font-weight:normal;line-height:125%;letter-spacing:0px;word-spacing:0px;fill:#000000;fill-opacity:1;stroke:none;font-family:Sans"
         xml:space="preserve"><tspan
           y="689.14203"
           x="998.7124"
           id="tspan3974-4"
           sodipodi:role="line">G<tspan
   id="tspan4220"
   style="font-size:65.00091553%;baseline-shift:sub">13</tspan></tspan></text>
      <g
         id="g3918">
        <path
           style="fill:none;stroke:#000000;stroke-width:1px;stroke-linecap:butt;stroke-linejoin:miter;stroke-opacity:1"
           d="m 880.74994,641.86218 51,-20 -41.75,-41.5"
           id="path4270"
           inkscape:connector-curvature="0" />
        <path
           style="fill:none;stroke:#000000;stroke-width:1px;stroke-linecap:butt;stroke-linejoin:miter;stroke-opacity:1"
           d="m 931.99994,621.36218 35,-40"
           id="path4266"
           inkscape:connector-curvature="0" />
        <path
           style="fill:none;stroke:#000000;stroke-width:1px;stroke-linecap:butt;stroke-linejoin:miter;stroke-opacity:1"
           d="m 982.49994,644.61218 -50.5,-23 0.25,56.25"
           id="path4268"
           inkscape:connector-curvature="0" />
        <path
           sodipodi:type="arc"
           style="fill:#ffffff;stroke:#000000"
           id="path4438-74-5"
           sodipodi:cx="193.75"
           sodipodi:cy="292.36218"
           sodipodi:rx="10"
           sodipodi:ry="10"
           d="m 203.75,292.36218 a 10,10 0 1 1 -20,0 10,10 0 1 1 20,0 z"
           transform="matrix(1.2023809,0,0,1.2023809,698.83002,269.96864)" />
        <path
           d="m 66.428573,76.290756 a 8.2142859,8.2142859 0 1 1 -16.428572,0 8.2142859,8.2142859 0 1 1 16.428572,0 z"
           sodipodi:ry="8.2142859"
           sodipodi:rx="8.2142859"
           sodipodi:cy="76.290756"
           sodipodi:cx="58.214287"
           id="use3313-09"
           style="fill:#000000"
           sodipodi:type="arc"
           transform="translate(822.35708,564.85714)" />
        <use
           x="0"
           y="0"
           xlink:href="#use3313-09"
           id="use3315-63"
           transform="translate(10.000003,-59.999999)"
           width="744.09448"
           height="1052.3622" />
        <use
           x="0"
           y="0"
           xlink:href="#use3315-63"
           id="use3317-8"
           transform="translate(41.214282,40.214288)"
           width="744.09448"
           height="1052.3622" />
        <path
           d="m 66.428573,76.290756 a 8.2142859,8.2142859 0 1 1 -16.428572,0 8.2142859,8.2142859 0 1 1 16.428572,0 z"
           sodipodi:ry="8.2142859"
           sodipodi:rx="8.2142859"
           sodipodi:cy="76.290756"
           sodipodi:cx="58.214287"
           id="use3325-56"
           style="fill:#000000"
           sodipodi:type="arc"
           transform="translate(873.57137,601.5)" />
        <use
           x="0"
           y="0"
           xlink:href="#use3325-56"
           id="use3327-1"
           transform="translate(50.571427,-33.428574)"
           width="744.09448"
           height="1052.3622" />
        <use
           x="0"
           y="0"
           xlink:href="#use3313-09"
           id="use3315-63-1"
           transform="translate(86.785717,-61.785714)"
           width="744.09448"
           height="1052.3622" />
      </g>
    </g>
    <g
       id="g3943">
      <path
         transform="translate(135.1424,25.530196)"
         sodipodi:type="arc"
         style="fill:#000000"
         id="use3146"
         sodipodi:cx="58.214287"
         sodipodi:cy="76.290756"
         sodipodi:rx="8.2142859"
         sodipodi:ry="8.2142859"
         d="m 66.428573,76.290756 a 8.2142859,8.2142859 0 1 1 -16.428572,0 8.2142859,8.2142859 0 1 1 16.428572,0 z" />
      <text
         sodipodi:linespacing="125%"
         id="text3880"
         y="165.04398"
         x="169.31801"
         style="font-size:40px;font-style:normal;font-weight:normal;line-height:125%;letter-spacing:0px;word-spacing:0px;fill:#000000;fill-opacity:1;stroke:none;font-family:Sans"
         xml:space="preserve"><tspan
           y="165.04398"
           x="169.31801"
           id="tspan3882"
           sodipodi:role="line">G<tspan
   id="tspan3884"
   style="font-size:65.00091553%;baseline-shift:sub">0</tspan></tspan></text>
    </g>
    <g
       id="g3949">
      <g
         id="g3814">
        <path
           transform="translate(543.79673,25.857146)"
           sodipodi:type="arc"
           style="fill:#000000"
           id="use3134"
           sodipodi:cx="58.214287"
           sodipodi:cy="76.290756"
           sodipodi:rx="8.2142859"
           sodipodi:ry="8.2142859"
           d="m 66.428573,76.290756 a 8.2142859,8.2142859 0 1 1 -16.428572,0 8.2142859,8.2142859 0 1 1 16.428572,0 z" />
        <path
           transform="translate(494.08245,25.571434)"
           sodipodi:type="arc"
           style="fill:#000000"
           id="use3136"
           sodipodi:cx="58.214287"
           sodipodi:cy="76.290756"
           sodipodi:rx="8.2142859"
           sodipodi:ry="8.2142859"
           d="m 66.428573,76.290756 a 8.2142859,8.2142859 0 1 1 -16.428572,0 8.2142859,8.2142859 0 1 1 16.428572,0 z" />
        <path
           style="fill:#000000;stroke:#000000;stroke-width:1px;stroke-linecap:butt;stroke-linejoin:miter;stroke-opacity:1"
           d="m 552.29674,101.64791 50,0"
           id="path3150"
           inkscape:connector-curvature="0" />
      </g>
      <text
         sodipodi:linespacing="125%"
         id="text3886"
         y="165.41214"
         x="553.4516"
         style="font-size:40px;font-style:normal;font-weight:normal;line-height:125%;letter-spacing:0px;word-spacing:0px;fill:#000000;fill-opacity:1;stroke:none;font-family:Sans"
         xml:space="preserve"><tspan
           y="165.41214"
           x="553.4516"
           id="tspan3888"
           sodipodi:role="line">G<tspan
   id="tspan3890"
   style="font-size:65.00091553%;baseline-shift:sub">1</tspan></tspan></text>
    </g>
    <g
       id="g3968">
      <g
         id="g3825">
        <path
           d="m 66.428573,76.290756 a 8.2142859,8.2142859 0 1 1 -16.428572,0 8.2142859,8.2142859 0 1 1 16.428572,0 z"
           sodipodi:ry="8.2142859"
           sodipodi:rx="8.2142859"
           sodipodi:cy="76.290756"
           sodipodi:cx="58.214287"
           id="use3166"
           style="fill:#000000"
           sodipodi:type="arc"
           transform="translate(1284.9638,25.530197)" />
        <use
           x="0"
           y="0"
           xlink:href="#use3166"
           id="use3168"
           transform="translate(-52.595225,0)"
           width="744.09448"
           height="1052.3622"
           style="fill:#000000" />
        <use
           x="0"
           y="0"
           xlink:href="#use3168"
           id="use3170"
           transform="translate(-52.595239,0)"
           width="744.09448"
           height="1052.3622"
           style="fill:#000000" />
        <use
           x="0"
           y="0"
           xlink:href="#use3170"
           id="use3172"
           transform="translate(-52.595238,0)"
           width="744.09448"
           height="1052.3622" />
        <path
           style="fill:none;stroke:#000000;stroke-width:1px;stroke-linecap:butt;stroke-linejoin:miter;stroke-opacity:1"
           d="m 1185.3924,100.9281 55,0 50,0 55,0"
           id="path3176"
           inkscape:connector-curvature="0" />
      </g>
      <text
         inkscape:transform-center-y="-346"
         inkscape:transform-center-x="58"
         sodipodi:linespacing="125%"
         id="text3886-3"
         y="165.04398"
         x="1240.4243"
         style="font-size:40px;font-style:normal;font-weight:normal;line-height:125%;letter-spacing:0px;word-spacing:0px;fill:#000000;fill-opacity:1;stroke:none;font-family:Sans"
         xml:space="preserve"><tspan
           y="165.04398"
           x="1240.4243"
           id="tspan3888-9"
           sodipodi:role="line">G<tspan
   id="tspan3916"
   style="font-size:65.00091553%;baseline-shift:sub">3</tspan></tspan></text>
    </g>
    <g
       id="g4113">
      <g
         id="g3930">
        <path
           sodipodi:type="arc"
           style="fill:#ffffff;stroke:#000000"
           id="path4438-43"
           sodipodi:cx="193.75"
           sodipodi:cy="292.36218"
           sodipodi:rx="10"
           sodipodi:ry="10"
           d="m 203.75,292.36218 a 10,10 0 1 1 -20,0 10,10 0 1 1 20,0 z"
           transform="matrix(1.2023809,0,0,1.2023809,310.96304,277.2264)" />
        <path
           sodipodi:type="arc"
           style="fill:#ffffff;stroke:#000000"
           id="path4438-74"
           sodipodi:cx="193.75"
           sodipodi:cy="292.36218"
           sodipodi:rx="10"
           sodipodi:ry="10"
           d="m 203.75,292.36218 a 10,10 0 1 1 -20,0 10,10 0 1 1 20,0 z"
           transform="matrix(1.2023809,0,0,1.2023809,373.71877,276.96123)" />
        <path
           transform="translate(548.4192,552.2857)"
           sodipodi:type="arc"
           style="fill:#000000"
           id="use3154-2"
           sodipodi:cx="58.214287"
           sodipodi:cy="76.290756"
           sodipodi:rx="8.2142859"
           sodipodi:ry="8.2142859"
           d="m 66.428573,76.290756 a 8.2142859,8.2142859 0 1 1 -16.428572,0 8.2142859,8.2142859 0 1 1 16.428572,0 z" />
        <path
           d="m 66.428573,76.290756 a 8.2142859,8.2142859 0 1 1 -16.428572,0 8.2142859,8.2142859 0 1 1 16.428572,0 z"
           sodipodi:ry="8.2142859"
           sodipodi:rx="8.2142859"
           sodipodi:cy="76.290756"
           sodipodi:cx="58.214287"
           id="use3156-6"
           style="fill:#000000"
           sodipodi:type="arc"
           transform="translate(610.52635,587.07142)" />
        <use
           x="0"
           y="0"
           xlink:href="#use3156-6"
           id="use3158-4"
           transform="translate(-1.2e-6,-69.571427)"
           width="744.09448"
           height="1052.3622" />
        <path
           style="fill:none;stroke:#000000;stroke-width:1px;stroke-linecap:butt;stroke-linejoin:miter;stroke-opacity:1"
           d="m 667.68705,593.57646 c -60,35 -60,35 -60,35 l 60,35"
           id="path3160-9"
           inkscape:connector-curvature="0" />
        <path
           style="fill:none;stroke:#000000;stroke-width:1px;stroke-linecap:butt;stroke-linejoin:miter;stroke-opacity:1"
           d="m 543.07993,628.57646 65,0"
           id="path3180-0"
           inkscape:connector-curvature="0" />
        <path
           transform="matrix(-0.99727139,0,0,1,601.9435,552.2857)"
           sodipodi:type="arc"
           style="fill:#000000"
           id="use3154-2-2"
           sodipodi:cx="58.214287"
           sodipodi:cy="76.290756"
           sodipodi:rx="8.2142859"
           sodipodi:ry="8.2142859"
           d="m 66.428573,76.290756 a 8.2142859,8.2142859 0 1 1 -16.428572,0 8.2142859,8.2142859 0 1 1 16.428572,0 z" />
        <path
           d="m 66.428573,76.290756 a 8.2142859,8.2142859 0 1 1 -16.428572,0 8.2142859,8.2142859 0 1 1 16.428572,0 z"
           sodipodi:ry="8.2142859"
           sodipodi:rx="8.2142859"
           sodipodi:cy="76.290756"
           sodipodi:cx="58.214287"
           id="use3156-6-2"
           style="fill:#000000"
           sodipodi:type="arc"
           transform="matrix(-0.99727139,0,0,1,540.00575,587.07142)" />
        <use
           x="0"
           y="0"
           xlink:href="#use3156-6-2"
           id="use3158-4-2"
           transform="translate(1.1967256e-6,-69.571427)"
           width="744.09448"
           height="1052.3622" />
        <path
           style="fill:none;stroke:#000000;stroke-width:0.99863476px;stroke-linecap:butt;stroke-linejoin:miter;stroke-opacity:1"
           d="m 483.00109,593.57646 c 59.83628,35 59.83628,35 59.83628,35 l -59.83628,35"
           id="path3160-9-6"
           inkscape:connector-curvature="0" />
      </g>
      <text
         sodipodi:linespacing="125%"
         id="text3960"
         y="689.51019"
         x="543.47852"
         style="font-size:40px;font-style:normal;font-weight:normal;line-height:125%;letter-spacing:0px;word-spacing:0px;fill:#000000;fill-opacity:1;stroke:none;font-family:Sans"
         xml:space="preserve"><tspan
           y="689.51019"
           x="543.47852"
           id="tspan3962"
           sodipodi:role="line">G<tspan
   id="tspan3964"
   style="font-size:65.00091553%;baseline-shift:sub">12</tspan></tspan></text>
    </g>
    <g
       id="g3958">
      <g
         id="g3819">
        <path
           transform="translate(838.35668,26.071426)"
           sodipodi:type="arc"
           style="fill:#000000"
           id="use3132"
           sodipodi:cx="58.214287"
           sodipodi:cy="76.290756"
           sodipodi:rx="8.2142859"
           sodipodi:ry="8.2142859"
           d="m 66.428573,76.290756 a 8.2142859,8.2142859 0 1 1 -16.428572,0 8.2142859,8.2142859 0 1 1 16.428572,0 z" />
        <path
           transform="translate(938.49954,26.071426)"
           sodipodi:type="arc"
           style="fill:#000000"
           id="use3140"
           sodipodi:cx="58.214287"
           sodipodi:cy="76.290756"
           sodipodi:rx="8.2142859"
           sodipodi:ry="8.2142859"
           d="m 66.428573,76.290756 a 8.2142859,8.2142859 0 1 1 -16.428572,0 8.2142859,8.2142859 0 1 1 16.428572,0 z" />
        <path
           d="m 66.428573,76.290756 a 8.2142859,8.2142859 0 1 1 -16.428572,0 8.2142859,8.2142859 0 1 1 16.428572,0 z"
           sodipodi:ry="8.2142859"
           sodipodi:rx="8.2142859"
           sodipodi:cy="76.290756"
           sodipodi:cx="58.214287"
           id="use3142"
           style="fill:#000000"
           sodipodi:type="arc"
           transform="translate(889.07097,25.35714)" />
        <path
           style="fill:#000000;stroke:#000000;stroke-width:1px;stroke-linecap:butt;stroke-linejoin:miter;stroke-opacity:1"
           d="m 896.57098,101.29076 50,0 50,0"
           id="path3152"
           inkscape:connector-curvature="0" />
      </g>
      <text
         sodipodi:linespacing="125%"
         id="text3966"
         y="165.41214"
         x="923.04169"
         style="font-size:40px;font-style:normal;font-weight:normal;line-height:125%;letter-spacing:0px;word-spacing:0px;fill:#000000;fill-opacity:1;stroke:none;font-family:Sans"
         xml:space="preserve"><tspan
           y="165.41214"
           x="923.04169"
           id="tspan3968"
           sodipodi:role="line">G<tspan
   id="tspan3970"
   style="font-size:65.00091553%;baseline-shift:sub">2</tspan></tspan></text>
    </g>
    <text
       xml:space="preserve"
       style="font-size:40px;font-style:normal;font-weight:normal;line-height:125%;letter-spacing:0px;word-spacing:0px;fill:#000000;fill-opacity:1;stroke:none;font-family:Sans"
       x="407.07251"
       y="-69.134422"
       id="text3592-6"
       sodipodi:linespacing="125%"><tspan
         sodipodi:role="line"
         x="407.07251"
         y="-69.134422"
         id="tspan3675" /></text>
    <g
       id="g4007">
      <g
         id="g3852">
        <path
           transform="translate(634.70224,183.72645)"
           sodipodi:type="arc"
           style="fill:#000000"
           id="use3202-7"
           sodipodi:cx="58.214287"
           sodipodi:cy="76.290756"
           sodipodi:rx="8.2142859"
           sodipodi:ry="8.2142859"
           d="m 66.428573,76.290756 a 8.2142859,8.2142859 0 1 1 -16.428572,0 8.2142859,8.2142859 0 1 1 16.428572,0 z" />
        <use
           x="0"
           y="0"
           xlink:href="#use3202-7"
           id="use3204-8"
           transform="translate(-65.000001,-1.3122587e-8)"
           width="744.09448"
           height="1052.3622" />
        <use
           x="0"
           y="0"
           xlink:href="#use3204-8"
           id="use3206-6"
           transform="translate(-64.999987,4.5800789e-8)"
           width="744.09448"
           height="1052.3622" />
        <use
           x="0"
           y="0"
           xlink:href="#use3206-6"
           id="use3208-8"
           transform="translate(-65.000025,0)"
           width="744.09448"
           height="1052.3622" />
        <use
           x="0"
           y="0"
           xlink:href="#use3208-8"
           id="use3210-8"
           transform="translate(-64.999979,0)"
           width="744.09448"
           height="1052.3622" />
        <path
           style="fill:none;stroke:#000000;stroke-width:1px;stroke-linecap:butt;stroke-linejoin:miter;stroke-opacity:1"
           d="m 432.91653,260.73149 65,0 65,0 65,0 65,0"
           id="path3212-4"
           inkscape:connector-curvature="0" />
        <path
           transform="translate(699.91653,184.44073)"
           sodipodi:type="arc"
           style="fill:#000000"
           id="use3391"
           sodipodi:cx="58.214287"
           sodipodi:cy="76.290756"
           sodipodi:rx="8.2142859"
           sodipodi:ry="8.2142859"
           d="m 66.428573,76.290756 a 8.2142859,8.2142859 0 1 1 -16.428572,0 8.2142859,8.2142859 0 1 1 16.428572,0 z" />
        <path
           style="fill:none;stroke:#000000;stroke-width:1px;stroke-linecap:butt;stroke-linejoin:miter;stroke-opacity:1"
           d="m 692.91653,260.73149 65,0"
           id="path3393"
           inkscape:connector-curvature="0" />
      </g>
      <text
         sodipodi:linespacing="125%"
         id="text3936"
         y="319.7662"
         x="571.51038"
         style="font-size:40px;font-style:normal;font-weight:normal;line-height:125%;letter-spacing:0px;word-spacing:0px;fill:#000000;fill-opacity:1;stroke:none;font-family:Sans"
         xml:space="preserve"><tspan
           y="319.7662"
           x="571.51038"
           id="tspan3938"
           sodipodi:role="line">G<tspan
   id="tspan5511"
   style="font-size:65.00091553%;baseline-shift:sub">5</tspan></tspan></text>
    </g>
    <g
       id="g4021">
      <g
         id="g3862">
        <path
           transform="translate(246.82798,185.18524)"
           sodipodi:type="arc"
           style="fill:#000000"
           id="use3202"
           sodipodi:cx="58.214287"
           sodipodi:cy="76.290756"
           sodipodi:rx="8.2142859"
           sodipodi:ry="8.2142859"
           d="m 66.428573,76.290756 a 8.2142859,8.2142859 0 1 1 -16.428572,0 8.2142859,8.2142859 0 1 1 16.428572,0 z" />
        <use
           x="0"
           y="0"
           xlink:href="#use3202"
           id="use3204"
           transform="translate(-65.000001,-1.3122587e-8)"
           width="744.09448"
           height="1052.3622" />
        <use
           x="0"
           y="0"
           xlink:href="#use3204"
           id="use3206"
           transform="translate(-64.999987,4.5800789e-8)"
           width="744.09448"
           height="1052.3622" />
        <use
           x="0"
           y="0"
           xlink:href="#use3206"
           id="use3208"
           transform="translate(-65.000025,0)"
           width="744.09448"
           height="1052.3622" />
        <use
           x="0"
           y="0"
           xlink:href="#use3208"
           id="use3210"
           transform="translate(-64.999979,0)"
           width="744.09448"
           height="1052.3622" />
        <path
           style="fill:none;stroke:#000000;stroke-width:1px;stroke-linecap:butt;stroke-linejoin:miter;stroke-opacity:1"
           d="m 45.04227,262.19028 65,0 65,0 65,0 65,0"
           id="path3212"
           inkscape:connector-curvature="0" />
      </g>
      <text
         sodipodi:linespacing="125%"
         id="text3924"
         y="320.4249"
         x="151.27655"
         style="font-size:40px;font-style:normal;font-weight:normal;line-height:125%;letter-spacing:0px;word-spacing:0px;fill:#000000;fill-opacity:1;stroke:none;font-family:Sans"
         xml:space="preserve"><tspan
           y="320.4249"
           x="151.27655"
           id="tspan3926"
           sodipodi:role="line">G<tspan
   id="tspan5380"
   style="font-size:65.00091553%;baseline-shift:sub">4</tspan></tspan></text>
    </g>
    <g
       id="g3979">
      <g
         id="g3832">
        <path
           sodipodi:type="arc"
           style="fill:#ffffff;stroke:#000000"
           id="path4438-4"
           sodipodi:cx="193.75"
           sodipodi:cy="292.36218"
           sodipodi:rx="10"
           sodipodi:ry="10"
           d="m 203.75,292.36218 a 10,10 0 1 1 -20,0 10,10 0 1 1 20,0 z"
           transform="matrix(1.2023809,0,0,1.2023809,1065.0227,-73.443738)" />
        <path
           transform="translate(1240.1431,201.81118)"
           sodipodi:type="arc"
           style="fill:#000000"
           id="use3621"
           sodipodi:cx="58.214287"
           sodipodi:cy="76.290756"
           sodipodi:rx="8.2142859"
           sodipodi:ry="8.2142859"
           d="m 66.428573,76.290756 a 8.2142859,8.2142859 0 1 1 -16.428572,0 8.2142859,8.2142859 0 1 1 16.428572,0 z" />
        <path
           d="m 66.428573,76.290756 a 8.2142859,8.2142859 0 1 1 -16.428572,0 8.2142859,8.2142859 0 1 1 16.428572,0 z"
           sodipodi:ry="8.2142859"
           sodipodi:rx="8.2142859"
           sodipodi:cy="76.290756"
           sodipodi:cx="58.214287"
           id="use3625"
           style="fill:#000000"
           sodipodi:type="arc"
           transform="translate(1300.5479,236.59689)" />
        <path
           transform="translate(1300.5479,167.02546)"
           sodipodi:type="arc"
           style="fill:#000000"
           id="use3627"
           sodipodi:cx="58.214287"
           sodipodi:cy="76.290756"
           sodipodi:rx="8.2142859"
           sodipodi:ry="8.2142859"
           d="m 66.428573,76.290756 a 8.2142859,8.2142859 0 1 1 -16.428572,0 8.2142859,8.2142859 0 1 1 16.428572,0 z" />
        <path
           inkscape:connector-curvature="0"
           id="path3629"
           d="m 1358.5598,243.10193 c -60,35 -60,35 -60,35 l 60,35"
           style="fill:none;stroke:#000000;stroke-width:1px;stroke-linecap:butt;stroke-linejoin:miter;stroke-opacity:1" />
        <path
           transform="translate(1179.7383,201.81117)"
           sodipodi:type="arc"
           style="fill:#000000"
           id="use3631"
           sodipodi:cx="58.214287"
           sodipodi:cy="76.290756"
           sodipodi:rx="8.2142859"
           sodipodi:ry="8.2142859"
           d="m 66.428573,76.290756 a 8.2142859,8.2142859 0 1 1 -16.428572,0 8.2142859,8.2142859 0 1 1 16.428572,0 z" />
        <path
           inkscape:connector-curvature="0"
           id="path3633"
           d="m 1235.655,278.10193 65,0"
           style="fill:none;stroke:#000000;stroke-width:1px;stroke-linecap:butt;stroke-linejoin:miter;stroke-opacity:1" />
        <path
           transform="translate(1119.3336,201.81117)"
           sodipodi:type="arc"
           style="fill:#000000"
           id="use3635"
           sodipodi:cx="58.214287"
           sodipodi:cy="76.290756"
           sodipodi:rx="8.2142859"
           sodipodi:ry="8.2142859"
           d="m 66.428573,76.290756 a 8.2142859,8.2142859 0 1 1 -16.428572,0 8.2142859,8.2142859 0 1 1 16.428572,0 z" />
        <path
           inkscape:connector-curvature="0"
           id="path3637"
           d="m 1177.7503,278.10193 c 5,0 60,0 60,0"
           style="fill:none;stroke:#000000;stroke-width:1px;stroke-linecap:butt;stroke-linejoin:miter;stroke-opacity:1" />
      </g>
      <text
         sodipodi:linespacing="125%"
         id="text3930"
         y="337.05084"
         x="1244.0719"
         style="font-size:40px;font-style:normal;font-weight:normal;line-height:125%;letter-spacing:0px;word-spacing:0px;fill:#000000;fill-opacity:1;stroke:none;font-family:Sans"
         xml:space="preserve"><tspan
           y="337.05084"
           x="1244.0719"
           id="tspan3932"
           sodipodi:role="line">G<tspan
   id="tspan5422"
   style="font-size:65.00091553%;baseline-shift:sub">7</tspan></tspan></text>
    </g>
    <g
       id="g4033">
      <g
         id="g3870">
        <path
           sodipodi:type="arc"
           style="fill:#ffffff;stroke:#000000"
           id="path4438-5"
           sodipodi:cx="193.75"
           sodipodi:cy="292.36218"
           sodipodi:rx="10"
           sodipodi:ry="10"
           d="m 203.75,292.36218 a 10,10 0 1 1 -20,0 10,10 0 1 1 20,0 z"
           transform="matrix(1.2023809,0,0,1.2023809,-26.1013,111.34178)" />
        <path
           d="m 66.428573,76.290756 a 8.2142859,8.2142859 0 1 1 -16.428572,0 8.2142859,8.2142859 0 1 1 16.428572,0 z"
           sodipodi:ry="8.2142859"
           sodipodi:rx="8.2142859"
           sodipodi:cy="76.290756"
           sodipodi:cx="58.214287"
           id="use3313"
           style="fill:#000000"
           sodipodi:type="arc"
           transform="translate(92.1745,386.56513)" />
        <use
           x="0"
           y="0"
           xlink:href="#use3313"
           id="use3315"
           transform="translate(56.428572,-56.428572)"
           width="744.09448"
           height="1052.3622" />
        <use
           x="0"
           y="0"
           xlink:href="#use3315"
           id="use3317"
           transform="translate(-4e-6,56.428572)"
           width="744.09448"
           height="1052.3622" />
        <path
           d="m 66.428573,76.290756 a 8.2142859,8.2142859 0 1 1 -16.428572,0 8.2142859,8.2142859 0 1 1 16.428572,0 z"
           sodipodi:ry="8.2142859"
           sodipodi:rx="8.2142859"
           sodipodi:cy="76.290756"
           sodipodi:cx="58.214287"
           id="use3325"
           style="fill:#000000"
           sodipodi:type="arc"
           transform="translate(148.6031,442.9937)" />
        <use
           x="0"
           y="0"
           xlink:href="#use3325"
           id="use3327"
           transform="translate(56.428572,-56.428571)"
           width="744.09448"
           height="1052.3622" />
        <path
           style="fill:none;stroke:#000000;stroke-width:1px;stroke-linecap:butt;stroke-linejoin:miter;stroke-opacity:1"
           d="m 206.6031,402.85589 0,60 60,0"
           id="path3333"
           inkscape:connector-curvature="0" />
        <path
           style="fill:none;stroke:#000000;stroke-width:1px;stroke-linecap:butt;stroke-linejoin:miter;stroke-opacity:1"
           d="m 206.6031,462.85589 0,60"
           id="path3335"
           inkscape:connector-curvature="0" />
        <path
           style="fill:none;stroke:#000000;stroke-width:1px;stroke-linecap:butt;stroke-linejoin:miter;stroke-opacity:1"
           d="m 206.6031,462.85589 -55,0"
           id="path3337"
           inkscape:connector-curvature="0" />
      </g>
      <text
         sodipodi:linespacing="125%"
         id="text3972"
         y="522.17297"
         x="231.5298"
         style="font-size:40px;font-style:normal;font-weight:normal;line-height:125%;letter-spacing:0px;word-spacing:0px;fill:#000000;fill-opacity:1;stroke:none;font-family:Sans"
         xml:space="preserve"><tspan
           y="522.17297"
           x="231.5298"
           id="tspan3974"
           sodipodi:role="line">G<tspan
   id="tspan5467"
   style="font-size:65.00091553%;baseline-shift:sub">8</tspan></tspan></text>
    </g>
    <g
       id="g3994">
      <g
         id="g3843">
        <path
           sodipodi:type="arc"
           style="fill:#ffffff;stroke:#000000"
           id="path4438"
           sodipodi:cx="193.75"
           sodipodi:cy="292.36218"
           sodipodi:rx="10"
           sodipodi:ry="10"
           d="m 203.75,292.36218 a 10,10 0 1 1 -20,0 10,10 0 1 1 20,0 z"
           transform="matrix(1.2023809,0,0,1.2023809,717.23892,-78.271525)" />
        <path
           transform="translate(891.96762,196.82499)"
           sodipodi:type="arc"
           style="fill:#000000"
           id="use3154"
           sodipodi:cx="58.214287"
           sodipodi:cy="76.290756"
           sodipodi:rx="8.2142859"
           sodipodi:ry="8.2142859"
           d="m 66.428573,76.290756 a 8.2142859,8.2142859 0 1 1 -16.428572,0 8.2142859,8.2142859 0 1 1 16.428572,0 z" />
        <path
           d="m 66.428573,76.290756 a 8.2142859,8.2142859 0 1 1 -16.428572,0 8.2142859,8.2142859 0 1 1 16.428572,0 z"
           sodipodi:ry="8.2142859"
           sodipodi:rx="8.2142859"
           sodipodi:cy="76.290756"
           sodipodi:cx="58.214287"
           id="use3156"
           style="fill:#000000"
           sodipodi:type="arc"
           transform="translate(954.07477,231.61069)" />
        <use
           x="0"
           y="0"
           xlink:href="#use3156"
           id="use3158"
           transform="translate(-1.2e-6,-69.571427)"
           width="744.09448"
           height="1052.3622" />
        <path
           style="fill:none;stroke:#000000;stroke-width:1px;stroke-linecap:butt;stroke-linejoin:miter;stroke-opacity:1"
           d="m 1011.2355,238.11573 c -60.00003,35 -60.00003,35 -60.00003,35 l 60.00003,35"
           id="path3160"
           inkscape:connector-curvature="0" />
        <path
           transform="translate(829.86049,196.82498)"
           sodipodi:type="arc"
           style="fill:#000000"
           id="use3178"
           sodipodi:cx="58.214287"
           sodipodi:cy="76.290756"
           sodipodi:rx="8.2142859"
           sodipodi:ry="8.2142859"
           d="m 66.428573,76.290756 a 8.2142859,8.2142859 0 1 1 -16.428572,0 8.2142859,8.2142859 0 1 1 16.428572,0 z" />
        <path
           style="fill:none;stroke:#000000;stroke-width:1px;stroke-linecap:butt;stroke-linejoin:miter;stroke-opacity:1"
           d="m 886.62835,273.11573 65,0"
           id="path3180"
           inkscape:connector-curvature="0" />
      </g>
      <text
         sodipodi:linespacing="125%"
         id="text3918"
         y="332.4328"
         x="926.00995"
         style="font-size:40px;font-style:normal;font-weight:normal;line-height:125%;letter-spacing:0px;word-spacing:0px;fill:#000000;fill-opacity:1;stroke:none;font-family:Sans"
         xml:space="preserve"><tspan
           y="332.4328"
           x="926.00995"
           id="tspan3920"
           sodipodi:role="line">G<tspan
   id="tspan5343"
   style="font-size:65.00091553%;baseline-shift:sub">6</tspan></tspan></text>
    </g>
    <g
       id="g4048">
      <g
         id="g3881">
        <path
           sodipodi:type="arc"
           style="fill:#ffffff;stroke:#000000"
           id="path4438-7"
           sodipodi:cx="193.75"
           sodipodi:cy="292.36218"
           sodipodi:rx="10"
           sodipodi:ry="10"
           d="m 203.75,292.36218 a 10,10 0 1 1 -20,0 10,10 0 1 1 20,0 z"
           transform="matrix(1.2023809,0,0,1.2023809,342.02191,103.8302)" />
        <path
           d="m 66.428573,76.290756 a 8.2142859,8.2142859 0 1 1 -16.428572,0 8.2142859,8.2142859 0 1 1 16.428572,0 z"
           sodipodi:ry="8.2142859"
           sodipodi:rx="8.2142859"
           sodipodi:cy="76.290756"
           sodipodi:cx="58.214287"
           id="use3202-1"
           style="fill:#000000"
           sodipodi:type="arc"
           transform="translate(646.78525,378.95658)" />
        <use
           x="0"
           y="0"
           xlink:href="#use3202-1"
           id="use3204-4"
           transform="translate(-65.000001,-1.3122587e-8)"
           width="744.09448"
           height="1052.3622" />
        <use
           x="0"
           y="0"
           xlink:href="#use3204-4"
           id="use3206-9"
           transform="translate(-64.999987,4.5800789e-8)"
           width="744.09448"
           height="1052.3622" />
        <use
           x="0"
           y="0"
           xlink:href="#use3206-9"
           id="use3208-2"
           transform="translate(-65.000025,0)"
           width="744.09448"
           height="1052.3622" />
        <use
           x="0"
           y="0"
           xlink:href="#use3208-2"
           id="use3210-0"
           transform="translate(-64.999979,0)"
           width="744.09448"
           height="1052.3622" />
        <path
           style="fill:none;stroke:#000000;stroke-width:1px;stroke-linecap:butt;stroke-linejoin:miter;stroke-opacity:1"
           d="m 444.99954,455.96162 65,0 65,0 65,0 65,0"
           id="path3212-6"
           inkscape:connector-curvature="0" />
        <path
           transform="translate(516.78525,322.88515)"
           sodipodi:type="arc"
           style="fill:#000000"
           id="use3146-8"
           sodipodi:cx="58.214287"
           sodipodi:cy="76.290756"
           sodipodi:rx="8.2142859"
           sodipodi:ry="8.2142859"
           d="m 66.428573,76.290756 a 8.2142859,8.2142859 0 1 1 -16.428572,0 8.2142859,8.2142859 0 1 1 16.428572,0 z" />
        <path
           style="fill:none;stroke:#000000;stroke-width:1px;stroke-linecap:butt;stroke-linejoin:miter;stroke-opacity:1"
           d="m 574.99954,400.96162 0,55"
           id="path3449"
           inkscape:connector-curvature="0" />
      </g>
      <text
         sodipodi:linespacing="125%"
         id="text3942"
         y="514.97217"
         x="551.01166"
         style="font-size:40px;font-style:normal;font-weight:normal;line-height:125%;letter-spacing:0px;word-spacing:0px;fill:#000000;fill-opacity:1;stroke:none;font-family:Sans"
         xml:space="preserve"><tspan
           y="514.97217"
           x="551.01166"
           id="tspan3944"
           sodipodi:role="line">G<tspan
   id="tspan3946"
   style="font-size:65.00091553%;baseline-shift:sub">9</tspan></tspan></text>
    </g>
    <g
       id="g4063">
      <g
         id="g3892">
        <path
           sodipodi:type="arc"
           style="fill:#ffffff;stroke:#000000"
           id="path4438-2"
           sodipodi:cx="193.75"
           sodipodi:cy="292.36218"
           sodipodi:rx="10"
           sodipodi:ry="10"
           d="m 203.75,292.36218 a 10,10 0 1 1 -20,0 10,10 0 1 1 20,0 z"
           transform="matrix(1.2023809,0,0,1.2023809,773.6012,95.625925)" />
        <path
           d="m 66.428573,76.290756 a 8.2142859,8.2142859 0 1 1 -16.428572,0 8.2142859,8.2142859 0 1 1 16.428572,0 z"
           sodipodi:ry="8.2142859"
           sodipodi:rx="8.2142859"
           sodipodi:cy="76.290756"
           sodipodi:cx="58.214287"
           id="use3154-5-1"
           style="fill:#000000"
           sodipodi:type="arc"
           transform="translate(948.23167,370.64348)" />
        <path
           transform="translate(1008.6364,405.4292)"
           sodipodi:type="arc"
           style="fill:#000000"
           id="use3156-4-7"
           sodipodi:cx="58.214287"
           sodipodi:cy="76.290756"
           sodipodi:rx="8.2142859"
           sodipodi:ry="8.2142859"
           d="m 66.428573,76.290756 a 8.2142859,8.2142859 0 1 1 -16.428572,0 8.2142859,8.2142859 0 1 1 16.428572,0 z" />
        <use
           x="0"
           y="0"
           xlink:href="#use3156-4-7"
           id="use3158-7-1"
           transform="translate(0,-69.571432)"
           width="744.09448"
           height="1052.3622"
           style="fill:#000000" />
        <path
           style="fill:none;stroke:#000000;stroke-width:1px;stroke-linecap:butt;stroke-linejoin:miter;stroke-opacity:1"
           d="m 1066.6484,411.93424 c -60,35 -60,35 -60,35 l 60,35"
           id="path3160-4-1"
           inkscape:connector-curvature="0" />
        <path
           d="m 66.428573,76.290756 a 8.2142859,8.2142859 0 1 1 -16.428572,0 8.2142859,8.2142859 0 1 1 16.428572,0 z"
           sodipodi:ry="8.2142859"
           sodipodi:rx="8.2142859"
           sodipodi:cy="76.290756"
           sodipodi:cx="58.214287"
           id="use3178-4-5"
           style="fill:#000000"
           sodipodi:type="arc"
           transform="translate(887.82691,370.64348)" />
        <path
           style="fill:none;stroke:#000000;stroke-width:1px;stroke-linecap:butt;stroke-linejoin:miter;stroke-opacity:1"
           d="m 943.74357,446.93424 65.00003,0"
           id="path3180-3-9"
           inkscape:connector-curvature="0" />
        <path
           d="m 66.428573,76.290756 a 8.2142859,8.2142859 0 1 1 -16.428572,0 8.2142859,8.2142859 0 1 1 16.428572,0 z"
           sodipodi:ry="8.2142859"
           sodipodi:rx="8.2142859"
           sodipodi:cy="76.290756"
           sodipodi:cx="58.214287"
           id="use3274-7"
           style="fill:#000000"
           sodipodi:type="arc"
           transform="translate(827.42215,370.64348)" />
        <path
           style="fill:none;stroke:#000000;stroke-width:1px;stroke-linecap:butt;stroke-linejoin:miter;stroke-opacity:1"
           d="m 885.83882,446.93424 c 5,0 60,0 60,0"
           id="path3276-7"
           inkscape:connector-curvature="0" />
        <path
           d="m 66.428573,76.290756 a 8.2142859,8.2142859 0 1 1 -16.428572,0 8.2142859,8.2142859 0 1 1 16.428572,0 z"
           sodipodi:ry="8.2142859"
           sodipodi:rx="8.2142859"
           sodipodi:cy="76.290756"
           sodipodi:cx="58.214287"
           id="use3274-7-2"
           style="fill:#000000"
           sodipodi:type="arc"
           transform="translate(768.21979,370.64348)" />
        <path
           style="fill:none;stroke:#000000;stroke-width:1px;stroke-linecap:butt;stroke-linejoin:miter;stroke-opacity:1"
           d="m 826.63646,446.93424 c 5,0 60,0 60,0"
           id="path3276-7-9"
           inkscape:connector-curvature="0" />
      </g>
      <text
         sodipodi:linespacing="125%"
         id="text3948"
         y="506.43787"
         x="914.32623"
         style="font-size:40px;font-style:normal;font-weight:normal;line-height:125%;letter-spacing:0px;word-spacing:0px;fill:#000000;fill-opacity:1;stroke:none;font-family:Sans"
         xml:space="preserve"><tspan
           y="506.43787"
           x="914.32623"
           id="tspan3950"
           sodipodi:role="line">G<tspan
   id="tspan3952"
   style="font-size:65.00091553%;baseline-shift:sub">10</tspan></tspan></text>
    </g>
    <g
       id="g4080">
      <g
         id="g3905">
        <path
           sodipodi:type="arc"
           style="fill:#ffffff;stroke:#000000"
           id="path4438-54"
           sodipodi:cx="193.75"
           sodipodi:cy="292.36218"
           sodipodi:rx="10"
           sodipodi:ry="10"
           d="m 203.75,292.36218 a 10,10 0 1 1 -20,0 10,10 0 1 1 20,0 z"
           transform="matrix(1.2023809,0,0,1.2023809,1008.9137,101.14398)" />
        <path
           d="m 66.428573,76.290756 a 8.2142859,8.2142859 0 1 1 -16.428572,0 8.2142859,8.2142859 0 1 1 16.428572,0 z"
           sodipodi:ry="8.2142859"
           sodipodi:rx="8.2142859"
           sodipodi:cy="76.290756"
           sodipodi:cx="58.214287"
           id="use3313-0"
           style="fill:#000000"
           sodipodi:type="arc"
           transform="translate(1127.1424,376.34486)" />
        <use
           x="0"
           y="0"
           xlink:href="#use3313-0"
           id="use3315-6"
           transform="translate(56.428572,-56.428572)"
           width="744.09448"
           height="1052.3622" />
        <use
           x="0"
           y="0"
           xlink:href="#use3315-6"
           id="use3317-1"
           transform="translate(-4e-6,56.428572)"
           width="744.09448"
           height="1052.3622" />
        <path
           d="m 66.428573,76.290756 a 8.2142859,8.2142859 0 1 1 -16.428572,0 8.2142859,8.2142859 0 1 1 16.428572,0 z"
           sodipodi:ry="8.2142859"
           sodipodi:rx="8.2142859"
           sodipodi:cy="76.290756"
           sodipodi:cx="58.214287"
           id="use3325-5"
           style="fill:#000000"
           sodipodi:type="arc"
           transform="translate(1183.5709,432.77343)" />
        <use
           x="0"
           y="0"
           xlink:href="#use3325-5"
           id="use3327-9"
           transform="translate(56.428572,-56.428571)"
           width="744.09448"
           height="1052.3622" />
        <path
           style="fill:none;stroke:#000000;stroke-width:1px;stroke-linecap:butt;stroke-linejoin:miter;stroke-opacity:1"
           d="m 1241.5709,392.63562 0,60 60,0"
           id="path3333-4"
           inkscape:connector-curvature="0" />
        <path
           style="fill:none;stroke:#000000;stroke-width:1px;stroke-linecap:butt;stroke-linejoin:miter;stroke-opacity:1"
           d="m 1241.5709,452.63562 0,60"
           id="path3335-9"
           inkscape:connector-curvature="0" />
        <path
           style="fill:none;stroke:#000000;stroke-width:1px;stroke-linecap:butt;stroke-linejoin:miter;stroke-opacity:1"
           d="m 1241.5709,452.63562 -55,0"
           id="path3337-0"
           inkscape:connector-curvature="0" />
        <path
           transform="translate(1304.9995,376.34486)"
           sodipodi:type="arc"
           style="fill:#000000"
           id="use3146-9"
           sodipodi:cx="58.214287"
           sodipodi:cy="76.290756"
           sodipodi:rx="8.2142859"
           sodipodi:ry="8.2142859"
           d="m 66.428573,76.290756 a 8.2142859,8.2142859 0 1 1 -16.428572,0 8.2142859,8.2142859 0 1 1 16.428572,0 z" />
        <path
           style="fill:none;stroke:#000000;stroke-width:1px;stroke-linecap:butt;stroke-linejoin:miter;stroke-opacity:1"
           d="m 1299.9995,452.63562 65,0"
           id="path3619"
           inkscape:connector-curvature="0" />
      </g>
      <text
         sodipodi:linespacing="125%"
         id="text3954"
         y="510.57751"
         x="1286.5017"
         style="font-size:40px;font-style:normal;font-weight:normal;line-height:125%;letter-spacing:0px;word-spacing:0px;fill:#000000;fill-opacity:1;stroke:none;font-family:Sans"
         xml:space="preserve"><tspan
           y="510.57751"
           x="1286.5017"
           id="tspan3956"
           sodipodi:role="line">G<tspan
   id="tspan3958"
   style="font-size:65.00091553%;baseline-shift:sub">11</tspan></tspan></text>
    </g>
  </g>
</svg>
