<?xml version="1.0" encoding="UTF-8" standalone="no"?>
<!-- Created with Inkscape (http://www.inkscape.org/) -->

<svg
   width="72.715408mm"
   height="66.000168mm"
   viewBox="0 0 257.65302 233.85886"
   id="svg2"
   version="1.1"
   inkscape:version="1.2.2 (b0a8486541, 2022-12-01)"
   sodipodi:docname="bag_patterns_1.svg"
   xml:space="preserve"
   xmlns:inkscape="http://www.inkscape.org/namespaces/inkscape"
   xmlns:sodipodi="http://sodipodi.sourceforge.net/DTD/sodipodi-0.dtd"
   xmlns="http://www.w3.org/2000/svg"
   xmlns:svg="http://www.w3.org/2000/svg"
   xmlns:rdf="http://www.w3.org/1999/02/22-rdf-syntax-ns#"
   xmlns:cc="http://creativecommons.org/ns#"
   xmlns:dc="http://purl.org/dc/elements/1.1/"><defs
     id="defs4"><marker
       inkscape:stockid="Arrow2Lend"
       orient="auto"
       refY="0"
       refX="0"
       id="Arrow2Lend"
       style="overflow:visible"
       inkscape:isstock="true"><path
         id="path4730"
         style="fill:#000000;fill-opacity:1;fill-rule:evenodd;stroke:#000000;stroke-width:0.625;stroke-linejoin:round;stroke-opacity:1"
         d="M 8.7185878,4.0337352 -2.2072895,0.01601326 8.7185884,-4.0017078 c -1.7454984,2.3720609 -1.7354408,5.6174519 -6e-7,8.035443 z"
         transform="matrix(-1.1,0,0,-1.1,-1.1,0)"
         inkscape:connector-curvature="0" /></marker><marker
       inkscape:stockid="Arrow1Lend"
       orient="auto"
       refY="0"
       refX="0"
       id="Arrow1Lend"
       style="overflow:visible"
       inkscape:isstock="true"><path
         id="path4712"
         d="M 0,0 5,-5 -12.5,0 5,5 Z"
         style="fill:#000000;fill-opacity:1;fill-rule:evenodd;stroke:#000000;stroke-width:1pt;stroke-opacity:1"
         transform="matrix(-0.8,0,0,-0.8,-10,0)"
         inkscape:connector-curvature="0" /></marker><marker
       inkscape:stockid="Arrow2Lstart"
       orient="auto"
       refY="0"
       refX="0"
       id="Arrow2Lstart"
       style="overflow:visible"
       inkscape:isstock="true"><path
         id="path4727"
         style="fill:#000000;fill-opacity:1;fill-rule:evenodd;stroke:#000000;stroke-width:0.625;stroke-linejoin:round;stroke-opacity:1"
         d="M 8.7185878,4.0337352 -2.2072895,0.01601326 8.7185884,-4.0017078 c -1.7454984,2.3720609 -1.7354408,5.6174519 -6e-7,8.035443 z"
         transform="matrix(1.1,0,0,1.1,1.1,0)"
         inkscape:connector-curvature="0" /></marker><marker
       inkscape:stockid="Arrow2Mstart"
       orient="auto"
       refY="0"
       refX="0"
       id="Arrow2Mstart"
       style="overflow:visible"
       inkscape:isstock="true"><path
         id="path4733"
         style="fill:#000000;fill-opacity:1;fill-rule:evenodd;stroke:#000000;stroke-width:0.625;stroke-linejoin:round;stroke-opacity:1"
         d="M 8.7185878,4.0337352 -2.2072895,0.01601326 8.7185884,-4.0017078 c -1.7454984,2.3720609 -1.7354408,5.6174519 -6e-7,8.035443 z"
         transform="scale(0.6)"
         inkscape:connector-curvature="0" /></marker><marker
       inkscape:stockid="Arrow2Lend"
       orient="auto"
       refY="0"
       refX="0"
       id="Arrow2Lend-7"
       style="overflow:visible"
       inkscape:isstock="true"><path
         id="path4730-53"
         style="fill:#000000;fill-opacity:1;fill-rule:evenodd;stroke:#000000;stroke-width:0.625;stroke-linejoin:round;stroke-opacity:1"
         d="M 8.7185878,4.0337352 -2.2072895,0.01601326 8.7185884,-4.0017078 c -1.7454984,2.3720609 -1.7354408,5.6174519 -6e-7,8.035443 z"
         transform="matrix(-1.1,0,0,-1.1,-1.1,0)"
         inkscape:connector-curvature="0" /></marker><marker
       inkscape:stockid="Arrow1Lend"
       orient="auto"
       refY="0"
       refX="0"
       id="Arrow1Lend-5"
       style="overflow:visible"
       inkscape:isstock="true"><path
         id="path4712-6"
         d="M 0,0 5,-5 -12.5,0 5,5 Z"
         style="fill:#000000;fill-opacity:1;fill-rule:evenodd;stroke:#000000;stroke-width:1pt;stroke-opacity:1"
         transform="matrix(-0.8,0,0,-0.8,-10,0)"
         inkscape:connector-curvature="0" /></marker><marker
       inkscape:stockid="Arrow2Lstart"
       orient="auto"
       refY="0"
       refX="0"
       id="Arrow2Lstart-2"
       style="overflow:visible"
       inkscape:isstock="true"><path
         id="path4727-9"
         style="fill:#000000;fill-opacity:1;fill-rule:evenodd;stroke:#000000;stroke-width:0.625;stroke-linejoin:round;stroke-opacity:1"
         d="M 8.7185878,4.0337352 -2.2072895,0.01601326 8.7185884,-4.0017078 c -1.7454984,2.3720609 -1.7354408,5.6174519 -6e-7,8.035443 z"
         transform="matrix(1.1,0,0,1.1,1.1,0)"
         inkscape:connector-curvature="0" /></marker><marker
       inkscape:stockid="Arrow2Mstart"
       orient="auto"
       refY="0"
       refX="0"
       id="Arrow2Mstart-1"
       style="overflow:visible"
       inkscape:isstock="true"><path
         id="path4733-2"
         style="fill:#000000;fill-opacity:1;fill-rule:evenodd;stroke:#000000;stroke-width:0.625;stroke-linejoin:round;stroke-opacity:1"
         d="M 8.7185878,4.0337352 -2.2072895,0.01601326 8.7185884,-4.0017078 c -1.7454984,2.3720609 -1.7354408,5.6174519 -6e-7,8.035443 z"
         transform="scale(0.6)"
         inkscape:connector-curvature="0" /></marker><marker
       inkscape:isstock="true"
       style="overflow:visible"
       id="Arrow2Lend-3"
       refX="0"
       refY="0"
       orient="auto"
       inkscape:stockid="Arrow2Lend"><path
         inkscape:connector-curvature="0"
         transform="matrix(-1.1,0,0,-1.1,-1.1,0)"
         d="M 8.7185878,4.0337352 -2.2072895,0.01601326 8.7185884,-4.0017078 c -1.7454984,2.3720609 -1.7354408,5.6174519 -6e-7,8.035443 z"
         style="fill:#000000;fill-opacity:1;fill-rule:evenodd;stroke:#000000;stroke-width:0.625;stroke-linejoin:round;stroke-opacity:1"
         id="path4730-5" /></marker><marker
       inkscape:isstock="true"
       style="overflow:visible"
       id="Arrow1Lend-6"
       refX="0"
       refY="0"
       orient="auto"
       inkscape:stockid="Arrow1Lend"><path
         inkscape:connector-curvature="0"
         transform="matrix(-0.8,0,0,-0.8,-10,0)"
         style="fill:#000000;fill-opacity:1;fill-rule:evenodd;stroke:#000000;stroke-width:1pt;stroke-opacity:1"
         d="M 0,0 5,-5 -12.5,0 5,5 Z"
         id="path4712-2" /></marker><marker
       inkscape:isstock="true"
       style="overflow:visible"
       id="Arrow2Lstart-9"
       refX="0"
       refY="0"
       orient="auto"
       inkscape:stockid="Arrow2Lstart"><path
         inkscape:connector-curvature="0"
         transform="matrix(1.1,0,0,1.1,1.1,0)"
         d="M 8.7185878,4.0337352 -2.2072895,0.01601326 8.7185884,-4.0017078 c -1.7454984,2.3720609 -1.7354408,5.6174519 -6e-7,8.035443 z"
         style="fill:#000000;fill-opacity:1;fill-rule:evenodd;stroke:#000000;stroke-width:0.625;stroke-linejoin:round;stroke-opacity:1"
         id="path4727-1" /></marker><marker
       inkscape:isstock="true"
       style="overflow:visible"
       id="Arrow2Mstart-2"
       refX="0"
       refY="0"
       orient="auto"
       inkscape:stockid="Arrow2Mstart"><path
         inkscape:connector-curvature="0"
         transform="scale(0.6)"
         d="M 8.7185878,4.0337352 -2.2072895,0.01601326 8.7185884,-4.0017078 c -1.7454984,2.3720609 -1.7354408,5.6174519 -6e-7,8.035443 z"
         style="fill:#000000;fill-opacity:1;fill-rule:evenodd;stroke:#000000;stroke-width:0.625;stroke-linejoin:round;stroke-opacity:1"
         id="path4733-7" /></marker><marker
       inkscape:stockid="Arrow2Lend"
       orient="auto"
       refY="0"
       refX="0"
       id="Arrow2Lend-2"
       style="overflow:visible"
       inkscape:isstock="true"><path
         id="path4730-0"
         style="fill:#000000;fill-opacity:1;fill-rule:evenodd;stroke:#000000;stroke-width:0.625;stroke-linejoin:round;stroke-opacity:1"
         d="M 8.7185878,4.0337352 -2.2072895,0.01601326 8.7185884,-4.0017078 c -1.7454984,2.3720609 -1.7354408,5.6174519 -6e-7,8.035443 z"
         transform="matrix(-1.1,0,0,-1.1,-1.1,0)"
         inkscape:connector-curvature="0" /></marker><marker
       inkscape:stockid="Arrow1Lend"
       orient="auto"
       refY="0"
       refX="0"
       id="Arrow1Lend-61"
       style="overflow:visible"
       inkscape:isstock="true"><path
         id="path4712-5"
         d="M 0,0 5,-5 -12.5,0 5,5 Z"
         style="fill:#000000;fill-opacity:1;fill-rule:evenodd;stroke:#000000;stroke-width:1pt;stroke-opacity:1"
         transform="matrix(-0.8,0,0,-0.8,-10,0)"
         inkscape:connector-curvature="0" /></marker><marker
       inkscape:stockid="Arrow2Lstart"
       orient="auto"
       refY="0"
       refX="0"
       id="Arrow2Lstart-5"
       style="overflow:visible"
       inkscape:isstock="true"><path
         id="path4727-4"
         style="fill:#000000;fill-opacity:1;fill-rule:evenodd;stroke:#000000;stroke-width:0.625;stroke-linejoin:round;stroke-opacity:1"
         d="M 8.7185878,4.0337352 -2.2072895,0.01601326 8.7185884,-4.0017078 c -1.7454984,2.3720609 -1.7354408,5.6174519 -6e-7,8.035443 z"
         transform="matrix(1.1,0,0,1.1,1.1,0)"
         inkscape:connector-curvature="0" /></marker><marker
       inkscape:stockid="Arrow2Mstart"
       orient="auto"
       refY="0"
       refX="0"
       id="Arrow2Mstart-7"
       style="overflow:visible"
       inkscape:isstock="true"><path
         id="path4733-6"
         style="fill:#000000;fill-opacity:1;fill-rule:evenodd;stroke:#000000;stroke-width:0.625;stroke-linejoin:round;stroke-opacity:1"
         d="M 8.7185878,4.0337352 -2.2072895,0.01601326 8.7185884,-4.0017078 c -1.7454984,2.3720609 -1.7354408,5.6174519 -6e-7,8.035443 z"
         transform="scale(0.6)"
         inkscape:connector-curvature="0" /></marker></defs><sodipodi:namedview
     id="base"
     pagecolor="#ffffff"
     bordercolor="#666666"
     borderopacity="1.0"
     inkscape:pageopacity="0.0"
     inkscape:pageshadow="2"
     inkscape:zoom="0.97978734"
     inkscape:cx="156.15633"
     inkscape:cy="-91.856668"
     inkscape:document-units="px"
     inkscape:current-layer="layer1"
     showgrid="false"
     fit-margin-top="0"
     fit-margin-left="0"
     fit-margin-right="0"
     fit-margin-bottom="0"
     inkscape:window-width="1920"
     inkscape:window-height="1131"
     inkscape:window-x="0"
     inkscape:window-y="32"
     inkscape:window-maximized="1"
     inkscape:showpageshadow="2"
     inkscape:pagecheckerboard="0"
     inkscape:deskcolor="#d1d1d1" /><metadata
     id="metadata7"><rdf:RDF><cc:Work
         rdf:about=""><dc:format>image/svg+xml</dc:format><dc:type
           rdf:resource="http://purl.org/dc/dcmitype/StillImage" /></cc:Work></rdf:RDF></metadata><g
     inkscape:label="Calque 1"
     inkscape:groupmode="layer"
     id="layer1"
     transform="translate(-180.85102,-140.57472)"><line
       style="font-family:sans-serif;stroke:#000000;stroke-width:1;stroke-linecap:round"
       x1="307.20407"
       y1="333.59088"
       x2="267.20407"
       y2="333.59088"
       id="line4398" /><line
       style="font-family:sans-serif;stroke:#000000;stroke-width:1;stroke-linecap:round"
       x1="267.20407"
       y1="333.59088"
       x2="253.70407"
       y2="310.19086"
       id="line4400" /><line
       style="font-family:sans-serif;stroke:#000000;stroke-width:1;stroke-linecap:round"
       x1="207.20407"
       y1="298.89087"
       x2="193.70406"
       y2="275.59085"
       id="line4402" /><line
       style="font-family:sans-serif;stroke:#000000;stroke-width:1;stroke-linecap:round"
       x1="207.20407"
       y1="298.89087"
       x2="193.70406"
       y2="322.29083"
       id="line4404" /><line
       style="font-family:sans-serif;stroke:#000000;stroke-width:1;stroke-linecap:round"
       x1="234.20407"
       y1="298.89087"
       x2="207.20407"
       y2="298.89087"
       id="line4406" /><line
       style="font-family:sans-serif;stroke:#000000;stroke-width:1;stroke-linecap:round"
       x1="323.10406"
       y1="355.39087"
       x2="307.20407"
       y2="333.59088"
       id="line4408" /><line
       style="font-family:sans-serif;stroke:#000000;stroke-width:1;stroke-linecap:round"
       x1="307.20407"
       y1="333.59088"
       x2="330.70407"
       y2="301.19086"
       id="line4410" /><line
       style="font-family:sans-serif;stroke:#000000;stroke-width:1;stroke-linecap:round"
       x1="316.60406"
       y1="332.99084"
       x2="333.00406"
       y2="310.29083"
       id="line4412" /><line
       style="font-family:sans-serif;stroke:#000000;stroke-width:1;stroke-linecap:round"
       x1="330.70407"
       y1="301.19086"
       x2="368.80408"
       y2="313.59088"
       id="line4414" /><line
       style="font-family:sans-serif;stroke:#000000;stroke-width:1;stroke-linecap:round"
       x1="368.80408"
       y1="313.59088"
       x2="368.80408"
       y2="353.59088"
       id="line4416" /><line
       style="font-family:sans-serif;stroke:#000000;stroke-width:1;stroke-linecap:round"
       x1="361.60406"
       y1="319.59088"
       x2="361.60406"
       y2="347.59088"
       id="line4418" /><line
       style="font-family:sans-serif;stroke:#000000;stroke-width:1;stroke-linecap:round"
       x1="368.80408"
       y1="353.59088"
       x2="343.10406"
       y2="361.89087"
       id="line4420" /><line
       style="font-family:sans-serif;stroke:#000000;stroke-width:1;stroke-linecap:round"
       x1="403.40408"
       y1="293.59088"
       x2="438.00406"
       y2="313.59088"
       id="line4422" /><line
       style="font-family:sans-serif;stroke:#000000;stroke-width:1;stroke-linecap:round"
       x1="405.00406"
       y1="302.79083"
       x2="429.20407"
       y2="316.79083"
       id="line4424" /><line
       style="font-family:sans-serif;stroke:#000000;stroke-width:1;stroke-linecap:round"
       x1="438.00406"
       y1="313.59088"
       x2="438.00406"
       y2="353.59088"
       id="line4426" /><line
       style="font-family:sans-serif;stroke:#000000;stroke-width:1;stroke-linecap:round"
       x1="438.00406"
       y1="353.59088"
       x2="403.40408"
       y2="373.59088"
       id="line4428" /><line
       style="font-family:sans-serif;stroke:#000000;stroke-width:1;stroke-linecap:round"
       x1="429.20407"
       y1="350.29083"
       x2="405.00406"
       y2="364.29083"
       id="line4430" /><line
       style="font-family:sans-serif;stroke:#000000;stroke-width:1;stroke-linecap:round"
       x1="403.40408"
       y1="373.59088"
       x2="368.80408"
       y2="353.59088"
       id="line4432" /><line
       style="font-family:sans-serif;stroke:#000000;stroke-width:1;stroke-linecap:round"
       x1="368.80408"
       y1="313.59088"
       x2="403.40408"
       y2="293.59088"
       id="line4434" /><text
       style="font-size:16px;line-height:0%;font-family:sans-serif;fill:#0c0cff;stroke:#0c0cff;stroke-width:1;stroke-linecap:round"
       x="324.71548"
       y="373.93359"
       font-size="16"
       id="text4436">N</text><text
       style="font-size:16px;line-height:0%;font-family:sans-serif;fill:#0c0cff;stroke:#0c0cff;stroke-width:1;stroke-linecap:round"
       x="241.20407"
       y="306.93188"
       font-size="16"
       id="text4440">N</text><line
       style="font-family:sans-serif;stroke:#000000;stroke-width:1;stroke-linecap:round"
       x1="306.48978"
       y1="181.07472"
       x2="266.48978"
       y2="181.07472"
       id="line4503" /><line
       style="font-family:sans-serif;stroke:#000000;stroke-width:1;stroke-linecap:round"
       x1="266.48978"
       y1="181.07472"
       x2="252.98978"
       y2="157.67471"
       id="line4505" /><line
       style="font-family:sans-serif;stroke:#000000;stroke-width:1;stroke-linecap:round"
       x1="322.38977"
       y1="202.87473"
       x2="306.48978"
       y2="181.07472"
       id="line4507" /><line
       style="font-family:sans-serif;stroke:#000000;stroke-width:1;stroke-linecap:round"
       x1="306.48978"
       y1="181.07472"
       x2="329.98978"
       y2="148.67471"
       id="line4509" /><line
       style="font-family:sans-serif;stroke:#000000;stroke-width:1;stroke-linecap:round"
       x1="315.88977"
       y1="180.47472"
       x2="332.28976"
       y2="157.77472"
       id="line4511" /><line
       style="font-family:sans-serif;stroke:#000000;stroke-width:1;stroke-linecap:round"
       x1="329.98978"
       y1="148.67471"
       x2="368.08978"
       y2="161.07472"
       id="line4513" /><line
       style="font-family:sans-serif;stroke:#000000;stroke-width:1;stroke-linecap:round"
       x1="368.08978"
       y1="161.07472"
       x2="368.08978"
       y2="201.07472"
       id="line4515" /><line
       style="font-family:sans-serif;stroke:#000000;stroke-width:1;stroke-linecap:round"
       x1="360.88977"
       y1="167.07472"
       x2="360.88977"
       y2="195.07472"
       id="line4517" /><line
       style="font-family:sans-serif;stroke:#000000;stroke-width:1;stroke-linecap:round"
       x1="368.08978"
       y1="201.07472"
       x2="342.38977"
       y2="209.37473"
       id="line4519" /><line
       style="font-family:sans-serif;stroke:#000000;stroke-width:1;stroke-linecap:round"
       x1="402.68976"
       y1="141.07472"
       x2="437.28976"
       y2="161.07472"
       id="line4521" /><line
       style="font-family:sans-serif;stroke:#000000;stroke-width:1;stroke-linecap:round"
       x1="404.28976"
       y1="150.27472"
       x2="428.48978"
       y2="164.27472"
       id="line4523" /><line
       style="font-family:sans-serif;stroke:#000000;stroke-width:1;stroke-linecap:round"
       x1="437.28976"
       y1="161.07472"
       x2="437.28976"
       y2="201.07472"
       id="line4525" /><line
       style="font-family:sans-serif;stroke:#000000;stroke-width:1;stroke-linecap:round"
       x1="437.28976"
       y1="201.07472"
       x2="402.68976"
       y2="221.07472"
       id="line4527" /><line
       style="font-family:sans-serif;stroke:#000000;stroke-width:1;stroke-linecap:round"
       x1="428.48978"
       y1="197.87473"
       x2="404.28976"
       y2="211.87473"
       id="line4529" /><line
       style="font-family:sans-serif;stroke:#000000;stroke-width:1;stroke-linecap:round"
       x1="402.68976"
       y1="221.07472"
       x2="368.08978"
       y2="201.07472"
       id="line4531" /><line
       style="font-family:sans-serif;stroke:#000000;stroke-width:1;stroke-linecap:round"
       x1="368.08978"
       y1="161.07472"
       x2="402.68976"
       y2="141.07472"
       id="line4533" /><text
       style="font-size:16px;line-height:0%;font-family:sans-serif;fill:#0c0cff;stroke:#0c0cff;stroke-width:1;stroke-linecap:round"
       x="324.00119"
       y="221.43539"
       font-size="16"
       id="text4535">N</text><text
       style="font-size:16px;line-height:0%;font-family:sans-serif;fill:#0c0cff;stroke:#0c0cff;stroke-width:1;stroke-linecap:round"
       x="238.98978"
       y="154.4337"
       font-size="16"
       id="text4543">N</text><path
       style="fill:none;fill-rule:evenodd;stroke:#000000;stroke-width:1px;stroke-linecap:butt;stroke-linejoin:miter;stroke-opacity:1;marker-start:url(#Arrow2Lstart);marker-end:url(#Arrow2Lend)"
       d="m 319.28571,218.79078 c -37.64262,3.33228 -70.31826,26.31142 -70,68.57142"
       id="path4634"
       inkscape:connector-curvature="0"
       sodipodi:nodetypes="cc" /><path
       style="opacity:1;fill:none;fill-opacity:1;stroke:#4e9a06;stroke-width:2;stroke-linecap:round;stroke-linejoin:round;stroke-miterlimit:4;stroke-dasharray:none;stroke-dashoffset:0;stroke-opacity:1"
       id="path5537"
       sodipodi:type="arc"
       sodipodi:cx="248.7494"
       sodipodi:cy="303.43359"
       sodipodi:rx="21"
       sodipodi:ry="17"
       sodipodi:start="0"
       sodipodi:end="6.2822254"
       sodipodi:open="true"
       d="m 269.7494,303.43359 a 21,17 0 0 1 -20.99496,17 21,17 0 0 1 -21.00503,-16.99184 21,17 0 0 1 20.98488,-17.00815 21,17 0 0 1 21.01511,16.98368"
       sodipodi:arc-type="arc" /><path
       style="opacity:1;fill:none;fill-opacity:1;stroke:#4e9a06;stroke-width:2;stroke-linecap:round;stroke-linejoin:round;stroke-miterlimit:4;stroke-dasharray:none;stroke-dashoffset:0;stroke-opacity:1"
       id="path5537-6"
       sodipodi:type="arc"
       sodipodi:cx="334.24936"
       sodipodi:cy="211.93359"
       sodipodi:rx="21"
       sodipodi:ry="17"
       sodipodi:start="0"
       sodipodi:end="6.2822254"
       sodipodi:open="true"
       d="m 355.24936,211.93359 a 21,17 0 0 1 -20.99496,17 21,17 0 0 1 -21.00504,-16.99184 21,17 0 0 1 20.98488,-17.00815 21,17 0 0 1 21.01511,16.98368"
       sodipodi:arc-type="arc" /><path
       style="fill:none;fill-rule:evenodd;stroke:#061c9a;stroke-width:2;stroke-linecap:butt;stroke-linejoin:miter;stroke-miterlimit:4;stroke-dasharray:none;stroke-opacity:1"
       d="m 231.85061,315.54281 c 11.11285,1.04066 19.35491,19.13027 31.64676,21.90209 9.90498,2.23357 25.3591,-4.78386 19.43725,-22.08523 -17.30521,-43.59031 -83.18234,-33.3651 -85.02448,-19.25725 -1.94837,14.92146 12.36565,16.7592 33.94047,19.44039 z"
       id="path5131"
       inkscape:connector-curvature="0"
       sodipodi:nodetypes="cscsc" /><path
       style="fill:none;fill-rule:evenodd;stroke:#061c9a;stroke-width:2;stroke-linecap:butt;stroke-linejoin:miter;stroke-miterlimit:4;stroke-dasharray:none;stroke-opacity:1"
       d="m 330.60718,225.95188 c 16.83026,0.59 58.2033,11.77746 49.08401,-20.18314 -6.46982,-16.29691 -28.61599,-8.30016 -41.073,-13.38751 -20.86249,-8.52009 -23.54805,-24.70315 -34.45148,-16.11974 -11.82396,9.30807 4.86565,47.0092 26.44047,49.69039 z"
       id="path5131-3"
       inkscape:connector-curvature="0"
       sodipodi:nodetypes="ccssc" /><path
       style="fill:none;fill-rule:evenodd;stroke:#9a0644;stroke-width:2;stroke-linecap:butt;stroke-linejoin:miter;stroke-miterlimit:4;stroke-dasharray:none;stroke-opacity:1"
       d="m 204.33022,333.31878 c 11.11285,1.04066 44.35491,4.63027 56.64676,7.40209 9.90498,2.23357 58.8591,7.71614 52.93725,-9.58523 -11.18331,-28.16979 -62.27992,-70.45277 -97.52944,-72.89993 -19.29606,-1.33961 -33.84336,9.25804 -34.49504,40.64268 -0.31239,15.04488 0.86565,31.7592 22.44047,34.44039 z"
       id="path5131-1"
       inkscape:connector-curvature="0"
       sodipodi:nodetypes="cscssc" /><path
       style="fill:none;fill-rule:evenodd;stroke:#9a0644;stroke-width:2;stroke-linecap:butt;stroke-linejoin:miter;stroke-miterlimit:4;stroke-dasharray:none;stroke-opacity:1"
       d="m 326.67258,224.81364 c 18.33026,4.59 87.70333,23.77746 78.58403,-8.18314 -6.4698,-16.29691 -31.61601,-57.80016 -44.07302,-62.88751 -9.33295,-3.81151 -29.39861,-9.19105 -40.56065,-5.8296 -23.01928,6.93225 -60.21121,23.22724 -61.89083,30.70986 -3.32396,14.80807 46.36565,43.5092 67.94047,46.19039 z"
       id="path5131-3-0"
       inkscape:connector-curvature="0"
       sodipodi:nodetypes="ccsssc" /></g></svg>
