<?xml version="1.0" encoding="UTF-8" standalone="no"?>
<!-- Created with Inkscape (http://www.inkscape.org/) -->

<svg
   width="1218.6273mm"
   height="413.61591mm"
   viewBox="0 0 1218.6273 413.61591"
   version="1.1"
   id="svg150"
   sodipodi:docname="graph_permutation.svg"
   inkscape:version="1.2.2 (b0a8486541, 2022-12-01)"
   xmlns:inkscape="http://www.inkscape.org/namespaces/inkscape"
   xmlns:sodipodi="http://sodipodi.sourceforge.net/DTD/sodipodi-0.dtd"
   xmlns="http://www.w3.org/2000/svg"
   xmlns:svg="http://www.w3.org/2000/svg">
  <sodipodi:namedview
     id="namedview152"
     pagecolor="#ffffff"
     bordercolor="#000000"
     borderopacity="0.25"
     inkscape:showpageshadow="2"
     inkscape:pageopacity="0.0"
     inkscape:pagecheckerboard="0"
     inkscape:deskcolor="#d1d1d1"
     inkscape:document-units="mm"
     showgrid="false"
     inkscape:zoom="0.23451705"
     inkscape:cx="2903.8401"
     inkscape:cy="1176.8867"
     inkscape:window-width="3840"
     inkscape:window-height="1531"
     inkscape:window-x="0"
     inkscape:window-y="32"
     inkscape:window-maximized="1"
     inkscape:current-layer="layer1" />
  <defs
     id="defs147">
    <defs
       id="id-b9bff0c7-7be4-4f3c-9e4a-52f7f1326274">
      <g
         id="id-7bd11de8-5bb9-46d8-b573-c5e3c62f1f1f">
        <g
           id="id-642fbbf4-a208-4cdc-93c8-e6d3269804f8">
          <path
             d="m 2.9375,-6.375 c 0,-0.25 0,-0.265625 -0.234375,-0.265625 C 2.078125,-6 1.203125,-6 0.890625,-6 v 0.3125 c 0.203125,0 0.78125,0 1.296875,-0.265625 v 5.171875 c 0,0.359375 -0.03125,0.46875 -0.921875,0.46875 h -0.3125 V 0 c 0.34375,-0.03125 1.203125,-0.03125 1.609375,-0.03125 0.390625,0 1.265625,0 1.609375,0.03125 v -0.3125 h -0.3125 c -0.90625,0 -0.921875,-0.109375 -0.921875,-0.46875 z m 0,0"
             id="id-60cc8a74-abd4-4fa2-95f6-21a11c29591d" />
        </g>
        <g
           id="id-ec44a884-717f-4de7-b5c3-cc17f0bee76e">
          <path
             d="m 1.265625,-0.765625 1.0625,-1.03125 c 1.546875,-1.375 2.140625,-1.90625 2.140625,-2.90625 0,-1.140625 -0.890625,-1.9375 -2.109375,-1.9375 -1.125,0 -1.859375,0.921875 -1.859375,1.8125 0,0.546875 0.5,0.546875 0.53125,0.546875 0.171875,0 0.515625,-0.109375 0.515625,-0.53125 0,-0.25 -0.1875,-0.515625 -0.53125,-0.515625 -0.078125,0 -0.09375,0 -0.125,0.015625 0.21875,-0.65625 0.765625,-1.015625 1.34375,-1.015625 0.90625,0 1.328125,0.8125 1.328125,1.625 C 3.5625,-3.90625 3.078125,-3.125 2.515625,-2.5 l -1.90625,2.125 C 0.5,-0.265625 0.5,-0.234375 0.5,0 H 4.203125 L 4.46875,-1.734375 H 4.234375 C 4.171875,-1.4375 4.109375,-1 4,-0.84375 3.9375,-0.765625 3.28125,-0.765625 3.0625,-0.765625 Z m 0,0"
             id="id-739a8b25-9ea1-4391-b306-456c691a5ef3" />
        </g>
        <g
           id="id-f87385a5-6d37-48b8-943a-2b4d95cd0526">
          <path
             d="m 2.890625,-3.515625 c 0.8125,-0.265625 1.390625,-0.953125 1.390625,-1.75 0,-0.8125 -0.875,-1.375 -1.828125,-1.375 -1,0 -1.765625,0.59375 -1.765625,1.359375 0,0.328125 0.21875,0.515625 0.515625,0.515625 0.296875,0 0.5,-0.21875 0.5,-0.515625 0,-0.484375 -0.46875,-0.484375 -0.609375,-0.484375 0.296875,-0.5 0.953125,-0.625 1.3125,-0.625 0.421875,0 0.96875,0.21875 0.96875,1.109375 0,0.125 -0.03125,0.703125 -0.28125,1.140625 C 2.796875,-3.65625 2.453125,-3.625 2.203125,-3.625 2.125,-3.609375 1.890625,-3.59375 1.8125,-3.59375 c -0.078125,0.015625 -0.140625,0.03125 -0.140625,0.125 0,0.109375 0.0625,0.109375 0.234375,0.109375 h 0.4375 c 0.8125,0 1.1875,0.671875 1.1875,1.65625 0,1.359375 -0.6875,1.640625 -1.125,1.640625 -0.4375,0 -1.1875,-0.171875 -1.53125,-0.75 0.34375,0.046875 0.65625,-0.171875 0.65625,-0.546875 0,-0.359375 -0.265625,-0.5625 -0.546875,-0.5625 -0.25,0 -0.5625,0.140625 -0.5625,0.578125 0,0.90625 0.921875,1.5625 2.015625,1.5625 1.21875,0 2.125,-0.90625 2.125,-1.921875 0,-0.8125 -0.640625,-1.59375 -1.671875,-1.8125 z m 0,0"
             id="id-131845e5-0464-4c36-8730-f756f24899f1" />
        </g>
        <g
           id="id-9e63acd7-22c0-41af-bed9-d0634a6fe062">
          <path
             d="m 2.9375,-1.640625 v 0.859375 c 0,0.359375 -0.03125,0.46875 -0.765625,0.46875 H 1.96875 V 0 C 2.375,-0.03125 2.890625,-0.03125 3.3125,-0.03125 c 0.421875,0 0.9375,0 1.359375,0.03125 v -0.3125 h -0.21875 c -0.734375,0 -0.75,-0.109375 -0.75,-0.46875 V -1.640625 H 4.6875 v -0.3125 H 3.703125 v -4.53125 c 0,-0.203125 0,-0.265625 -0.171875,-0.265625 -0.078125,0 -0.109375,0 -0.1875,0.125 l -3.0625,4.671875 v 0.3125 z m 0.046875,-0.3125 H 0.5625 l 2.421875,-3.71875 z m 0,0"
             id="id-7d269469-dec1-4faf-87fa-1712e1f7f171" />
        </g>
        <g
           id="id-cb40412e-8241-409e-9d30-087190f8f2b1">
          <path
             d="m 4.46875,-2 c 0,-1.1875 -0.8125,-2.1875 -1.890625,-2.1875 -0.46875,0 -0.90625,0.15625 -1.265625,0.515625 V -5.625 c 0.203125,0.0625 0.53125,0.125 0.84375,0.125 1.234375,0 1.9375,-0.90625 1.9375,-1.03125 0,-0.0625 -0.03125,-0.109375 -0.109375,-0.109375 0,0 -0.03125,0 -0.078125,0.03125 C 3.703125,-6.515625 3.21875,-6.3125 2.546875,-6.3125 2.15625,-6.3125 1.6875,-6.390625 1.21875,-6.59375 1.140625,-6.625 1.125,-6.625 1.109375,-6.625 1,-6.625 1,-6.546875 1,-6.390625 V -3.4375 c 0,0.171875 0,0.25 0.140625,0.25 0.078125,0 0.09375,-0.015625 0.140625,-0.078125 C 1.390625,-3.421875 1.75,-3.96875 2.5625,-3.96875 c 0.515625,0 0.765625,0.453125 0.84375,0.640625 0.15625,0.375 0.1875,0.75 0.1875,1.25 0,0.359375 0,0.953125 -0.25,1.375 C 3.109375,-0.3125 2.734375,-0.0625 2.28125,-0.0625 c -0.71875,0 -1.296875,-0.53125 -1.46875,-1.109375 0.03125,0 0.0625,0.015625 0.171875,0.015625 0.328125,0 0.5,-0.25 0.5,-0.484375 0,-0.25 -0.171875,-0.5 -0.5,-0.5 C 0.84375,-2.140625 0.5,-2.0625 0.5,-1.609375 0.5,-0.75 1.1875,0.21875 2.296875,0.21875 3.453125,0.21875 4.46875,-0.734375 4.46875,-2 Z m 0,0"
             id="id-438ead11-f4e3-4a70-bd44-75eb47d0c397" />
        </g>
        <g
           id="id-04cff8a3-212d-4297-a9d6-d134cf8eb231">
          <path
             d="m 1.3125,-3.265625 v -0.25 c 0,-2.515625 1.234375,-2.875 1.75,-2.875 0.234375,0 0.65625,0.0625 0.875,0.40625 -0.15625,0 -0.546875,0 -0.546875,0.4375 0,0.3125 0.234375,0.46875 0.453125,0.46875 0.15625,0 0.46875,-0.09375 0.46875,-0.484375 0,-0.59375 -0.4375,-1.078125 -1.265625,-1.078125 -1.28125,0 -2.625,1.28125 -2.625,3.484375 0,2.671875 1.15625,3.375 2.078125,3.375 1.109375,0 2.0625,-0.9375 2.0625,-2.25 0,-1.265625 -0.890625,-2.21875 -2,-2.21875 -0.671875,0 -1.046875,0.5 -1.25,0.984375 z M 2.5,-0.0625 c -0.625,0 -0.921875,-0.59375 -0.984375,-0.75 -0.1875,-0.46875 -0.1875,-1.265625 -0.1875,-1.4375 0,-0.78125 0.328125,-1.78125 1.21875,-1.78125 0.171875,0 0.625,0 0.9375,0.625 0.171875,0.359375 0.171875,0.875 0.171875,1.359375 0,0.484375 0,0.984375 -0.171875,1.34375 C 3.1875,-0.109375 2.734375,-0.0625 2.5,-0.0625 Z m 0,0"
             id="id-c31dbf9c-f21e-4a4b-875b-149311172579" />
        </g>
        <g
           id="id-8762e9c0-0a12-4633-9c4d-228eeccfd58f">
          <path
             d="m 4.75,-6.078125 c 0.078125,-0.109375 0.078125,-0.125 0.078125,-0.34375 H 2.40625 c -1.203125,0 -1.234375,-0.125 -1.265625,-0.3125 h -0.25 L 0.5625,-4.6875 h 0.25 c 0.03125,-0.15625 0.109375,-0.78125 0.25,-0.90625 0.0625,-0.0625 0.84375,-0.0625 0.96875,-0.0625 h 2.0625 C 3.984375,-5.5 3.203125,-4.40625 2.984375,-4.078125 2.078125,-2.734375 1.75,-1.34375 1.75,-0.328125 c 0,0.09375 0,0.546875 0.46875,0.546875 0.453125,0 0.453125,-0.453125 0.453125,-0.546875 V -0.84375 c 0,-0.546875 0.03125,-1.09375 0.109375,-1.625 0.046875,-0.234375 0.171875,-1.09375 0.625,-1.703125 z m 0,0"
             id="id-3c83818a-cd07-4ec0-8522-3f5d9d6fcd02" />
        </g>
        <g
           id="id-8f7fc4b8-4c9c-4e3a-9dd2-fb98659c77f7">
          <path
             d="m 1.625,-4.5625 c -0.453125,-0.296875 -0.5,-0.625 -0.5,-0.796875 0,-0.609375 0.65625,-1.03125 1.359375,-1.03125 0.71875,0 1.359375,0.515625 1.359375,1.234375 0,0.578125 -0.390625,1.046875 -0.984375,1.390625 z m 1.453125,0.953125 C 3.796875,-3.984375 4.28125,-4.5 4.28125,-5.15625 c 0,-0.921875 -0.875,-1.484375 -1.78125,-1.484375 -1,0 -1.8125,0.734375 -1.8125,1.671875 0,0.171875 0.015625,0.625 0.4375,1.09375 0.109375,0.109375 0.484375,0.359375 0.734375,0.53125 C 1.28125,-3.046875 0.421875,-2.5 0.421875,-1.5 c 0,1.046875 1.015625,1.71875 2.0625,1.71875 1.125,0 2.078125,-0.828125 2.078125,-1.890625 0,-0.359375 -0.109375,-0.8125 -0.5,-1.234375 C 3.875,-3.109375 3.71875,-3.203125 3.078125,-3.609375 Z m -1,0.421875 1.234375,0.78125 c 0.28125,0.1875 0.75,0.484375 0.75,1.09375 0,0.734375 -0.75,1.25 -1.5625,1.25 -0.859375,0 -1.578125,-0.609375 -1.578125,-1.4375 0,-0.578125 0.3125,-1.21875 1.15625,-1.6875 z m 0,0"
             id="id-62875d4e-0d58-4b63-a519-269f1ec5dee6" />
        </g>
      </g>
    </defs>
  </defs>
  <g
     inkscape:label="Calque 1"
     inkscape:groupmode="layer"
     id="layer1"
     transform="translate(206.46436,56.281609)">
    <g
       id="g1068">
      <g
         id="g677">
        <path
           style="fill:#000000;fill-opacity:1;stroke:#010301;stroke-width:10;stroke-linecap:round;stroke-linejoin:round;stroke-dasharray:none"
           id="path234"
           sodipodi:type="arc"
           sodipodi:cx="-142.40218"
           sodipodi:cy="183.91887"
           sodipodi:rx="22.863005"
           sodipodi:ry="22.863005"
           sodipodi:start="0"
           sodipodi:end="6.2766013"
           sodipodi:open="true"
           sodipodi:arc-type="chord"
           d="m -119.53917,183.91887 a 22.863005,22.863005 0 0 1 -22.82537,22.86297 22.863005,22.863005 0 0 1 -22.90052,-22.78771 22.863005,22.863005 0 0 1 22.74999,-22.93799 22.863005,22.863005 0 0 1 22.9754,22.7122 z" />
        <path
           style="fill:#000000;fill-opacity:1;stroke:#010301;stroke-width:10;stroke-linecap:round;stroke-linejoin:round;stroke-dasharray:none"
           id="path234-3"
           sodipodi:type="arc"
           sodipodi:cx="21.969872"
           sodipodi:cy="117.17916"
           sodipodi:rx="22.863005"
           sodipodi:ry="22.863005"
           sodipodi:start="0"
           sodipodi:end="6.2766013"
           sodipodi:open="true"
           sodipodi:arc-type="chord"
           d="M 44.832876,117.17916 A 22.863005,22.863005 0 0 1 22.007504,140.04213 22.863005,22.863005 0 0 1 -0.89300928,117.25443 22.863005,22.863005 0 0 1 21.856974,94.316435 22.863005,22.863005 0 0 1 44.832381,117.02863 Z" />
        <path
           style="fill:#000000;fill-opacity:1;stroke:#010301;stroke-width:10;stroke-linecap:round;stroke-linejoin:round;stroke-dasharray:none"
           id="path234-6"
           sodipodi:type="arc"
           sodipodi:cx="8.1266394"
           sodipodi:cy="279.52237"
           sodipodi:rx="22.863005"
           sodipodi:ry="22.863005"
           sodipodi:start="0"
           sodipodi:end="6.2766013"
           sodipodi:open="true"
           sodipodi:arc-type="chord"
           d="M 30.989644,279.52237 A 22.863005,22.863005 0 0 1 8.1642719,302.38534 22.863005,22.863005 0 0 1 -14.736241,279.59763 22.863005,22.863005 0 0 1 8.0137422,256.65964 22.863005,22.863005 0 0 1 30.989149,279.37184 Z" />
        <path
           style="fill:#000000;fill-opacity:1;stroke:#010301;stroke-width:10;stroke-linecap:round;stroke-linejoin:round;stroke-dasharray:none"
           id="path234-7"
           sodipodi:type="arc"
           sodipodi:cx="247.23679"
           sodipodi:cy="251.83595"
           sodipodi:rx="22.863005"
           sodipodi:ry="22.863005"
           sodipodi:start="0"
           sodipodi:end="6.2766013"
           sodipodi:open="true"
           sodipodi:arc-type="chord"
           d="m 270.09979,251.83595 a 22.863005,22.863005 0 0 1 -22.82537,22.86298 22.863005,22.863005 0 0 1 -22.90051,-22.78771 22.863005,22.863005 0 0 1 22.74998,-22.93799 22.863005,22.863005 0 0 1 22.97541,22.71219 z" />
        <path
           style="fill:#000000;fill-opacity:1;stroke:#010301;stroke-width:10;stroke-linecap:round;stroke-linejoin:round;stroke-dasharray:none"
           id="path234-5"
           sodipodi:type="arc"
           sodipodi:cx="122.64783"
           sodipodi:cy="78.166451"
           sodipodi:rx="22.863005"
           sodipodi:ry="22.863005"
           sodipodi:start="0"
           sodipodi:end="6.2766013"
           sodipodi:open="true"
           sodipodi:arc-type="chord"
           d="M 145.51083,78.166451 A 22.863005,22.863005 0 0 1 122.68546,101.02942 22.863005,22.863005 0 0 1 99.784946,78.241715 22.863005,22.863005 0 0 1 122.53493,55.303725 22.863005,22.863005 0 0 1 145.51034,78.015921 Z" />
        <path
           style="fill:#000000;fill-opacity:1;stroke:#010301;stroke-width:10;stroke-linecap:round;stroke-linejoin:round;stroke-dasharray:none"
           id="path234-35"
           sodipodi:type="arc"
           sodipodi:cx="-29.627602"
           sodipodi:cy="17.759674"
           sodipodi:rx="22.863005"
           sodipodi:ry="22.863005"
           sodipodi:start="0"
           sodipodi:end="6.2766013"
           sodipodi:open="true"
           sodipodi:arc-type="chord"
           d="M -6.7645969,17.759674 A 22.863005,22.863005 0 0 1 -29.589969,40.622648 22.863005,22.863005 0 0 1 -52.490482,17.834939 22.863005,22.863005 0 0 1 -29.740499,-5.1030519 22.863005,22.863005 0 0 1 -6.7650925,17.609145 Z" />
        <path
           style="fill:#000000;fill-opacity:1;stroke:#010301;stroke-width:10;stroke-linecap:round;stroke-linejoin:round;stroke-dasharray:none"
           id="path234-62"
           sodipodi:type="arc"
           sodipodi:cx="269.88934"
           sodipodi:cy="124.73"
           sodipodi:rx="22.863005"
           sodipodi:ry="22.863005"
           sodipodi:start="0"
           sodipodi:end="6.2766013"
           sodipodi:open="true"
           sodipodi:arc-type="chord"
           d="m 292.75235,124.73 a 22.863005,22.863005 0 0 1 -22.82537,22.86298 22.863005,22.863005 0 0 1 -22.90052,-22.78771 22.863005,22.863005 0 0 1 22.74999,-22.93799 22.863005,22.863005 0 0 1 22.9754,22.71219 z" />
        <path
           style="fill:#000000;fill-opacity:1;stroke:#010301;stroke-width:10;stroke-linecap:round;stroke-linejoin:round;stroke-dasharray:none"
           id="path234-9"
           sodipodi:type="arc"
           sodipodi:cx="81.118172"
           sodipodi:cy="202.75545"
           sodipodi:rx="22.863005"
           sodipodi:ry="22.863005"
           sodipodi:start="0"
           sodipodi:end="6.2766013"
           sodipodi:open="true"
           sodipodi:arc-type="chord"
           d="m 103.98118,202.75545 a 22.863005,22.863005 0 0 1 -22.825376,22.86297 22.863005,22.863005 0 0 1 -22.900513,-22.78771 22.863005,22.863005 0 0 1 22.749984,-22.93799 22.863005,22.863005 0 0 1 22.975405,22.7122 z" />
        <path
           style="fill:none;fill-rule:evenodd;stroke:#000000;stroke-width:10;stroke-linecap:butt;stroke-linejoin:miter;stroke-dasharray:none;stroke-opacity:1"
           d="M -121.21884,175.31783 0.78667262,125.78014"
           id="path1760"
           inkscape:connector-type="polyline"
           inkscape:connector-curvature="0"
           inkscape:connection-start="#path234"
           inkscape:connection-end="#path234-3" />
        <path
           style="fill:none;fill-rule:evenodd;stroke:#000000;stroke-width:10;stroke-linecap:butt;stroke-linejoin:miter;stroke-dasharray:none;stroke-opacity:1"
           d="M 11.438319,96.886664 -19.095929,38.052403"
           id="path1762"
           inkscape:connector-type="polyline"
           inkscape:connector-curvature="0"
           inkscape:connection-start="#path234-3"
           inkscape:connection-end="#path234-35" />
        <path
           style="fill:none;fill-rule:evenodd;stroke:#000000;stroke-width:10;stroke-linecap:butt;stroke-linejoin:miter;stroke-dasharray:none;stroke-opacity:1"
           d="M -8.3759443,26.190082 101.39603,69.735986"
           id="path1764"
           inkscape:connector-type="polyline"
           inkscape:connector-curvature="0"
           inkscape:connection-start="#path234-35"
           inkscape:connection-end="#path234-5" />
        <path
           style="fill:none;fill-rule:evenodd;stroke:#000000;stroke-width:10;stroke-linecap:butt;stroke-linejoin:miter;stroke-dasharray:none;stroke-opacity:1"
           d="M 101.32957,86.427273 43.287907,108.91842"
           id="path1766"
           inkscape:connector-type="polyline"
           inkscape:connector-curvature="0"
           inkscape:connection-start="#path234-5"
           inkscape:connection-end="#path234-3" />
        <path
           style="fill:none;fill-rule:evenodd;stroke:#000000;stroke-width:10;stroke-linecap:butt;stroke-linejoin:miter;stroke-dasharray:none;stroke-opacity:1"
           d="m 21.969871,117.17916 v 0"
           id="path1768"
           inkscape:connector-type="polyline"
           inkscape:connector-curvature="0"
           inkscape:connection-start="#path234-3"
           inkscape:connection-end="#path234-3" />
        <path
           style="fill:none;fill-rule:evenodd;stroke:#000000;stroke-width:10;stroke-linecap:butt;stroke-linejoin:miter;stroke-dasharray:none;stroke-opacity:1"
           d="M 34.969178,135.98667 68.118773,183.9478"
           id="path1770"
           inkscape:connector-type="polyline"
           inkscape:connector-curvature="0"
           inkscape:connection-start="#path234-3"
           inkscape:connection-end="#path234-9" />
        <path
           style="fill:none;fill-rule:evenodd;stroke:#000000;stroke-width:10;stroke-linecap:butt;stroke-linejoin:miter;stroke-dasharray:none;stroke-opacity:1"
           d="M 65.364295,219.32417 23.880374,262.95379"
           id="path1772"
           inkscape:connector-type="polyline"
           inkscape:connector-curvature="0"
           inkscape:connection-start="#path234-9"
           inkscape:connection-end="#path234-6" />
        <path
           style="fill:none;fill-rule:evenodd;stroke:#000000;stroke-width:10;stroke-linecap:butt;stroke-linejoin:miter;stroke-dasharray:none;stroke-opacity:1"
           d="M 102.24701,194.02219 248.76044,133.46328"
           id="path1774"
           inkscape:connector-type="polyline"
           inkscape:connector-curvature="0"
           inkscape:connection-start="#path234-9"
           inkscape:connection-end="#path234-62" />
        <path
           style="fill:none;fill-rule:evenodd;stroke:#000000;stroke-width:10;stroke-linecap:butt;stroke-linejoin:miter;stroke-dasharray:none;stroke-opacity:1"
           d="M 248.09071,117.83642 144.44675,85.060125"
           id="path1776"
           inkscape:connector-type="polyline"
           inkscape:connector-curvature="0"
           inkscape:connection-start="#path234-62"
           inkscape:connection-end="#path234-5" />
        <path
           style="fill:none;fill-rule:evenodd;stroke:#000000;stroke-width:10;stroke-linecap:butt;stroke-linejoin:miter;stroke-dasharray:none;stroke-opacity:1"
           d="m 265.87803,147.23793 -14.6299,82.08996"
           id="path1778"
           inkscape:connector-type="polyline"
           inkscape:connector-curvature="0"
           inkscape:connection-start="#path234-62"
           inkscape:connection-end="#path234-7" />
      </g>
      <g
         fill="#000000"
         fill-opacity="1"
         id="id-8a5e3233-83e7-49c5-aaea-5ab904a416f2"
         transform="matrix(6.0186799,0,0,6.0186799,-971.06686,-827.42121)">
        <g
           transform="translate(148.712,134.765)"
           id="g780">
          <path
             d="m 2.9375,-6.375 c 0,-0.25 0,-0.265625 -0.234375,-0.265625 C 2.078125,-6 1.203125,-6 0.890625,-6 v 0.3125 c 0.203125,0 0.78125,0 1.296875,-0.265625 v 5.171875 c 0,0.359375 -0.03125,0.46875 -0.921875,0.46875 h -0.3125 V 0 c 0.34375,-0.03125 1.203125,-0.03125 1.609375,-0.03125 0.390625,0 1.265625,0 1.609375,0.03125 v -0.3125 h -0.3125 c -0.90625,0 -0.921875,-0.109375 -0.921875,-0.46875 z m 0,0"
             id="id-10873d9e-cb31-4fa9-b104-0c81d2beb7f8" />
        </g>
      </g>
      <g
         fill="#000000"
         fill-opacity="1"
         id="id-4179f659-2fb8-43dd-bb0e-f74c4e4d5a23"
         transform="matrix(6.0186799,0,0,6.0186799,-827.47466,-775.57625)">
        <g
           transform="translate(157.011,134.765)"
           id="g784">
          <path
             d="m 1.265625,-0.765625 1.0625,-1.03125 c 1.546875,-1.375 2.140625,-1.90625 2.140625,-2.90625 0,-1.140625 -0.890625,-1.9375 -2.109375,-1.9375 -1.125,0 -1.859375,0.921875 -1.859375,1.8125 0,0.546875 0.5,0.546875 0.53125,0.546875 0.171875,0 0.515625,-0.109375 0.515625,-0.53125 0,-0.25 -0.1875,-0.515625 -0.53125,-0.515625 -0.078125,0 -0.09375,0 -0.125,0.015625 0.21875,-0.65625 0.765625,-1.015625 1.34375,-1.015625 0.90625,0 1.328125,0.8125 1.328125,1.625 C 3.5625,-3.90625 3.078125,-3.125 2.515625,-2.5 l -1.90625,2.125 C 0.5,-0.265625 0.5,-0.234375 0.5,0 H 4.203125 L 4.46875,-1.734375 H 4.234375 C 4.171875,-1.4375 4.109375,-1 4,-0.84375 3.9375,-0.765625 3.28125,-0.765625 3.0625,-0.765625 Z m 0,0"
             id="id-7f444090-e0de-4e46-96d7-8576eabee311" />
        </g>
      </g>
      <g
         fill="#000000"
         fill-opacity="1"
         id="id-c0848e79-f852-4f4d-9675-541505928ef2"
         transform="matrix(6.0186799,0,0,6.0186799,-1054.5835,-693.32249)">
        <g
           transform="translate(165.32,134.765)"
           id="g788">
          <path
             d="m 2.890625,-3.515625 c 0.8125,-0.265625 1.390625,-0.953125 1.390625,-1.75 0,-0.8125 -0.875,-1.375 -1.828125,-1.375 -1,0 -1.765625,0.59375 -1.765625,1.359375 0,0.328125 0.21875,0.515625 0.515625,0.515625 0.296875,0 0.5,-0.21875 0.5,-0.515625 0,-0.484375 -0.46875,-0.484375 -0.609375,-0.484375 0.296875,-0.5 0.953125,-0.625 1.3125,-0.625 0.421875,0 0.96875,0.21875 0.96875,1.109375 0,0.125 -0.03125,0.703125 -0.28125,1.140625 C 2.796875,-3.65625 2.453125,-3.625 2.203125,-3.625 2.125,-3.609375 1.890625,-3.59375 1.8125,-3.59375 c -0.078125,0.015625 -0.140625,0.03125 -0.140625,0.125 0,0.109375 0.0625,0.109375 0.234375,0.109375 h 0.4375 c 0.8125,0 1.1875,0.671875 1.1875,1.65625 0,1.359375 -0.6875,1.640625 -1.125,1.640625 -0.4375,0 -1.1875,-0.171875 -1.53125,-0.75 0.34375,0.046875 0.65625,-0.171875 0.65625,-0.546875 0,-0.359375 -0.265625,-0.5625 -0.546875,-0.5625 -0.25,0 -0.5625,0.140625 -0.5625,0.578125 0,0.90625 0.921875,1.5625 2.015625,1.5625 1.21875,0 2.125,-0.90625 2.125,-1.921875 0,-0.8125 -0.640625,-1.59375 -1.671875,-1.8125 z m 0,0"
             id="id-1225c1ef-999c-4fdc-813c-de0ea1bca1d7" />
        </g>
      </g>
      <g
         fill="#000000"
         fill-opacity="1"
         id="id-2c00445e-9f3e-4aa1-bf99-a5d04614e7ce"
         transform="matrix(6.0186799,0,0,6.0186799,-1253.1143,-565.46925)">
        <g
           transform="translate(173.619,134.765)"
           id="g792">
          <path
             d="m 2.9375,-1.640625 v 0.859375 c 0,0.359375 -0.03125,0.46875 -0.765625,0.46875 H 1.96875 V 0 C 2.375,-0.03125 2.890625,-0.03125 3.3125,-0.03125 c 0.421875,0 0.9375,0 1.359375,0.03125 v -0.3125 h -0.21875 c -0.734375,0 -0.75,-0.109375 -0.75,-0.46875 V -1.640625 H 4.6875 v -0.3125 H 3.703125 v -4.53125 c 0,-0.203125 0,-0.265625 -0.171875,-0.265625 -0.078125,0 -0.109375,0 -0.1875,0.125 l -3.0625,4.671875 v 0.3125 z m 0.046875,-0.3125 H 0.5625 l 2.421875,-3.71875 z m 0,0"
             id="id-3ae256e1-edf7-4e7c-8679-533f63e60b06" />
        </g>
      </g>
      <g
         fill="#000000"
         fill-opacity="1"
         id="id-fec49bc6-f010-478b-99a8-b3db057f690a"
         transform="matrix(6.0186799,0,0,6.0186799,-1082.2329,-455.08969)">
        <g
           transform="translate(181.917,134.765)"
           id="g796">
          <path
             d="m 4.46875,-2 c 0,-1.1875 -0.8125,-2.1875 -1.890625,-2.1875 -0.46875,0 -0.90625,0.15625 -1.265625,0.515625 V -5.625 c 0.203125,0.0625 0.53125,0.125 0.84375,0.125 1.234375,0 1.9375,-0.90625 1.9375,-1.03125 0,-0.0625 -0.03125,-0.109375 -0.109375,-0.109375 0,0 -0.03125,0 -0.078125,0.03125 C 3.703125,-6.515625 3.21875,-6.3125 2.546875,-6.3125 2.15625,-6.3125 1.6875,-6.390625 1.21875,-6.59375 1.140625,-6.625 1.125,-6.625 1.109375,-6.625 1,-6.625 1,-6.546875 1,-6.390625 V -3.4375 c 0,0.171875 0,0.25 0.140625,0.25 0.078125,0 0.09375,-0.015625 0.140625,-0.078125 C 1.390625,-3.421875 1.75,-3.96875 2.5625,-3.96875 c 0.515625,0 0.765625,0.453125 0.84375,0.640625 0.15625,0.375 0.1875,0.75 0.1875,1.25 0,0.359375 0,0.953125 -0.25,1.375 C 3.109375,-0.3125 2.734375,-0.0625 2.28125,-0.0625 c -0.71875,0 -1.296875,-0.53125 -1.46875,-1.109375 0.03125,0 0.0625,0.015625 0.171875,0.015625 0.328125,0 0.5,-0.25 0.5,-0.484375 0,-0.25 -0.171875,-0.5 -0.5,-0.5 C 0.84375,-2.140625 0.5,-2.0625 0.5,-1.609375 0.5,-0.75 1.1875,0.21875 2.296875,0.21875 3.453125,0.21875 4.46875,-0.734375 4.46875,-2 Z m 0,0"
             id="id-a976313b-726b-4eda-891a-9df677d14aa0" />
        </g>
      </g>
      <g
         fill="#000000"
         fill-opacity="1"
         id="id-9cf2cc6f-d6ab-4db1-b59e-9f0e4a6cb033"
         transform="matrix(6.0186799,0,0,6.0186799,-1037.2526,-546.77241)">
        <g
           transform="translate(190.226,134.765)"
           id="g800">
          <path
             d="m 1.3125,-3.265625 v -0.25 c 0,-2.515625 1.234375,-2.875 1.75,-2.875 0.234375,0 0.65625,0.0625 0.875,0.40625 -0.15625,0 -0.546875,0 -0.546875,0.4375 0,0.3125 0.234375,0.46875 0.453125,0.46875 0.15625,0 0.46875,-0.09375 0.46875,-0.484375 0,-0.59375 -0.4375,-1.078125 -1.265625,-1.078125 -1.28125,0 -2.625,1.28125 -2.625,3.484375 0,2.671875 1.15625,3.375 2.078125,3.375 1.109375,0 2.0625,-0.9375 2.0625,-2.25 0,-1.265625 -0.890625,-2.21875 -2,-2.21875 -0.671875,0 -1.046875,0.5 -1.25,0.984375 z M 2.5,-0.0625 c -0.625,0 -0.921875,-0.59375 -0.984375,-0.75 -0.1875,-0.46875 -0.1875,-1.265625 -0.1875,-1.4375 0,-0.78125 0.328125,-1.78125 1.21875,-1.78125 0.171875,0 0.625,0 0.9375,0.625 0.171875,0.359375 0.171875,0.875 0.171875,1.359375 0,0.484375 0,0.984375 -0.171875,1.34375 C 3.1875,-0.109375 2.734375,-0.0625 2.5,-0.0625 Z m 0,0"
             id="id-c080b885-92c4-4344-9362-32f4a8217568" />
        </g>
      </g>
      <g
         fill="#000000"
         fill-opacity="1"
         id="id-44217dc9-bd60-46ba-9511-6a48b85772ff"
         transform="matrix(6.0186799,0,0,6.0186799,-895.70325,-523.81676)">
        <g
           transform="translate(198.525,134.765)"
           id="g804">
          <path
             d="m 4.75,-6.078125 c 0.078125,-0.109375 0.078125,-0.125 0.078125,-0.34375 H 2.40625 c -1.203125,0 -1.234375,-0.125 -1.265625,-0.3125 h -0.25 L 0.5625,-4.6875 h 0.25 c 0.03125,-0.15625 0.109375,-0.78125 0.25,-0.90625 0.0625,-0.0625 0.84375,-0.0625 0.96875,-0.0625 h 2.0625 C 3.984375,-5.5 3.203125,-4.40625 2.984375,-4.078125 2.078125,-2.734375 1.75,-1.34375 1.75,-0.328125 c 0,0.09375 0,0.546875 0.46875,0.546875 0.453125,0 0.453125,-0.453125 0.453125,-0.546875 V -0.84375 c 0,-0.546875 0.03125,-1.09375 0.109375,-1.625 0.046875,-0.234375 0.171875,-1.09375 0.625,-1.703125 z m 0,0"
             id="id-1ceb9c5e-f236-4e62-bce0-852398c028ca" />
        </g>
      </g>
      <g
         fill="#000000"
         fill-opacity="1"
         id="id-e80825a1-efe4-4b47-b85c-5e32504a9905"
         transform="matrix(6.0186799,0,0,6.0186799,-939.30193,-707.45597)">
        <g
           transform="translate(206.824,134.765)"
           id="g808">
          <path
             d="m 1.625,-4.5625 c -0.453125,-0.296875 -0.5,-0.625 -0.5,-0.796875 0,-0.609375 0.65625,-1.03125 1.359375,-1.03125 0.71875,0 1.359375,0.515625 1.359375,1.234375 0,0.578125 -0.390625,1.046875 -0.984375,1.390625 z m 1.453125,0.953125 C 3.796875,-3.984375 4.28125,-4.5 4.28125,-5.15625 c 0,-0.921875 -0.875,-1.484375 -1.78125,-1.484375 -1,0 -1.8125,0.734375 -1.8125,1.671875 0,0.171875 0.015625,0.625 0.4375,1.09375 0.109375,0.109375 0.484375,0.359375 0.734375,0.53125 C 1.28125,-3.046875 0.421875,-2.5 0.421875,-1.5 c 0,1.046875 1.015625,1.71875 2.0625,1.71875 1.125,0 2.078125,-0.828125 2.078125,-1.890625 0,-0.359375 -0.109375,-0.8125 -0.5,-1.234375 C 3.875,-3.109375 3.71875,-3.203125 3.078125,-3.609375 Z m -1,0.421875 1.234375,0.78125 c 0.28125,0.1875 0.75,0.484375 0.75,1.09375 0,0.734375 -0.75,1.25 -1.5625,1.25 -0.859375,0 -1.578125,-0.609375 -1.578125,-1.4375 0,-0.578125 0.3125,-1.21875 1.15625,-1.6875 z m 0,0"
             id="id-03db31fb-a0f9-4306-953c-97fe3b9e0f12" />
        </g>
      </g>
    </g>
    <g
       id="g1023"
       transform="translate(-123.15201,47.565416)">
      <g
         id="g657"
         transform="translate(-928.28228,-65.641652)">
        <path
           style="fill:#000000;fill-opacity:1;stroke:#010301;stroke-width:10;stroke-linecap:round;stroke-linejoin:round;stroke-dasharray:none"
           id="path234-36"
           sodipodi:type="arc"
           sodipodi:cx="1589.9568"
           sodipodi:cy="193.22656"
           sodipodi:rx="22.863005"
           sodipodi:ry="22.863005"
           sodipodi:start="0"
           sodipodi:end="6.2766013"
           sodipodi:open="true"
           sodipodi:arc-type="chord"
           d="m 1612.8198,193.22656 a 22.863005,22.863005 0 0 1 -22.8254,22.86298 22.863005,22.863005 0 0 1 -22.9005,-22.78771 22.863005,22.863005 0 0 1 22.75,-22.93799 22.863005,22.863005 0 0 1 22.9754,22.71219 z" />
        <path
           style="fill:#000000;fill-opacity:1;stroke:#010301;stroke-width:10;stroke-linecap:round;stroke-linejoin:round;stroke-dasharray:none"
           id="path234-3-7"
           sodipodi:type="arc"
           sodipodi:cx="1754.3289"
           sodipodi:cy="126.48685"
           sodipodi:rx="22.863005"
           sodipodi:ry="22.863005"
           sodipodi:start="0"
           sodipodi:end="6.2766013"
           sodipodi:open="true"
           sodipodi:arc-type="chord"
           d="m 1777.1919,126.48685 a 22.863005,22.863005 0 0 1 -22.8254,22.86297 22.863005,22.863005 0 0 1 -22.9005,-22.78771 22.863005,22.863005 0 0 1 22.75,-22.93799 22.863005,22.863005 0 0 1 22.9754,22.7122 z" />
        <path
           style="fill:#000000;fill-opacity:1;stroke:#010301;stroke-width:10;stroke-linecap:round;stroke-linejoin:round;stroke-dasharray:none"
           id="path234-6-5"
           sodipodi:type="arc"
           sodipodi:cx="1740.4856"
           sodipodi:cy="288.83008"
           sodipodi:rx="22.863005"
           sodipodi:ry="22.863005"
           sodipodi:start="0"
           sodipodi:end="6.2766013"
           sodipodi:open="true"
           sodipodi:arc-type="chord"
           d="m 1763.3486,288.83008 a 22.863005,22.863005 0 0 1 -22.8254,22.86297 22.863005,22.863005 0 0 1 -22.9005,-22.78771 22.863005,22.863005 0 0 1 22.75,-22.93799 22.863005,22.863005 0 0 1 22.9754,22.7122 z" />
        <path
           style="fill:#000000;fill-opacity:1;stroke:#010301;stroke-width:10;stroke-linecap:round;stroke-linejoin:round;stroke-dasharray:none"
           id="path234-7-3"
           sodipodi:type="arc"
           sodipodi:cx="1979.5957"
           sodipodi:cy="261.14365"
           sodipodi:rx="22.863005"
           sodipodi:ry="22.863005"
           sodipodi:start="0"
           sodipodi:end="6.2766013"
           sodipodi:open="true"
           sodipodi:arc-type="chord"
           d="m 2002.4587,261.14365 a 22.863005,22.863005 0 0 1 -22.8254,22.86297 22.863005,22.863005 0 0 1 -22.9005,-22.78771 22.863005,22.863005 0 0 1 22.75,-22.93799 22.863005,22.863005 0 0 1 22.9754,22.7122 z" />
        <path
           style="fill:#000000;fill-opacity:1;stroke:#010301;stroke-width:10;stroke-linecap:round;stroke-linejoin:round;stroke-dasharray:none"
           id="path234-5-5"
           sodipodi:type="arc"
           sodipodi:cx="1855.0068"
           sodipodi:cy="87.474144"
           sodipodi:rx="22.863005"
           sodipodi:ry="22.863005"
           sodipodi:start="0"
           sodipodi:end="6.2766013"
           sodipodi:open="true"
           sodipodi:arc-type="chord"
           d="m 1877.8698,87.474144 a 22.863005,22.863005 0 0 1 -22.8253,22.862976 22.863005,22.863005 0 0 1 -22.9005,-22.787711 22.863005,22.863005 0 0 1 22.7499,-22.937991 22.863005,22.863005 0 0 1 22.9754,22.712197 z" />
        <path
           style="fill:#000000;fill-opacity:1;stroke:#010301;stroke-width:10;stroke-linecap:round;stroke-linejoin:round;stroke-dasharray:none"
           id="path234-35-6"
           sodipodi:type="arc"
           sodipodi:cx="1702.7313"
           sodipodi:cy="27.067368"
           sodipodi:rx="22.863005"
           sodipodi:ry="22.863005"
           sodipodi:start="0"
           sodipodi:end="6.2766013"
           sodipodi:open="true"
           sodipodi:arc-type="chord"
           d="m 1725.5943,27.067368 a 22.863005,22.863005 0 0 1 -22.8253,22.862973 22.863005,22.863005 0 0 1 -22.9006,-22.787708 22.863005,22.863005 0 0 1 22.75,-22.9379914 22.863005,22.863005 0 0 1 22.9754,22.7121964 z" />
        <path
           style="fill:#000000;fill-opacity:1;stroke:#010301;stroke-width:10;stroke-linecap:round;stroke-linejoin:round;stroke-dasharray:none"
           id="path234-62-2"
           sodipodi:type="arc"
           sodipodi:cx="2002.2483"
           sodipodi:cy="134.0377"
           sodipodi:rx="22.863005"
           sodipodi:ry="22.863005"
           sodipodi:start="0"
           sodipodi:end="6.2766013"
           sodipodi:open="true"
           sodipodi:arc-type="chord"
           d="m 2025.1113,134.0377 a 22.863005,22.863005 0 0 1 -22.8254,22.86298 22.863005,22.863005 0 0 1 -22.9005,-22.78771 22.863005,22.863005 0 0 1 22.75,-22.93799 22.863005,22.863005 0 0 1 22.9754,22.7122 z" />
        <path
           style="fill:#000000;fill-opacity:1;stroke:#010301;stroke-width:10;stroke-linecap:round;stroke-linejoin:round;stroke-dasharray:none"
           id="path234-9-9"
           sodipodi:type="arc"
           sodipodi:cx="1813.4772"
           sodipodi:cy="212.06314"
           sodipodi:rx="22.863005"
           sodipodi:ry="22.863005"
           sodipodi:start="0"
           sodipodi:end="6.2766013"
           sodipodi:open="true"
           sodipodi:arc-type="chord"
           d="m 1836.3402,212.06314 a 22.863005,22.863005 0 0 1 -22.8254,22.86297 22.863005,22.863005 0 0 1 -22.9005,-22.7877 22.863005,22.863005 0 0 1 22.75,-22.938 22.863005,22.863005 0 0 1 22.9754,22.7122 z" />
        <path
           style="fill:none;fill-rule:evenodd;stroke:#000000;stroke-width:10;stroke-linecap:butt;stroke-linejoin:miter;stroke-dasharray:none;stroke-opacity:1"
           d="m 1611.1401,184.62553 122.0056,-49.53771"
           id="path1760-1"
           inkscape:connector-type="polyline"
           inkscape:connector-curvature="0"
           inkscape:connection-start="#path234-36"
           inkscape:connection-end="#path234-3-7" />
        <path
           style="fill:none;fill-rule:evenodd;stroke:#000000;stroke-width:10;stroke-linecap:butt;stroke-linejoin:miter;stroke-dasharray:none;stroke-opacity:1"
           d="M 1743.7973,106.19435 1713.263,47.360091"
           id="path1762-2"
           inkscape:connector-type="polyline"
           inkscape:connector-curvature="0"
           inkscape:connection-start="#path234-3-7"
           inkscape:connection-end="#path234-35-6" />
        <path
           style="fill:none;fill-rule:evenodd;stroke:#000000;stroke-width:10;stroke-linecap:butt;stroke-linejoin:miter;stroke-dasharray:none;stroke-opacity:1"
           d="m 1723.983,35.497771 109.772,43.545912"
           id="path1764-7"
           inkscape:connector-type="polyline"
           inkscape:connector-curvature="0"
           inkscape:connection-start="#path234-35-6"
           inkscape:connection-end="#path234-5-5" />
        <path
           style="fill:none;fill-rule:evenodd;stroke:#000000;stroke-width:10;stroke-linecap:butt;stroke-linejoin:miter;stroke-dasharray:none;stroke-opacity:1"
           d="m 1833.6886,95.734963 -58.0417,22.491147"
           id="path1766-0"
           inkscape:connector-type="polyline"
           inkscape:connector-curvature="0"
           inkscape:connection-start="#path234-5-5"
           inkscape:connection-end="#path234-3-7" />
        <path
           style="fill:none;fill-rule:evenodd;stroke:#000000;stroke-width:10;stroke-linecap:butt;stroke-linejoin:miter;stroke-dasharray:none;stroke-opacity:1"
           d="m 1754.3289,126.48685 v 0"
           id="path1768-9"
           inkscape:connector-type="polyline"
           inkscape:connector-curvature="0"
           inkscape:connection-start="#path234-3-7"
           inkscape:connection-end="#path234-3-7" />
        <path
           style="fill:none;fill-rule:evenodd;stroke:#000000;stroke-width:10;stroke-linecap:butt;stroke-linejoin:miter;stroke-dasharray:none;stroke-opacity:1"
           d="m 1767.3282,145.29436 33.1496,47.96114"
           id="path1770-3"
           inkscape:connector-type="polyline"
           inkscape:connector-curvature="0"
           inkscape:connection-start="#path234-3-7"
           inkscape:connection-end="#path234-9-9" />
        <path
           style="fill:none;fill-rule:evenodd;stroke:#000000;stroke-width:10;stroke-linecap:butt;stroke-linejoin:miter;stroke-dasharray:none;stroke-opacity:1"
           d="m 1797.7233,228.63186 -41.484,43.62964"
           id="path1772-6"
           inkscape:connector-type="polyline"
           inkscape:connector-curvature="0"
           inkscape:connection-start="#path234-9-9"
           inkscape:connection-end="#path234-6-5" />
        <path
           style="fill:none;fill-rule:evenodd;stroke:#000000;stroke-width:10;stroke-linecap:butt;stroke-linejoin:miter;stroke-dasharray:none;stroke-opacity:1"
           d="m 1834.606,203.32988 146.5134,-60.55889"
           id="path1774-0"
           inkscape:connector-type="polyline"
           inkscape:connector-curvature="0"
           inkscape:connection-start="#path234-9-9"
           inkscape:connection-end="#path234-62-2" />
        <path
           style="fill:none;fill-rule:evenodd;stroke:#000000;stroke-width:10;stroke-linecap:butt;stroke-linejoin:miter;stroke-dasharray:none;stroke-opacity:1"
           d="M 1980.4497,127.14411 1876.8058,94.367823"
           id="path1776-6"
           inkscape:connector-type="polyline"
           inkscape:connector-curvature="0"
           inkscape:connection-start="#path234-62-2"
           inkscape:connection-end="#path234-5-5" />
        <path
           style="fill:none;fill-rule:evenodd;stroke:#000000;stroke-width:10;stroke-linecap:butt;stroke-linejoin:miter;stroke-dasharray:none;stroke-opacity:1"
           d="m 1998.237,156.54563 -14.63,82.08995"
           id="path1778-2"
           inkscape:connector-type="polyline"
           inkscape:connector-curvature="0"
           inkscape:connection-start="#path234-62-2"
           inkscape:connection-end="#path234-7-3" />
      </g>
      <g
         fill="#000000"
         fill-opacity="1"
         id="id-4e26a73f-e5f6-414d-8103-d6a7663adbc1"
         transform="matrix(6.0186799,0,0,6.0186799,-109.56519,-575.56484)">
        <g
           transform="translate(148.712,146.72)"
           id="g812">
          <path
             d="m 2.9375,-6.375 c 0,-0.25 0,-0.265625 -0.234375,-0.265625 C 2.078125,-6 1.203125,-6 0.890625,-6 v 0.3125 c 0.203125,0 0.78125,0 1.296875,-0.265625 v 5.171875 c 0,0.359375 -0.03125,0.46875 -0.921875,0.46875 h -0.3125 V 0 c 0.34375,-0.03125 1.203125,-0.03125 1.609375,-0.03125 0.390625,0 1.265625,0 1.609375,0.03125 v -0.3125 h -0.3125 c -0.90625,0 -0.921875,-0.109375 -0.921875,-0.46875 z m 0,0"
             id="id-448279d0-e4c4-4a12-b513-a61a3f77bf59" />
        </g>
      </g>
      <g
         fill="#000000"
         fill-opacity="1"
         id="id-370ee533-7497-405b-959c-8f6bd5778cb1"
         transform="matrix(6.0186799,0,0,6.0186799,-39.392944,-898.19226)">
        <g
           transform="translate(157.011,146.72)"
           id="g816">
          <path
             d="m 1.265625,-0.765625 1.0625,-1.03125 c 1.546875,-1.375 2.140625,-1.90625 2.140625,-2.90625 0,-1.140625 -0.890625,-1.9375 -2.109375,-1.9375 -1.125,0 -1.859375,0.921875 -1.859375,1.8125 0,0.546875 0.5,0.546875 0.53125,0.546875 0.171875,0 0.515625,-0.109375 0.515625,-0.53125 0,-0.25 -0.1875,-0.515625 -0.53125,-0.515625 -0.078125,0 -0.09375,0 -0.125,0.015625 0.21875,-0.65625 0.765625,-1.015625 1.34375,-1.015625 0.90625,0 1.328125,0.8125 1.328125,1.625 C 3.5625,-3.90625 3.078125,-3.125 2.515625,-2.5 l -1.90625,2.125 C 0.5,-0.265625 0.5,-0.234375 0.5,0 H 4.203125 L 4.46875,-1.734375 H 4.234375 C 4.171875,-1.4375 4.109375,-1 4,-0.84375 3.9375,-0.765625 3.28125,-0.765625 3.0625,-0.765625 Z m 0,0"
             id="id-02a8941d-819f-4b23-99bd-891cfab7af7a" />
        </g>
      </g>
      <g
         fill="#000000"
         fill-opacity="1"
         id="id-ee69ef43-6c80-463a-8db3-9f93cafa2d34"
         transform="matrix(6.0186799,0,0,6.0186799,112.84658,-797.08066)">
        <g
           transform="translate(165.32,146.72)"
           id="g820">
          <path
             d="m 2.890625,-3.515625 c 0.8125,-0.265625 1.390625,-0.953125 1.390625,-1.75 0,-0.8125 -0.875,-1.375 -1.828125,-1.375 -1,0 -1.765625,0.59375 -1.765625,1.359375 0,0.328125 0.21875,0.515625 0.515625,0.515625 0.296875,0 0.5,-0.21875 0.5,-0.515625 0,-0.484375 -0.46875,-0.484375 -0.609375,-0.484375 0.296875,-0.5 0.953125,-0.625 1.3125,-0.625 0.421875,0 0.96875,0.21875 0.96875,1.109375 0,0.125 -0.03125,0.703125 -0.28125,1.140625 C 2.796875,-3.65625 2.453125,-3.625 2.203125,-3.625 2.125,-3.609375 1.890625,-3.59375 1.8125,-3.59375 c -0.078125,0.015625 -0.140625,0.03125 -0.140625,0.125 0,0.109375 0.0625,0.109375 0.234375,0.109375 h 0.4375 c 0.8125,0 1.1875,0.671875 1.1875,1.65625 0,1.359375 -0.6875,1.640625 -1.125,1.640625 -0.4375,0 -1.1875,-0.171875 -1.53125,-0.75 0.34375,0.046875 0.65625,-0.171875 0.65625,-0.546875 0,-0.359375 -0.265625,-0.5625 -0.546875,-0.5625 -0.25,0 -0.5625,0.140625 -0.5625,0.578125 0,0.90625 0.921875,1.5625 2.015625,1.5625 1.21875,0 2.125,-0.90625 2.125,-1.921875 0,-0.8125 -0.640625,-1.59375 -1.671875,-1.8125 z m 0,0"
             id="id-faabbe87-1d05-4017-9f03-d7e8c0fd9708" />
        </g>
      </g>
      <g
         fill="#000000"
         fill-opacity="1"
         id="id-61276703-d45d-4944-b69e-279107aa4875"
         transform="matrix(6.0186799,0,0,6.0186799,-325.63616,-944.00865)">
        <g
           transform="translate(173.619,146.72)"
           id="g824">
          <path
             d="m 2.9375,-1.640625 v 0.859375 c 0,0.359375 -0.03125,0.46875 -0.765625,0.46875 H 1.96875 V 0 C 2.375,-0.03125 2.890625,-0.03125 3.3125,-0.03125 c 0.421875,0 0.9375,0 1.359375,0.03125 v -0.3125 h -0.21875 c -0.734375,0 -0.75,-0.109375 -0.75,-0.46875 V -1.640625 H 4.6875 v -0.3125 H 3.703125 v -4.53125 c 0,-0.203125 0,-0.265625 -0.171875,-0.265625 -0.078125,0 -0.109375,0 -0.1875,0.125 l -3.0625,4.671875 v 0.3125 z m 0.046875,-0.3125 H 0.5625 l 2.421875,-3.71875 z m 0,0"
             id="id-6b9c5144-1352-40ec-8909-8fb44aefebb0" />
        </g>
      </g>
      <g
         fill="#000000"
         fill-opacity="1"
         id="id-98e08ec3-160c-464f-aa9b-583f9550d178"
         transform="matrix(6.0186799,0,0,6.0186799,-490.399,-777.69714)">
        <g
           transform="translate(181.917,146.72)"
           id="g828">
          <path
             d="m 4.46875,-2 c 0,-1.1875 -0.8125,-2.1875 -1.890625,-2.1875 -0.46875,0 -0.90625,0.15625 -1.265625,0.515625 V -5.625 c 0.203125,0.0625 0.53125,0.125 0.84375,0.125 1.234375,0 1.9375,-0.90625 1.9375,-1.03125 0,-0.0625 -0.03125,-0.109375 -0.109375,-0.109375 0,0 -0.03125,0 -0.078125,0.03125 C 3.703125,-6.515625 3.21875,-6.3125 2.546875,-6.3125 2.15625,-6.3125 1.6875,-6.390625 1.21875,-6.59375 1.140625,-6.625 1.125,-6.625 1.109375,-6.625 1,-6.625 1,-6.546875 1,-6.390625 V -3.4375 c 0,0.171875 0,0.25 0.140625,0.25 0.078125,0 0.09375,-0.015625 0.140625,-0.078125 C 1.390625,-3.421875 1.75,-3.96875 2.5625,-3.96875 c 0.515625,0 0.765625,0.453125 0.84375,0.640625 0.15625,0.375 0.1875,0.75 0.1875,1.25 0,0.359375 0,0.953125 -0.25,1.375 C 3.109375,-0.3125 2.734375,-0.0625 2.28125,-0.0625 c -0.71875,0 -1.296875,-0.53125 -1.46875,-1.109375 0.03125,0 0.0625,0.015625 0.171875,0.015625 0.328125,0 0.5,-0.25 0.5,-0.484375 0,-0.25 -0.171875,-0.5 -0.5,-0.5 C 0.84375,-2.140625 0.5,-2.0625 0.5,-1.609375 0.5,-0.75 1.1875,0.21875 2.296875,0.21875 3.453125,0.21875 4.46875,-0.734375 4.46875,-2 Z m 0,0"
             id="id-ce8f8ca8-cdb6-47e8-803d-b8424def4e26" />
        </g>
      </g>
      <g
         fill="#000000"
         fill-opacity="1"
         id="id-a3e92d95-d81a-4127-b898-9b7276c455bc"
         transform="matrix(6.0186799,0,0,6.0186799,-59.784783,-634.72682)">
        <g
           transform="translate(190.226,146.72)"
           id="g832">
          <path
             d="m 1.3125,-3.265625 v -0.25 c 0,-2.515625 1.234375,-2.875 1.75,-2.875 0.234375,0 0.65625,0.0625 0.875,0.40625 -0.15625,0 -0.546875,0 -0.546875,0.4375 0,0.3125 0.234375,0.46875 0.453125,0.46875 0.15625,0 0.46875,-0.09375 0.46875,-0.484375 0,-0.59375 -0.4375,-1.078125 -1.265625,-1.078125 -1.28125,0 -2.625,1.28125 -2.625,3.484375 0,2.671875 1.15625,3.375 2.078125,3.375 1.109375,0 2.0625,-0.9375 2.0625,-2.25 0,-1.265625 -0.890625,-2.21875 -2,-2.21875 -0.671875,0 -1.046875,0.5 -1.25,0.984375 z M 2.5,-0.0625 c -0.625,0 -0.921875,-0.59375 -0.984375,-0.75 -0.1875,-0.46875 -0.1875,-1.265625 -0.1875,-1.4375 0,-0.78125 0.328125,-1.78125 1.21875,-1.78125 0.171875,0 0.625,0 0.9375,0.625 0.171875,0.359375 0.171875,0.875 0.171875,1.359375 0,0.484375 0,0.984375 -0.171875,1.34375 C 3.1875,-0.109375 2.734375,-0.0625 2.5,-0.0625 Z m 0,0"
             id="id-bd17f2f1-fd5a-4e59-b456-6183323f21c7" />
        </g>
      </g>
      <g
         fill="#000000"
         fill-opacity="1"
         id="id-8c2c71b5-27fc-4e0b-b39d-032c155e98ab"
         transform="matrix(6.0186799,0,0,6.0186799,-412.90927,-746.13852)">
        <g
           transform="translate(198.525,146.72)"
           id="g836">
          <path
             d="m 4.75,-6.078125 c 0.078125,-0.109375 0.078125,-0.125 0.078125,-0.34375 H 2.40625 c -1.203125,0 -1.234375,-0.125 -1.265625,-0.3125 h -0.25 L 0.5625,-4.6875 h 0.25 c 0.03125,-0.15625 0.109375,-0.78125 0.25,-0.90625 0.0625,-0.0625 0.84375,-0.0625 0.96875,-0.0625 h 2.0625 C 3.984375,-5.5 3.203125,-4.40625 2.984375,-4.078125 2.078125,-2.734375 1.75,-1.34375 1.75,-0.328125 c 0,0.09375 0,0.546875 0.46875,0.546875 0.453125,0 0.453125,-0.453125 0.453125,-0.546875 V -0.84375 c 0,-0.546875 0.03125,-1.09375 0.109375,-1.625 0.046875,-0.234375 0.171875,-1.09375 0.625,-1.703125 z m 0,0"
             id="id-ebff5c76-0aa7-4bc7-a3e1-aef817945e4e" />
        </g>
      </g>
      <g
         fill="#000000"
         fill-opacity="1"
         id="id-6e6654e2-037a-4886-b4a9-6f31f4019484"
         transform="matrix(6.0186799,0,0,6.0186799,-346.57736,-668.10163)">
        <g
           transform="translate(206.824,146.72)"
           id="g840">
          <path
             d="m 1.625,-4.5625 c -0.453125,-0.296875 -0.5,-0.625 -0.5,-0.796875 0,-0.609375 0.65625,-1.03125 1.359375,-1.03125 0.71875,0 1.359375,0.515625 1.359375,1.234375 0,0.578125 -0.390625,1.046875 -0.984375,1.390625 z m 1.453125,0.953125 C 3.796875,-3.984375 4.28125,-4.5 4.28125,-5.15625 c 0,-0.921875 -0.875,-1.484375 -1.78125,-1.484375 -1,0 -1.8125,0.734375 -1.8125,1.671875 0,0.171875 0.015625,0.625 0.4375,1.09375 0.109375,0.109375 0.484375,0.359375 0.734375,0.53125 C 1.28125,-3.046875 0.421875,-2.5 0.421875,-1.5 c 0,1.046875 1.015625,1.71875 2.0625,1.71875 1.125,0 2.078125,-0.828125 2.078125,-1.890625 0,-0.359375 -0.109375,-0.8125 -0.5,-1.234375 C 3.875,-3.109375 3.71875,-3.203125 3.078125,-3.609375 Z m -1,0.421875 1.234375,0.78125 c 0.28125,0.1875 0.75,0.484375 0.75,1.09375 0,0.734375 -0.75,1.25 -1.5625,1.25 -0.859375,0 -1.578125,-0.609375 -1.578125,-1.4375 0,-0.578125 0.3125,-1.21875 1.15625,-1.6875 z m 0,0"
             id="id-2cc90a39-cfb2-4609-ad19-d20376d6d456" />
        </g>
      </g>
    </g>
  </g>
</svg>
