<?xml version="1.0" encoding="utf-8" standalone="no"?>
<!DOCTYPE svg PUBLIC "-//W3C//DTD SVG 1.1//EN"
  "http://www.w3.org/Graphics/SVG/1.1/DTD/svg11.dtd">
<svg xmlns:xlink="http://www.w3.org/1999/xlink" width="720pt" height="360pt" viewBox="0 0 720 360" xmlns="http://www.w3.org/2000/svg" version="1.1">
 <metadata>
  <rdf:RDF xmlns:dc="http://purl.org/dc/elements/1.1/" xmlns:cc="http://creativecommons.org/ns#" xmlns:rdf="http://www.w3.org/1999/02/22-rdf-syntax-ns#">
   <cc:Work>
    <dc:type rdf:resource="http://purl.org/dc/dcmitype/StillImage"/>
    <dc:date>2024-11-13T15:27:11.499199</dc:date>
    <dc:format>image/svg+xml</dc:format>
    <dc:creator>
     <cc:Agent>
      <dc:title>Matplotlib v3.9.2, https://matplotlib.org/</dc:title>
     </cc:Agent>
    </dc:creator>
   </cc:Work>
  </rdf:RDF>
 </metadata>
 <defs>
  <style type="text/css">*{stroke-linejoin: round; stroke-linecap: butt}</style>
 </defs>
 <g id="figure_1">
  <g id="patch_1">
   <path d="M 0 360 
L 720 360 
L 720 0 
L 0 0 
z
" style="fill: #ffffff"/>
  </g>
  <g id="axes_1">
   <g id="LineCollection_1">
    <path d="M 151.019904 147.094217 
L 144.253545 172.000772 
" clip-path="url(#pa3d785d034)" style="fill: none; stroke: #000000"/>
    <path d="M 151.019904 147.094217 
L 169.477673 194.251694 
" clip-path="url(#pa3d785d034)" style="fill: none; stroke: #000000"/>
    <path d="M 151.019904 147.094217 
L 104.551893 170.455898 
" clip-path="url(#pa3d785d034)" style="fill: none; stroke: #000000"/>
    <path d="M 151.019904 147.094217 
L 158.789377 100.424099 
" clip-path="url(#pa3d785d034)" style="fill: none; stroke: #000000"/>
    <path d="M 151.019904 147.094217 
L 156.259872 78.82555 
" clip-path="url(#pa3d785d034)" style="fill: none; stroke: #000000"/>
    <path d="M 151.019904 147.094217 
L 132.002886 81.545833 
" clip-path="url(#pa3d785d034)" style="fill: none; stroke: #000000"/>
    <path d="M 151.019904 147.094217 
L 129.235233 161.850249 
" clip-path="url(#pa3d785d034)" style="fill: none; stroke: #000000"/>
    <path d="M 151.019904 147.094217 
L 202.57885 209.461501 
" clip-path="url(#pa3d785d034)" style="fill: none; stroke: #000000"/>
    <path d="M 151.019904 147.094217 
L 188.69536 86.818602 
" clip-path="url(#pa3d785d034)" style="fill: none; stroke: #000000"/>
    <path d="M 151.019904 147.094217 
L 214.807798 114.8514 
" clip-path="url(#pa3d785d034)" style="fill: none; stroke: #000000"/>
    <path d="M 151.019904 147.094217 
L 40.633884 154.81005 
" clip-path="url(#pa3d785d034)" style="fill: none; stroke: #000000"/>
    <path d="M 151.019904 147.094217 
L 153.888357 195.05142 
" clip-path="url(#pa3d785d034)" style="fill: none; stroke: #000000"/>
    <path d="M 151.019904 147.094217 
L 88.86329 113.660781 
" clip-path="url(#pa3d785d034)" style="fill: none; stroke: #000000"/>
    <path d="M 151.019904 147.094217 
L 116.574658 197.669078 
" clip-path="url(#pa3d785d034)" style="fill: none; stroke: #000000"/>
    <path d="M 151.019904 147.094217 
L 83.663607 138.042105 
" clip-path="url(#pa3d785d034)" style="fill: none; stroke: #000000"/>
    <path d="M 151.019904 147.094217 
L 171.089847 244.595311 
" clip-path="url(#pa3d785d034)" style="fill: none; stroke: #000000"/>
    <path d="M 144.253545 172.000772 
L 169.477673 194.251694 
" clip-path="url(#pa3d785d034)" style="fill: none; stroke: #000000"/>
    <path d="M 144.253545 172.000772 
L 104.551893 170.455898 
" clip-path="url(#pa3d785d034)" style="fill: none; stroke: #000000"/>
    <path d="M 144.253545 172.000772 
L 129.235233 161.850249 
" clip-path="url(#pa3d785d034)" style="fill: none; stroke: #000000"/>
    <path d="M 144.253545 172.000772 
L 153.888357 195.05142 
" clip-path="url(#pa3d785d034)" style="fill: none; stroke: #000000"/>
    <path d="M 144.253545 172.000772 
L 88.86329 113.660781 
" clip-path="url(#pa3d785d034)" style="fill: none; stroke: #000000"/>
    <path d="M 144.253545 172.000772 
L 116.574658 197.669078 
" clip-path="url(#pa3d785d034)" style="fill: none; stroke: #000000"/>
    <path d="M 144.253545 172.000772 
L 83.663607 138.042105 
" clip-path="url(#pa3d785d034)" style="fill: none; stroke: #000000"/>
    <path d="M 144.253545 172.000772 
L 223.101317 216.541243 
" clip-path="url(#pa3d785d034)" style="fill: none; stroke: #000000"/>
    <path d="M 169.477673 194.251694 
L 104.551893 170.455898 
" clip-path="url(#pa3d785d034)" style="fill: none; stroke: #000000"/>
    <path d="M 169.477673 194.251694 
L 129.235233 161.850249 
" clip-path="url(#pa3d785d034)" style="fill: none; stroke: #000000"/>
    <path d="M 169.477673 194.251694 
L 202.57885 209.461501 
" clip-path="url(#pa3d785d034)" style="fill: none; stroke: #000000"/>
    <path d="M 169.477673 194.251694 
L 276.058939 203.432712 
" clip-path="url(#pa3d785d034)" style="fill: none; stroke: #000000"/>
    <path d="M 169.477673 194.251694 
L 153.888357 195.05142 
" clip-path="url(#pa3d785d034)" style="fill: none; stroke: #000000"/>
    <path d="M 169.477673 194.251694 
L 165.694921 262.630182 
" clip-path="url(#pa3d785d034)" style="fill: none; stroke: #000000"/>
    <path d="M 169.477673 194.251694 
L 138.004299 239.319894 
" clip-path="url(#pa3d785d034)" style="fill: none; stroke: #000000"/>
    <path d="M 169.477673 194.251694 
L 236.18649 255.813975 
" clip-path="url(#pa3d785d034)" style="fill: none; stroke: #000000"/>
    <path d="M 104.551893 170.455898 
L 129.235233 161.850249 
" clip-path="url(#pa3d785d034)" style="fill: none; stroke: #000000"/>
    <path d="M 104.551893 170.455898 
L 40.633884 154.81005 
" clip-path="url(#pa3d785d034)" style="fill: none; stroke: #000000"/>
    <path d="M 104.551893 170.455898 
L 153.888357 195.05142 
" clip-path="url(#pa3d785d034)" style="fill: none; stroke: #000000"/>
    <path d="M 158.789377 100.424099 
L 132.002886 81.545833 
" clip-path="url(#pa3d785d034)" style="fill: none; stroke: #000000"/>
    <path d="M 158.789377 100.424099 
L 188.69536 86.818602 
" clip-path="url(#pa3d785d034)" style="fill: none; stroke: #000000"/>
    <path d="M 156.259872 78.82555 
L 132.002886 81.545833 
" clip-path="url(#pa3d785d034)" style="fill: none; stroke: #000000"/>
    <path d="M 156.259872 78.82555 
L 188.69536 86.818602 
" clip-path="url(#pa3d785d034)" style="fill: none; stroke: #000000"/>
    <path d="M 156.259872 78.82555 
L 142.521107 40.165289 
" clip-path="url(#pa3d785d034)" style="fill: none; stroke: #000000"/>
    <path d="M 132.002886 81.545833 
L 142.521107 40.165289 
" clip-path="url(#pa3d785d034)" style="fill: none; stroke: #000000"/>
    <path d="M 202.57885 209.461501 
L 223.101317 216.541243 
" clip-path="url(#pa3d785d034)" style="fill: none; stroke: #000000"/>
    <path d="M 202.57885 209.461501 
L 236.18649 255.813975 
" clip-path="url(#pa3d785d034)" style="fill: none; stroke: #000000"/>
    <path d="M 202.57885 209.461501 
L 220.610654 248.884 
" clip-path="url(#pa3d785d034)" style="fill: none; stroke: #000000"/>
    <path d="M 276.058939 203.432712 
L 220.610654 248.884 
" clip-path="url(#pa3d785d034)" style="fill: none; stroke: #000000"/>
    <path d="M 153.888357 195.05142 
L 220.610654 248.884 
" clip-path="url(#pa3d785d034)" style="fill: none; stroke: #000000"/>
    <path d="M 267.645091 291.65845 
L 236.18649 255.813975 
" clip-path="url(#pa3d785d034)" style="fill: none; stroke: #000000"/>
    <path d="M 267.645091 291.65845 
L 220.610654 248.884 
" clip-path="url(#pa3d785d034)" style="fill: none; stroke: #000000"/>
    <path d="M 281.196824 245.729005 
L 236.18649 255.813975 
" clip-path="url(#pa3d785d034)" style="fill: none; stroke: #000000"/>
    <path d="M 281.196824 245.729005 
L 220.610654 248.884 
" clip-path="url(#pa3d785d034)" style="fill: none; stroke: #000000"/>
    <path d="M 324.766116 252.725953 
L 236.18649 255.813975 
" clip-path="url(#pa3d785d034)" style="fill: none; stroke: #000000"/>
    <path d="M 324.766116 252.725953 
L 220.610654 248.884 
" clip-path="url(#pa3d785d034)" style="fill: none; stroke: #000000"/>
    <path d="M 116.574658 197.669078 
L 220.610654 248.884 
" clip-path="url(#pa3d785d034)" style="fill: none; stroke: #000000"/>
    <path d="M 302.906145 288.837307 
L 236.18649 255.813975 
" clip-path="url(#pa3d785d034)" style="fill: none; stroke: #000000"/>
    <path d="M 302.906145 288.837307 
L 220.610654 248.884 
" clip-path="url(#pa3d785d034)" style="fill: none; stroke: #000000"/>
    <path d="M 288.260252 267.984956 
L 236.18649 255.813975 
" clip-path="url(#pa3d785d034)" style="fill: none; stroke: #000000"/>
    <path d="M 288.260252 267.984956 
L 220.610654 248.884 
" clip-path="url(#pa3d785d034)" style="fill: none; stroke: #000000"/>
    <path d="M 200.926459 279.768989 
L 156.272756 282.324119 
" clip-path="url(#pa3d785d034)" style="fill: none; stroke: #000000"/>
    <path d="M 200.926459 279.768989 
L 165.694921 262.630182 
" clip-path="url(#pa3d785d034)" style="fill: none; stroke: #000000"/>
    <path d="M 200.926459 279.768989 
L 231.339475 295.948031 
" clip-path="url(#pa3d785d034)" style="fill: none; stroke: #000000"/>
    <path d="M 200.926459 279.768989 
L 236.18649 255.813975 
" clip-path="url(#pa3d785d034)" style="fill: none; stroke: #000000"/>
    <path d="M 200.926459 279.768989 
L 220.610654 248.884 
" clip-path="url(#pa3d785d034)" style="fill: none; stroke: #000000"/>
    <path d="M 120.058014 290.122391 
L 156.272756 282.324119 
" clip-path="url(#pa3d785d034)" style="fill: none; stroke: #000000"/>
    <path d="M 120.058014 290.122391 
L 165.694921 262.630182 
" clip-path="url(#pa3d785d034)" style="fill: none; stroke: #000000"/>
    <path d="M 120.058014 290.122391 
L 171.089847 244.595311 
" clip-path="url(#pa3d785d034)" style="fill: none; stroke: #000000"/>
    <path d="M 156.272756 282.324119 
L 171.089847 244.595311 
" clip-path="url(#pa3d785d034)" style="fill: none; stroke: #000000"/>
    <path d="M 235.69408 319.834711 
L 231.339475 295.948031 
" clip-path="url(#pa3d785d034)" style="fill: none; stroke: #000000"/>
    <path d="M 235.69408 319.834711 
L 220.610654 248.884 
" clip-path="url(#pa3d785d034)" style="fill: none; stroke: #000000"/>
    <path d="M 165.694921 262.630182 
L 220.610654 248.884 
" clip-path="url(#pa3d785d034)" style="fill: none; stroke: #000000"/>
    <path d="M 138.004299 239.319894 
L 171.089847 244.595311 
" clip-path="url(#pa3d785d034)" style="fill: none; stroke: #000000"/>
    <path d="M 138.004299 239.319894 
L 220.610654 248.884 
" clip-path="url(#pa3d785d034)" style="fill: none; stroke: #000000"/>
    <path d="M 231.339475 295.948031 
L 236.18649 255.813975 
" clip-path="url(#pa3d785d034)" style="fill: none; stroke: #000000"/>
    <path d="M 231.339475 295.948031 
L 220.610654 248.884 
" clip-path="url(#pa3d785d034)" style="fill: none; stroke: #000000"/>
    <path d="M 223.101317 216.541243 
L 236.18649 255.813975 
" clip-path="url(#pa3d785d034)" style="fill: none; stroke: #000000"/>
    <path d="M 223.101317 216.541243 
L 220.610654 248.884 
" clip-path="url(#pa3d785d034)" style="fill: none; stroke: #000000"/>
    <path d="M 171.089847 244.595311 
L 236.18649 255.813975 
" clip-path="url(#pa3d785d034)" style="fill: none; stroke: #000000"/>
    <path d="M 171.089847 244.595311 
L 220.610654 248.884 
" clip-path="url(#pa3d785d034)" style="fill: none; stroke: #000000"/>
    <path d="M 236.18649 255.813975 
L 220.610654 248.884 
" clip-path="url(#pa3d785d034)" style="fill: none; stroke: #000000"/>
   </g>
   <g id="PathCollection_1">
    <defs>
     <path id="C0_0_912bbfe2b8" d="M 0 8.660254 
C 2.296726 8.660254 4.499694 7.747755 6.123724 6.123724 
C 7.747755 4.499694 8.660254 2.296726 8.660254 -0 
C 8.660254 -2.296726 7.747755 -4.499694 6.123724 -6.123724 
C 4.499694 -7.747755 2.296726 -8.660254 0 -8.660254 
C -2.296726 -8.660254 -4.499694 -7.747755 -6.123724 -6.123724 
C -7.747755 -4.499694 -8.660254 -2.296726 -8.660254 0 
C -8.660254 2.296726 -7.747755 4.499694 -6.123724 6.123724 
C -4.499694 7.747755 -2.296726 8.660254 0 8.660254 
z
"/>
    </defs>
    <g clip-path="url(#pa3d785d034)">
     <use xlink:href="#C0_0_912bbfe2b8" x="151.019904" y="147.094217" style="fill: #26ad81; stroke: #26ad81"/>
    </g>
    <g clip-path="url(#pa3d785d034)">
     <use xlink:href="#C0_0_912bbfe2b8" x="144.253545" y="172.000772" style="fill: #1f978b; stroke: #1f978b"/>
    </g>
    <g clip-path="url(#pa3d785d034)">
     <use xlink:href="#C0_0_912bbfe2b8" x="169.477673" y="194.251694" style="fill: #25838e; stroke: #25838e"/>
    </g>
    <g clip-path="url(#pa3d785d034)">
     <use xlink:href="#C0_0_912bbfe2b8" x="104.551893" y="170.455898" style="fill: #1f988b; stroke: #1f988b"/>
    </g>
    <g clip-path="url(#pa3d785d034)">
     <use xlink:href="#C0_0_912bbfe2b8" x="158.789377" y="100.424099" style="fill: #70cf57; stroke: #70cf57"/>
    </g>
    <g clip-path="url(#pa3d785d034)">
     <use xlink:href="#C0_0_912bbfe2b8" x="156.259872" y="78.82555" style="fill: #a2da37; stroke: #a2da37"/>
    </g>
    <g clip-path="url(#pa3d785d034)">
     <use xlink:href="#C0_0_912bbfe2b8" x="132.002886" y="81.545833" style="fill: #9dd93b; stroke: #9dd93b"/>
    </g>
    <g clip-path="url(#pa3d785d034)">
     <use xlink:href="#C0_0_912bbfe2b8" x="129.235233" y="161.850249" style="fill: #1fa088; stroke: #1fa088"/>
    </g>
    <g clip-path="url(#pa3d785d034)">
     <use xlink:href="#C0_0_912bbfe2b8" x="202.57885" y="209.461501" style="fill: #2a778e; stroke: #2a778e"/>
    </g>
    <g clip-path="url(#pa3d785d034)">
     <use xlink:href="#C0_0_912bbfe2b8" x="276.058939" y="203.432712" style="fill: #287c8e; stroke: #287c8e"/>
    </g>
    <g clip-path="url(#pa3d785d034)">
     <use xlink:href="#C0_0_912bbfe2b8" x="188.69536" y="86.818602" style="fill: #90d743; stroke: #90d743"/>
    </g>
    <g clip-path="url(#pa3d785d034)">
     <use xlink:href="#C0_0_912bbfe2b8" x="214.807798" y="114.8514" style="fill: #54c568; stroke: #54c568"/>
    </g>
    <g clip-path="url(#pa3d785d034)">
     <use xlink:href="#C0_0_912bbfe2b8" x="40.633884" y="154.81005" style="fill: #21a685; stroke: #21a685"/>
    </g>
    <g clip-path="url(#pa3d785d034)">
     <use xlink:href="#C0_0_912bbfe2b8" x="153.888357" y="195.05142" style="fill: #25838e; stroke: #25838e"/>
    </g>
    <g clip-path="url(#pa3d785d034)">
     <use xlink:href="#C0_0_912bbfe2b8" x="267.645091" y="291.65845" style="fill: #482475; stroke: #482475"/>
    </g>
    <g clip-path="url(#pa3d785d034)">
     <use xlink:href="#C0_0_912bbfe2b8" x="281.196824" y="245.729005" style="fill: #39558c; stroke: #39558c"/>
    </g>
    <g clip-path="url(#pa3d785d034)">
     <use xlink:href="#C0_0_912bbfe2b8" x="142.521107" y="40.165289" style="fill: #fde725; stroke: #fde725"/>
    </g>
    <g clip-path="url(#pa3d785d034)">
     <use xlink:href="#C0_0_912bbfe2b8" x="88.86329" y="113.660781" style="fill: #56c667; stroke: #56c667"/>
    </g>
    <g clip-path="url(#pa3d785d034)">
     <use xlink:href="#C0_0_912bbfe2b8" x="324.766116" y="252.725953" style="fill: #3c4f8a; stroke: #3c4f8a"/>
    </g>
    <g clip-path="url(#pa3d785d034)">
     <use xlink:href="#C0_0_912bbfe2b8" x="116.574658" y="197.669078" style="fill: #26818e; stroke: #26818e"/>
    </g>
    <g clip-path="url(#pa3d785d034)">
     <use xlink:href="#C0_0_912bbfe2b8" x="302.906145" y="288.837307" style="fill: #482878; stroke: #482878"/>
    </g>
    <g clip-path="url(#pa3d785d034)">
     <use xlink:href="#C0_0_912bbfe2b8" x="83.663607" y="138.042105" style="fill: #2fb47c; stroke: #2fb47c"/>
    </g>
    <g clip-path="url(#pa3d785d034)">
     <use xlink:href="#C0_0_912bbfe2b8" x="288.260252" y="267.984956" style="fill: #423f85; stroke: #423f85"/>
    </g>
    <g clip-path="url(#pa3d785d034)">
     <use xlink:href="#C0_0_912bbfe2b8" x="200.926459" y="279.768989" style="fill: #46327e; stroke: #46327e"/>
    </g>
    <g clip-path="url(#pa3d785d034)">
     <use xlink:href="#C0_0_912bbfe2b8" x="120.058014" y="290.122391" style="fill: #482677; stroke: #482677"/>
    </g>
    <g clip-path="url(#pa3d785d034)">
     <use xlink:href="#C0_0_912bbfe2b8" x="156.272756" y="282.324119" style="fill: #472f7d; stroke: #472f7d"/>
    </g>
    <g clip-path="url(#pa3d785d034)">
     <use xlink:href="#C0_0_912bbfe2b8" x="235.69408" y="319.834711" style="fill: #440154; stroke: #440154"/>
    </g>
    <g clip-path="url(#pa3d785d034)">
     <use xlink:href="#C0_0_912bbfe2b8" x="165.694921" y="262.630182" style="fill: #404588; stroke: #404588"/>
    </g>
    <g clip-path="url(#pa3d785d034)">
     <use xlink:href="#C0_0_912bbfe2b8" x="138.004299" y="239.319894" style="fill: #365c8d; stroke: #365c8d"/>
    </g>
    <g clip-path="url(#pa3d785d034)">
     <use xlink:href="#C0_0_912bbfe2b8" x="231.339475" y="295.948031" style="fill: #481f70; stroke: #481f70"/>
    </g>
    <g clip-path="url(#pa3d785d034)">
     <use xlink:href="#C0_0_912bbfe2b8" x="223.101317" y="216.541243" style="fill: #2d718e; stroke: #2d718e"/>
    </g>
    <g clip-path="url(#pa3d785d034)">
     <use xlink:href="#C0_0_912bbfe2b8" x="171.089847" y="244.595311" style="fill: #39568c; stroke: #39568c"/>
    </g>
    <g clip-path="url(#pa3d785d034)">
     <use xlink:href="#C0_0_912bbfe2b8" x="236.18649" y="255.813975" style="fill: #3e4c8a; stroke: #3e4c8a"/>
    </g>
    <g clip-path="url(#pa3d785d034)">
     <use xlink:href="#C0_0_912bbfe2b8" x="220.610654" y="248.884" style="fill: #3b528b; stroke: #3b528b"/>
    </g>
   </g>
   <g id="text_1">
    <g clip-path="url(#pa3d785d034)">
     <!-- 0 -->
     <g transform="translate(147.202404 150.405467) scale(0.12 -0.12)">
      <defs>
       <path id="DejaVuSans-30" d="M 2034 4250 
Q 1547 4250 1301 3770 
Q 1056 3291 1056 2328 
Q 1056 1369 1301 889 
Q 1547 409 2034 409 
Q 2525 409 2770 889 
Q 3016 1369 3016 2328 
Q 3016 3291 2770 3770 
Q 2525 4250 2034 4250 
z
M 2034 4750 
Q 2819 4750 3233 4129 
Q 3647 3509 3647 2328 
Q 3647 1150 3233 529 
Q 2819 -91 2034 -91 
Q 1250 -91 836 529 
Q 422 1150 422 2328 
Q 422 3509 836 4129 
Q 1250 4750 2034 4750 
z
" transform="scale(0.015625)"/>
      </defs>
      <use xlink:href="#DejaVuSans-30"/>
     </g>
    </g>
   </g>
   <g id="text_2">
    <g clip-path="url(#pa3d785d034)">
     <!-- 1 -->
     <g transform="translate(140.436045 175.312022) scale(0.12 -0.12)">
      <defs>
       <path id="DejaVuSans-31" d="M 794 531 
L 1825 531 
L 1825 4091 
L 703 3866 
L 703 4441 
L 1819 4666 
L 2450 4666 
L 2450 531 
L 3481 531 
L 3481 0 
L 794 0 
L 794 531 
z
" transform="scale(0.015625)"/>
      </defs>
      <use xlink:href="#DejaVuSans-31"/>
     </g>
    </g>
   </g>
   <g id="text_3">
    <g clip-path="url(#pa3d785d034)">
     <!-- 2 -->
     <g transform="translate(165.660173 197.562944) scale(0.12 -0.12)">
      <defs>
       <path id="DejaVuSans-32" d="M 1228 531 
L 3431 531 
L 3431 0 
L 469 0 
L 469 531 
Q 828 903 1448 1529 
Q 2069 2156 2228 2338 
Q 2531 2678 2651 2914 
Q 2772 3150 2772 3378 
Q 2772 3750 2511 3984 
Q 2250 4219 1831 4219 
Q 1534 4219 1204 4116 
Q 875 4013 500 3803 
L 500 4441 
Q 881 4594 1212 4672 
Q 1544 4750 1819 4750 
Q 2544 4750 2975 4387 
Q 3406 4025 3406 3419 
Q 3406 3131 3298 2873 
Q 3191 2616 2906 2266 
Q 2828 2175 2409 1742 
Q 1991 1309 1228 531 
z
" transform="scale(0.015625)"/>
      </defs>
      <use xlink:href="#DejaVuSans-32"/>
     </g>
    </g>
   </g>
   <g id="text_4">
    <g clip-path="url(#pa3d785d034)">
     <!-- 3 -->
     <g transform="translate(100.734393 173.767148) scale(0.12 -0.12)">
      <defs>
       <path id="DejaVuSans-33" d="M 2597 2516 
Q 3050 2419 3304 2112 
Q 3559 1806 3559 1356 
Q 3559 666 3084 287 
Q 2609 -91 1734 -91 
Q 1441 -91 1130 -33 
Q 819 25 488 141 
L 488 750 
Q 750 597 1062 519 
Q 1375 441 1716 441 
Q 2309 441 2620 675 
Q 2931 909 2931 1356 
Q 2931 1769 2642 2001 
Q 2353 2234 1838 2234 
L 1294 2234 
L 1294 2753 
L 1863 2753 
Q 2328 2753 2575 2939 
Q 2822 3125 2822 3475 
Q 2822 3834 2567 4026 
Q 2313 4219 1838 4219 
Q 1578 4219 1281 4162 
Q 984 4106 628 3988 
L 628 4550 
Q 988 4650 1302 4700 
Q 1616 4750 1894 4750 
Q 2613 4750 3031 4423 
Q 3450 4097 3450 3541 
Q 3450 3153 3228 2886 
Q 3006 2619 2597 2516 
z
" transform="scale(0.015625)"/>
      </defs>
      <use xlink:href="#DejaVuSans-33"/>
     </g>
    </g>
   </g>
   <g id="text_5">
    <g clip-path="url(#pa3d785d034)">
     <!-- 4 -->
     <g transform="translate(154.971877 103.735349) scale(0.12 -0.12)">
      <defs>
       <path id="DejaVuSans-34" d="M 2419 4116 
L 825 1625 
L 2419 1625 
L 2419 4116 
z
M 2253 4666 
L 3047 4666 
L 3047 1625 
L 3713 1625 
L 3713 1100 
L 3047 1100 
L 3047 0 
L 2419 0 
L 2419 1100 
L 313 1100 
L 313 1709 
L 2253 4666 
z
" transform="scale(0.015625)"/>
      </defs>
      <use xlink:href="#DejaVuSans-34"/>
     </g>
    </g>
   </g>
   <g id="text_6">
    <g clip-path="url(#pa3d785d034)">
     <!-- 5 -->
     <g transform="translate(152.442372 82.1368) scale(0.12 -0.12)">
      <defs>
       <path id="DejaVuSans-35" d="M 691 4666 
L 3169 4666 
L 3169 4134 
L 1269 4134 
L 1269 2991 
Q 1406 3038 1543 3061 
Q 1681 3084 1819 3084 
Q 2600 3084 3056 2656 
Q 3513 2228 3513 1497 
Q 3513 744 3044 326 
Q 2575 -91 1722 -91 
Q 1428 -91 1123 -41 
Q 819 9 494 109 
L 494 744 
Q 775 591 1075 516 
Q 1375 441 1709 441 
Q 2250 441 2565 725 
Q 2881 1009 2881 1497 
Q 2881 1984 2565 2268 
Q 2250 2553 1709 2553 
Q 1456 2553 1204 2497 
Q 953 2441 691 2322 
L 691 4666 
z
" transform="scale(0.015625)"/>
      </defs>
      <use xlink:href="#DejaVuSans-35"/>
     </g>
    </g>
   </g>
   <g id="text_7">
    <g clip-path="url(#pa3d785d034)">
     <!-- 6 -->
     <g transform="translate(128.185386 84.857083) scale(0.12 -0.12)">
      <defs>
       <path id="DejaVuSans-36" d="M 2113 2584 
Q 1688 2584 1439 2293 
Q 1191 2003 1191 1497 
Q 1191 994 1439 701 
Q 1688 409 2113 409 
Q 2538 409 2786 701 
Q 3034 994 3034 1497 
Q 3034 2003 2786 2293 
Q 2538 2584 2113 2584 
z
M 3366 4563 
L 3366 3988 
Q 3128 4100 2886 4159 
Q 2644 4219 2406 4219 
Q 1781 4219 1451 3797 
Q 1122 3375 1075 2522 
Q 1259 2794 1537 2939 
Q 1816 3084 2150 3084 
Q 2853 3084 3261 2657 
Q 3669 2231 3669 1497 
Q 3669 778 3244 343 
Q 2819 -91 2113 -91 
Q 1303 -91 875 529 
Q 447 1150 447 2328 
Q 447 3434 972 4092 
Q 1497 4750 2381 4750 
Q 2619 4750 2861 4703 
Q 3103 4656 3366 4563 
z
" transform="scale(0.015625)"/>
      </defs>
      <use xlink:href="#DejaVuSans-36"/>
     </g>
    </g>
   </g>
   <g id="text_8">
    <g clip-path="url(#pa3d785d034)">
     <!-- 7 -->
     <g transform="translate(125.417733 165.161499) scale(0.12 -0.12)">
      <defs>
       <path id="DejaVuSans-37" d="M 525 4666 
L 3525 4666 
L 3525 4397 
L 1831 0 
L 1172 0 
L 2766 4134 
L 525 4134 
L 525 4666 
z
" transform="scale(0.015625)"/>
      </defs>
      <use xlink:href="#DejaVuSans-37"/>
     </g>
    </g>
   </g>
   <g id="text_9">
    <g clip-path="url(#pa3d785d034)">
     <!-- 8 -->
     <g transform="translate(198.76135 212.772751) scale(0.12 -0.12)">
      <defs>
       <path id="DejaVuSans-38" d="M 2034 2216 
Q 1584 2216 1326 1975 
Q 1069 1734 1069 1313 
Q 1069 891 1326 650 
Q 1584 409 2034 409 
Q 2484 409 2743 651 
Q 3003 894 3003 1313 
Q 3003 1734 2745 1975 
Q 2488 2216 2034 2216 
z
M 1403 2484 
Q 997 2584 770 2862 
Q 544 3141 544 3541 
Q 544 4100 942 4425 
Q 1341 4750 2034 4750 
Q 2731 4750 3128 4425 
Q 3525 4100 3525 3541 
Q 3525 3141 3298 2862 
Q 3072 2584 2669 2484 
Q 3125 2378 3379 2068 
Q 3634 1759 3634 1313 
Q 3634 634 3220 271 
Q 2806 -91 2034 -91 
Q 1263 -91 848 271 
Q 434 634 434 1313 
Q 434 1759 690 2068 
Q 947 2378 1403 2484 
z
M 1172 3481 
Q 1172 3119 1398 2916 
Q 1625 2713 2034 2713 
Q 2441 2713 2670 2916 
Q 2900 3119 2900 3481 
Q 2900 3844 2670 4047 
Q 2441 4250 2034 4250 
Q 1625 4250 1398 4047 
Q 1172 3844 1172 3481 
z
" transform="scale(0.015625)"/>
      </defs>
      <use xlink:href="#DejaVuSans-38"/>
     </g>
    </g>
   </g>
   <g id="text_10">
    <g clip-path="url(#pa3d785d034)">
     <!-- 9 -->
     <g transform="translate(272.241439 206.743962) scale(0.12 -0.12)">
      <defs>
       <path id="DejaVuSans-39" d="M 703 97 
L 703 672 
Q 941 559 1184 500 
Q 1428 441 1663 441 
Q 2288 441 2617 861 
Q 2947 1281 2994 2138 
Q 2813 1869 2534 1725 
Q 2256 1581 1919 1581 
Q 1219 1581 811 2004 
Q 403 2428 403 3163 
Q 403 3881 828 4315 
Q 1253 4750 1959 4750 
Q 2769 4750 3195 4129 
Q 3622 3509 3622 2328 
Q 3622 1225 3098 567 
Q 2575 -91 1691 -91 
Q 1453 -91 1209 -44 
Q 966 3 703 97 
z
M 1959 2075 
Q 2384 2075 2632 2365 
Q 2881 2656 2881 3163 
Q 2881 3666 2632 3958 
Q 2384 4250 1959 4250 
Q 1534 4250 1286 3958 
Q 1038 3666 1038 3163 
Q 1038 2656 1286 2365 
Q 1534 2075 1959 2075 
z
" transform="scale(0.015625)"/>
      </defs>
      <use xlink:href="#DejaVuSans-39"/>
     </g>
    </g>
   </g>
   <g id="text_11">
    <g clip-path="url(#pa3d785d034)">
     <!-- 10 -->
     <g transform="translate(181.06036 90.129852) scale(0.12 -0.12)">
      <use xlink:href="#DejaVuSans-31"/>
      <use xlink:href="#DejaVuSans-30" x="63.623047"/>
     </g>
    </g>
   </g>
   <g id="text_12">
    <g clip-path="url(#pa3d785d034)">
     <!-- 11 -->
     <g transform="translate(207.172798 118.16265) scale(0.12 -0.12)">
      <use xlink:href="#DejaVuSans-31"/>
      <use xlink:href="#DejaVuSans-31" x="63.623047"/>
     </g>
    </g>
   </g>
   <g id="text_13">
    <g clip-path="url(#pa3d785d034)">
     <!-- 12 -->
     <g transform="translate(32.998884 158.1213) scale(0.12 -0.12)">
      <use xlink:href="#DejaVuSans-31"/>
      <use xlink:href="#DejaVuSans-32" x="63.623047"/>
     </g>
    </g>
   </g>
   <g id="text_14">
    <g clip-path="url(#pa3d785d034)">
     <!-- 13 -->
     <g transform="translate(146.253357 198.36267) scale(0.12 -0.12)">
      <use xlink:href="#DejaVuSans-31"/>
      <use xlink:href="#DejaVuSans-33" x="63.623047"/>
     </g>
    </g>
   </g>
   <g id="text_15">
    <g clip-path="url(#pa3d785d034)">
     <!-- 14 -->
     <g transform="translate(260.010091 294.9697) scale(0.12 -0.12)">
      <use xlink:href="#DejaVuSans-31"/>
      <use xlink:href="#DejaVuSans-34" x="63.623047"/>
     </g>
    </g>
   </g>
   <g id="text_16">
    <g clip-path="url(#pa3d785d034)">
     <!-- 15 -->
     <g transform="translate(273.561824 249.040255) scale(0.12 -0.12)">
      <use xlink:href="#DejaVuSans-31"/>
      <use xlink:href="#DejaVuSans-35" x="63.623047"/>
     </g>
    </g>
   </g>
   <g id="text_17">
    <g clip-path="url(#pa3d785d034)">
     <!-- 16 -->
     <g transform="translate(134.886107 43.476539) scale(0.12 -0.12)">
      <use xlink:href="#DejaVuSans-31"/>
      <use xlink:href="#DejaVuSans-36" x="63.623047"/>
     </g>
    </g>
   </g>
   <g id="text_18">
    <g clip-path="url(#pa3d785d034)">
     <!-- 17 -->
     <g transform="translate(81.22829 116.972031) scale(0.12 -0.12)">
      <use xlink:href="#DejaVuSans-31"/>
      <use xlink:href="#DejaVuSans-37" x="63.623047"/>
     </g>
    </g>
   </g>
   <g id="text_19">
    <g clip-path="url(#pa3d785d034)">
     <!-- 18 -->
     <g transform="translate(317.131116 256.037203) scale(0.12 -0.12)">
      <use xlink:href="#DejaVuSans-31"/>
      <use xlink:href="#DejaVuSans-38" x="63.623047"/>
     </g>
    </g>
   </g>
   <g id="text_20">
    <g clip-path="url(#pa3d785d034)">
     <!-- 19 -->
     <g transform="translate(108.939658 200.980328) scale(0.12 -0.12)">
      <use xlink:href="#DejaVuSans-31"/>
      <use xlink:href="#DejaVuSans-39" x="63.623047"/>
     </g>
    </g>
   </g>
   <g id="text_21">
    <g clip-path="url(#pa3d785d034)">
     <!-- 20 -->
     <g transform="translate(295.271145 292.148557) scale(0.12 -0.12)">
      <use xlink:href="#DejaVuSans-32"/>
      <use xlink:href="#DejaVuSans-30" x="63.623047"/>
     </g>
    </g>
   </g>
   <g id="text_22">
    <g clip-path="url(#pa3d785d034)">
     <!-- 21 -->
     <g transform="translate(76.028607 141.353355) scale(0.12 -0.12)">
      <use xlink:href="#DejaVuSans-32"/>
      <use xlink:href="#DejaVuSans-31" x="63.623047"/>
     </g>
    </g>
   </g>
   <g id="text_23">
    <g clip-path="url(#pa3d785d034)">
     <!-- 22 -->
     <g transform="translate(280.625252 271.296206) scale(0.12 -0.12)">
      <use xlink:href="#DejaVuSans-32"/>
      <use xlink:href="#DejaVuSans-32" x="63.623047"/>
     </g>
    </g>
   </g>
   <g id="text_24">
    <g clip-path="url(#pa3d785d034)">
     <!-- 23 -->
     <g transform="translate(193.291459 283.080239) scale(0.12 -0.12)">
      <use xlink:href="#DejaVuSans-32"/>
      <use xlink:href="#DejaVuSans-33" x="63.623047"/>
     </g>
    </g>
   </g>
   <g id="text_25">
    <g clip-path="url(#pa3d785d034)">
     <!-- 24 -->
     <g transform="translate(112.423014 293.433641) scale(0.12 -0.12)">
      <use xlink:href="#DejaVuSans-32"/>
      <use xlink:href="#DejaVuSans-34" x="63.623047"/>
     </g>
    </g>
   </g>
   <g id="text_26">
    <g clip-path="url(#pa3d785d034)">
     <!-- 25 -->
     <g transform="translate(148.637756 285.635369) scale(0.12 -0.12)">
      <use xlink:href="#DejaVuSans-32"/>
      <use xlink:href="#DejaVuSans-35" x="63.623047"/>
     </g>
    </g>
   </g>
   <g id="text_27">
    <g clip-path="url(#pa3d785d034)">
     <!-- 26 -->
     <g transform="translate(228.05908 323.145961) scale(0.12 -0.12)">
      <use xlink:href="#DejaVuSans-32"/>
      <use xlink:href="#DejaVuSans-36" x="63.623047"/>
     </g>
    </g>
   </g>
   <g id="text_28">
    <g clip-path="url(#pa3d785d034)">
     <!-- 27 -->
     <g transform="translate(158.059921 265.941432) scale(0.12 -0.12)">
      <use xlink:href="#DejaVuSans-32"/>
      <use xlink:href="#DejaVuSans-37" x="63.623047"/>
     </g>
    </g>
   </g>
   <g id="text_29">
    <g clip-path="url(#pa3d785d034)">
     <!-- 28 -->
     <g transform="translate(130.369299 242.631144) scale(0.12 -0.12)">
      <use xlink:href="#DejaVuSans-32"/>
      <use xlink:href="#DejaVuSans-38" x="63.623047"/>
     </g>
    </g>
   </g>
   <g id="text_30">
    <g clip-path="url(#pa3d785d034)">
     <!-- 29 -->
     <g transform="translate(223.704475 299.259281) scale(0.12 -0.12)">
      <use xlink:href="#DejaVuSans-32"/>
      <use xlink:href="#DejaVuSans-39" x="63.623047"/>
     </g>
    </g>
   </g>
   <g id="text_31">
    <g clip-path="url(#pa3d785d034)">
     <!-- 30 -->
     <g transform="translate(215.466317 219.852493) scale(0.12 -0.12)">
      <use xlink:href="#DejaVuSans-33"/>
      <use xlink:href="#DejaVuSans-30" x="63.623047"/>
     </g>
    </g>
   </g>
   <g id="text_32">
    <g clip-path="url(#pa3d785d034)">
     <!-- 31 -->
     <g transform="translate(163.454847 247.906561) scale(0.12 -0.12)">
      <use xlink:href="#DejaVuSans-33"/>
      <use xlink:href="#DejaVuSans-31" x="63.623047"/>
     </g>
    </g>
   </g>
   <g id="text_33">
    <g clip-path="url(#pa3d785d034)">
     <!-- 32 -->
     <g transform="translate(228.55149 259.125225) scale(0.12 -0.12)">
      <use xlink:href="#DejaVuSans-33"/>
      <use xlink:href="#DejaVuSans-32" x="63.623047"/>
     </g>
    </g>
   </g>
   <g id="text_34">
    <g clip-path="url(#pa3d785d034)">
     <!-- 33 -->
     <g transform="translate(212.975654 252.19525) scale(0.12 -0.12)">
      <use xlink:href="#DejaVuSans-33"/>
      <use xlink:href="#DejaVuSans-33" x="63.623047"/>
     </g>
    </g>
   </g>
  </g>
  <g id="axes_2">
   <g id="PathCollection_2">
    <defs>
     <path id="C1_0_cfcef9e17c" d="M 0 6.123724 
C 1.624031 6.123724 3.181764 5.47849 4.330127 4.330127 
C 5.47849 3.181764 6.123724 1.624031 6.123724 -0 
C 6.123724 -1.624031 5.47849 -3.181764 4.330127 -4.330127 
C 3.181764 -5.47849 1.624031 -6.123724 0 -6.123724 
C -1.624031 -6.123724 -3.181764 -5.47849 -4.330127 -4.330127 
C -5.47849 -3.181764 -6.123724 -1.624031 -6.123724 0 
C -6.123724 1.624031 -5.47849 3.181764 -4.330127 4.330127 
C -3.181764 5.47849 -1.624031 6.123724 0 6.123724 
z
"/>
    </defs>
    <g clip-path="url(#pf53b3ca7ee)">
     <use xlink:href="#C1_0_cfcef9e17c" x="668.217536" y="238.866009" style="fill: #26ad81; stroke: #26ad81"/>
    </g>
    <g clip-path="url(#pf53b3ca7ee)">
     <use xlink:href="#C1_0_cfcef9e17c" x="575.401589" y="333.818182" style="fill: #1f978b; stroke: #1f978b"/>
    </g>
    <g clip-path="url(#pf53b3ca7ee)">
     <use xlink:href="#C1_0_cfcef9e17c" x="513.324234" y="269.717948" style="fill: #25838e; stroke: #25838e"/>
    </g>
    <g clip-path="url(#pf53b3ca7ee)">
     <use xlink:href="#C1_0_cfcef9e17c" x="576.270822" y="317.047972" style="fill: #1f988b; stroke: #1f988b"/>
    </g>
    <g clip-path="url(#pf53b3ca7ee)">
     <use xlink:href="#C1_0_cfcef9e17c" x="653.392167" y="86.512577" style="fill: #70cf57; stroke: #70cf57"/>
    </g>
    <g clip-path="url(#pf53b3ca7ee)">
     <use xlink:href="#C1_0_cfcef9e17c" x="693.572727" y="26.181818" style="fill: #a2da37; stroke: #a2da37"/>
    </g>
    <g clip-path="url(#pf53b3ca7ee)">
     <use xlink:href="#C1_0_cfcef9e17c" x="693.572727" y="26.181818" style="fill: #9dd93b; stroke: #9dd93b"/>
    </g>
    <g clip-path="url(#pf53b3ca7ee)">
     <use xlink:href="#C1_0_cfcef9e17c" x="563.489504" y="284.766606" style="fill: #1fa088; stroke: #1fa088"/>
    </g>
    <g clip-path="url(#pf53b3ca7ee)">
     <use xlink:href="#C1_0_cfcef9e17c" x="491.07788" y="194.581186" style="fill: #2a778e; stroke: #2a778e"/>
    </g>
    <g clip-path="url(#pf53b3ca7ee)">
     <use xlink:href="#C1_0_cfcef9e17c" x="489.655392" y="192.526099" style="fill: #287c8e; stroke: #287c8e"/>
    </g>
    <g clip-path="url(#pf53b3ca7ee)">
     <use xlink:href="#C1_0_cfcef9e17c" x="653.392167" y="86.512577" style="fill: #90d743; stroke: #90d743"/>
    </g>
    <g clip-path="url(#pf53b3ca7ee)">
     <use xlink:href="#C1_0_cfcef9e17c" x="561.189769" y="195.565256" style="fill: #54c568; stroke: #54c568"/>
    </g>
    <g clip-path="url(#pf53b3ca7ee)">
     <use xlink:href="#C1_0_cfcef9e17c" x="567.930268" y="247.372921" style="fill: #21a685; stroke: #21a685"/>
    </g>
    <g clip-path="url(#pf53b3ca7ee)">
     <use xlink:href="#C1_0_cfcef9e17c" x="541.568008" y="266.400106" style="fill: #25838e; stroke: #25838e"/>
    </g>
    <g clip-path="url(#pf53b3ca7ee)">
     <use xlink:href="#C1_0_cfcef9e17c" x="460.80363" y="147.060487" style="fill: #482475; stroke: #482475"/>
    </g>
    <g clip-path="url(#pf53b3ca7ee)">
     <use xlink:href="#C1_0_cfcef9e17c" x="460.80363" y="147.060487" style="fill: #39558c; stroke: #39558c"/>
    </g>
    <g clip-path="url(#pf53b3ca7ee)">
     <use xlink:href="#C1_0_cfcef9e17c" x="661.050104" y="27.378619" style="fill: #fde725; stroke: #fde725"/>
    </g>
    <g clip-path="url(#pf53b3ca7ee)">
     <use xlink:href="#C1_0_cfcef9e17c" x="564.129199" y="242.15352" style="fill: #56c667; stroke: #56c667"/>
    </g>
    <g clip-path="url(#pf53b3ca7ee)">
     <use xlink:href="#C1_0_cfcef9e17c" x="460.80363" y="147.060487" style="fill: #3c4f8a; stroke: #3c4f8a"/>
    </g>
    <g clip-path="url(#pf53b3ca7ee)">
     <use xlink:href="#C1_0_cfcef9e17c" x="533.55783" y="220.947065" style="fill: #26818e; stroke: #26818e"/>
    </g>
    <g clip-path="url(#pf53b3ca7ee)">
     <use xlink:href="#C1_0_cfcef9e17c" x="460.80363" y="147.060487" style="fill: #482878; stroke: #482878"/>
    </g>
    <g clip-path="url(#pf53b3ca7ee)">
     <use xlink:href="#C1_0_cfcef9e17c" x="564.129199" y="242.15352" style="fill: #2fb47c; stroke: #2fb47c"/>
    </g>
    <g clip-path="url(#pf53b3ca7ee)">
     <use xlink:href="#C1_0_cfcef9e17c" x="460.80363" y="147.060487" style="fill: #423f85; stroke: #423f85"/>
    </g>
    <g clip-path="url(#pf53b3ca7ee)">
     <use xlink:href="#C1_0_cfcef9e17c" x="418.44597" y="99.645896" style="fill: #46327e; stroke: #46327e"/>
    </g>
    <g clip-path="url(#pf53b3ca7ee)">
     <use xlink:href="#C1_0_cfcef9e17c" x="449.174841" y="106.62724" style="fill: #482677; stroke: #482677"/>
    </g>
    <g clip-path="url(#pf53b3ca7ee)">
     <use xlink:href="#C1_0_cfcef9e17c" x="444.247506" y="98.358243" style="fill: #472f7d; stroke: #472f7d"/>
    </g>
    <g clip-path="url(#pf53b3ca7ee)">
     <use xlink:href="#C1_0_cfcef9e17c" x="453.210614" y="131.951022" style="fill: #440154; stroke: #440154"/>
    </g>
    <g clip-path="url(#pf53b3ca7ee)">
     <use xlink:href="#C1_0_cfcef9e17c" x="449.443594" y="137.274204" style="fill: #404588; stroke: #404588"/>
    </g>
    <g clip-path="url(#pf53b3ca7ee)">
     <use xlink:href="#C1_0_cfcef9e17c" x="477.183022" y="171.887951" style="fill: #365c8d; stroke: #365c8d"/>
    </g>
    <g clip-path="url(#pf53b3ca7ee)">
     <use xlink:href="#C1_0_cfcef9e17c" x="425.550136" y="111.717781" style="fill: #481f70; stroke: #481f70"/>
    </g>
    <g clip-path="url(#pf53b3ca7ee)">
     <use xlink:href="#C1_0_cfcef9e17c" x="481.663366" y="199.229241" style="fill: #2d718e; stroke: #2d718e"/>
    </g>
    <g clip-path="url(#pf53b3ca7ee)">
     <use xlink:href="#C1_0_cfcef9e17c" x="452.894366" y="121.048143" style="fill: #39568c; stroke: #39568c"/>
    </g>
    <g clip-path="url(#pf53b3ca7ee)">
     <use xlink:href="#C1_0_cfcef9e17c" x="390.241655" y="120.228038" style="fill: #3e4c8a; stroke: #3e4c8a"/>
    </g>
    <g clip-path="url(#pf53b3ca7ee)">
     <use xlink:href="#C1_0_cfcef9e17c" x="381.027273" y="129.584371" style="fill: #3b528b; stroke: #3b528b"/>
    </g>
   </g>
  </g>
 </g>
 <defs>
  <clipPath id="pa3d785d034">
   <rect x="10.8" y="10.8" width="343.8" height="338.4"/>
  </clipPath>
  <clipPath id="pf53b3ca7ee">
   <rect x="365.4" y="10.8" width="343.8" height="338.4"/>
  </clipPath>
 </defs>
</svg>
