<?xml version="1.0" encoding="UTF-8" standalone="no"?>
<svg
   width="508.41434pt"
   height="202.18553pt"
   viewBox="0 0 508.41434 202.18553"
   version="1.1"
   id="svg330"
   sodipodi:docname="kernel_graph.svg"
   inkscape:version="1.2.2 (b0a8486541, 2022-12-01)"
   xmlns:inkscape="http://www.inkscape.org/namespaces/inkscape"
   xmlns:sodipodi="http://sodipodi.sourceforge.net/DTD/sodipodi-0.dtd"
   xmlns="http://www.w3.org/2000/svg"
   xmlns:svg="http://www.w3.org/2000/svg">
  <sodipodi:namedview
     id="namedview332"
     pagecolor="#ffffff"
     bordercolor="#000000"
     borderopacity="0.25"
     inkscape:showpageshadow="2"
     inkscape:pageopacity="0.0"
     inkscape:pagecheckerboard="0"
     inkscape:deskcolor="#d1d1d1"
     inkscape:document-units="pt"
     showgrid="false"
     inkscape:zoom="1.143265"
     inkscape:cx="272.02791"
     inkscape:cy="77.847215"
     inkscape:window-width="3840"
     inkscape:window-height="1531"
     inkscape:window-x="0"
     inkscape:window-y="32"
     inkscape:window-maximized="1"
     inkscape:current-layer="svg330" />
  <defs
     id="defs8">
    <clipPath
       id="clip-0">
      <path
         clip-rule="nonzero"
         d="m 417,80 h 91.41406 v 20 H 417 Z m 0,0"
         id="path2" />
    </clipPath>
    <clipPath
       id="clip-1">
      <path
         clip-rule="nonzero"
         d="m 83,185 h 303 v 49.41797 H 83 Z m 0,0"
         id="path5" />
    </clipPath>
  </defs>
  <path
     fill-rule="nonzero"
     fill="#e9e9e9"
     fill-opacity="1"
     stroke-width="1.70079"
     stroke-linecap="butt"
     stroke-linejoin="miter"
     stroke="#000000"
     stroke-opacity="1"
     stroke-dasharray="1.70079, 1.70079"
     stroke-miterlimit="4"
     d="m 461.22683,126.65625 c 0,35.55078 -29.44531,64.36719 -65.76953,64.36719 -36.32422,0 -65.77344,-28.81641 -65.77344,-64.36719 0,-35.546875 29.44922,-64.363281 65.77344,-64.363281 36.32422,0 65.76953,28.816406 65.76953,64.363281 z m 0,0"
     id="path10" />
  <path
     fill-rule="nonzero"
     fill="#e9e9e9"
     fill-opacity="1"
     stroke-width="1.70079"
     stroke-linecap="butt"
     stroke-linejoin="miter"
     stroke="#000000"
     stroke-opacity="1"
     stroke-dasharray="1.70079, 1.70079"
     stroke-miterlimit="4"
     d="m 141.82449,127.28125 c 0,35.55078 -29.44531,64.36719 -65.769536,64.36719 -36.328126,0 -65.773438,-28.81641 -65.773438,-64.36719 0,-35.546875 29.445312,-64.363281 65.773438,-64.363281 36.324226,0 65.769536,28.816406 65.769536,64.363281 z m 0,0"
     id="path12" />
  <path
     fill-rule="nonzero"
     fill="#e9e9e9"
     fill-opacity="1"
     stroke-width="0.460568"
     stroke-linecap="butt"
     stroke-linejoin="round"
     stroke="#000000"
     stroke-opacity="1"
     stroke-miterlimit="4"
     d="m 179.52761,60.234375 h 77.13282 V 193.60937 h -77.13282 z m 0,0"
     id="path14" />
  <path
     fill="none"
     stroke-width="1.39465"
     stroke-linecap="butt"
     stroke-linejoin="miter"
     stroke="#000000"
     stroke-opacity="1"
     stroke-miterlimit="3.9"
     d="M 147.23074,119.79688 H 170.3323"
     id="path16" />
  <path
     fill-rule="evenodd"
     fill="#000000"
     fill-opacity="1"
     stroke-width="0.743811"
     stroke-linecap="butt"
     stroke-linejoin="miter"
     stroke="#000000"
     stroke-opacity="1"
     stroke-miterlimit="4"
     d="m 152.80886,119.79688 2.78907,-2.78907 -9.76172,2.78907 9.76172,2.78906 z m 0,0"
     id="path18" />
  <path
     fill-rule="evenodd"
     fill="#000000"
     fill-opacity="1"
     stroke-width="0.743811"
     stroke-linecap="butt"
     stroke-linejoin="miter"
     stroke="#000000"
     stroke-opacity="1"
     stroke-miterlimit="4"
     d="m 164.75418,119.79688 -2.78907,2.78906 9.76172,-2.78906 -9.76172,-2.78907 z m 0,0"
     id="path20" />
  <path
     fill-rule="nonzero"
     fill="#e9e9e9"
     fill-opacity="1"
     stroke-width="0.560232"
     stroke-linecap="butt"
     stroke-linejoin="round"
     stroke="#000000"
     stroke-opacity="1"
     stroke-miterlimit="4"
     d="m 203.06277,69.652344 h 41.85547 v 52.550786 h -41.85547 z m 0,0"
     id="path22" />
  <path
     fill="none"
     stroke-width="0.557937"
     stroke-linecap="butt"
     stroke-linejoin="miter"
     stroke="#000000"
     stroke-opacity="1"
     stroke-miterlimit="4"
     d="m 203.04714,69.484375 v 52.687505 m 5.24219,-52.687505 v 52.687505 m 5.2461,-52.687505 v 52.687505 m 5.24218,-52.687505 v 52.687505 m 5.2461,-52.687505 v 52.687505 m 5.24609,-52.687505 v 52.687505 m 5.24219,-52.687505 v 52.687505 m 5.24609,-52.687505 v 52.687505 m 5.2461,-52.687505 V 122.17188 M 203.04714,69.710938 h 42.13282 m -42.13282,5.242187 h 42.13282 m -42.13282,5.246094 h 42.13282 m -42.13282,5.242187 h 42.13282 M 203.04714,90.6875 h 42.13282 m -42.13282,5.246094 h 42.13282 m -42.13282,5.242186 h 42.13282 m -42.13282,5.2461 h 42.13282 m -42.13282,5.24609 h 42.13282 m -42.13282,5.24219 h 42.13282 m -42.13282,5.24609 h 42.13282"
     id="path24" />
  <path
     fill-rule="nonzero"
     fill="#2d20db"
     fill-opacity="1"
     stroke-width="0.0997889"
     stroke-linecap="butt"
     stroke-linejoin="round"
     stroke="#000000"
     stroke-opacity="1"
     stroke-miterlimit="4"
     d="m 240.12527,93.269531 v -2.289062 h 4.48437 V 95.5625 h -4.48437 z m 0,0"
     id="path26" />
  <path
     fill-rule="nonzero"
     fill="#2d20db"
     fill-opacity="1"
     stroke-width="0.0997889"
     stroke-linecap="butt"
     stroke-linejoin="round"
     stroke="#000000"
     stroke-opacity="1"
     stroke-miterlimit="4"
     d="m 240.12527,119.57422 v -2.29297 h 4.48437 v 4.58203 h -4.48437 z m 0,0"
     id="path28" />
  <path
     fill-rule="nonzero"
     fill="#2d20db"
     fill-opacity="1"
     stroke-width="0.0997889"
     stroke-linecap="butt"
     stroke-linejoin="round"
     stroke="#000000"
     stroke-opacity="1"
     stroke-miterlimit="4"
     d="m 229.56277,98.550781 v -2.292969 h 4.58594 v 4.585938 h -4.58594 z m 0,0"
     id="path30" />
  <path
     fill-rule="nonzero"
     fill="#2d20db"
     fill-opacity="1"
     stroke-width="0.0997889"
     stroke-linecap="butt"
     stroke-linejoin="round"
     stroke="#000000"
     stroke-opacity="1"
     stroke-miterlimit="4"
     d="m 224.38308,88.089844 v -2.292969 h 4.58203 v 4.582031 h -4.58203 z m 0,0"
     id="path32" />
  <path
     fill-rule="nonzero"
     fill="#2d20db"
     fill-opacity="1"
     stroke-width="0.0997889"
     stroke-linecap="butt"
     stroke-linejoin="round"
     stroke="#000000"
     stroke-opacity="1"
     stroke-miterlimit="4"
     d="m 219.10183,82.808594 v -2.292969 h 4.58203 v 4.585937 h -4.58203 z m 0,0"
     id="path34" />
  <path
     fill-rule="nonzero"
     fill="#2d20db"
     fill-opacity="1"
     stroke-width="0.0997889"
     stroke-linecap="butt"
     stroke-linejoin="round"
     stroke="#000000"
     stroke-opacity="1"
     stroke-miterlimit="4"
     d="m 219.10183,103.83203 v -2.29297 h 4.58203 v 4.58203 h -4.58203 z m 0,0"
     id="path36" />
  <path
     fill-rule="nonzero"
     fill="#2d20db"
     fill-opacity="1"
     stroke-width="0.0997889"
     stroke-linecap="butt"
     stroke-linejoin="round"
     stroke="#000000"
     stroke-opacity="1"
     stroke-miterlimit="4"
     d="M 213.82058,114.29297 V 112 h 4.58594 v 4.58203 h -4.58594 z m 0,0"
     id="path38" />
  <path
     fill-rule="nonzero"
     fill="#2d20db"
     fill-opacity="1"
     stroke-width="0.0997889"
     stroke-linecap="butt"
     stroke-linejoin="round"
     stroke="#000000"
     stroke-opacity="1"
     stroke-miterlimit="4"
     d="m 203.35964,72.347656 v -2.292968 h 4.58594 v 4.585937 h -4.58594 z m 0,0"
     id="path40" />
  <path
     fill-rule="nonzero"
     fill="#2d20db"
     fill-opacity="1"
     stroke-width="0.0997889"
     stroke-linecap="butt"
     stroke-linejoin="round"
     stroke="#000000"
     stroke-opacity="1"
     stroke-miterlimit="4"
     d="m 203.35964,77.578125 v -2.339844 h 4.58594 v 4.679688 h -4.58594 z m 0,0"
     id="path42" />
  <path
     fill-rule="nonzero"
     fill="#2d20db"
     fill-opacity="1"
     stroke-width="0.0997889"
     stroke-linecap="butt"
     stroke-linejoin="round"
     stroke="#000000"
     stroke-opacity="1"
     stroke-miterlimit="4"
     d="m 203.35964,109.01172 v -2.29297 h 4.58594 v 4.58594 h -4.58594 z m 0,0"
     id="path44" />
  <g
     clip-path="url(#clip-0)"
     id="g48"
     transform="translate(2.6607526e-4)">
    <path
       fill-rule="nonzero"
       fill="#ffffff"
       fill-opacity="0.762724"
       d="m 427.37109,80.386719 h 71.57422 c 5.2461,0 9.46875,4.222656 9.46875,9.464843 0,5.246094 -4.22265,9.46875 -9.46875,9.46875 h -71.57422 c -5.24609,0 -9.46875,-4.222656 -9.46875,-9.46875 0,-5.242187 4.22266,-9.464843 9.46875,-9.464843 z m 0,0"
       id="path46" />
  </g>
  <path
     fill-rule="nonzero"
     fill="#000000"
     fill-opacity="1"
     d="m 422.12918,85.441406 h 1.43359 l 1.81641,6.066406 1.82421,-6.066406 h 1.4336 v 8.910156 h -0.9375 v -7.824218 l -1.83594,6.113281 h -0.96484 l -1.83594,-6.113281 v 7.824218 h -0.93359 z m 0,0"
     id="path50" />
  <path
     fill-rule="nonzero"
     fill="#000000"
     fill-opacity="1"
     d="m 432.94168,90.992188 c -0.71094,0 -1.19922,0.101562 -1.47266,0.304687 -0.27344,0.203125 -0.41016,0.550781 -0.41016,1.039063 0,0.390624 0.10157,0.699218 0.30469,0.929687 0.20703,0.226563 0.48828,0.339844 0.83984,0.339844 0.48438,0 0.875,-0.214844 1.16797,-0.644531 0.29297,-0.433594 0.44141,-1.007813 0.44141,-1.722657 v -0.246093 z m 1.75,-0.453126 v 3.8125 h -0.87891 v -1.011718 c -0.19922,0.40625 -0.44922,0.707031 -0.74609,0.898437 -0.30079,0.191407 -0.66407,0.289063 -1.09766,0.289063 -0.54688,0 -0.98047,-0.191406 -1.30469,-0.574219 -0.32031,-0.386719 -0.48047,-0.902344 -0.48047,-1.546875 0,-0.75 0.19922,-1.316406 0.59766,-1.699219 0.40625,-0.382812 1.00391,-0.574219 1.80078,-0.574219 h 1.23047 v -0.105468 c 0,-0.507813 -0.13281,-0.898438 -0.39844,-1.171875 -0.26562,-0.277344 -0.63672,-0.417969 -1.11719,-0.417969 -0.30468,0 -0.60156,0.04687 -0.89062,0.136719 -0.28906,0.09375 -0.56641,0.230469 -0.83203,0.414062 v -1.015625 c 0.32031,-0.15625 0.6289,-0.269531 0.93359,-0.347656 0.30078,-0.07813 0.59375,-0.117188 0.87891,-0.117188 0.77344,0 1.35156,0.25 1.73047,0.75 0.38281,0.503907 0.57422,1.261719 0.57422,2.28125 z m 0,0"
     id="path52" />
  <path
     fill-rule="nonzero"
     fill="#000000"
     fill-opacity="1"
     d="m 440.34011,87.925781 v 1.023438 c -0.24609,-0.167969 -0.49609,-0.296875 -0.74609,-0.378907 -0.25,-0.08984 -0.5,-0.132812 -0.75391,-0.132812 -0.57031,0 -1.01172,0.226562 -1.32422,0.679688 -0.3164,0.449218 -0.47265,1.082031 -0.47265,1.898437 0,0.816406 0.15625,1.453125 0.47265,1.90625 0.3125,0.449219 0.75391,0.671875 1.32422,0.671875 0.25391,0 0.50391,-0.03906 0.75391,-0.125 0.25,-0.08594 0.5,-0.214844 0.74609,-0.386719 v 1.015625 c -0.24218,0.140625 -0.49609,0.25 -0.76172,0.320313 -0.26171,0.07422 -0.53906,0.109375 -0.83203,0.109375 -0.80468,0 -1.44531,-0.316406 -1.91797,-0.949219 -0.47265,-0.632813 -0.70703,-1.488281 -0.70703,-2.5625 0,-1.089844 0.23828,-1.945313 0.71094,-2.570313 0.48047,-0.625 1.13672,-0.9375 1.96875,-0.9375 0.26953,0 0.53516,0.03516 0.79297,0.105469 0.25781,0.07031 0.50391,0.171875 0.74609,0.3125 z m 0,0"
     id="path54" />
  <path
     fill-rule="nonzero"
     fill="#000000"
     fill-opacity="1"
     d="m 446.31277,90.316406 v 4.035156 h -0.87891 v -3.996093 c 0,-0.632813 -0.0976,-1.109375 -0.29297,-1.421875 -0.19921,-0.316406 -0.49218,-0.472656 -0.88671,-0.472656 -0.47266,0 -0.84766,0.191406 -1.1211,0.566406 -0.27344,0.378906 -0.41015,0.894531 -0.41015,1.546875 v 3.777343 h -0.87891 v -9.285156 h 0.87891 v 3.640625 c 0.21093,-0.402343 0.45703,-0.703125 0.73828,-0.902343 0.28906,-0.199219 0.61718,-0.296876 0.98828,-0.296876 0.61328,0 1.07812,0.238282 1.39062,0.714844 0.31641,0.472656 0.47266,1.171875 0.47266,2.09375 z m 0,0"
     id="path56" />
  <path
     fill-rule="nonzero"
     fill="#000000"
     fill-opacity="1"
     d="m 448.07058,87.667969 h 0.875 v 6.683593 h -0.875 z m 0,-2.601563 h 0.875 v 1.390625 h -0.875 z m 0,0"
     id="path58" />
  <path
     fill-rule="nonzero"
     fill="#000000"
     fill-opacity="1"
     d="m 455.21511,90.316406 v 4.035156 h -0.8789 v -3.996093 c 0,-0.632813 -0.0977,-1.109375 -0.29297,-1.421875 -0.19922,-0.316406 -0.4961,-0.472656 -0.88672,-0.472656 -0.47656,0 -0.84766,0.191406 -1.12109,0.566406 -0.27344,0.378906 -0.41016,0.894531 -0.41016,1.546875 v 3.777343 h -0.88281 v -6.683593 h 0.88281 v 1.039062 c 0.21094,-0.402343 0.45703,-0.703125 0.73828,-0.902343 0.28516,-0.199219 0.61328,-0.296876 0.98828,-0.296876 0.61328,0 1.07422,0.238282 1.39063,0.714844 0.3125,0.472656 0.47265,1.171875 0.47265,2.09375 z m 0,0"
     id="path60" />
  <path
     fill-rule="nonzero"
     fill="#000000"
     fill-opacity="1"
     d="m 461.53543,90.734375 v 0.539063 h -4.03125 c 0.0391,0.757812 0.21875,1.332031 0.54296,1.730468 0.32813,0.394532 0.78125,0.589844 1.36329,0.589844 0.33984,0 0.66406,-0.05078 0.97656,-0.152344 0.32031,-0.105468 0.63281,-0.261718 0.94531,-0.46875 v 1.039063 c -0.31641,0.167969 -0.63672,0.296875 -0.96875,0.382812 -0.32812,0.08984 -0.66406,0.132813 -1.00391,0.132813 -0.85156,0 -1.52734,-0.3125 -2.02734,-0.933594 -0.49219,-0.621094 -0.74219,-1.460938 -0.74219,-2.519531 0,-1.09375 0.23438,-1.960938 0.70703,-2.601563 0.47266,-0.644531 1.10938,-0.964844 1.91016,-0.964844 0.71875,0 1.28516,0.289063 1.69922,0.871094 0.42187,0.574219 0.62891,1.363282 0.62891,2.355469 z m -0.875,-0.320313 c -0.004,-0.601562 -0.14063,-1.082031 -0.40625,-1.4375 -0.25782,-0.359374 -0.60547,-0.539062 -1.03907,-0.539062 -0.48828,0 -0.8789,0.171875 -1.17578,0.519531 -0.29297,0.347657 -0.46094,0.832031 -0.5039,1.460938 z m 0,0"
     id="path62" />
  <path
     fill-rule="nonzero"
     fill="#000000"
     fill-opacity="1"
     d="m 466.0823,85.066406 h 0.87891 v 9.285156 h -0.87891 z m 0,0"
     id="path64" />
  <path
     fill-rule="nonzero"
     fill="#000000"
     fill-opacity="1"
     d="m 473.35574,90.734375 v 0.539063 h -4.03125 c 0.0351,0.757812 0.21875,1.332031 0.54297,1.730468 0.32812,0.394532 0.78125,0.589844 1.36328,0.589844 0.33594,0 0.66015,-0.05078 0.97656,-0.152344 0.31641,-0.105468 0.63281,-0.261718 0.94141,-0.46875 v 1.039063 c -0.3125,0.167969 -0.63672,0.296875 -0.96485,0.382812 -0.33203,0.08984 -0.66797,0.132813 -1.00781,0.132813 -0.85156,0 -1.52734,-0.3125 -2.02344,-0.933594 -0.49609,-0.621094 -0.74609,-1.460938 -0.74609,-2.519531 0,-1.09375 0.23828,-1.960938 0.70703,-2.601563 0.47266,-0.644531 1.10938,-0.964844 1.91016,-0.964844 0.71875,0 1.28515,0.289063 1.70312,0.871094 0.41797,0.574219 0.62891,1.363282 0.62891,2.355469 z m -0.87891,-0.320313 c -0.004,-0.601562 -0.14062,-1.082031 -0.40234,-1.4375 -0.26172,-0.359374 -0.60938,-0.539062 -1.03906,-0.539062 -0.49219,0 -0.88282,0.171875 -1.17969,0.519531 -0.28906,0.347657 -0.46094,0.832031 -0.50391,1.460938 z m 0,0"
     id="path66" />
  <path
     fill-rule="nonzero"
     fill="#000000"
     fill-opacity="1"
     d="m 477.21902,90.992188 c -0.70703,0 -1.19922,0.101562 -1.47266,0.304687 -0.27343,0.203125 -0.41015,0.550781 -0.41015,1.039063 0,0.390624 0.10156,0.699218 0.30468,0.929687 0.20704,0.226563 0.48829,0.339844 0.83985,0.339844 0.48437,0 0.875,-0.214844 1.16797,-0.644531 0.29297,-0.433594 0.4414,-1.007813 0.4414,-1.722657 v -0.246093 z m 1.75,-0.453126 v 3.8125 h -0.87891 v -1.011718 c -0.19922,0.40625 -0.44922,0.707031 -0.74609,0.898437 -0.30078,0.191407 -0.66406,0.289063 -1.09766,0.289063 -0.54687,0 -0.98047,-0.191406 -1.30468,-0.574219 -0.32032,-0.386719 -0.48047,-0.902344 -0.48047,-1.546875 0,-0.75 0.19922,-1.316406 0.59765,-1.699219 0.40625,-0.382812 1.00391,-0.574219 1.80469,-0.574219 h 1.22656 v -0.105468 c 0,-0.507813 -0.13281,-0.898438 -0.39843,-1.171875 -0.26563,-0.277344 -0.63672,-0.417969 -1.11719,-0.417969 -0.30469,0 -0.60156,0.04687 -0.89063,0.136719 -0.28906,0.09375 -0.5664,0.230469 -0.83203,0.414062 v -1.015625 c 0.32031,-0.15625 0.63281,-0.269531 0.9336,-0.347656 0.30078,-0.07813 0.59375,-0.117188 0.88281,-0.117188 0.76953,0 1.34765,0.25 1.72656,0.75 0.38281,0.503907 0.57422,1.261719 0.57422,2.28125 z m 0,0"
     id="path68" />
  <path
     fill-rule="nonzero"
     fill="#000000"
     fill-opacity="1"
     d="m 483.87136,88.695312 c -0.0976,-0.07422 -0.20703,-0.125 -0.32422,-0.15625 -0.11328,-0.03516 -0.24218,-0.05469 -0.38281,-0.05469 -0.49219,0 -0.875,0.203125 -1.14062,0.609375 -0.26563,0.402344 -0.39844,0.980469 -0.39844,1.738281 v 3.519531 h -0.87891 v -6.683593 h 0.87891 v 1.039062 c 0.1875,-0.40625 0.42578,-0.707031 0.72266,-0.902343 0.29296,-0.199219 0.65234,-0.296876 1.07421,-0.296876 0.0625,0 0.12891,0.0039 0.20313,0.01563 0.0703,0.0078 0.15234,0.02344 0.24219,0.04297 z m 0,0"
     id="path70" />
  <path
     fill-rule="nonzero"
     fill="#000000"
     fill-opacity="1"
     d="m 489.06668,90.316406 v 4.035156 h -0.87891 v -3.996093 c 0,-0.632813 -0.0977,-1.109375 -0.29297,-1.421875 -0.19922,-0.316406 -0.49219,-0.472656 -0.88672,-0.472656 -0.47265,0 -0.84765,0.191406 -1.12109,0.566406 -0.27344,0.378906 -0.41016,0.894531 -0.41016,1.546875 v 3.777343 h -0.88281 v -6.683593 h 0.88281 v 1.039062 c 0.21094,-0.402343 0.45703,-0.703125 0.73828,-0.902343 0.28516,-0.199219 0.61719,-0.296876 0.98828,-0.296876 0.61329,0 1.07422,0.238282 1.39063,0.714844 0.3125,0.472656 0.47266,1.171875 0.47266,2.09375 z m 0,0"
     id="path72" />
  <path
     fill-rule="nonzero"
     fill="#000000"
     fill-opacity="1"
     d="m 490.82449,87.667969 h 0.875 v 6.683593 h -0.875 z m 0,-2.601563 h 0.875 v 1.390625 h -0.875 z m 0,0"
     id="path74" />
  <path
     fill-rule="nonzero"
     fill="#000000"
     fill-opacity="1"
     d="m 497.96511,90.316406 v 4.035156 h -0.875 v -3.996093 c 0,-0.632813 -0.0976,-1.109375 -0.29687,-1.421875 -0.19531,-0.316406 -0.49219,-0.472656 -0.88672,-0.472656 -0.47266,0 -0.84375,0.191406 -1.11719,0.566406 -0.27344,0.378906 -0.41015,0.894531 -0.41015,1.546875 v 3.777343 h -0.88282 v -6.683593 h 0.88282 v 1.039062 c 0.21093,-0.402343 0.45703,-0.703125 0.73828,-0.902343 0.28515,-0.199219 0.61328,-0.296876 0.98437,-0.296876 0.61328,0 1.07813,0.238282 1.39453,0.714844 0.3125,0.472656 0.46875,1.171875 0.46875,2.09375 z m 0,0"
     id="path76" />
  <path
     fill-rule="nonzero"
     fill="#000000"
     fill-opacity="1"
     d="m 503.23855,90.933594 c 0,-0.796875 -0.13281,-1.414063 -0.39844,-1.851563 -0.25781,-0.4375 -0.625,-0.65625 -1.09765,-0.65625 -0.47266,0 -0.83985,0.21875 -1.10157,0.65625 -0.26171,0.4375 -0.39062,1.054688 -0.39062,1.851563 0,0.792968 0.12891,1.40625 0.39062,1.84375 0.26172,0.4375 0.62891,0.65625 1.10157,0.65625 0.47265,0 0.83984,-0.21875 1.09765,-0.65625 0.26563,-0.4375 0.39844,-1.050782 0.39844,-1.84375 z m 0.875,2.589844 c 0,1.136718 -0.20312,1.984374 -0.60547,2.539062 -0.40234,0.554688 -1.01953,0.832031 -1.85156,0.832031 -0.30859,0 -0.60156,-0.02734 -0.875,-0.08594 -0.27344,-0.05859 -0.53516,-0.144532 -0.79297,-0.265625 v -1.066407 c 0.25781,0.175782 0.51172,0.304688 0.76172,0.386719 0.25,0.08203 0.50781,0.125 0.76562,0.125 0.57422,0 1.00782,-0.1875 1.29297,-0.566406 0.28516,-0.375 0.42969,-0.941406 0.42969,-1.703125 v -0.542969 c -0.18359,0.394531 -0.41406,0.691407 -0.69531,0.886719 -0.28516,0.191406 -0.6211,0.289062 -1.01563,0.289062 -0.65625,0 -1.18359,-0.3125 -1.58203,-0.933593 -0.40234,-0.625 -0.60156,-1.453125 -0.60156,-2.484375 0,-1.035156 0.19922,-1.863282 0.60156,-2.488282 0.39844,-0.625 0.92578,-0.9375 1.58203,-0.9375 0.39453,0 0.73047,0.09766 1.01563,0.292969 0.28125,0.191407 0.51172,0.488281 0.69531,0.882813 v -1.015625 h 0.875 z m 0,0"
     id="path78" />
  <path
     fill-rule="nonzero"
     fill="#000000"
     fill-opacity="1"
     d="m 405.72683,93.304688 -1.55469,-0.34375 c -0.0156,-1.046876 -0.23828,-2.058594 -0.66406,-3.007813 l 1.20313,-0.972656 c 0.28515,-0.234375 0.32812,-0.652344 0.0976,-0.941407 L 403.301,86.175781 c -0.11328,-0.136719 -0.27344,-0.222656 -0.44922,-0.242187 -0.17578,-0.01953 -0.35547,0.03516 -0.49219,0.144531 l -1.17187,0.949219 c -0.82813,-0.636719 -1.75781,-1.085938 -2.76563,-1.339844 v -1.488281 c 0,-0.367188 -0.30078,-0.667969 -0.66796,-0.667969 h -2.39844 c -0.36719,0 -0.66797,0.300781 -0.66797,0.667969 V 85.6875 c -1.02734,0.261719 -1.97656,0.726562 -2.81641,1.382812 l -1.18359,-0.941406 c -0.14063,-0.109375 -0.3125,-0.160156 -0.49219,-0.140625 -0.17578,0.01953 -0.33594,0.109375 -0.44531,0.25 l -1.49219,1.875 c -0.23047,0.289063 -0.18359,0.707031 0.10547,0.9375 l 1.21484,0.964844 c -0.41796,0.953125 -0.63281,1.964844 -0.64062,3.007813 l -1.55469,0.359374 c -0.35937,0.08594 -0.58203,0.441407 -0.5,0.800782 l 0.53906,2.335937 c 0.082,0.359375 0.44141,0.582031 0.80079,0.5 l 1.60546,-0.371093 c 0.47657,0.894531 1.11719,1.675781 1.89844,2.316406 l -0.72265,1.519536 c -0.16016,0.33203 -0.0195,0.73046 0.3125,0.89062 l 2.16406,1.03125 c 0.0898,0.043 0.1914,0.0664 0.28906,0.0664 0.0742,0 0.14844,-0.0117 0.22266,-0.0391 0.16797,-0.0586 0.30078,-0.18359 0.3789,-0.33984 l 0.73438,-1.53906 c 0.97265,0.1875 1.98828,0.18359 2.96094,-0.0117 l 0.74609,1.53125 c 0.16406,0.32812 0.5625,0.46484 0.89453,0.30469 l 2.15234,-1.05078 c 0.33204,-0.16016 0.46875,-0.5586 0.3086,-0.89063 l -0.73438,-1.511719 c 0.77735,-0.648437 1.41016,-1.433593 1.87891,-2.332031 l 1.60547,0.355469 c 0.35937,0.07813 0.71875,-0.148438 0.79687,-0.507813 l 0.51953,-2.339844 c 0.0391,-0.175781 0.008,-0.355468 -0.0898,-0.503906 -0.0937,-0.148437 -0.24219,-0.253906 -0.41797,-0.292968 z m -6.23047,-0.230469 c 0,1.621093 -1.3164,2.941406 -2.9414,2.941406 -1.6211,0 -2.9375,-1.320313 -2.9375,-2.941406 0,-1.621094 1.3164,-2.941407 2.9375,-2.941407 1.625,0 2.9414,1.320313 2.9414,2.941407 z m 0,0"
     id="path80" />
  <path
     fill-rule="nonzero"
     fill="#000000"
     fill-opacity="1"
     d="m 407.53543,87.589844 c 0.25,0 0.48828,-0.140625 0.60156,-0.378906 l 0.35156,-0.738282 c 0.60938,0.117188 1.24609,0.117188 1.85547,-0.0078 l 0.35547,0.734375 c 0.16015,0.332031 0.5625,0.46875 0.89062,0.308593 l 0.89844,-0.441406 c 0.16016,-0.07813 0.28125,-0.214844 0.33984,-0.382812 0.0586,-0.164063 0.0469,-0.347656 -0.0312,-0.507813 l -0.35156,-0.71875 c 0.48828,-0.40625 0.88281,-0.898437 1.17578,-1.460937 l 0.76172,0.167968 c 0.35938,0.07813 0.71485,-0.148437 0.79688,-0.507812 l 0.21484,-0.976562 c 0.0781,-0.359376 -0.14844,-0.714844 -0.50781,-0.792969 l -0.73047,-0.164063 c -0.008,-0.652344 -0.14844,-1.285156 -0.41406,-1.878906 l 0.55859,-0.453125 c 0.13672,-0.109375 0.22266,-0.269531 0.24219,-0.445313 0.0195,-0.175781 -0.0352,-0.355468 -0.14453,-0.492187 l -0.62891,-0.777344 c -0.23437,-0.285156 -0.65234,-0.328125 -0.94141,-0.09766 l -0.53515,0.4375 c -0.51953,-0.398437 -1.10156,-0.679687 -1.73438,-0.839844 v -0.679687 c 0,-0.367188 -0.29687,-0.667969 -0.66406,-0.667969 h -1 c -0.37109,0 -0.66797,0.300781 -0.66797,0.667969 v 0.679687 c -0.64453,0.164063 -1.23437,0.453125 -1.76172,0.867188 l -0.54687,-0.433594 c -0.28516,-0.230469 -0.70703,-0.183594 -0.9375,0.105469 l -0.6211,0.78125 c -0.10937,0.140625 -0.16015,0.316406 -0.14062,0.492187 0.0195,0.175781 0.10937,0.335938 0.25,0.445313 l 0.5625,0.449218 c -0.26172,0.59375 -0.39453,1.226563 -0.39844,1.882813 l -0.73047,0.167969 c -0.17187,0.03906 -0.32422,0.144531 -0.41797,0.296875 -0.0937,0.148437 -0.12109,0.332031 -0.082,0.503906 l 0.22657,0.972656 c 0.082,0.359375 0.4414,0.582031 0.79687,0.5 l 0.76172,-0.175781 c 0.29687,0.558594 0.69922,1.046875 1.1875,1.449219 l -0.34375,0.722656 c -0.0781,0.160156 -0.0859,0.34375 -0.0273,0.511719 0.0586,0.167968 0.18359,0.304687 0.33984,0.378906 l 0.90234,0.429688 c 0.0937,0.04687 0.19141,0.06641 0.28907,0.06641 z m 0.0234,-5.792969 c 0,-1.015625 0.82422,-1.839844 1.83985,-1.839844 1.01172,0 1.83593,0.824219 1.83593,1.839844 0,1.011719 -0.82421,1.839844 -1.83593,1.839844 -1.01563,0 -1.83985,-0.828125 -1.83985,-1.839844 z m 0,0"
     id="path82" />
  <path
     fill-rule="nonzero"
     fill="#000000"
     fill-opacity="1"
     d="m 418.16043,94.636719 -0.73047,-0.160157 c -0.008,-0.65625 -0.14844,-1.289062 -0.41407,-1.878906 l 0.5586,-0.453125 c 0.13672,-0.113281 0.22265,-0.273437 0.24219,-0.449219 0.0195,-0.175781 -0.0352,-0.351562 -0.14454,-0.492187 l -0.6289,-0.773437 c -0.23438,-0.289063 -0.65235,-0.332032 -0.94141,-0.101563 l -0.53515,0.4375 c -0.51954,-0.398437 -1.10157,-0.679687 -1.73438,-0.839844 v -0.679687 c 0,-0.367188 -0.29687,-0.667969 -0.66406,-0.667969 h -1 c -0.36719,0 -0.66797,0.300781 -0.66797,0.667969 v 0.683594 c -0.64453,0.160156 -1.23828,0.453124 -1.76172,0.863281 l -0.54687,-0.433594 c -0.13672,-0.109375 -0.3125,-0.160156 -0.48829,-0.140625 -0.17578,0.01953 -0.33984,0.109375 -0.44921,0.246094 L 407.63308,91.25 c -0.23047,0.285156 -0.17969,0.707031 0.10547,0.9375 l 0.56641,0.449219 c -0.26172,0.59375 -0.39844,1.226562 -0.40235,1.878906 l -0.72656,0.167969 c -0.17578,0.04297 -0.32422,0.148437 -0.41797,0.296875 -0.0937,0.152343 -0.125,0.332031 -0.082,0.503906 l 0.22266,0.976563 c 0.082,0.359374 0.44531,0.582031 0.80078,0.5 l 0.76172,-0.175782 c 0.29687,0.558594 0.69531,1.046875 1.1875,1.449219 l -0.34766,0.722656 c -0.0742,0.160157 -0.0859,0.34375 -0.0234,0.507813 0.0586,0.167968 0.17969,0.304687 0.33985,0.382812 l 0.90234,0.429684 c 0.0898,0.043 0.19141,0.0625 0.28516,0.0625 0.25,0 0.48828,-0.13671 0.60547,-0.378902 l 0.35156,-0.734376 c 0.60937,0.117188 1.24609,0.113282 1.85156,-0.0078 l 0.35547,0.730469 c 0.16406,0.332029 0.5625,0.468749 0.89453,0.308589 l 0.89844,-0.437496 c 0.15625,-0.07812 0.28125,-0.214843 0.33594,-0.382812 0.0586,-0.167969 0.0469,-0.351562 -0.0312,-0.511719 l -0.35157,-0.71875 c 0.48828,-0.40625 0.88282,-0.894531 1.17969,-1.460937 l 0.75781,0.171875 c 0.17578,0.03516 0.35547,0.0039 0.50391,-0.08984 0.14844,-0.09766 0.25391,-0.246094 0.29297,-0.417969 l 0.21484,-0.976562 c 0.082,-0.359375 -0.14453,-0.71875 -0.5039,-0.796875 z m -3.65235,-0.08984 c 0,1.015625 -0.82422,1.839844 -1.83984,1.839844 -1.01172,0 -1.83985,-0.824219 -1.83985,-1.839844 0,-1.015625 0.82813,-1.839844 1.83985,-1.839844 1.01562,0 1.83984,0.828125 1.83984,1.839844 z m 0,0"
     id="path84" />
  <path
     fill-rule="nonzero"
     fill="#f57c06"
     fill-opacity="1"
     stroke-width="0.723734"
     stroke-linecap="butt"
     stroke-linejoin="miter"
     stroke="#f57c06"
     stroke-opacity="1"
     stroke-miterlimit="4"
     d="m 384.4573,158.60156 c 0.78906,0 1.32813,-0.29687 1.61719,-0.89062 0.29297,-0.59766 0.4414,-1.26172 0.4414,-1.99219 0,-0.66016 -0.10546,-1.19531 -0.3164,-1.60938 -0.33594,-0.65234 -0.91016,-0.97656 -1.73047,-0.97656 -0.72266,0 -1.25,0.27735 -1.58203,0.83203 -0.32813,0.55469 -0.4961,1.22266 -0.4961,2.00391 0,0.75391 0.16797,1.37891 0.4961,1.88281 0.33203,0.5 0.85547,0.75 1.57031,0.75 z m 0.0469,-6.5039 c 0.91015,0 1.67968,0.30468 2.30859,0.91015 0.62891,0.60547 0.94141,1.5 0.94141,2.67969 0,1.13672 -0.27344,2.07812 -0.82813,2.82031 -0.55469,0.7461 -1.41406,1.11719 -2.58203,1.11719 -0.96875,0 -1.74219,-0.32813 -2.3125,-0.98438 -0.57422,-0.66015 -0.85938,-1.54296 -0.85938,-2.65234 0,-1.1875 0.30079,-2.13281 0.90235,-2.83594 0.60547,-0.70312 1.41406,-1.05468 2.42969,-1.05468 z m 0,0"
     id="path86" />
  <path
     fill-rule="nonzero"
     fill="#f57c06"
     fill-opacity="1"
     stroke-width="0.723734"
     stroke-linecap="butt"
     stroke-linejoin="miter"
     stroke="#f57c06"
     stroke-opacity="1"
     stroke-miterlimit="4"
     d="m 361.53152,159.97656 c 0.78906,0 1.32812,-0.29687 1.61719,-0.89062 0.29297,-0.59766 0.4414,-1.26172 0.4414,-1.99219 0,-0.66016 -0.10547,-1.19531 -0.3164,-1.60938 -0.33203,-0.64843 -0.91016,-0.97656 -1.72657,-0.97656 -0.72656,0 -1.2539,0.27735 -1.58593,0.83203 -0.32813,0.55469 -0.49219,1.22266 -0.49219,2.00391 0,0.75391 0.16406,1.37891 0.49219,1.88281 0.33203,0.5 0.85547,0.75 1.57031,0.75 z m 0.0469,-6.5039 c 0.91016,0 1.67969,0.30468 2.3086,0.91015 0.6289,0.60938 0.94531,1.5 0.94531,2.67969 0,1.13672 -0.27734,2.07812 -0.83203,2.82422 -0.55469,0.74219 -1.41406,1.11328 -2.57813,1.11328 -0.97265,0 -1.74609,-0.32813 -2.3164,-0.98438 -0.57422,-0.66015 -0.85938,-1.54296 -0.85938,-2.65234 0,-1.18359 0.30078,-2.13281 0.90625,-2.83594 0.60157,-0.70312 1.41016,-1.05468 2.42578,-1.05468 z m 0,0"
     id="path88" />
  <path
     fill-rule="nonzero"
     fill="#f57c06"
     fill-opacity="1"
     stroke-width="0.723734"
     stroke-linecap="butt"
     stroke-linejoin="miter"
     stroke="#f57c06"
     stroke-opacity="1"
     stroke-miterlimit="4"
     d="m 364.74246,148.51562 c 0.78515,0 1.32422,-0.29687 1.61718,-0.89062 0.29297,-0.59766 0.44141,-1.26172 0.44141,-1.99219 0,-0.66015 -0.10547,-1.19531 -0.31641,-1.60937 -0.33593,-0.65235 -0.91015,-0.97657 -1.73046,-0.97657 -0.72657,0 -1.25391,0.27735 -1.58204,0.83204 -0.32812,0.55078 -0.49609,1.22265 -0.49609,2.0039 0,0.75391 0.16797,1.37891 0.49609,1.87891 0.32813,0.5039 0.85157,0.7539 1.57032,0.7539 z m 0.0469,-6.5039 c 0.91016,0 1.67969,0.30078 2.3086,0.91015 0.6289,0.60547 0.9414,1.5 0.9414,2.67579 0,1.14062 -0.27734,2.08203 -0.83203,2.82421 -0.55078,0.74219 -1.41016,1.11719 -2.57812,1.11719 -0.97266,0 -1.74219,-0.32812 -2.31641,-0.98437 -0.57031,-0.66016 -0.85547,-1.54297 -0.85547,-2.65235 0,-1.1875 0.30078,-2.13281 0.90234,-2.83593 0.60157,-0.70313 1.41407,-1.05469 2.42969,-1.05469 z m 0,0"
     id="path90" />
  <path
     fill-rule="nonzero"
     fill="#f57c06"
     fill-opacity="1"
     stroke-width="0.723734"
     stroke-linecap="butt"
     stroke-linejoin="miter"
     stroke="#f57c06"
     stroke-opacity="1"
     stroke-miterlimit="4"
     d="m 376.20339,156.76953 c 0.78907,0 1.32813,-0.29687 1.61719,-0.89062 0.29297,-0.60157 0.44141,-1.26563 0.44141,-1.99219 0,-0.66016 -0.10547,-1.19922 -0.31641,-1.60938 -0.33203,-0.65234 -0.91015,-0.97656 -1.72656,-0.97656 -0.72656,0 -1.25391,0.27734 -1.58594,0.82813 -0.32812,0.55468 -0.49219,1.22265 -0.49219,2.00781 0,0.75 0.16407,1.3789 0.49219,1.8789 0.33203,0.5 0.85547,0.75391 1.57031,0.75391 z m 0.0469,-6.50781 c 0.91016,0 1.67969,0.30469 2.30859,0.91406 0.62891,0.60547 0.94532,1.49609 0.94532,2.67578 0,1.14063 -0.27735,2.08203 -0.83204,2.82422 -0.55468,0.74219 -1.41406,1.11328 -2.57812,1.11328 -0.97266,0 -1.74609,-0.32812 -2.31641,-0.98047 -0.57422,-0.66015 -0.85937,-1.54297 -0.85937,-2.65234 0,-1.1875 0.30078,-2.13281 0.90625,-2.83594 0.60156,-0.70312 1.41015,-1.05859 2.42578,-1.05859 z m 0,0"
     id="path92" />
  <path
     fill-rule="nonzero"
     fill="#f57c06"
     fill-opacity="1"
     stroke-width="0.723734"
     stroke-linecap="butt"
     stroke-linejoin="miter"
     stroke="#f57c06"
     stroke-opacity="1"
     stroke-miterlimit="4"
     d="m 380.78933,147.14062 c 0.78906,0 1.32422,-0.29687 1.61719,-0.89062 0.29297,-0.59766 0.44141,-1.26172 0.44141,-1.99219 0,-0.66015 -0.10547,-1.19922 -0.31641,-1.60937 -0.33594,-0.65235 -0.91016,-0.97657 -1.73047,-0.97657 -0.72266,0 -1.25,0.27735 -1.58203,0.82813 -0.32813,0.55469 -0.49609,1.22266 -0.49609,2.00781 0,0.75 0.16796,1.37891 0.49609,1.87891 0.33203,0.5 0.85547,0.7539 1.57031,0.7539 z m 0.0469,-6.5039 c 0.91015,0 1.67968,0.30078 2.30859,0.91015 0.62891,0.60547 0.94141,1.5 0.94141,2.67579 0,1.14062 -0.27735,2.08203 -0.82813,2.82421 -0.55469,0.74219 -1.41406,1.11329 -2.58203,1.11329 -0.96875,0 -1.74219,-0.32422 -2.3125,-0.98047 -0.57422,-0.66016 -0.85937,-1.54297 -0.85937,-2.65235 0,-1.1875 0.30078,-2.13281 0.90234,-2.83593 0.60547,-0.70313 1.41406,-1.05469 2.42969,-1.05469 z m 0,0"
     id="path94" />
  <path
     fill-rule="nonzero"
     fill="#f57c06"
     fill-opacity="1"
     stroke-width="0.723734"
     stroke-linecap="butt"
     stroke-linejoin="miter"
     stroke="#f57c06"
     stroke-opacity="1"
     stroke-miterlimit="4"
     d="m 374.17605,168.51562 c 0.78906,0 1.32813,-0.29687 1.61719,-0.89062 0.29687,-0.59766 0.4414,-1.26172 0.4414,-1.99219 0,-0.65625 -0.10546,-1.19531 -0.3164,-1.60937 -0.33203,-0.64844 -0.91016,-0.97657 -1.72656,-0.97657 -0.72657,0 -1.25391,0.27735 -1.58594,0.83204 -0.32813,0.55468 -0.49219,1.22265 -0.49219,2.00781 0,0.75 0.16406,1.3789 0.49219,1.8789 0.33203,0.5 0.85547,0.75 1.57031,0.75 z m 0.0469,-6.5039 c 0.91015,0 1.67968,0.30469 2.30859,0.91015 0.62891,0.60938 0.94531,1.5 0.94531,2.67969 0,1.14063 -0.27734,2.07813 -0.83203,2.82422 -0.55469,0.74219 -1.41406,1.11328 -2.57812,1.11328 -0.97266,0 -1.7461,-0.32812 -2.31641,-0.98437 -0.57031,-0.65625 -0.85938,-1.54297 -0.85938,-2.64844 0,-1.1875 0.30469,-2.13281 0.90625,-2.83984 0.60157,-0.70313 1.41016,-1.05469 2.42579,-1.05469 z m 0,0"
     id="path96" />
  <path
     fill-rule="nonzero"
     fill="#519b0a"
     fill-opacity="1"
     stroke-width="0.723734"
     stroke-linecap="butt"
     stroke-linejoin="miter"
     stroke="#519b0a"
     stroke-opacity="1"
     stroke-miterlimit="4"
     d="m 409.17605,127.82422 c 0.78906,0 1.32422,-0.29688 1.61719,-0.89063 0.29297,-0.59765 0.4414,-1.26171 0.4414,-1.99218 0,-0.66016 -0.10546,-1.19532 -0.3164,-1.60938 -0.33594,-0.65234 -0.91016,-0.97656 -1.73047,-0.97656 -0.72266,0 -1.25,0.27734 -1.58203,0.83203 -0.32813,0.55078 -0.4961,1.22266 -0.4961,2.00391 0,0.75 0.16797,1.3789 0.4961,1.8789 0.33203,0.50391 0.85156,0.75391 1.57031,0.75391 z m 0.0469,-6.50391 c 0.91015,0 1.67968,0.30078 2.30859,0.91016 0.62891,0.60547 0.94141,1.5 0.94141,2.67578 0,1.14063 -0.27735,2.08203 -0.82813,2.82422 -0.55469,0.74219 -1.41406,1.11719 -2.58203,1.11719 -0.97266,0 -1.74219,-0.32813 -2.3125,-0.98438 -0.57422,-0.66015 -0.85938,-1.54297 -0.85938,-2.65234 0,-1.1875 0.30079,-2.13281 0.90235,-2.83594 0.60547,-0.70312 1.41406,-1.05469 2.42969,-1.05469 z m 0,0"
     id="path98" />
  <path
     fill-rule="nonzero"
     fill="#519b0a"
     fill-opacity="1"
     stroke-width="0.723734"
     stroke-linecap="butt"
     stroke-linejoin="miter"
     stroke="#519b0a"
     stroke-opacity="1"
     stroke-miterlimit="4"
     d="m 425.29324,134.16406 c 0.78515,0 1.32422,-0.29687 1.61328,-0.89062 0.29687,-0.59766 0.44531,-1.26172 0.44531,-1.99219 0,-0.66016 -0.10937,-1.19531 -0.32031,-1.60938 -0.33203,-0.65234 -0.91016,-0.97656 -1.72656,-0.97656 -0.72657,0 -1.25391,0.27735 -1.58203,0.83203 -0.33204,0.55469 -0.4961,1.22266 -0.4961,2.00391 0,0.75391 0.16406,1.37891 0.4961,1.87891 0.32812,0.5039 0.85156,0.7539 1.57031,0.7539 z m 0.043,-6.5039 c 0.91015,0 1.68359,0.30468 2.3125,0.91015 0.625,0.60547 0.9414,1.5 0.9414,2.67969 0,1.13672 -0.27734,2.07812 -0.83203,2.82031 -0.55469,0.7461 -1.41406,1.11719 -2.57812,1.11719 -0.97266,0 -1.74219,-0.32813 -2.31641,-0.98438 -0.57031,-0.66015 -0.85547,-1.54296 -0.85547,-2.65234 0,-1.1875 0.30078,-2.13281 0.90235,-2.83594 0.60156,-0.70312 1.41015,-1.05468 2.42578,-1.05468 z m 0,0"
     id="path100" />
  <path
     fill-rule="nonzero"
     fill="#519b0a"
     fill-opacity="1"
     stroke-width="0.723734"
     stroke-linecap="butt"
     stroke-linejoin="miter"
     stroke="#519b0a"
     stroke-opacity="1"
     stroke-miterlimit="4"
     d="m 417.2698,138.75 c 0.78516,0 1.32422,-0.29688 1.61328,-0.89063 0.29688,-0.59765 0.44141,-1.26171 0.44141,-1.99218 0,-0.66016 -0.10547,-1.19532 -0.31641,-1.60938 -0.33203,-0.65234 -0.91015,-0.97656 -1.72656,-0.97656 -0.72656,0 -1.25391,0.27734 -1.58203,0.83203 -0.33203,0.55078 -0.4961,1.22266 -0.4961,2.00391 0,0.75 0.16407,1.3789 0.4961,1.8789 0.32812,0.50391 0.85156,0.75391 1.57031,0.75391 z m 0.043,-6.50391 c 0.91016,0 1.67969,0.30078 2.30859,0.91016 0.62891,0.60547 0.94532,1.5 0.94532,2.67578 0,1.14063 -0.27735,2.08203 -0.83204,2.82422 -0.55468,0.74219 -1.41406,1.11719 -2.57812,1.11719 -0.97266,0 -1.74609,-0.32813 -2.31641,-0.98438 -0.57031,-0.66015 -0.85547,-1.54297 -0.85547,-2.65234 0,-1.1875 0.30079,-2.13281 0.90235,-2.83594 0.60156,-0.70312 1.41015,-1.05469 2.42578,-1.05469 z m 0,0"
     id="path102" />
  <path
     fill-rule="nonzero"
     fill="#519b0a"
     fill-opacity="1"
     stroke-width="0.723734"
     stroke-linecap="butt"
     stroke-linejoin="miter"
     stroke="#519b0a"
     stroke-opacity="1"
     stroke-miterlimit="4"
     d="m 408.42214,141.42187 c 0.78516,0 1.32422,-0.29687 1.61329,-0.88671 0.29687,-0.60157 0.4414,-1.26563 0.4414,-1.99219 0,-0.66016 -0.10547,-1.19922 -0.3164,-1.61328 -0.33204,-0.64844 -0.91016,-0.97266 -1.72657,-0.97266 -0.72656,0 -1.2539,0.27344 -1.58203,0.82813 -0.33203,0.55468 -0.49609,1.22265 -0.49609,2.00781 0,0.75 0.16406,1.3789 0.49609,1.8789 0.32813,0.5 0.85156,0.75 1.57031,0.75 z m 0.043,-6.5039 c 0.91016,0 1.67969,0.30469 2.3086,0.91015 0.6289,0.60938 0.94531,1.5 0.94531,2.67969 0,1.14063 -0.27734,2.08203 -0.83203,2.82422 -0.55469,0.74219 -1.41406,1.11328 -2.57813,1.11328 -0.97265,0 -1.74218,-0.32812 -2.3164,-0.98047 -0.57032,-0.66015 -0.85547,-1.54687 -0.85547,-2.65234 0,-1.1875 0.30078,-2.13281 0.90234,-2.83594 0.60156,-0.70703 1.41016,-1.05859 2.42578,-1.05859 z m 0,0"
     id="path104" />
  <path
     fill-rule="nonzero"
     fill="#519b0a"
     fill-opacity="1"
     stroke-width="0.723734"
     stroke-linecap="butt"
     stroke-linejoin="miter"
     stroke="#519b0a"
     stroke-opacity="1"
     stroke-miterlimit="4"
     d="m 417.53152,152.02344 c 0.78516,0 1.32422,-0.29688 1.61328,-0.89063 0.29688,-0.59765 0.44141,-1.26172 0.44141,-1.99219 0,-0.66015 -0.10547,-1.19531 -0.31641,-1.60937 -0.33203,-0.64844 -0.91016,-0.97656 -1.72656,-0.97656 -0.72656,0 -1.25391,0.27734 -1.58203,0.83203 -0.33203,0.55469 -0.4961,1.22265 -0.4961,2.0039 0,0.75391 0.16407,1.37891 0.4961,1.88282 0.32812,0.5 0.85156,0.75 1.57031,0.75 z m 0.043,-6.50391 c 0.91015,0 1.67969,0.30469 2.30859,0.91016 0.62891,0.60937 0.94531,1.5 0.94531,2.67968 0,1.13672 -0.27734,2.07813 -0.83203,2.82422 -0.55468,0.74219 -1.41406,1.11328 -2.57812,1.11328 -0.97266,0 -1.7461,-0.32812 -2.31641,-0.98437 -0.57031,-0.65625 -0.85547,-1.54297 -0.85547,-2.64844 0,-1.1875 0.30078,-2.13281 0.90235,-2.83984 0.60156,-0.70313 1.41015,-1.05469 2.42578,-1.05469 z m 0,0"
     id="path106" />
  <path
     fill-rule="nonzero"
     fill="#519b0a"
     fill-opacity="1"
     stroke-width="0.723734"
     stroke-linecap="butt"
     stroke-linejoin="miter"
     stroke="#519b0a"
     stroke-opacity="1"
     stroke-miterlimit="4"
     d="m 425.26589,124.04688 c 0.78516,0 1.32422,-0.29688 1.61719,-0.89063 0.29297,-0.59766 0.44141,-1.26172 0.44141,-1.99219 0,-0.65625 -0.10547,-1.19531 -0.31641,-1.60937 -0.33594,-0.64844 -0.91015,-0.97656 -1.73047,-0.97656 -0.72656,0 -1.2539,0.27734 -1.58203,0.83203 -0.32812,0.55468 -0.49609,1.22265 -0.49609,2.00781 0,0.75 0.16797,1.37891 0.49609,1.87891 0.32813,0.5 0.85156,0.75 1.57031,0.75 z m 0.0469,-6.50391 c 0.91016,0 1.67969,0.30469 2.30859,0.91016 0.62891,0.60937 0.94141,1.5 0.94141,2.67968 0,1.14063 -0.27734,2.08203 -0.83203,2.82422 -0.55078,0.74219 -1.41406,1.11328 -2.57813,1.11328 -0.97265,0 -1.74218,-0.32812 -2.3164,-0.98047 -0.57032,-0.66015 -0.85547,-1.54687 -0.85547,-2.65234 0,-1.1875 0.30078,-2.13281 0.90234,-2.83594 0.60156,-0.70703 1.41406,-1.05859 2.42969,-1.05859 z m 0,0"
     id="path108" />
  <path
     fill-rule="nonzero"
     fill="#74a1cf"
     fill-opacity="1"
     stroke-width="0.723734"
     stroke-linecap="butt"
     stroke-linejoin="miter"
     stroke="#74a1cf"
     stroke-opacity="1"
     stroke-miterlimit="4"
     d="m 365.33621,110.89063 c 0.78906,0 1.32812,-0.29688 1.61718,-0.89063 0.29297,-0.60156 0.44141,-1.26562 0.44141,-1.99219 0,-0.66015 -0.10547,-1.19922 -0.31641,-1.60937 -0.33593,-0.65235 -0.91015,-0.97656 -1.72656,-0.97656 -0.72656,0 -1.2539,0.27734 -1.58594,0.82812 -0.32812,0.55469 -0.49218,1.22266 -0.49218,2.00781 0,0.75 0.16406,1.37891 0.49218,1.87891 0.33204,0.5 0.85547,0.75391 1.57032,0.75391 z m 0.0469,-6.50782 c 0.91016,0 1.67969,0.30469 2.3086,0.91407 0.6289,0.60546 0.9414,1.49609 0.9414,2.67578 0,1.14062 -0.27344,2.08203 -0.82812,2.82422 -0.55469,0.74218 -1.41407,1.11328 -2.58203,1.11328 -0.96875,0 -1.74219,-0.32813 -2.3125,-0.98047 -0.57422,-0.66016 -0.85938,-1.54297 -0.85938,-2.65235 0,-1.1875 0.30078,-2.13281 0.90625,-2.83593 0.60156,-0.70313 1.41016,-1.0586 2.42578,-1.0586 z m 0,0"
     id="path110" />
  <path
     fill-rule="nonzero"
     fill="#74a1cf"
     fill-opacity="1"
     stroke-width="0.723734"
     stroke-linecap="butt"
     stroke-linejoin="miter"
     stroke="#74a1cf"
     stroke-opacity="1"
     stroke-miterlimit="4"
     d="m 375.42214,104.01172 c 0.78907,0 1.32813,-0.29688 1.61719,-0.89063 0.29688,-0.59765 0.44141,-1.26171 0.44141,-1.99218 0,-0.66016 -0.10547,-1.195316 -0.31641,-1.609379 -0.33203,-0.652343 -0.91015,-0.976562 -1.72656,-0.976562 -0.72656,0 -1.25391,0.277343 -1.58203,0.832031 -0.33203,0.554688 -0.4961,1.22266 -0.4961,2.00391 0,0.7539 0.16407,1.3789 0.4961,1.8789 0.32812,0.50391 0.85156,0.75391 1.5664,0.75391 z m 0.0469,-6.503908 c 0.91016,0 1.67969,0.300782 2.30859,0.910157 0.62891,0.605469 0.94532,1.5 0.94532,2.675781 0,1.14063 -0.27735,2.08203 -0.83204,2.82422 -0.55468,0.74609 -1.41406,1.11719 -2.57812,1.11719 -0.97266,0 -1.74609,-0.32813 -2.31641,-0.98438 -0.57031,-0.66015 -0.85937,-1.54297 -0.85937,-2.65234 0,-1.1875 0.30469,-2.132815 0.90625,-2.83594 0.60156,-0.703125 1.41015,-1.054688 2.42578,-1.054688 z m 0,0"
     id="path112" />
  <path
     fill-rule="nonzero"
     fill="#74a1cf"
     fill-opacity="1"
     stroke-width="0.723734"
     stroke-linecap="butt"
     stroke-linejoin="miter"
     stroke="#74a1cf"
     stroke-opacity="1"
     stroke-miterlimit="4"
     d="m 376.80105,111.34766 c 0.78516,0 1.32422,-0.29688 1.61328,-0.89063 0.29688,-0.59765 0.44141,-1.26172 0.44141,-1.99219 0,-0.66015 -0.10547,-1.19531 -0.31641,-1.60937 -0.33203,-0.65234 -0.91015,-0.97656 -1.72656,-0.97656 -0.72656,0 -1.25391,0.27734 -1.58203,0.83203 -0.33203,0.55469 -0.4961,1.22265 -0.4961,2.0039 0,0.75391 0.16407,1.37891 0.4961,1.87891 0.32812,0.50391 0.85156,0.75391 1.57031,0.75391 z m 0.043,-6.50391 c 0.91016,0 1.67969,0.30469 2.30859,0.91016 0.62891,0.60547 0.94532,1.5 0.94532,2.67968 0,1.13672 -0.27735,2.07813 -0.83204,2.82032 -0.55468,0.74609 -1.41406,1.11718 -2.57812,1.11718 -0.97266,0 -1.74609,-0.32812 -2.31641,-0.98437 -0.57031,-0.66016 -0.85547,-1.54297 -0.85547,-2.65234 0,-1.1875 0.30079,-2.13282 0.90235,-2.83594 0.60156,-0.70313 1.41015,-1.05469 2.42578,-1.05469 z m 0,0"
     id="path114" />
  <path
     fill-rule="nonzero"
     fill="#74a1cf"
     fill-opacity="1"
     stroke-width="0.723734"
     stroke-linecap="butt"
     stroke-linejoin="miter"
     stroke="#74a1cf"
     stroke-opacity="1"
     stroke-miterlimit="4"
     d="m 385.7698,118.66406 c 0.78516,0 1.32422,-0.29687 1.61719,-0.89062 0.29297,-0.59766 0.4414,-1.26172 0.4414,-1.99219 0,-0.66016 -0.10546,-1.19531 -0.3164,-1.60937 -0.33594,-0.65235 -0.91016,-0.97657 -1.73047,-0.97657 -0.72266,0 -1.25391,0.27735 -1.58203,0.83203 -0.32813,0.55079 -0.4961,1.22266 -0.4961,2.00391 0,0.75 0.16797,1.37891 0.4961,1.87891 0.32812,0.5039 0.85156,0.7539 1.57031,0.7539 z m 0.0469,-6.5039 c 0.91015,0 1.67968,0.30078 2.30859,0.91015 0.62891,0.60547 0.94141,1.5 0.94141,2.67578 0,1.14063 -0.27735,2.08204 -0.82813,2.82422 -0.55469,0.74219 -1.41406,1.11328 -2.58203,1.11328 -0.97266,0 -1.74219,-0.32421 -2.3125,-0.98046 -0.57422,-0.66016 -0.85938,-1.54297 -0.85938,-2.65235 0,-1.1875 0.30079,-2.13281 0.90235,-2.83594 0.60547,-0.70312 1.41406,-1.05468 2.42969,-1.05468 z m 0,0"
     id="path116" />
  <path
     fill-rule="nonzero"
     fill="#74a1cf"
     fill-opacity="1"
     stroke-width="0.723734"
     stroke-linecap="butt"
     stroke-linejoin="miter"
     stroke="#74a1cf"
     stroke-opacity="1"
     stroke-miterlimit="4"
     d="m 369.46511,124.18359 c 0.78516,0 1.32422,-0.29687 1.61328,-0.89062 0.29688,-0.59766 0.44141,-1.26172 0.44141,-1.99219 0,-0.65625 -0.10547,-1.19531 -0.31641,-1.60937 -0.33203,-0.64844 -0.91015,-0.97266 -1.72656,-0.97266 -0.72656,0 -1.2539,0.27344 -1.58203,0.82813 -0.33203,0.55468 -0.49609,1.22265 -0.49609,2.00781 0,0.75 0.16406,1.3789 0.49609,1.8789 0.32813,0.5 0.85156,0.75 1.57031,0.75 z m 0.043,-6.5039 c 0.91016,0 1.67969,0.30469 2.3086,0.91015 0.6289,0.60938 0.94531,1.5 0.94531,2.67969 0,1.14063 -0.27735,2.08203 -0.83203,2.82422 -0.55469,0.74219 -1.41407,1.11328 -2.57813,1.11328 -0.97265,0 -1.74609,-0.32812 -2.3164,-0.98047 -0.57032,-0.66015 -0.85547,-1.54687 -0.85547,-2.65234 0,-1.1875 0.30078,-2.13281 0.90234,-2.83594 0.60156,-0.70703 1.41016,-1.05859 2.42578,-1.05859 z m 0,0"
     id="path118" />
  <path
     fill-rule="nonzero"
     fill="#74a1cf"
     fill-opacity="1"
     stroke-width="0.723734"
     stroke-linecap="butt"
     stroke-linejoin="miter"
     stroke="#74a1cf"
     stroke-opacity="1"
     stroke-miterlimit="4"
     d="m 375.42214,129.23047 c 0.78907,0 1.32813,-0.29688 1.61719,-0.89063 0.29688,-0.59765 0.44141,-1.26171 0.44141,-1.99218 0,-0.66016 -0.10547,-1.19922 -0.31641,-1.60938 -0.33203,-0.65234 -0.91015,-0.97656 -1.72656,-0.97656 -0.72656,0 -1.25391,0.27734 -1.58203,0.82812 -0.33203,0.55469 -0.4961,1.22266 -0.4961,2.00782 0,0.75 0.16407,1.3789 0.4961,1.8789 0.32812,0.5 0.85156,0.75391 1.5664,0.75391 z m 0.0469,-6.50391 c 0.91016,0 1.67969,0.30078 2.30859,0.91016 0.62891,0.60547 0.94532,1.49609 0.94532,2.67578 0,1.14063 -0.27735,2.08203 -0.83204,2.82422 -0.55468,0.74219 -1.41406,1.11328 -2.57812,1.11328 -0.97266,0 -1.74609,-0.32813 -2.31641,-0.98047 -0.57031,-0.66016 -0.85937,-1.54297 -0.85937,-2.65234 0,-1.1875 0.30469,-2.13281 0.90625,-2.83594 0.60156,-0.70312 1.41015,-1.05469 2.42578,-1.05469 z m 0,0"
     id="path120" />
  <path
     fill="none"
     stroke-width="1.76031"
     stroke-linecap="butt"
     stroke-linejoin="miter"
     stroke="#73a0cf"
     stroke-opacity="1"
     stroke-miterlimit="4"
     d="m 66.750266,157.89453 c 0,3.24609 -2.605469,5.87891 -5.820312,5.87891 -3.214844,0 -5.820313,-2.63282 -5.820313,-5.87891 0,-3.24609 2.605469,-5.87891 5.820313,-5.87891 3.214843,0 5.820312,2.63282 5.820312,5.87891 z m 0,0"
     id="path122" />
  <path
     fill="none"
     stroke-width="1.76031"
     stroke-linecap="butt"
     stroke-linejoin="miter"
     stroke="#73a0cf"
     stroke-opacity="1"
     stroke-miterlimit="4"
     d="m 49.640891,143.66797 c 0,3.24609 -2.605469,5.8789 -5.820313,5.8789 -3.214843,0 -5.820312,-2.63281 -5.820312,-5.8789 0,-3.2461 2.605469,-5.87891 5.820312,-5.87891 3.214844,0 5.820313,2.63281 5.820313,5.87891 z m 0,0"
     id="path124" />
  <path
     fill="none"
     stroke-width="1.76031"
     stroke-linecap="butt"
     stroke-linejoin="miter"
     stroke="#73a0cf"
     stroke-opacity="1"
     stroke-miterlimit="4"
     d="m 84.445578,143.66797 c 0,3.24609 -2.605468,5.8789 -5.820312,5.8789 -3.214844,0 -5.820312,-2.63281 -5.820312,-5.8789 0,-3.2461 2.605468,-5.87891 5.820312,-5.87891 3.214844,0 5.820312,2.63281 5.820312,5.87891 z m 0,0"
     id="path126" />
  <path
     fill="none"
     stroke-width="1.76031"
     stroke-linecap="butt"
     stroke-linejoin="miter"
     stroke="#73a0cf"
     stroke-opacity="1"
     stroke-miterlimit="4"
     d="m 56.226828,176.17969 c 0,3.24609 -2.605468,5.8789 -5.820312,5.8789 -3.214844,0 -5.820312,-2.63281 -5.820312,-5.8789 0,-3.2461 2.605468,-5.87891 5.820312,-5.87891 3.214844,0 5.820312,2.63281 5.820312,5.87891 z m 0,0"
     id="path128" />
  <path
     fill="none"
     stroke-width="1.76031"
     stroke-linecap="butt"
     stroke-linejoin="miter"
     stroke="#73a0cf"
     stroke-opacity="1"
     stroke-miterlimit="4"
     d="m 99.851828,161.83203 c 0,3.25 -2.605468,5.87891 -5.820312,5.87891 -3.214844,0 -5.820312,-2.62891 -5.820312,-5.87891 0,-3.24609 2.605468,-5.87891 5.820312,-5.87891 3.214844,0 5.820312,2.63282 5.820312,5.87891 z m 0,0"
     id="path130" />
  <path
     fill="none"
     stroke-width="1.76031"
     stroke-linecap="butt"
     stroke-linejoin="miter"
     stroke="#73a0cf"
     stroke-opacity="1"
     stroke-miterlimit="4"
     d="m 90.242454,157.36719 -7.828126,-9.23438"
     id="path132" />
  <path
     fill="none"
     stroke-width="1.76031"
     stroke-linecap="butt"
     stroke-linejoin="miter"
     stroke="#73a0cf"
     stroke-opacity="1"
     stroke-miterlimit="4"
     d="m 65.484641,154.23437 8.589844,-6.90625"
     id="path134" />
  <path
     fill="none"
     stroke-width="1.76031"
     stroke-linecap="butt"
     stroke-linejoin="miter"
     stroke="#73a0cf"
     stroke-opacity="1"
     stroke-miterlimit="4"
     d="m 53.332297,171.09766 4.671875,-8.1211"
     id="path136" />
  <path
     fill="none"
     stroke-width="1.76031"
     stroke-linecap="butt"
     stroke-linejoin="miter"
     stroke="#73a0cf"
     stroke-opacity="1"
     stroke-miterlimit="4"
     d="m 48.316672,147.40234 8.121094,6.75391"
     id="path138" />
  <path
     fill="none"
     stroke-width="1.76031"
     stroke-linecap="butt"
     stroke-linejoin="miter"
     stroke="#74a1cf"
     stroke-opacity="1"
     stroke-miterlimit="4"
     d="m 112.64871,112.59766 c 0,3.24609 -2.60547,5.8789 -5.82031,5.8789 -3.21485,0 -5.82032,-2.63281 -5.82032,-5.8789 0,-3.25 2.60547,-5.87891 5.82032,-5.87891 3.21484,0 5.82031,2.62891 5.82031,5.87891 z m 0,0"
     id="path140" />
  <path
     fill="none"
     stroke-width="1.76031"
     stroke-linecap="butt"
     stroke-linejoin="miter"
     stroke="#74a1cf"
     stroke-opacity="1"
     stroke-miterlimit="4"
     d="m 95.539328,98.367188 c 0,3.250002 -2.605468,5.878902 -5.820312,5.878902 -3.214844,0 -5.820312,-2.6289 -5.820312,-5.878902 0,-3.246094 2.605468,-5.878907 5.820312,-5.878907 3.214844,0 5.820312,2.632813 5.820312,5.878907 z m 0,0"
     id="path142" />
  <path
     fill="none"
     stroke-width="1.76031"
     stroke-linecap="butt"
     stroke-linejoin="miter"
     stroke="#74a1cf"
     stroke-opacity="1"
     stroke-miterlimit="4"
     d="m 130.34402,98.367188 c 0,3.250002 -2.60547,5.878902 -5.82031,5.878902 -3.21485,0 -5.82031,-2.6289 -5.82031,-5.878902 0,-3.246094 2.60546,-5.878907 5.82031,-5.878907 3.21484,0 5.82031,2.632813 5.82031,5.878907 z m 0,0"
     id="path144" />
  <path
     fill="none"
     stroke-width="1.76031"
     stroke-linecap="butt"
     stroke-linejoin="miter"
     stroke="#74a1cf"
     stroke-opacity="1"
     stroke-miterlimit="4"
     d="m 119.96902,102.03125 -8.58984,6.90234"
     id="path146" />
  <path
     fill="none"
     stroke-width="1.76031"
     stroke-linecap="butt"
     stroke-linejoin="miter"
     stroke="#74a1cf"
     stroke-opacity="1"
     stroke-miterlimit="4"
     d="m 94.211204,102.10547 8.121096,6.75391"
     id="path148" />
  <path
     fill="none"
     stroke-width="1.76031"
     stroke-linecap="butt"
     stroke-linejoin="miter"
     stroke="#f57c06"
     stroke-opacity="1"
     stroke-miterlimit="4"
     d="m 60.969016,101.64063 c -3.246094,0 -5.878906,-2.605474 -5.878906,-5.820318 C 55.09011,92.605469 57.722922,90 60.969016,90 c 3.246094,0 5.878906,2.605469 5.878906,5.820312 0,3.214844 -2.632812,5.820318 -5.878906,5.820318 z m 0,0"
     id="path150" />
  <path
     fill="none"
     stroke-width="1.76031"
     stroke-linecap="butt"
     stroke-linejoin="miter"
     stroke="#f57c06"
     stroke-opacity="1"
     stroke-miterlimit="4"
     d="m 75.195578,84.53125 c -3.246093,0 -5.878906,-2.605469 -5.878906,-5.820312 0,-3.214844 2.632813,-5.820313 5.878906,-5.820313 3.246094,0 5.878907,2.605469 5.878907,5.820313 0,3.214843 -2.632813,5.820312 -5.878907,5.820312 z m 0,0"
     id="path152" />
  <path
     fill="none"
     stroke-width="1.76031"
     stroke-linecap="butt"
     stroke-linejoin="miter"
     stroke="#f57c06"
     stroke-opacity="1"
     stroke-miterlimit="4"
     d="m 75.195578,119.33594 c -3.246093,0 -5.878906,-2.60547 -5.878906,-5.82031 0,-3.21485 2.632813,-5.82032 5.878906,-5.82032 3.246094,0 5.878907,2.60547 5.878907,5.82032 0,3.21484 -2.632813,5.82031 -5.878907,5.82031 z m 0,0"
     id="path154" />
  <path
     fill="none"
     stroke-width="1.76031"
     stroke-linecap="butt"
     stroke-linejoin="miter"
     stroke="#f57c06"
     stroke-opacity="1"
     stroke-miterlimit="4"
     d="m 42.68386,91.117188 c -3.246094,0 -5.878906,-2.605469 -5.878906,-5.820313 0,-3.214844 2.632812,-5.820313 5.878906,-5.820313 3.246094,0 5.878906,2.605469 5.878906,5.820313 0,3.214844 -2.632812,5.820313 -5.878906,5.820313 z m 0,0"
     id="path156" />
  <path
     fill="none"
     stroke-width="1.76031"
     stroke-linecap="butt"
     stroke-linejoin="miter"
     stroke="#f57c06"
     stroke-opacity="1"
     stroke-miterlimit="4"
     d="m 57.02761,134.74219 c -3.246094,0 -5.878906,-2.60547 -5.878906,-5.82032 0,-3.21484 2.632812,-5.82031 5.878906,-5.82031 3.25,0 5.882812,2.60547 5.882812,5.82031 0,3.21485 -2.632812,5.82032 -5.882812,5.82032 z m 0,0"
     id="path158" />
  <path
     fill="none"
     stroke-width="1.76031"
     stroke-linecap="butt"
     stroke-linejoin="miter"
     stroke="#f57c06"
     stroke-opacity="1"
     stroke-miterlimit="4"
     d="m 61.49636,125.13281 9.234375,-7.82812"
     id="path160" />
  <path
     fill="none"
     stroke-width="1.76031"
     stroke-linecap="butt"
     stroke-linejoin="miter"
     stroke="#f57c06"
     stroke-opacity="1"
     stroke-miterlimit="4"
     d="m 64.629172,100.375 6.90625,8.58984"
     id="path162" />
  <path
     fill="none"
     stroke-width="1.76031"
     stroke-linecap="butt"
     stroke-linejoin="miter"
     stroke="#f57c06"
     stroke-opacity="1"
     stroke-miterlimit="4"
     d="m 47.765891,88.222656 8.121094,4.671875"
     id="path164" />
  <path
     fill="none"
     stroke-width="1.76031"
     stroke-linecap="butt"
     stroke-linejoin="miter"
     stroke="#f57c06"
     stroke-opacity="1"
     stroke-miterlimit="4"
     d="m 71.461204,83.207031 -6.757813,8.121094"
     id="path166" />
  <path
     fill="none"
     stroke-width="1.76031"
     stroke-linecap="butt"
     stroke-linejoin="miter"
     stroke="#519c0a"
     stroke-opacity="1"
     stroke-miterlimit="4"
     d="m 36.031516,116.42188 c -3.25,0 -5.878906,-2.60547 -5.878906,-5.82032 0,-3.21484 2.628906,-5.82031 5.878906,-5.82031 3.246094,0 5.878906,2.60547 5.878906,5.82031 0,3.21485 -2.632812,5.82032 -5.878906,5.82032 z m 0,0"
     id="path168" />
  <path
     fill="none"
     stroke-width="1.76031"
     stroke-linecap="butt"
     stroke-linejoin="miter"
     stroke="#519c0a"
     stroke-opacity="1"
     stroke-miterlimit="4"
     d="m 22.55886,133.05078 c -3.246094,0 -5.878906,-2.60547 -5.878906,-5.82031 0,-3.21484 2.632812,-5.82031 5.878906,-5.82031 3.25,0 5.882812,2.60547 5.882812,5.82031 0,3.21484 -2.632812,5.82031 -5.882812,5.82031 z m 0,0"
     id="path170" />
  <path
     fill="none"
     stroke-width="1.76031"
     stroke-linecap="butt"
     stroke-linejoin="miter"
     stroke="#519c0a"
     stroke-opacity="1"
     stroke-miterlimit="4"
     d="m 26.238547,122.69141 6.113281,-7.54688"
     id="path172" />
  <path
     fill="none"
     stroke-width="1.76031"
     stroke-linecap="butt"
     stroke-linejoin="miter"
     stroke="#519b0a"
     stroke-opacity="1"
     stroke-miterlimit="4"
     d="m 115.51199,148.49609 c 0,-3.24609 2.60547,-5.8789 5.82031,-5.8789 3.21485,0 5.82031,2.63281 5.82031,5.8789 0,3.2461 -2.60546,5.87891 -5.82031,5.87891 -3.21484,0 -5.82031,-2.63281 -5.82031,-5.87891 z m 0,0"
     id="path174" />
  <path
     fill="none"
     stroke-width="1.76031"
     stroke-linecap="butt"
     stroke-linejoin="miter"
     stroke="#519b0a"
     stroke-opacity="1"
     stroke-miterlimit="4"
     d="m 98.883078,135.02734 c 0,-3.25 2.605472,-5.8789 5.820322,-5.8789 3.21484,0 5.82031,2.6289 5.82031,5.8789 0,3.2461 -2.60547,5.87891 -5.82031,5.87891 -3.21485,0 -5.820322,-2.63281 -5.820322,-5.87891 z m 0,0"
     id="path176" />
  <path
     fill="none"
     stroke-width="1.76031"
     stroke-linecap="butt"
     stroke-linejoin="miter"
     stroke="#519b0a"
     stroke-opacity="1"
     stroke-miterlimit="4"
     d="m 109.24636,138.70312 7.54688,6.11329"
     id="path178" />
  <path
     fill-rule="nonzero"
     fill="#e9e9e9"
     fill-opacity="1"
     stroke-width="0.560143"
     stroke-linecap="butt"
     stroke-linejoin="round"
     stroke="#000000"
     stroke-opacity="1"
     stroke-miterlimit="4"
     d="m 199.9573,125.60156 h 52.35156 v 52.44141 H 199.9573 Z m 0,0"
     id="path180" />
  <path
     fill-rule="nonzero"
     fill="#000000"
     fill-opacity="1"
     stroke-width="0.558817"
     stroke-linecap="butt"
     stroke-linejoin="miter"
     stroke="#000000"
     stroke-opacity="1"
     stroke-miterlimit="4"
     d="m 199.80105,125.66406 v 52.49219 m 5.24609,-52.49219 v 52.49219 m 5.24219,-52.49219 v 52.49219 m 5.2461,-52.49219 v 52.49219 m 5.24609,-52.49219 v 52.49219 m 5.24219,-52.49219 v 52.49219 m 5.24609,-52.49219 v 52.49219 m 5.24219,-52.49219 v 52.49219 m 5.24609,-52.49219 v 52.49219 m 5.2461,-52.49219 v 52.49219 m 5.24218,-52.49219 v 52.49219 m -52.44531,-52.49219 h 52.48828 m -52.48828,5.2461 h 52.48828 m -52.48828,5.24609 h 52.48828 m -52.48828,5.24219 h 52.48828 m -52.48828,5.24609 h 52.48828 m -52.48828,5.24219 h 52.48828 m -52.48828,5.24609 h 52.48828 m -52.48828,5.2461 h 52.48828 m -52.48828,5.24218 h 52.48828 m -52.48828,5.2461 h 52.48828 m -52.48828,5.24218 h 52.48828"
     id="path182" />
  <path
     fill-rule="nonzero"
     fill="#2d20db"
     fill-opacity="1"
     d="m 200.41433,128.32031 v -2.28906 h 4.1836 v 4.58203 h -4.1836 z m 0,0"
     id="path184" />
  <path
     fill-rule="nonzero"
     fill="#2d20db"
     fill-opacity="1"
     d="m 215.9573,128.32031 v -2.28906 h 4.38281 v 4.58203 h -4.38281 z m 0,0"
     id="path186" />
  <path
     fill-rule="nonzero"
     fill="#2d20db"
     fill-opacity="1"
     d="m 221.13699,128.32031 v -2.28906 h 4.58594 v 4.58203 h -4.58594 z m 0,0"
     id="path188" />
  <path
     fill-rule="nonzero"
     fill="#2d20db"
     fill-opacity="1"
     d="m 226.32058,128.32031 v -2.28906 h 4.58203 v 4.58203 h -4.58203 z m 0,0"
     id="path190" />
  <path
     fill-rule="nonzero"
     fill="#2d20db"
     fill-opacity="1"
     d="m 236.87918,128.32031 v -2.28906 h 4.58593 v 4.58203 h -4.58593 z m 0,0"
     id="path192" />
  <path
     fill-rule="nonzero"
     fill="#2d20db"
     fill-opacity="1"
     d="m 242.06277,128.32031 v -2.28906 h 4.58203 v 4.58203 h -4.58203 z m 0,0"
     id="path194" />
  <path
     fill-rule="nonzero"
     fill="#2d20db"
     fill-opacity="1"
     d="m 247.44168,128.32031 v -2.28906 h 4.38281 v 4.58203 h -4.38281 z m 0,0"
     id="path196" />
  <path
     fill-rule="nonzero"
     fill="#2d20db"
     fill-opacity="1"
     d="m 247.44168,133.50391 v -2.29297 h 4.38281 v 4.58203 h -4.38281 z m 0,0"
     id="path198" />
  <path
     fill-rule="nonzero"
     fill="#2d20db"
     fill-opacity="1"
     d="m 247.44168,138.78125 v -2.19141 h 4.38281 v 4.38282 h -4.38281 z m 0,0"
     id="path200" />
  <path
     fill-rule="nonzero"
     fill="#2d20db"
     fill-opacity="1"
     d="m 247.44168,149.24219 v -2.28907 h 4.38281 v 4.58204 h -4.38281 z m 0,0"
     id="path202" />
  <path
     fill-rule="nonzero"
     fill="#2d20db"
     fill-opacity="1"
     d="m 247.44168,164.98437 v -2.28906 h 4.38281 v 4.58203 h -4.38281 z m 0,0"
     id="path204" />
  <path
     fill-rule="nonzero"
     fill="#2d20db"
     fill-opacity="1"
     d="m 247.44168,175.44531 v -2.1914 h 4.38281 v 4.38671 h -4.38281 z m 0,0"
     id="path206" />
  <path
     fill-rule="nonzero"
     fill="#e9e9e9"
     fill-opacity="1"
     stroke-width="0.560143"
     stroke-linecap="butt"
     stroke-linejoin="round"
     stroke="#000000"
     stroke-opacity="1"
     stroke-miterlimit="4"
     d="m 198.27761,127.21094 h 52.35157 v 52.44531 h -52.35157 z m 0,0"
     id="path208" />
  <path
     fill-rule="nonzero"
     fill="#000000"
     fill-opacity="1"
     stroke-width="0.558817"
     stroke-linecap="butt"
     stroke-linejoin="miter"
     stroke="#000000"
     stroke-opacity="1"
     stroke-miterlimit="4"
     d="m 198.12527,127.27734 v 52.48828 m 5.24219,-52.48828 v 52.48828 m 5.24609,-52.48828 v 52.48828 m 5.24609,-52.48828 v 52.48828 m 5.24219,-52.48828 v 52.48828 m 5.2461,-52.48828 v 52.48828 m 5.24609,-52.48828 v 52.48828 m 5.24219,-52.48828 v 52.48828 m 5.24609,-52.48828 v 52.48828 m 5.24219,-52.48828 v 52.48828 m 5.24609,-52.48828 v 52.48828 m -52.44531,-52.48828 h 52.48828 m -52.48828,5.24219 h 52.48828 m -52.48828,5.24609 h 52.48828 m -52.48828,5.2461 h 52.48828 m -52.48828,5.24219 h 52.48828 M 198.12527,153.5 h 52.48828 m -52.48828,5.24219 h 52.48828 m -52.48828,5.24609 h 52.48828 m -52.48828,5.24609 h 52.48828 m -52.48828,5.24219 h 52.48828 m -52.48828,5.2461 h 52.48828"
     id="path210" />
  <path
     fill-rule="nonzero"
     fill="#2d20db"
     fill-opacity="1"
     d="m 245.75027,156.08984 v -2.29297 h 4.38281 v 4.58204 h -4.38281 z m 0,0"
     id="path212" />
  <path
     fill-rule="nonzero"
     fill="#2d20db"
     fill-opacity="1"
     d="m 209.08621,129.88672 v -2.19141 h 4.38281 v 4.38281 h -4.38281 z m 0,0"
     id="path214" />
  <path
     fill-rule="nonzero"
     fill="#e9e9e9"
     fill-opacity="1"
     stroke-width="0.560143"
     stroke-linecap="butt"
     stroke-linejoin="round"
     stroke="#000000"
     stroke-opacity="1"
     stroke-miterlimit="4"
     d="m 196.55496,128.94531 h 52.35156 v 52.44531 h -52.35156 z m 0,0"
     id="path216" />
  <path
     fill-rule="nonzero"
     fill="#000000"
     fill-opacity="1"
     stroke-width="0.558817"
     stroke-linecap="butt"
     stroke-linejoin="miter"
     stroke="#000000"
     stroke-opacity="1"
     stroke-miterlimit="4"
     d="m 196.40261,129.01172 v 52.49219 m 5.24219,-52.49219 v 52.49219 m 5.24609,-52.49219 v 52.49219 m 5.24219,-52.49219 v 52.49219 m 5.2461,-52.49219 v 52.49219 m 5.24609,-52.49219 v 52.49219 m 5.24219,-52.49219 v 52.49219 m 5.24609,-52.49219 v 52.49219 m 5.24609,-52.49219 v 52.49219 m 5.24219,-52.49219 v 52.49219 m 5.2461,-52.49219 v 52.49219 m -52.44532,-52.49219 h 52.48828 m -52.48828,5.24609 h 52.48828 M 196.40261,139.5 h 52.48828 m -52.48828,5.24609 h 52.48828 m -52.48828,5.2461 h 52.48828 m -52.48828,5.24218 h 52.48828 m -52.48828,5.2461 h 52.48828 m -52.48828,5.24609 h 52.48828 m -52.48828,5.24219 h 52.48828 m -52.48828,5.24609 h 52.48828 m -52.48828,5.24219 h 52.48828"
     id="path218" />
  <path
     fill-rule="nonzero"
     fill="#2d20db"
     fill-opacity="1"
     d="m 243.90652,147.37891 v -2.29297 h 4.58203 v 4.58593 h -4.58203 z m 0,0"
     id="path220" />
  <path
     fill-rule="nonzero"
     fill="#2d20db"
     fill-opacity="1"
     d="m 228.16433,131.63672 v -2.29297 h 4.58203 v 4.58594 h -4.58203 z m 0,0"
     id="path222" />
  <path
     fill-rule="nonzero"
     fill="#e9e9e9"
     fill-opacity="1"
     stroke-width="0.560143"
     stroke-linecap="butt"
     stroke-linejoin="round"
     stroke="#000000"
     stroke-opacity="1"
     stroke-miterlimit="4"
     d="m 194.84011,130.98047 h 52.35157 v 52.44531 h -52.35157 z m 0,0"
     id="path224" />
  <path
     fill-rule="nonzero"
     fill="#000000"
     fill-opacity="1"
     stroke-width="0.558817"
     stroke-linecap="butt"
     stroke-linejoin="miter"
     stroke="#000000"
     stroke-opacity="1"
     stroke-miterlimit="4"
     d="m 194.68386,131.04687 v 52.48829 m 5.2461,-52.48829 v 52.48829 m 5.24218,-52.48829 v 52.48829 m 5.2461,-52.48829 v 52.48829 m 5.24609,-52.48829 v 52.48829 m 5.24219,-52.48829 v 52.48829 m 5.24609,-52.48829 v 52.48829 m 5.24219,-52.48829 v 52.48829 m 5.24609,-52.48829 v 52.48829 m 5.2461,-52.48829 v 52.48829 m 5.24219,-52.48829 v 52.48829 m -52.44532,-52.48829 h 52.48828 m -52.48828,5.24219 h 52.48828 m -52.48828,5.2461 h 52.48828 m -52.48828,5.24609 h 52.48828 m -52.48828,5.24219 h 52.48828 m -52.48828,5.24609 h 52.48828 m -52.48828,5.24219 h 52.48828 m -52.48828,5.24609 h 52.48828 m -52.48828,5.2461 h 52.48828 m -52.48828,5.24218 h 52.48828 m -52.48828,5.2461 h 52.48828"
     id="path226" />
  <path
     fill-rule="nonzero"
     fill="#2d20db"
     fill-opacity="1"
     stroke-width="0.0705612"
     stroke-linecap="butt"
     stroke-linejoin="round"
     stroke="#000000"
     stroke-opacity="1"
     stroke-miterlimit="4"
     d="m 226.48464,159.875 v -2.32422 h 4.58204 v 4.64844 h -4.58204 z m 0,0"
     id="path228" />
  <path
     fill-rule="nonzero"
     fill="#2d20db"
     fill-opacity="1"
     stroke-width="0.0705612"
     stroke-linecap="butt"
     stroke-linejoin="round"
     stroke="#000000"
     stroke-opacity="1"
     stroke-miterlimit="4"
     d="m 231.69949,165.125 v -2.28906 h 4.64844 v 4.57812 h -4.64844 z m 0,0"
     id="path230" />
  <path
     fill-rule="nonzero"
     fill="#2d20db"
     fill-opacity="1"
     stroke-width="0.0705612"
     stroke-linecap="butt"
     stroke-linejoin="round"
     stroke="#000000"
     stroke-opacity="1"
     stroke-miterlimit="4"
     d="m 221.20339,154.66406 v -2.32812 h 4.64844 v 4.65234 h -4.64844 z m 0,0"
     id="path232" />
  <path
     fill-rule="nonzero"
     fill="#2d20db"
     fill-opacity="1"
     stroke-width="0.0705612"
     stroke-linecap="butt"
     stroke-linejoin="round"
     stroke="#000000"
     stroke-opacity="1"
     stroke-miterlimit="4"
     d="M 226.48464,149.41406 V 147.125 h 4.58204 v 4.57812 h -4.58204 z m 0,0"
     id="path234" />
  <path
     fill-rule="nonzero"
     fill="#2d20db"
     fill-opacity="1"
     stroke-width="0.0705612"
     stroke-linecap="butt"
     stroke-linejoin="round"
     stroke="#000000"
     stroke-opacity="1"
     stroke-miterlimit="4"
     d="M 221.20339,149.41406 V 147.125 h 4.64844 v 4.57812 h -4.64844 z m 0,0"
     id="path236" />
  <path
     fill-rule="nonzero"
     fill="#2d20db"
     fill-opacity="1"
     stroke-width="0.0705612"
     stroke-linecap="butt"
     stroke-linejoin="round"
     stroke="#000000"
     stroke-opacity="1"
     stroke-miterlimit="4"
     d="m 210.7073,165.125 v -2.28906 h 4.64844 v 4.57812 h -4.64844 z m 0,0"
     id="path238" />
  <path
     fill-rule="nonzero"
     fill="#2d20db"
     fill-opacity="1"
     stroke-width="0.0705612"
     stroke-linecap="butt"
     stroke-linejoin="round"
     stroke="#000000"
     stroke-opacity="1"
     stroke-miterlimit="4"
     d="M 210.7073,138.91797 V 136.625 h 4.64844 v 4.58203 h -4.64844 z m 0,0"
     id="path240" />
  <path
     fill-rule="nonzero"
     fill="#2d20db"
     fill-opacity="1"
     stroke-width="0.0705612"
     stroke-linecap="butt"
     stroke-linejoin="round"
     stroke="#000000"
     stroke-opacity="1"
     stroke-miterlimit="4"
     d="m 200.2073,133.66797 v -2.32422 h 4.65234 v 4.64844 h -4.65234 z m 0,0"
     id="path242" />
  <path
     fill-rule="nonzero"
     fill="#2d20db"
     fill-opacity="1"
     stroke-width="0.0705612"
     stroke-linecap="butt"
     stroke-linejoin="round"
     stroke="#000000"
     stroke-opacity="1"
     stroke-miterlimit="4"
     d="m 242.19558,175.62109 v -2.28906 h 4.65235 v 4.57813 h -4.65235 z m 0,0"
     id="path244" />
  <path
     fill-rule="nonzero"
     fill="#2d20db"
     fill-opacity="1"
     stroke-width="0.0705612"
     stroke-linecap="butt"
     stroke-linejoin="round"
     stroke="#000000"
     stroke-opacity="1"
     stroke-miterlimit="4"
     d="m 242.19558,165.125 v -2.28906 h 4.65235 v 4.57812 h -4.65235 z m 0,0"
     id="path246" />
  <path
     fill-rule="nonzero"
     fill="#2d20db"
     fill-opacity="1"
     stroke-width="0.0705612"
     stroke-linecap="butt"
     stroke-linejoin="round"
     stroke="#000000"
     stroke-opacity="1"
     stroke-miterlimit="4"
     d="M 226.48464,138.91797 V 136.625 h 4.58204 v 4.58203 h -4.58204 z m 0,0"
     id="path248" />
  <path
     fill-rule="nonzero"
     fill="#2d20db"
     fill-opacity="1"
     stroke-width="0.0705612"
     stroke-linecap="butt"
     stroke-linejoin="round"
     stroke="#000000"
     stroke-opacity="1"
     stroke-miterlimit="4"
     d="M 195.13699,138.91797 V 136.625 h 4.50781 v 4.58203 h -4.50781 z m 0,0"
     id="path250" />
  <path
     fill-rule="nonzero"
     fill="#2d20db"
     fill-opacity="1"
     stroke-width="0.0705612"
     stroke-linecap="butt"
     stroke-linejoin="round"
     stroke="#000000"
     stroke-opacity="1"
     stroke-miterlimit="4"
     d="M 200.2073,149.41406 V 147.125 h 4.65234 v 4.57812 h -4.65234 z m 0,0"
     id="path252" />
  <path
     fill-rule="nonzero"
     fill="#2d20db"
     fill-opacity="1"
     stroke-width="0.0705612"
     stroke-linecap="butt"
     stroke-linejoin="round"
     stroke="#000000"
     stroke-opacity="1"
     stroke-miterlimit="4"
     d="m 215.98855,159.875 v -2.32422 h 4.57813 v 4.64844 h -4.57813 z m 0,0"
     id="path254" />
  <path
     fill-rule="nonzero"
     fill="#2d20db"
     fill-opacity="1"
     stroke-width="0.0705612"
     stroke-linecap="butt"
     stroke-linejoin="round"
     stroke="#000000"
     stroke-opacity="1"
     stroke-miterlimit="4"
     d="m 210.7073,159.875 v -2.32422 h 4.64844 v 4.64844 h -4.64844 z m 0,0"
     id="path256" />
  <path
     fill-rule="nonzero"
     fill="#2d20db"
     fill-opacity="1"
     stroke-width="0.0705612"
     stroke-linecap="butt"
     stroke-linejoin="round"
     stroke="#000000"
     stroke-opacity="1"
     stroke-miterlimit="4"
     d="m 221.20339,165.125 v -2.28906 h 4.64844 v 4.57812 h -4.64844 z m 0,0"
     id="path258" />
  <path
     fill-rule="nonzero"
     fill="#2d20db"
     fill-opacity="1"
     stroke-width="0.0705612"
     stroke-linecap="butt"
     stroke-linejoin="round"
     stroke="#000000"
     stroke-opacity="1"
     stroke-miterlimit="4"
     d="m 226.48464,170.37109 v -2.32422 h 4.58204 v 4.65235 h -4.58204 z m 0,0"
     id="path260" />
  <path
     fill-rule="nonzero"
     fill="#2d20db"
     fill-opacity="1"
     stroke-width="0.0705612"
     stroke-linecap="butt"
     stroke-linejoin="round"
     stroke="#000000"
     stroke-opacity="1"
     stroke-miterlimit="4"
     d="m 226.48464,180.83594 v -2.29297 h 4.58204 v 4.58203 h -4.58204 z m 0,0"
     id="path262" />
  <path
     fill-rule="nonzero"
     fill="#2d20db"
     fill-opacity="1"
     stroke-width="0.0705612"
     stroke-linecap="butt"
     stroke-linejoin="round"
     stroke="#000000"
     stroke-opacity="1"
     stroke-miterlimit="4"
     d="m 236.98464,180.83594 v -2.29297 h 4.57813 v 4.58203 h -4.57813 z m 0,0"
     id="path264" />
  <path
     fill-rule="nonzero"
     fill="#2d20db"
     fill-opacity="1"
     d="m 200.21511,165.125 v -2.28906 h 4.64844 v 4.57812 h -4.64844 z m 0,0"
     id="path266" />
  <path
     fill="none"
     stroke-width="1.2274"
     stroke-linecap="butt"
     stroke-linejoin="miter"
     stroke="#000000"
     stroke-opacity="1"
     stroke-miterlimit="4"
     d="m 88.812766,63.597656 c 160.480474,-91.027344 287.421874,-2.375 287.421874,-2.375"
     id="path268" />
  <path
     fill-rule="evenodd"
     fill="#000000"
     fill-opacity="1"
     stroke-width="0.654614"
     stroke-linecap="butt"
     stroke-linejoin="miter"
     stroke="#000000"
     stroke-opacity="1"
     stroke-miterlimit="4"
     d="m 372.2112,58.414065 -3.41797,0.605463 8.44923,2.906251 -5.64063,-6.933588 z m 0,0"
     id="path270" />
  <path
     fill-rule="evenodd"
     fill="#000000"
     fill-opacity="1"
     stroke-width="0.654614"
     stroke-linecap="butt"
     stroke-linejoin="miter"
     stroke="#000000"
     stroke-opacity="1"
     stroke-miterlimit="4"
     d="m 94.722919,197.58203 3.417972,-0.60547 -8.449214,-2.90624 L 95.328394,201 Z m 0,0"
     id="path276" />
  <path
     fill="none"
     stroke-width="1.22653"
     stroke-linecap="butt"
     stroke-linejoin="miter"
     stroke="#000000"
     stroke-opacity="1"
     stroke-miterlimit="4"
     d="m 257.17214,77.324219 c 50.57032,-34.660157 90.57422,-0.902344 90.57422,-0.902344"
     id="path278" />
  <path
     fill-rule="evenodd"
     fill="#000000"
     fill-opacity="1"
     stroke-width="0.654147"
     stroke-linecap="butt"
     stroke-linejoin="miter"
     stroke="#000000"
     stroke-opacity="1"
     stroke-miterlimit="4"
     d="m 343.99637,73.257814 -3.45704,0.292967 8.14452,3.664062 -4.98045,-7.414063 z m 0,0"
     id="path280" />
  <path
     fill-rule="nonzero"
     fill="#000000"
     fill-opacity="1"
     d="m 301.29714,55.941406 c 3.39844,-0.277344 5.85938,-2.320312 5.85938,-4.574218 0,-2.285157 -2.49609,-4.296876 -5.85938,-4.574219 v -1.210938 c 0,-0.765625 0,-1.074219 2.08204,-1.074219 h 0.72656 V 43.8125 c -0.79688,0.07031 -2.8086,0.07031 -3.74219,0.07031 -0.90234,0 -2.94531,0 -3.74219,-0.07031 v 0.695312 h 0.72657 c 2.11328,0 2.11328,0.277344 2.11328,1.074219 v 1.210938 c -3.39453,0.347656 -5.75,2.390625 -5.75,4.574219 0,2.285156 2.46093,4.226562 5.75,4.574218 V 57.1875 c 0,0.730469 0,1.039062 -2.11328,1.039062 h -0.72657 v 0.695313 c 0.79688,-0.07031 2.83985,-0.07031 3.74219,-0.07031 0.90234,0 2.94531,0 3.74219,0.07031 v -0.695313 h -0.72656 c -2.08204,0 -2.08204,-0.277343 -2.08204,-1.039062 z m -1.83593,-0.519531 c -3.15235,-0.417969 -3.53125,-2.667969 -3.53125,-4.054687 0,-1.144532 0.20703,-3.605469 3.53125,-4.054688 z m 1.83593,-8.144531 c 3.05079,0.382812 3.64063,2.390625 3.64063,4.089844 0,1.316406 -0.3125,3.671874 -3.64063,4.089843 z m 0,0"
     id="path286" />
  <path
     fill="none"
     stroke-width="0.749999"
     stroke-linecap="butt"
     stroke-linejoin="miter"
     stroke="#000000"
     stroke-opacity="1"
     stroke-miterlimit="4"
     d="m 324.74246,194.59375 69.66406,0.0937"
     id="path294" />
  <path
     fill-rule="evenodd"
     fill="#000000"
     fill-opacity="1"
     stroke-width="0.399999"
     stroke-linecap="butt"
     stroke-linejoin="miter"
     stroke="#000000"
     stroke-opacity="1"
     stroke-miterlimit="4"
     d="m 391.40652,194.68359 -1.5,1.50001 5.25,-1.49219 -5.2461,-1.50781 z m 0,0"
     id="path296" />
  <path
     fill="none"
     stroke-width="0.749999"
     stroke-linecap="butt"
     stroke-linejoin="miter"
     stroke="#000000"
     stroke-opacity="1"
     stroke-miterlimit="4"
     d="m 324.74246,194.59375 0.21484,-65.56641"
     id="path298" />
  <path
     fill-rule="evenodd"
     fill="#000000"
     fill-opacity="1"
     stroke-width="0.399999"
     stroke-linecap="butt"
     stroke-linejoin="miter"
     stroke="#000000"
     stroke-opacity="1"
     stroke-miterlimit="4"
     d="m 324.94558,132.02734 1.4961,1.50391 -1.48047,-5.2539 -1.51954,5.24608 z m 0,0"
     id="path300" />
  <path
     fill-rule="nonzero"
     fill="#000000"
     fill-opacity="1"
     d="m 339.17996,183.36719 c 1.02343,0.043 1.51172,0.125 1.67578,0.24609 0.0391,0.0391 0.0391,0.16406 0.082,0.20313 0,0.24609 0.20312,0.24609 0.32422,0.24609 0.41015,0 1.22656,-0.44922 1.22656,-0.98047 0,-0.65234 -1.10156,-0.77344 -1.67187,-0.81641 -0.043,0 -0.41016,0 -0.41016,-0.0391 0,-0.043 0.41016,-0.44922 0.61328,-0.69531 2.44922,-2.44922 5.91797,-6.37109 5.91797,-6.61328 0,-0.082 0,-0.20703 -0.20313,-0.20703 -0.16406,0 -0.85546,0.16406 -1.59375,0.73437 -0.48828,0 -1.14062,0 -2.65234,-0.28515 -1.42969,-0.24219 -2.36719,-0.44922 -3.38672,-0.44922 -1.67578,0 -3.22656,0.61328 -4.61719,1.42968 -2.32421,1.51172 -2.53125,3.02344 -2.53125,3.02344 0,0.082 0,0.20313 0.2461,0.20313 0.48828,0 2.04297,-0.73438 2.28515,-1.42969 0.32813,-1.01953 0.65625,-1.59375 2.45313,-1.59375 0.20312,0 0.9375,0 2.53125,0.28906 1.30469,0.24219 2.36719,0.44922 3.30469,0.44922 0.28515,0 0.61328,0 0.89843,-0.082 -1.38671,1.58984 -2.57031,2.9375 -4.85937,5.26562 h -2.61328 c -1.34766,0 -1.58985,0.77735 -1.58985,0.85938 0,0.24219 0.24219,0.24219 0.69141,0.24219 h 2.37109 c -0.20703,0.20703 -1.42968,1.42968 -4.82031,4.49218 -0.0391,0.043 -1.91797,1.75782 -4.08203,3.55079 -0.32812,0.28906 -0.81641,0.73828 -0.81641,0.9414 0,0.0391 0,0.16406 0.20313,0.16406 0.32812,0 0.85937,-0.24609 1.22656,-0.44921 0.44922,-0.28907 0.89844,-0.28907 1.30469,-0.28907 1.18359,0 2.85937,0.20703 4.08594,0.32813 1.22265,0.20312 2.98047,0.41015 4.24609,0.41015 1.91797,0 3.46875,-1.0625 4.28516,-1.83984 1.59375,-1.38672 2.04297,-3.22266 2.04297,-3.38672 0,-0.16406 -0.082,-0.20703 -0.20704,-0.20703 -0.48828,0 -2.08203,0.77734 -2.28515,1.51172 -0.16406,0.49219 -0.44922,1.39062 -1.22266,2.28906 -0.8164,0 -1.71484,0 -4.125,-0.28906 -1.30859,-0.16016 -3.22656,-0.40625 -4.61328,-0.40625 -0.16406,0 -0.77734,0 -1.26562,0.082 z m 0,0"
     id="path302" />
  <path
     fill="none"
     stroke-width="0.749999"
     stroke-linecap="butt"
     stroke-linejoin="miter"
     stroke="#000000"
     stroke-opacity="1"
     stroke-miterlimit="4"
     d="m 1.7072971,198.87891 69.6640629,0.0937"
     id="path304" />
  <path
     fill-rule="evenodd"
     fill="#000000"
     fill-opacity="1"
     stroke-width="0.399999"
     stroke-linecap="butt"
     stroke-linejoin="miter"
     stroke="#000000"
     stroke-opacity="1"
     stroke-miterlimit="4"
     d="m 68.371359,198.96875 -1.499999,1.5 5.25,-1.49219 -5.246094,-1.50781 z m 0,0"
     id="path306" />
  <path
     fill="none"
     stroke-width="0.749999"
     stroke-linecap="butt"
     stroke-linejoin="miter"
     stroke="#000000"
     stroke-opacity="1"
     stroke-miterlimit="4"
     d="M 1.7072971,198.87891 1.9221411,133.3125"
     id="path308" />
  <path
     fill-rule="evenodd"
     fill="#000000"
     fill-opacity="1"
     stroke-width="0.399999"
     stroke-linecap="butt"
     stroke-linejoin="miter"
     stroke="#000000"
     stroke-opacity="1"
     stroke-miterlimit="4"
     d="m 1.9104224,136.3125 1.4960933,1.50391 -1.4843749,-5.25391 -1.51562466,5.24609 z m 0,0"
     id="path310" />
  <path
     fill-rule="nonzero"
     fill="#000000"
     fill-opacity="1"
     d="m 12.687766,191.70703 c -0.578125,1.97656 -1.15625,2.96094 -1.359375,3.30078 -0.851563,1.5 -1.292969,1.53125 -2.0429689,1.53125 -0.375,0 -1.90625,-0.0664 -3.199218,-0.95312 -0.953126,0.0703 -1.734376,0.82031 -1.734376,1.05859 0,0.20313 1.496094,1.08594 3.503907,1.08594 1.566406,0 4.1171869,-0.81641 5.7499999,-4.35547 0.582031,-1.22266 0.921875,-2.44922 0.988281,-2.72266 0.441406,-1.49609 0.886719,-3.23047 0.886719,-3.33203 0,-0.13672 -0.03516,-0.17187 -0.238281,-0.17187 -0.171876,0 -0.546876,0.10156 -1.023438,0.41015 -0.476562,0.30469 -0.507812,0.40625 -0.644531,0.94922 -0.238281,0.75 -1.5,3.98438 -4.1874999,3.98438 -2.109375,0 -3.367188,-1.73828 -3.367188,-4.1875 0,-1.66797 0.679688,-3.91407 1.9375,-5.41016 0.578125,-0.71484 1.667969,-1.87109 4.1171879,-1.87109 0.410156,0 1.023437,0.0664 1.566406,0.23828 0.238281,0.0664 0.785156,0.23828 0.785156,0.95312 0,0.71485 -1.125,2.10938 -1.226562,2.2461 -0.06641,0.10156 -0.136719,0.16797 -0.136719,0.26953 0,0.13672 0.101562,0.13672 0.238281,0.13672 0.648438,0 1.363281,-0.57813 1.941407,-1.39453 0.167968,-0.23829 1.019531,-1.42969 1.019531,-2.17579 0,-0.88671 -0.648438,-1.125 -0.917969,-1.1914 -0.816406,-0.27344 -1.53125,-0.27344 -1.839844,-0.27344 -4.8984369,0 -9.3242179,4.32031 -9.3242179,9.39063 0,2.21484 0.988281,4.46093 3.777343,4.46093 1.636719,0 3.3007809,-0.85156 4.7304689,-1.97656 z m 0,0"
     id="path312" />
  <path
     fill-rule="nonzero"
     fill="#000000"
     fill-opacity="1"
     d="m 191.16824,93.828125 2.375,-3.128906 c 0.15625,-0.199219 0.17969,-0.222657 0.66797,-0.265625 0.33203,-0.04297 0.42187,-0.04297 0.82031,-0.04297 h 0.39844 v -0.667969 c -0.57813,0.04687 -1.28516,0.04687 -1.88672,0.04687 -0.55469,0 -1.64063,0 -2.15235,-0.04687 v 0.667969 c 0.2461,0 0.80079,0 1.3086,0.152344 -0.0195,0.04687 -0.0859,0.113281 -0.10938,0.15625 l -1.88672,2.484375 -2.01953,-2.792969 h 1.17578 v -0.667969 c -0.57812,0.04687 -1.92968,0.04687 -2.55078,0.04687 -0.57812,0 -1.79687,0 -2.30859,-0.04687 v 0.667969 h 1.39844 l 3.1289,4.347656 -2.83984,3.75 c -0.13281,0.179688 -0.15625,0.199219 -0.62109,0.246094 -0.28907,0.01953 -0.57813,0.04297 -0.86719,0.04297 h -0.39844 v 0.664062 c 0.57813,-0.04297 1.28516,-0.04297 1.88672,-0.04297 0.55469,0 1.64062,0 2.15234,0.04297 v -0.664062 c -0.24609,0 -0.80078,0 -1.30859,-0.15625 0.0195,-0.01953 0.0859,-0.109375 0.13281,-0.15625 l 2.32813,-3.105469 2.46484,3.417969 h -1.17578 v 0.664062 c 0.57422,-0.04297 1.92969,-0.04297 2.55078,-0.04297 0.57813,0 1.79688,0 2.30859,0.04297 v -0.664062 h -1.39843 z m 0,0"
     id="path314" />
  <path
     fill-rule="nonzero"
     fill="#000000"
     fill-opacity="1"
     d="m 187.12136,152.19141 c -0.15625,-0.35547 -0.3125,-0.35547 -0.55468,-0.35547 -0.40235,0 -0.46875,0.10937 -0.55469,0.35547 l -3.50781,8.51953 c -0.0898,0.22265 -0.13282,0.33593 -1.19922,0.33593 h -0.3086 v 0.66407 c 0.53125,-0.0234 1.21875,-0.043 1.66407,-0.043 0.55468,0 1.33203,0 1.86328,0.043 v -0.66407 c -0.0234,0 -1.26563,0 -1.26563,-0.17968 0,-0.0234 0.0469,-0.15625 0.0664,-0.17578 l 0.71094,-1.71094 h 3.79296 l 0.84375,2.0664 h -1.35156 v 0.66407 c 0.55469,-0.043 1.88672,-0.043 2.50781,-0.043 0.55469,0 1.79688,0 2.30469,0.043 v -0.66407 h -1.375 z m -1.19922,2.19531 1.6211,3.92969 h -3.24219 z m 0,0"
     id="path316" />
  <path
     fill-rule="nonzero"
     fill="#000000"
     fill-opacity="1"
     d="m 232.71121,12.246094 c 3.42968,-0.28125 5.91406,-2.34375 5.91406,-4.621094 0,-2.308594 -2.51953,-4.335938 -5.91406,-4.617188 V 1.785156 c 0,-0.769531 0,-1.085937 2.09765,-1.085937 h 0.73438 V 0 c -0.80469,0.0703125 -2.83203,0.0703125 -3.77735,0.0703125 -0.91015,0 -2.97265,0 -3.77734,-0.0703125 v 0.699219 h 0.73438 c 2.13281,0 2.13281,0.28125 2.13281,1.085937 v 1.222656 c -3.42578,0.351563 -5.80469,2.414063 -5.80469,4.617188 0,2.3125 2.48438,4.269531 5.80469,4.621094 v 1.257812 c 0,0.734375 0,1.050782 -2.13281,1.050782 h -0.73438 v 0.699218 c 0.80469,-0.07031 2.86719,-0.07031 3.77734,-0.07031 0.91016,0 2.97266,0 3.77735,0.07031 v -0.699218 h -0.73438 c -2.09765,0 -2.09765,-0.28125 -2.09765,-1.050782 z m -1.85547,-0.527344 c -3.1836,-0.417969 -3.56641,-2.691406 -3.56641,-4.09375 0,-1.152344 0.21094,-3.636719 3.56641,-4.089844 z M 232.71121,3.5 c 3.07812,0.382812 3.67187,2.414062 3.67187,4.125 0,1.332031 -0.3125,3.710938 -3.67187,4.128906 z m 0,0"
     id="path318" />
  <path
     fill-rule="nonzero"
     fill="#000000"
     fill-opacity="1"
     d="m 247.73855,16.113281 c -0.17578,0.527344 -0.52344,1.503907 -0.98047,2.242188 -0.69922,1.082031 -1.04687,1.117187 -1.64453,1.117187 -0.17187,0 -1.25781,0 -2.48437,-0.523437 -0.13672,-0.07031 -0.13672,-0.07031 -0.20704,-0.07031 -0.42187,0 -1.22656,0.558594 -1.22656,0.839844 0,0.140625 1.29688,0.699219 2.80078,0.699219 1.50391,0 3.21875,-0.839844 4.30078,-2.867188 0.45704,-0.804687 0.70313,-1.542969 0.94532,-2.242187 0.24609,-0.804688 0.6289,-2.308594 0.6289,-2.378906 0,-0.105469 -0.10156,-0.136719 -0.17187,-0.136719 -0.31641,0 -1.1211,0.382812 -1.26172,0.835937 -0.59375,1.925782 -1.85156,2.941406 -3.28906,2.941406 -1.67969,0 -2.79688,-1.261718 -2.79688,-3.113281 0,-1.539062 0.80469,-3.011719 1.4336,-3.675781 0.42187,-0.382812 1.25781,-1.1875 3.21875,-1.1875 0.35156,0 0.76953,0.035156 1.25781,0.140625 0.21094,0.070313 0.63281,0.171875 0.63281,0.699219 0,0.523437 -0.76953,1.363281 -0.83984,1.46875 -0.10547,0.105468 -0.17578,0.175781 -0.17578,0.28125 0,0.101562 0.14062,0.101562 0.21093,0.101562 1.01172,0 2.23828,-1.921875 2.23828,-2.550781 0,-0.804687 -0.73437,-1.121094 -2.20312,-1.121094 -1.64453,0 -3.46484,0.558594 -5.10938,2.027344 -1.46875,1.261719 -2.09765,3.183594 -2.09765,4.515625 0,1.785156 1.01172,3.394531 3.14844,3.394531 1.29296,0 2.62109,-0.632812 3.67187,-1.4375 z m 0,0"
     id="path320" />
</svg>
