<?xml version="1.0" encoding="UTF-8" standalone="no"?>
<!-- Created with Inkscape (http://www.inkscape.org/) -->

<svg
   width="140.36844mm"
   height="74.82872mm"
   viewBox="0 0 140.36844 74.82872"
   version="1.1"
   id="svg11967"
   inkscape:version="1.2.2 (b0a8486541, 2022-12-01)"
   sodipodi:docname="node_drop.svg"
   xmlns:inkscape="http://www.inkscape.org/namespaces/inkscape"
   xmlns:sodipodi="http://sodipodi.sourceforge.net/DTD/sodipodi-0.dtd"
   xmlns="http://www.w3.org/2000/svg"
   xmlns:svg="http://www.w3.org/2000/svg">
  <sodipodi:namedview
     id="namedview11969"
     pagecolor="#ffffff"
     bordercolor="#000000"
     borderopacity="0.25"
     inkscape:showpageshadow="2"
     inkscape:pageopacity="0.0"
     inkscape:pagecheckerboard="0"
     inkscape:deskcolor="#d1d1d1"
     inkscape:document-units="mm"
     showgrid="false"
     inkscape:zoom="1.2938725"
     inkscape:cx="-174.66945"
     inkscape:cy="229.54349"
     inkscape:window-width="3840"
     inkscape:window-height="1531"
     inkscape:window-x="0"
     inkscape:window-y="0"
     inkscape:window-maximized="1"
     inkscape:current-layer="layer1" />
  <defs
     id="defs11964" />
  <g
     inkscape:label="Calque 1"
     inkscape:groupmode="layer"
     id="layer1"
     transform="translate(-33.009145,-79.93266)">
    <path
       style="fill:#527bd0;fill-opacity:0.996905;stroke:#000000;stroke-width:0.25;stroke-linecap:butt;stroke-linejoin:round"
       id="path151"
       sodipodi:type="arc"
       sodipodi:cx="48.455246"
       sodipodi:cy="101.07629"
       sodipodi:rx="3.0110881"
       sodipodi:ry="3.0110881"
       sodipodi:start="0"
       sodipodi:end="6.2766013"
       sodipodi:open="true"
       sodipodi:arc-type="chord"
       d="m 51.466334,101.07629 a 3.0110881,3.0110881 0 0 1 -3.006132,3.01108 3.0110881,3.0110881 0 0 1 -3.016028,-3.00117 3.0110881,3.0110881 0 0 1 2.996203,-3.020965 3.0110881,3.0110881 0 0 1 3.025892,2.991225 z" />
    <path
       style="fill:#7688ac;fill-opacity:0.497965;stroke:#000000;stroke-width:0.25;stroke-linecap:butt;stroke-linejoin:round"
       id="path151-3"
       sodipodi:type="arc"
       sodipodi:cx="57.407959"
       sodipodi:cy="112.04487"
       sodipodi:rx="3.0110881"
       sodipodi:ry="3.0110881"
       sodipodi:start="0"
       sodipodi:end="6.2766013"
       sodipodi:open="true"
       sodipodi:arc-type="chord"
       d="m 60.419047,112.04487 a 3.0110881,3.0110881 0 0 1 -3.006132,3.01108 3.0110881,3.0110881 0 0 1 -3.016028,-3.00117 3.0110881,3.0110881 0 0 1 2.996203,-3.02096 3.0110881,3.0110881 0 0 1 3.025892,2.99122 z" />
    <path
       style="fill:#236cff;fill-opacity:0.882326;stroke:#000000;stroke-width:0.25;stroke-linecap:butt;stroke-linejoin:round"
       id="path151-6"
       sodipodi:type="arc"
       sodipodi:cx="75.542038"
       sodipodi:cy="126.31788"
       sodipodi:rx="3.0110881"
       sodipodi:ry="3.0110881"
       sodipodi:start="0"
       sodipodi:end="6.2766013"
       sodipodi:open="true"
       sodipodi:arc-type="chord"
       d="m 78.553126,126.31788 a 3.0110881,3.0110881 0 0 1 -3.006132,3.01108 3.0110881,3.0110881 0 0 1 -3.016028,-3.00117 3.0110881,3.0110881 0 0 1 2.996203,-3.02096 3.0110881,3.0110881 0 0 1 3.025892,2.99122 z" />
    <path
       style="fill:#236cff;fill-opacity:0.497965;stroke:#000000;stroke-width:0.25;stroke-linecap:butt;stroke-linejoin:round"
       id="path151-6-3"
       sodipodi:type="arc"
       sodipodi:cx="49.448425"
       sodipodi:cy="89.202522"
       sodipodi:rx="3.0110881"
       sodipodi:ry="3.0110881"
       sodipodi:start="0"
       sodipodi:end="6.2766013"
       sodipodi:open="true"
       sodipodi:arc-type="chord"
       d="m 52.459513,89.202522 a 3.0110881,3.0110881 0 0 1 -3.006131,3.011084 3.0110881,3.0110881 0 0 1 -3.016029,-3.001171 3.0110881,3.0110881 0 0 1 2.996204,-3.020964 3.0110881,3.0110881 0 0 1 3.025891,2.991226 z" />
    <path
       style="fill:#0043d9;fill-opacity:1;stroke:#000000;stroke-width:0.25;stroke-linecap:butt;stroke-linejoin:round"
       id="path151-6-6"
       sodipodi:type="arc"
       sodipodi:cx="82.917892"
       sodipodi:cy="87.059578"
       sodipodi:rx="3.0110881"
       sodipodi:ry="3.0110881"
       sodipodi:start="0"
       sodipodi:end="6.2766013"
       sodipodi:open="true"
       sodipodi:arc-type="chord"
       d="m 85.928981,87.059578 a 3.0110881,3.0110881 0 0 1 -3.006132,3.011084 3.0110881,3.0110881 0 0 1 -3.016028,-3.001172 3.0110881,3.0110881 0 0 1 2.996203,-3.020963 3.0110881,3.0110881 0 0 1 3.025891,2.991226 z" />
    <path
       style="fill:#236cff;fill-opacity:0.497965;stroke:#000000;stroke-width:0.25;stroke-linecap:butt;stroke-linejoin:round"
       id="path151-6-5"
       sodipodi:type="arc"
       sodipodi:cx="94.873764"
       sodipodi:cy="138.90083"
       sodipodi:rx="3.0110881"
       sodipodi:ry="3.0110881"
       sodipodi:start="0"
       sodipodi:end="6.2766013"
       sodipodi:open="true"
       sodipodi:arc-type="chord"
       d="m 97.884852,138.90083 a 3.0110881,3.0110881 0 0 1 -3.006132,3.01109 3.0110881,3.0110881 0 0 1 -3.016028,-3.00117 3.0110881,3.0110881 0 0 1 2.996203,-3.02097 3.0110881,3.0110881 0 0 1 3.025892,2.99123 z" />
    <path
       style="fill:#0043d9;fill-opacity:1;stroke:#000000;stroke-width:0.25;stroke-linecap:butt;stroke-linejoin:round"
       id="path151-6-35"
       sodipodi:type="arc"
       sodipodi:cx="66.677551"
       sodipodi:cy="151.62529"
       sodipodi:rx="3.0110881"
       sodipodi:ry="3.0110881"
       sodipodi:start="0"
       sodipodi:end="6.2766013"
       sodipodi:open="true"
       sodipodi:arc-type="chord"
       d="m 69.688639,151.62529 a 3.0110881,3.0110881 0 0 1 -3.006131,3.01108 3.0110881,3.0110881 0 0 1 -3.016029,-3.00117 3.0110881,3.0110881 0 0 1 2.996204,-3.02096 3.0110881,3.0110881 0 0 1 3.025891,2.99123 z" />
    <path
       style="fill:#236cff;fill-opacity:0.497965;stroke:#000000;stroke-width:0.25;stroke-linecap:butt;stroke-linejoin:round"
       id="path151-6-62"
       sodipodi:type="arc"
       sodipodi:cx="46.57872"
       sodipodi:cy="133.98457"
       sodipodi:rx="3.0110881"
       sodipodi:ry="3.0110881"
       sodipodi:start="0"
       sodipodi:end="6.2766013"
       sodipodi:open="true"
       sodipodi:arc-type="chord"
       d="m 49.589808,133.98457 a 3.0110881,3.0110881 0 0 1 -3.006132,3.01109 3.0110881,3.0110881 0 0 1 -3.016028,-3.00117 3.0110881,3.0110881 0 0 1 2.996203,-3.02097 3.0110881,3.0110881 0 0 1 3.025892,2.99123 z" />
    <path
       style="fill:#527bd0;fill-opacity:0.497965;stroke:#000000;stroke-width:0.25;stroke-linecap:butt;stroke-linejoin:round"
       id="path151-2"
       sodipodi:type="arc"
       sodipodi:cx="79.781815"
       sodipodi:cy="104.88483"
       sodipodi:rx="3.0110881"
       sodipodi:ry="3.0110881"
       sodipodi:start="0"
       sodipodi:end="6.2766013"
       sodipodi:open="true"
       sodipodi:arc-type="chord"
       d="m 82.792903,104.88483 a 3.0110881,3.0110881 0 0 1 -3.006132,3.01108 3.0110881,3.0110881 0 0 1 -3.016028,-3.00117 3.0110881,3.0110881 0 0 1 2.996203,-3.02096 3.0110881,3.0110881 0 0 1 3.025891,2.99122 z" />
    <path
       style="fill:#7688ac;fill-opacity:0.497965;stroke:#000000;stroke-width:0.25;stroke-linecap:butt;stroke-linejoin:round"
       id="path151-0"
       sodipodi:type="arc"
       sodipodi:cx="63.319153"
       sodipodi:cy="83.068748"
       sodipodi:rx="3.0110881"
       sodipodi:ry="3.0110881"
       sodipodi:start="0"
       sodipodi:end="6.2766013"
       sodipodi:open="true"
       sodipodi:arc-type="chord"
       d="m 66.330241,83.068748 a 3.0110881,3.0110881 0 0 1 -3.006132,3.011085 3.0110881,3.0110881 0 0 1 -3.016028,-3.001172 3.0110881,3.0110881 0 0 1 2.996203,-3.020964 3.0110881,3.0110881 0 0 1 3.025892,2.991227 z" />
    <path
       style="fill:#527bd0;fill-opacity:0.497965;stroke:#000000;stroke-width:0.25;stroke-linecap:butt;stroke-linejoin:round"
       id="path151-36"
       sodipodi:type="arc"
       sodipodi:cx="36.145233"
       sodipodi:cy="112.04487"
       sodipodi:rx="3.0110881"
       sodipodi:ry="3.0110881"
       sodipodi:start="0"
       sodipodi:end="6.2766013"
       sodipodi:open="true"
       sodipodi:arc-type="chord"
       d="m 39.156321,112.04487 a 3.0110881,3.0110881 0 0 1 -3.006132,3.01108 3.0110881,3.0110881 0 0 1 -3.016028,-3.00117 3.0110881,3.0110881 0 0 1 2.996203,-3.02096 3.0110881,3.0110881 0 0 1 3.025892,2.99122 z" />
    <path
       style="fill:none;fill-rule:evenodd;stroke:#000000;stroke-width:1;stroke-linecap:butt;stroke-linejoin:miter;stroke-dasharray:none;stroke-opacity:1"
       d="m 38.393334,110.04174 7.813803,-6.96232"
       id="path152"
       inkscape:connector-type="polyline"
       inkscape:connector-curvature="0"
       inkscape:connection-start="#path151-36"
       inkscape:connection-end="#path151" />
    <path
       style="fill:none;fill-rule:evenodd;stroke:#000000;stroke-width:1;stroke-linecap:butt;stroke-linejoin:miter;stroke-dasharray:none;stroke-opacity:1"
       d="M 65.132859,85.472245 77.968106,102.48133"
       id="path154"
       inkscape:connector-type="polyline"
       inkscape:connector-curvature="0"
       inkscape:connection-start="#path151-0"
       inkscape:connection-end="#path151-2" />
    <path
       style="fill:none;fill-rule:evenodd;stroke:#000000;stroke-width:0.264583px;stroke-linecap:butt;stroke-linejoin:miter;stroke-opacity:1"
       d="m 79.781814,104.88483 v 0"
       id="path155"
       inkscape:connector-type="polyline"
       inkscape:connector-curvature="0"
       inkscape:connection-start="#path151-2"
       inkscape:connection-end="#path151-2" />
    <path
       style="fill:none;fill-rule:evenodd;stroke:#000000;stroke-width:1;stroke-linecap:butt;stroke-linejoin:miter;stroke-dasharray:none;stroke-opacity:1"
       d="m 50.359201,103.40895 5.144809,6.30326"
       id="path157"
       inkscape:connector-type="polyline"
       inkscape:connector-curvature="0"
       inkscape:connection-start="#path151"
       inkscape:connection-end="#path151-3" />
    <path
       style="fill:none;fill-rule:evenodd;stroke:#000000;stroke-width:1;stroke-linecap:butt;stroke-linejoin:miter;stroke-dasharray:none;stroke-opacity:1"
       d="M 73.175977,124.45559 59.774017,113.90715"
       id="path159"
       inkscape:connector-type="polyline"
       inkscape:connector-curvature="0"
       inkscape:connection-start="#path151-6"
       inkscape:connection-end="#path151-3" />
    <path
       style="fill:none;fill-rule:evenodd;stroke:#000000;stroke-width:1;stroke-linecap:butt;stroke-linejoin:miter;stroke-dasharray:none;stroke-opacity:1"
       d="m 52.202221,87.984766 8.36313,-3.698259"
       id="path2240"
       inkscape:connector-type="polyline"
       inkscape:connector-curvature="0"
       inkscape:connection-start="#path151-6-3"
       inkscape:connection-end="#path151-0" />
    <path
       style="fill:none;fill-rule:evenodd;stroke:#000000;stroke-width:1;stroke-linecap:butt;stroke-linejoin:miter;stroke-dasharray:none;stroke-opacity:1"
       d="M 79.967404,86.458779 66.269639,83.669546"
       id="path2242"
       inkscape:connector-type="polyline"
       inkscape:connector-curvature="0"
       inkscape:connection-start="#path151-6-6"
       inkscape:connection-end="#path151-0" />
    <path
       style="fill:none;fill-rule:evenodd;stroke:#000000;stroke-width:1;stroke-linecap:butt;stroke-linejoin:miter;stroke-dasharray:none;stroke-opacity:1"
       d="M 72.653742,127.16892 49.58974,133.96476"
       id="path2244"
       inkscape:connector-type="polyline"
       inkscape:connector-curvature="0"
       inkscape:connection-start="#path151-6" />
    <path
       style="fill:none;fill-rule:evenodd;stroke:#000000;stroke-width:1;stroke-linecap:butt;stroke-linejoin:miter;stroke-dasharray:none;stroke-opacity:1"
       d="M 74.429597,129.11594 66.67755,148.6142"
       id="path2246"
       inkscape:connector-type="polyline"
       inkscape:connector-curvature="0"
       inkscape:connection-start="#path151-6" />
    <path
       style="fill:none;fill-rule:evenodd;stroke:#000000;stroke-width:1;stroke-linecap:butt;stroke-linejoin:miter;stroke-dasharray:none;stroke-opacity:1"
       d="m 78.065619,127.96047 14.284594,9.29779"
       id="path2248"
       inkscape:connector-type="polyline"
       inkscape:connector-curvature="0"
       inkscape:connection-start="#path151-6"
       inkscape:connection-end="#path151-6-5" />
    <path
       style="fill:none;fill-rule:evenodd;stroke:#000000;stroke-width:1;stroke-linecap:butt;stroke-linejoin:miter;stroke-dasharray:none;stroke-opacity:1"
       d="M 69.4221,150.38672 92.129251,140.13938"
       id="path2804"
       inkscape:connector-type="polyline"
       inkscape:connector-curvature="0"
       inkscape:connection-start="#path151-6-35"
       inkscape:connection-end="#path151-6-5" />
    <path
       style="fill:none;fill-rule:evenodd;stroke:#000000;stroke-width:1;stroke-linecap:butt;stroke-linejoin:miter;stroke-dasharray:none;stroke-opacity:1"
       d="m 76.913997,105.80258 -16.638263,5.32455"
       id="path2806"
       inkscape:connector-type="polyline"
       inkscape:connector-curvature="0"
       inkscape:connection-start="#path151-2"
       inkscape:connection-end="#path151-3" />
    <path
       style="fill:none;fill-rule:evenodd;stroke:#000000;stroke-width:1;stroke-linecap:butt;stroke-linejoin:miter;stroke-dasharray:none;stroke-opacity:1"
       d="m 79.197502,107.83866 -3.071159,15.52542"
       id="path2810"
       inkscape:connector-type="polyline"
       inkscape:connector-curvature="0"
       inkscape:connection-start="#path151-2"
       inkscape:connection-end="#path151-6" />
    <path
       style="fill:none;stroke-width:1;stroke-linecap:round;stroke-linejoin:round;stroke-dasharray:none"
       d="m 46.539755,81.897126 -1.22061,12.07965"
       id="path5936" />
    <path
       style="fill:none;fill-opacity:0.498039;stroke:#000000;stroke-width:0.25;stroke-linecap:butt;stroke-linejoin:round"
       id="path151-6-61"
       sodipodi:type="arc"
       sodipodi:cx="164.28984"
       sodipodi:cy="97.940208"
       sodipodi:rx="3.0110881"
       sodipodi:ry="3.0110881"
       sodipodi:start="0"
       sodipodi:end="6.2766013"
       sodipodi:open="true"
       sodipodi:arc-type="chord"
       d="m 167.30093,97.940208 a 3.0110881,3.0110881 0 0 1 -3.00613,3.011082 3.0110881,3.0110881 0 0 1 -3.01603,-3.001169 3.0110881,3.0110881 0 0 1 2.9962,-3.020964 3.0110881,3.0110881 0 0 1 3.02589,2.991227 z" />
    <path
       style="fill:none;fill-opacity:0.498039;stroke:#000000;stroke-width:0.25;stroke-linecap:butt;stroke-linejoin:round"
       id="path151-6-5-8"
       sodipodi:type="arc"
       sodipodi:cx="159.29489"
       sodipodi:cy="133.84354"
       sodipodi:rx="3.0110881"
       sodipodi:ry="3.0110881"
       sodipodi:start="0"
       sodipodi:end="6.2766013"
       sodipodi:open="true"
       sodipodi:arc-type="chord"
       d="m 162.30598,133.84354 a 3.0110881,3.0110881 0 0 1 -3.00613,3.01108 3.0110881,3.0110881 0 0 1 -3.01603,-3.00117 3.0110881,3.0110881 0 0 1 2.9962,-3.02097 3.0110881,3.0110881 0 0 1 3.02589,2.99123 z" />
    <path
       style="fill:none;fill-opacity:0.537255;stroke:#000000;stroke-width:0.25;stroke-linecap:butt;stroke-linejoin:round"
       id="path151-6-35-7"
       sodipodi:type="arc"
       sodipodi:cx="152.59206"
       sodipodi:cy="112.46528"
       sodipodi:rx="3.0110881"
       sodipodi:ry="3.0110881"
       sodipodi:start="0"
       sodipodi:end="6.2766013"
       sodipodi:open="true"
       sodipodi:arc-type="chord"
       d="m 155.60314,112.46528 a 3.0110881,3.0110881 0 0 1 -3.00613,3.01108 3.0110881,3.0110881 0 0 1 -3.01603,-3.00117 3.0110881,3.0110881 0 0 1 2.99621,-3.02096 3.0110881,3.0110881 0 0 1 3.02589,2.99122 z" />
    <path
       style="fill:none;fill-opacity:0.996905;stroke:#010500;stroke-width:0.264999;stroke-linecap:round;stroke-linejoin:round;stroke-dasharray:2.12, 2.12"
       d="m 69.688638,151.62529 c 30.103557,-4.06246 61.624352,-5.99101 86.595162,-17.78175"
       id="path13069"
       sodipodi:nodetypes="cc" />
    <path
       style="fill:none;fill-opacity:0.996905;stroke:#010500;stroke-width:0.264999;stroke-linecap:round;stroke-linejoin:round;stroke-dasharray:2.12, 2.12"
       d="m 51.466334,101.07629 c 32.325493,9.81665 64.635726,19.87552 98.114636,11.38899"
       id="path13071"
       sodipodi:nodetypes="cc" />
    <path
       style="fill:none;fill-opacity:0.996905;stroke:#010500;stroke-width:0.264999;stroke-linecap:round;stroke-linejoin:round;stroke-dasharray:2.12, 2.12"
       d="M 85.928979,87.059576 C 114.00893,83.79984 137.9225,90.222429 161.27875,97.940208"
       id="path13073"
       sodipodi:nodetypes="cc" />
    <path
       style="fill:none;fill-opacity:0.537255;stroke:#000000;stroke-width:0.25;stroke-linecap:butt;stroke-linejoin:round"
       id="path151-6-35-7-2"
       sodipodi:type="arc"
       sodipodi:cx="170.2415"
       sodipodi:cy="119.18137"
       sodipodi:rx="3.0110881"
       sodipodi:ry="3.0110881"
       sodipodi:start="0"
       sodipodi:end="6.2766013"
       sodipodi:open="true"
       sodipodi:arc-type="chord"
       d="m 173.25259,119.18137 a 3.0110881,3.0110881 0 0 1 -3.00613,3.01109 3.0110881,3.0110881 0 0 1 -3.01603,-3.00117 3.0110881,3.0110881 0 0 1 2.9962,-3.02097 3.0110881,3.0110881 0 0 1 3.02589,2.99123 z" />
    <path
       style="fill:none;fill-opacity:0.882326;stroke:#010500;stroke-width:0.264999;stroke-linecap:round;stroke-linejoin:round;stroke-dasharray:2.12, 2.12"
       d="m 78.55306,126.29805 c 29.23414,1.16935 58.66593,0.18464 88.67735,-7.11668"
       id="path13156"
       sodipodi:nodetypes="cc" />
    <path
       style="fill:none;fill-rule:evenodd;stroke:#000000;stroke-width:1;stroke-linecap:butt;stroke-linejoin:miter;stroke-dasharray:none;stroke-opacity:1"
       d="m 168.44015,121.59414 -7.34391,9.83662"
       id="path13158"
       inkscape:connector-type="polyline"
       inkscape:connector-curvature="0"
       inkscape:connection-start="#path151-6-35-7-2"
       inkscape:connection-end="#path151-6-5-8" />
  </g>
</svg>
