<?xml version="1.0" encoding="UTF-8" standalone="no"?>
<!-- Created with Inkscape (http://www.inkscape.org/) -->

<svg
   width="539.43011mm"
   height="413.61591mm"
   viewBox="0 0 539.43011 413.61591"
   version="1.1"
   id="svg150"
   sodipodi:docname="path.svg"
   inkscape:version="1.2.2 (b0a8486541, 2022-12-01)"
   xmlns:inkscape="http://www.inkscape.org/namespaces/inkscape"
   xmlns:sodipodi="http://sodipodi.sourceforge.net/DTD/sodipodi-0.dtd"
   xmlns="http://www.w3.org/2000/svg"
   xmlns:svg="http://www.w3.org/2000/svg">
  <sodipodi:namedview
     id="namedview152"
     pagecolor="#ffffff"
     bordercolor="#000000"
     borderopacity="0.25"
     inkscape:showpageshadow="2"
     inkscape:pageopacity="0.0"
     inkscape:pagecheckerboard="0"
     inkscape:deskcolor="#d1d1d1"
     inkscape:document-units="mm"
     showgrid="false"
     inkscape:zoom="0.23451705"
     inkscape:cx="1016.9836"
     inkscape:cy="1215.2635"
     inkscape:window-width="3840"
     inkscape:window-height="1531"
     inkscape:window-x="0"
     inkscape:window-y="32"
     inkscape:window-maximized="1"
     inkscape:current-layer="layer1" />
  <defs
     id="defs147">
    <defs
       id="id-b9bff0c7-7be4-4f3c-9e4a-52f7f1326274">
      <g
         id="id-7bd11de8-5bb9-46d8-b573-c5e3c62f1f1f">
        <g
           id="id-642fbbf4-a208-4cdc-93c8-e6d3269804f8">
          <path
             d="m 2.9375,-6.375 c 0,-0.25 0,-0.265625 -0.234375,-0.265625 C 2.078125,-6 1.203125,-6 0.890625,-6 v 0.3125 c 0.203125,0 0.78125,0 1.296875,-0.265625 v 5.171875 c 0,0.359375 -0.03125,0.46875 -0.921875,0.46875 h -0.3125 V 0 c 0.34375,-0.03125 1.203125,-0.03125 1.609375,-0.03125 0.390625,0 1.265625,0 1.609375,0.03125 v -0.3125 h -0.3125 c -0.90625,0 -0.921875,-0.109375 -0.921875,-0.46875 z m 0,0"
             id="id-60cc8a74-abd4-4fa2-95f6-21a11c29591d" />
        </g>
        <g
           id="id-ec44a884-717f-4de7-b5c3-cc17f0bee76e">
          <path
             d="m 1.265625,-0.765625 1.0625,-1.03125 c 1.546875,-1.375 2.140625,-1.90625 2.140625,-2.90625 0,-1.140625 -0.890625,-1.9375 -2.109375,-1.9375 -1.125,0 -1.859375,0.921875 -1.859375,1.8125 0,0.546875 0.5,0.546875 0.53125,0.546875 0.171875,0 0.515625,-0.109375 0.515625,-0.53125 0,-0.25 -0.1875,-0.515625 -0.53125,-0.515625 -0.078125,0 -0.09375,0 -0.125,0.015625 0.21875,-0.65625 0.765625,-1.015625 1.34375,-1.015625 0.90625,0 1.328125,0.8125 1.328125,1.625 C 3.5625,-3.90625 3.078125,-3.125 2.515625,-2.5 l -1.90625,2.125 C 0.5,-0.265625 0.5,-0.234375 0.5,0 H 4.203125 L 4.46875,-1.734375 H 4.234375 C 4.171875,-1.4375 4.109375,-1 4,-0.84375 3.9375,-0.765625 3.28125,-0.765625 3.0625,-0.765625 Z m 0,0"
             id="id-739a8b25-9ea1-4391-b306-456c691a5ef3" />
        </g>
        <g
           id="id-f87385a5-6d37-48b8-943a-2b4d95cd0526">
          <path
             d="m 2.890625,-3.515625 c 0.8125,-0.265625 1.390625,-0.953125 1.390625,-1.75 0,-0.8125 -0.875,-1.375 -1.828125,-1.375 -1,0 -1.765625,0.59375 -1.765625,1.359375 0,0.328125 0.21875,0.515625 0.515625,0.515625 0.296875,0 0.5,-0.21875 0.5,-0.515625 0,-0.484375 -0.46875,-0.484375 -0.609375,-0.484375 0.296875,-0.5 0.953125,-0.625 1.3125,-0.625 0.421875,0 0.96875,0.21875 0.96875,1.109375 0,0.125 -0.03125,0.703125 -0.28125,1.140625 C 2.796875,-3.65625 2.453125,-3.625 2.203125,-3.625 2.125,-3.609375 1.890625,-3.59375 1.8125,-3.59375 c -0.078125,0.015625 -0.140625,0.03125 -0.140625,0.125 0,0.109375 0.0625,0.109375 0.234375,0.109375 h 0.4375 c 0.8125,0 1.1875,0.671875 1.1875,1.65625 0,1.359375 -0.6875,1.640625 -1.125,1.640625 -0.4375,0 -1.1875,-0.171875 -1.53125,-0.75 0.34375,0.046875 0.65625,-0.171875 0.65625,-0.546875 0,-0.359375 -0.265625,-0.5625 -0.546875,-0.5625 -0.25,0 -0.5625,0.140625 -0.5625,0.578125 0,0.90625 0.921875,1.5625 2.015625,1.5625 1.21875,0 2.125,-0.90625 2.125,-1.921875 0,-0.8125 -0.640625,-1.59375 -1.671875,-1.8125 z m 0,0"
             id="id-131845e5-0464-4c36-8730-f756f24899f1" />
        </g>
        <g
           id="id-9e63acd7-22c0-41af-bed9-d0634a6fe062">
          <path
             d="m 2.9375,-1.640625 v 0.859375 c 0,0.359375 -0.03125,0.46875 -0.765625,0.46875 H 1.96875 V 0 C 2.375,-0.03125 2.890625,-0.03125 3.3125,-0.03125 c 0.421875,0 0.9375,0 1.359375,0.03125 v -0.3125 h -0.21875 c -0.734375,0 -0.75,-0.109375 -0.75,-0.46875 V -1.640625 H 4.6875 v -0.3125 H 3.703125 v -4.53125 c 0,-0.203125 0,-0.265625 -0.171875,-0.265625 -0.078125,0 -0.109375,0 -0.1875,0.125 l -3.0625,4.671875 v 0.3125 z m 0.046875,-0.3125 H 0.5625 l 2.421875,-3.71875 z m 0,0"
             id="id-7d269469-dec1-4faf-87fa-1712e1f7f171" />
        </g>
        <g
           id="id-cb40412e-8241-409e-9d30-087190f8f2b1">
          <path
             d="m 4.46875,-2 c 0,-1.1875 -0.8125,-2.1875 -1.890625,-2.1875 -0.46875,0 -0.90625,0.15625 -1.265625,0.515625 V -5.625 c 0.203125,0.0625 0.53125,0.125 0.84375,0.125 1.234375,0 1.9375,-0.90625 1.9375,-1.03125 0,-0.0625 -0.03125,-0.109375 -0.109375,-0.109375 0,0 -0.03125,0 -0.078125,0.03125 C 3.703125,-6.515625 3.21875,-6.3125 2.546875,-6.3125 2.15625,-6.3125 1.6875,-6.390625 1.21875,-6.59375 1.140625,-6.625 1.125,-6.625 1.109375,-6.625 1,-6.625 1,-6.546875 1,-6.390625 V -3.4375 c 0,0.171875 0,0.25 0.140625,0.25 0.078125,0 0.09375,-0.015625 0.140625,-0.078125 C 1.390625,-3.421875 1.75,-3.96875 2.5625,-3.96875 c 0.515625,0 0.765625,0.453125 0.84375,0.640625 0.15625,0.375 0.1875,0.75 0.1875,1.25 0,0.359375 0,0.953125 -0.25,1.375 C 3.109375,-0.3125 2.734375,-0.0625 2.28125,-0.0625 c -0.71875,0 -1.296875,-0.53125 -1.46875,-1.109375 0.03125,0 0.0625,0.015625 0.171875,0.015625 0.328125,0 0.5,-0.25 0.5,-0.484375 0,-0.25 -0.171875,-0.5 -0.5,-0.5 C 0.84375,-2.140625 0.5,-2.0625 0.5,-1.609375 0.5,-0.75 1.1875,0.21875 2.296875,0.21875 3.453125,0.21875 4.46875,-0.734375 4.46875,-2 Z m 0,0"
             id="id-438ead11-f4e3-4a70-bd44-75eb47d0c397" />
        </g>
        <g
           id="id-04cff8a3-212d-4297-a9d6-d134cf8eb231">
          <path
             d="m 1.3125,-3.265625 v -0.25 c 0,-2.515625 1.234375,-2.875 1.75,-2.875 0.234375,0 0.65625,0.0625 0.875,0.40625 -0.15625,0 -0.546875,0 -0.546875,0.4375 0,0.3125 0.234375,0.46875 0.453125,0.46875 0.15625,0 0.46875,-0.09375 0.46875,-0.484375 0,-0.59375 -0.4375,-1.078125 -1.265625,-1.078125 -1.28125,0 -2.625,1.28125 -2.625,3.484375 0,2.671875 1.15625,3.375 2.078125,3.375 1.109375,0 2.0625,-0.9375 2.0625,-2.25 0,-1.265625 -0.890625,-2.21875 -2,-2.21875 -0.671875,0 -1.046875,0.5 -1.25,0.984375 z M 2.5,-0.0625 c -0.625,0 -0.921875,-0.59375 -0.984375,-0.75 -0.1875,-0.46875 -0.1875,-1.265625 -0.1875,-1.4375 0,-0.78125 0.328125,-1.78125 1.21875,-1.78125 0.171875,0 0.625,0 0.9375,0.625 0.171875,0.359375 0.171875,0.875 0.171875,1.359375 0,0.484375 0,0.984375 -0.171875,1.34375 C 3.1875,-0.109375 2.734375,-0.0625 2.5,-0.0625 Z m 0,0"
             id="id-c31dbf9c-f21e-4a4b-875b-149311172579" />
        </g>
        <g
           id="id-8762e9c0-0a12-4633-9c4d-228eeccfd58f">
          <path
             d="m 4.75,-6.078125 c 0.078125,-0.109375 0.078125,-0.125 0.078125,-0.34375 H 2.40625 c -1.203125,0 -1.234375,-0.125 -1.265625,-0.3125 h -0.25 L 0.5625,-4.6875 h 0.25 c 0.03125,-0.15625 0.109375,-0.78125 0.25,-0.90625 0.0625,-0.0625 0.84375,-0.0625 0.96875,-0.0625 h 2.0625 C 3.984375,-5.5 3.203125,-4.40625 2.984375,-4.078125 2.078125,-2.734375 1.75,-1.34375 1.75,-0.328125 c 0,0.09375 0,0.546875 0.46875,0.546875 0.453125,0 0.453125,-0.453125 0.453125,-0.546875 V -0.84375 c 0,-0.546875 0.03125,-1.09375 0.109375,-1.625 0.046875,-0.234375 0.171875,-1.09375 0.625,-1.703125 z m 0,0"
             id="id-3c83818a-cd07-4ec0-8522-3f5d9d6fcd02" />
        </g>
        <g
           id="id-8f7fc4b8-4c9c-4e3a-9dd2-fb98659c77f7">
          <path
             d="m 1.625,-4.5625 c -0.453125,-0.296875 -0.5,-0.625 -0.5,-0.796875 0,-0.609375 0.65625,-1.03125 1.359375,-1.03125 0.71875,0 1.359375,0.515625 1.359375,1.234375 0,0.578125 -0.390625,1.046875 -0.984375,1.390625 z m 1.453125,0.953125 C 3.796875,-3.984375 4.28125,-4.5 4.28125,-5.15625 c 0,-0.921875 -0.875,-1.484375 -1.78125,-1.484375 -1,0 -1.8125,0.734375 -1.8125,1.671875 0,0.171875 0.015625,0.625 0.4375,1.09375 0.109375,0.109375 0.484375,0.359375 0.734375,0.53125 C 1.28125,-3.046875 0.421875,-2.5 0.421875,-1.5 c 0,1.046875 1.015625,1.71875 2.0625,1.71875 1.125,0 2.078125,-0.828125 2.078125,-1.890625 0,-0.359375 -0.109375,-0.8125 -0.5,-1.234375 C 3.875,-3.109375 3.71875,-3.203125 3.078125,-3.609375 Z m -1,0.421875 1.234375,0.78125 c 0.28125,0.1875 0.75,0.484375 0.75,1.09375 0,0.734375 -0.75,1.25 -1.5625,1.25 -0.859375,0 -1.578125,-0.609375 -1.578125,-1.4375 0,-0.578125 0.3125,-1.21875 1.15625,-1.6875 z m 0,0"
             id="id-62875d4e-0d58-4b63-a519-269f1ec5dee6" />
        </g>
      </g>
    </defs>
  </defs>
  <g
     inkscape:label="Calque 1"
     inkscape:groupmode="layer"
     id="layer1"
     transform="translate(-279.80898,66.696019)">
    <path
       style="fill:#000000;fill-opacity:1;stroke:#010301;stroke-width:10;stroke-linecap:round;stroke-linejoin:round;stroke-dasharray:none"
       id="path234"
       sodipodi:type="arc"
       sodipodi:cx="343.87115"
       sodipodi:cy="173.50446"
       sodipodi:rx="22.863005"
       sodipodi:ry="22.863005"
       sodipodi:start="0"
       sodipodi:end="6.2766013"
       sodipodi:open="true"
       sodipodi:arc-type="chord"
       d="m 366.73416,173.50446 a 22.863005,22.863005 0 0 1 -22.82537,22.86297 22.863005,22.863005 0 0 1 -22.90052,-22.78771 22.863005,22.863005 0 0 1 22.74999,-22.93799 22.863005,22.863005 0 0 1 22.9754,22.7122 z" />
    <path
       style="fill:#000000;fill-opacity:1;stroke:#010301;stroke-width:10;stroke-linecap:round;stroke-linejoin:round;stroke-dasharray:none"
       id="path234-3"
       sodipodi:type="arc"
       sodipodi:cx="508.24323"
       sodipodi:cy="106.76475"
       sodipodi:rx="22.863005"
       sodipodi:ry="22.863005"
       sodipodi:start="0"
       sodipodi:end="6.2766013"
       sodipodi:open="true"
       sodipodi:arc-type="chord"
       d="m 531.10623,106.76475 a 22.863005,22.863005 0 0 1 -22.82537,22.86297 22.863005,22.863005 0 0 1 -22.90052,-22.78771 22.863005,22.863005 0 0 1 22.74999,-22.937988 22.863005,22.863005 0 0 1 22.9754,22.712198 z" />
    <path
       style="fill:#000000;fill-opacity:1;stroke:#010301;stroke-width:10;stroke-linecap:round;stroke-linejoin:round;stroke-dasharray:none"
       id="path234-6"
       sodipodi:type="arc"
       sodipodi:cx="494.39999"
       sodipodi:cy="269.10797"
       sodipodi:rx="22.863005"
       sodipodi:ry="22.863005"
       sodipodi:start="0"
       sodipodi:end="6.2766013"
       sodipodi:open="true"
       sodipodi:arc-type="chord"
       d="m 517.263,269.10797 a 22.863005,22.863005 0 0 1 -22.82537,22.86297 22.863005,22.863005 0 0 1 -22.90052,-22.7877 22.863005,22.863005 0 0 1 22.74999,-22.93799 22.863005,22.863005 0 0 1 22.9754,22.71219 z" />
    <path
       style="fill:#000000;fill-opacity:1;stroke:#010301;stroke-width:10;stroke-linecap:round;stroke-linejoin:round;stroke-dasharray:none"
       id="path234-7"
       sodipodi:type="arc"
       sodipodi:cx="733.51013"
       sodipodi:cy="241.42154"
       sodipodi:rx="22.863005"
       sodipodi:ry="22.863005"
       sodipodi:start="0"
       sodipodi:end="6.2766013"
       sodipodi:open="true"
       sodipodi:arc-type="chord"
       d="m 756.37314,241.42154 a 22.863005,22.863005 0 0 1 -22.82538,22.86297 22.863005,22.863005 0 0 1 -22.90051,-22.78771 22.863005,22.863005 0 0 1 22.74998,-22.93799 22.863005,22.863005 0 0 1 22.97541,22.7122 z" />
    <path
       style="fill:#000000;fill-opacity:1;stroke:#010301;stroke-width:10;stroke-linecap:round;stroke-linejoin:round;stroke-dasharray:none"
       id="path234-5"
       sodipodi:type="arc"
       sodipodi:cx="608.92114"
       sodipodi:cy="67.752037"
       sodipodi:rx="22.863005"
       sodipodi:ry="22.863005"
       sodipodi:start="0"
       sodipodi:end="6.2766013"
       sodipodi:open="true"
       sodipodi:arc-type="chord"
       d="m 631.78415,67.752037 a 22.863005,22.863005 0 0 1 -22.82537,22.862974 22.863005,22.863005 0 0 1 -22.90052,-22.787709 22.863005,22.863005 0 0 1 22.74999,-22.937991 22.863005,22.863005 0 0 1 22.9754,22.712197 z" />
    <path
       style="fill:#000000;fill-opacity:1;stroke:#010301;stroke-width:10;stroke-linecap:round;stroke-linejoin:round;stroke-dasharray:none"
       id="path234-35"
       sodipodi:type="arc"
       sodipodi:cx="456.64575"
       sodipodi:cy="7.3452611"
       sodipodi:rx="22.863005"
       sodipodi:ry="22.863005"
       sodipodi:start="0"
       sodipodi:end="6.2766013"
       sodipodi:open="true"
       sodipodi:arc-type="chord"
       d="M 479.50876,7.3452611 A 22.863005,22.863005 0 0 1 456.68338,30.208235 22.863005,22.863005 0 0 1 433.78287,7.4205261 22.863005,22.863005 0 0 1 456.53285,-15.517465 22.863005,22.863005 0 0 1 479.50826,7.194732 Z" />
    <path
       style="fill:#000000;fill-opacity:1;stroke:#010301;stroke-width:10;stroke-linecap:round;stroke-linejoin:round;stroke-dasharray:none"
       id="path234-62"
       sodipodi:type="arc"
       sodipodi:cx="756.16266"
       sodipodi:cy="114.31559"
       sodipodi:rx="22.863005"
       sodipodi:ry="22.863005"
       sodipodi:start="0"
       sodipodi:end="6.2766013"
       sodipodi:open="true"
       sodipodi:arc-type="chord"
       d="m 779.02566,114.31559 a 22.863005,22.863005 0 0 1 -22.82537,22.86297 22.863005,22.863005 0 0 1 -22.90051,-22.78771 22.863005,22.863005 0 0 1 22.74998,-22.937986 22.863005,22.863005 0 0 1 22.97541,22.712196 z" />
    <path
       style="fill:#000000;fill-opacity:1;stroke:#010301;stroke-width:10;stroke-linecap:round;stroke-linejoin:round;stroke-dasharray:none"
       id="path234-9"
       sodipodi:type="arc"
       sodipodi:cx="567.39154"
       sodipodi:cy="192.34103"
       sodipodi:rx="22.863005"
       sodipodi:ry="22.863005"
       sodipodi:start="0"
       sodipodi:end="6.2766013"
       sodipodi:open="true"
       sodipodi:arc-type="chord"
       d="m 590.25455,192.34103 a 22.863005,22.863005 0 0 1 -22.82538,22.86298 22.863005,22.863005 0 0 1 -22.90051,-22.78771 22.863005,22.863005 0 0 1 22.74998,-22.93799 22.863005,22.863005 0 0 1 22.97541,22.71219 z" />
    <path
       style="fill:none;fill-rule:evenodd;stroke:#000000;stroke-width:10;stroke-linecap:butt;stroke-linejoin:miter;stroke-dasharray:none;stroke-opacity:1"
       d="m 365.05449,164.90342 122.00554,-49.5377"
       id="path1760"
       inkscape:connector-type="polyline"
       inkscape:connector-curvature="0"
       inkscape:connection-start="#path234"
       inkscape:connection-end="#path234-3" />
    <path
       style="fill:none;fill-rule:evenodd;stroke:#000000;stroke-width:10;stroke-linecap:butt;stroke-linejoin:miter;stroke-dasharray:none;stroke-opacity:1"
       d="M 497.71167,86.47225 467.17742,27.63799"
       id="path1762"
       inkscape:connector-type="polyline"
       inkscape:connector-curvature="0"
       inkscape:connection-start="#path234-3"
       inkscape:connection-end="#path234-35" />
    <path
       style="fill:none;fill-rule:evenodd;stroke:#000000;stroke-width:10;stroke-linecap:butt;stroke-linejoin:miter;stroke-dasharray:none;stroke-opacity:1"
       d="m 477.89741,15.775671 109.77194,43.5459"
       id="path1764"
       inkscape:connector-type="polyline"
       inkscape:connector-curvature="0"
       inkscape:connection-start="#path234-35"
       inkscape:connection-end="#path234-5" />
    <path
       style="fill:none;fill-rule:evenodd;stroke:#000000;stroke-width:10;stroke-linecap:butt;stroke-linejoin:miter;stroke-dasharray:none;stroke-opacity:1"
       d="M 587.60289,76.012862 529.56126,98.504004"
       id="path1766"
       inkscape:connector-type="polyline"
       inkscape:connector-curvature="0"
       inkscape:connection-start="#path234-5"
       inkscape:connection-end="#path234-3" />
    <path
       style="fill:none;fill-rule:evenodd;stroke:#000000;stroke-width:10;stroke-linecap:butt;stroke-linejoin:miter;stroke-dasharray:none;stroke-opacity:1"
       d="m 508.24322,106.76475 v 0"
       id="path1768"
       inkscape:connector-type="polyline"
       inkscape:connector-curvature="0"
       inkscape:connection-start="#path234-3"
       inkscape:connection-end="#path234-3" />
    <path
       style="fill:none;fill-rule:evenodd;stroke:#000000;stroke-width:10;stroke-linecap:butt;stroke-linejoin:miter;stroke-dasharray:none;stroke-opacity:1"
       d="m 521.24253,125.57226 33.14961,47.96113"
       id="path1770"
       inkscape:connector-type="polyline"
       inkscape:connector-curvature="0"
       inkscape:connection-start="#path234-3"
       inkscape:connection-end="#path234-9" />
    <path
       style="fill:none;fill-rule:evenodd;stroke:#000000;stroke-width:10;stroke-linecap:butt;stroke-linejoin:miter;stroke-dasharray:none;stroke-opacity:1"
       d="m 551.63766,208.90976 -41.48393,43.62963"
       id="path1772"
       inkscape:connector-type="polyline"
       inkscape:connector-curvature="0"
       inkscape:connection-start="#path234-9"
       inkscape:connection-end="#path234-6" />
    <path
       style="fill:none;fill-rule:evenodd;stroke:#000000;stroke-width:10;stroke-linecap:butt;stroke-linejoin:miter;stroke-dasharray:none;stroke-opacity:1"
       d="m 588.52038,183.60777 146.51338,-60.5589"
       id="path1774"
       inkscape:connector-type="polyline"
       inkscape:connector-curvature="0"
       inkscape:connection-start="#path234-9"
       inkscape:connection-end="#path234-62" />
    <path
       style="fill:none;fill-rule:evenodd;stroke:#000000;stroke-width:10;stroke-linecap:butt;stroke-linejoin:miter;stroke-dasharray:none;stroke-opacity:1"
       d="M 734.36402,107.422 630.72007,74.645712"
       id="path1776"
       inkscape:connector-type="polyline"
       inkscape:connector-curvature="0"
       inkscape:connection-start="#path234-62"
       inkscape:connection-end="#path234-5" />
    <path
       style="fill:none;fill-rule:evenodd;stroke:#000000;stroke-width:10;stroke-linecap:butt;stroke-linejoin:miter;stroke-dasharray:none;stroke-opacity:1"
       d="m 752.15135,136.82352 -14.62988,82.08995"
       id="path1778"
       inkscape:connector-type="polyline"
       inkscape:connector-curvature="0"
       inkscape:connection-start="#path234-62"
       inkscape:connection-end="#path234-7" />
    <path
       style="fill:none;fill-rule:evenodd;stroke:#000000;stroke-width:10;stroke-linecap:butt;stroke-linejoin:miter;stroke-dasharray:none;stroke-opacity:1"
       d="m 365.05449,164.90342 122.00554,-49.5377"
       id="path1760-3"
       inkscape:connector-type="polyline"
       inkscape:connector-curvature="0"
       inkscape:connection-start="#path234"
       inkscape:connection-end="#path234-3" />
    <path
       style="fill:none;fill-rule:evenodd;stroke:#000000;stroke-width:10;stroke-linecap:butt;stroke-linejoin:miter;stroke-dasharray:none;stroke-opacity:1"
       d="m 521.24253,125.57226 33.14961,47.96113"
       id="path1770-6"
       inkscape:connector-type="polyline"
       inkscape:connector-curvature="0"
       inkscape:connection-start="#path234-3"
       inkscape:connection-end="#path234-9" />
    <path
       style="fill:none;fill-rule:evenodd;stroke:#000000;stroke-width:10;stroke-linecap:butt;stroke-linejoin:miter;stroke-dasharray:none;stroke-opacity:1"
       d="m 588.52038,183.60777 146.51338,-60.5589"
       id="path1774-7"
       inkscape:connector-type="polyline"
       inkscape:connector-curvature="0"
       inkscape:connection-start="#path234-9"
       inkscape:connection-end="#path234-62" />
    <path
       style="fill:none;fill-rule:evenodd;stroke:#000000;stroke-width:10;stroke-linecap:butt;stroke-linejoin:miter;stroke-dasharray:none;stroke-opacity:1"
       d="m 752.15135,136.82352 -14.62988,82.08995"
       id="path1778-5"
       inkscape:connector-type="polyline"
       inkscape:connector-curvature="0"
       inkscape:connection-start="#path234-62"
       inkscape:connection-end="#path234-7" />
    <path
       style="fill:none;fill-rule:evenodd;stroke:#00c260;stroke-width:10;stroke-linecap:butt;stroke-linejoin:miter;stroke-dasharray:10, 10;stroke-dashoffset:0;stroke-opacity:1"
       d="m 375.40555,184.02926 122.00554,-49.5377"
       id="path1760-35"
       inkscape:connector-type="polyline"
       inkscape:connector-curvature="0" />
    <path
       style="fill:none;fill-rule:evenodd;stroke:#00c260;stroke-width:10;stroke-linecap:butt;stroke-linejoin:miter;stroke-dasharray:10, 10;stroke-dashoffset:0;stroke-opacity:1"
       d="m 504.71292,145.50197 24.14229,38.07928"
       id="path1770-62"
       inkscape:connector-type="polyline"
       inkscape:connector-curvature="0"
       sodipodi:nodetypes="cc" />
    <path
       style="fill:none;fill-rule:evenodd;stroke:#00c260;stroke-width:10;stroke-linecap:butt;stroke-linejoin:miter;stroke-dasharray:10, 10;stroke-dashoffset:0;stroke-opacity:1"
       d="m 596.00341,204.75528 146.51338,-60.5589"
       id="path1774-9"
       inkscape:connector-type="polyline"
       inkscape:connector-curvature="0" />
    <path
       style="fill:none;fill-rule:evenodd;stroke:#00c260;stroke-width:10;stroke-linecap:butt;stroke-linejoin:miter;stroke-dasharray:10, 10;stroke-dashoffset:0;stroke-opacity:1"
       d="m 776.65249,142.08836 -14.62988,82.08995"
       id="path1778-1"
       inkscape:connector-type="polyline"
       inkscape:connector-curvature="0" />
    <g
       fill="#000000"
       fill-opacity="1"
       id="id-8a5e3233-83e7-49c5-aaea-5ab904a416f2"
       transform="matrix(6.0186799,0,0,6.0186799,-484.79352,-837.83562)">
      <g
         transform="translate(148.712,134.765)"
         id="g780">
        <path
           d="m 2.9375,-6.375 c 0,-0.25 0,-0.265625 -0.234375,-0.265625 C 2.078125,-6 1.203125,-6 0.890625,-6 v 0.3125 c 0.203125,0 0.78125,0 1.296875,-0.265625 v 5.171875 c 0,0.359375 -0.03125,0.46875 -0.921875,0.46875 h -0.3125 V 0 c 0.34375,-0.03125 1.203125,-0.03125 1.609375,-0.03125 0.390625,0 1.265625,0 1.609375,0.03125 v -0.3125 h -0.3125 c -0.90625,0 -0.921875,-0.109375 -0.921875,-0.46875 z m 0,0"
           id="id-10873d9e-cb31-4fa9-b104-0c81d2beb7f8" />
      </g>
    </g>
    <g
       fill="#000000"
       fill-opacity="1"
       id="id-4179f659-2fb8-43dd-bb0e-f74c4e4d5a23"
       transform="matrix(6.0186799,0,0,6.0186799,-341.20132,-785.99066)">
      <g
         transform="translate(157.011,134.765)"
         id="g784">
        <path
           d="m 1.265625,-0.765625 1.0625,-1.03125 c 1.546875,-1.375 2.140625,-1.90625 2.140625,-2.90625 0,-1.140625 -0.890625,-1.9375 -2.109375,-1.9375 -1.125,0 -1.859375,0.921875 -1.859375,1.8125 0,0.546875 0.5,0.546875 0.53125,0.546875 0.171875,0 0.515625,-0.109375 0.515625,-0.53125 0,-0.25 -0.1875,-0.515625 -0.53125,-0.515625 -0.078125,0 -0.09375,0 -0.125,0.015625 0.21875,-0.65625 0.765625,-1.015625 1.34375,-1.015625 0.90625,0 1.328125,0.8125 1.328125,1.625 C 3.5625,-3.90625 3.078125,-3.125 2.515625,-2.5 l -1.90625,2.125 C 0.5,-0.265625 0.5,-0.234375 0.5,0 H 4.203125 L 4.46875,-1.734375 H 4.234375 C 4.171875,-1.4375 4.109375,-1 4,-0.84375 3.9375,-0.765625 3.28125,-0.765625 3.0625,-0.765625 Z m 0,0"
           id="id-7f444090-e0de-4e46-96d7-8576eabee311" />
      </g>
    </g>
    <g
       fill="#000000"
       fill-opacity="1"
       id="id-c0848e79-f852-4f4d-9675-541505928ef2"
       transform="matrix(6.0186799,0,0,6.0186799,-568.31016,-703.7369)">
      <g
         transform="translate(165.32,134.765)"
         id="g788">
        <path
           d="m 2.890625,-3.515625 c 0.8125,-0.265625 1.390625,-0.953125 1.390625,-1.75 0,-0.8125 -0.875,-1.375 -1.828125,-1.375 -1,0 -1.765625,0.59375 -1.765625,1.359375 0,0.328125 0.21875,0.515625 0.515625,0.515625 0.296875,0 0.5,-0.21875 0.5,-0.515625 0,-0.484375 -0.46875,-0.484375 -0.609375,-0.484375 0.296875,-0.5 0.953125,-0.625 1.3125,-0.625 0.421875,0 0.96875,0.21875 0.96875,1.109375 0,0.125 -0.03125,0.703125 -0.28125,1.140625 C 2.796875,-3.65625 2.453125,-3.625 2.203125,-3.625 2.125,-3.609375 1.890625,-3.59375 1.8125,-3.59375 c -0.078125,0.015625 -0.140625,0.03125 -0.140625,0.125 0,0.109375 0.0625,0.109375 0.234375,0.109375 h 0.4375 c 0.8125,0 1.1875,0.671875 1.1875,1.65625 0,1.359375 -0.6875,1.640625 -1.125,1.640625 -0.4375,0 -1.1875,-0.171875 -1.53125,-0.75 0.34375,0.046875 0.65625,-0.171875 0.65625,-0.546875 0,-0.359375 -0.265625,-0.5625 -0.546875,-0.5625 -0.25,0 -0.5625,0.140625 -0.5625,0.578125 0,0.90625 0.921875,1.5625 2.015625,1.5625 1.21875,0 2.125,-0.90625 2.125,-1.921875 0,-0.8125 -0.640625,-1.59375 -1.671875,-1.8125 z m 0,0"
           id="id-1225c1ef-999c-4fdc-813c-de0ea1bca1d7" />
      </g>
    </g>
    <g
       fill="#000000"
       fill-opacity="1"
       id="id-2c00445e-9f3e-4aa1-bf99-a5d04614e7ce"
       transform="matrix(6.0186799,0,0,6.0186799,-766.84096,-575.88366)">
      <g
         transform="translate(173.619,134.765)"
         id="g792">
        <path
           d="m 2.9375,-1.640625 v 0.859375 c 0,0.359375 -0.03125,0.46875 -0.765625,0.46875 H 1.96875 V 0 C 2.375,-0.03125 2.890625,-0.03125 3.3125,-0.03125 c 0.421875,0 0.9375,0 1.359375,0.03125 v -0.3125 h -0.21875 c -0.734375,0 -0.75,-0.109375 -0.75,-0.46875 V -1.640625 H 4.6875 v -0.3125 H 3.703125 v -4.53125 c 0,-0.203125 0,-0.265625 -0.171875,-0.265625 -0.078125,0 -0.109375,0 -0.1875,0.125 l -3.0625,4.671875 v 0.3125 z m 0.046875,-0.3125 H 0.5625 l 2.421875,-3.71875 z m 0,0"
           id="id-3ae256e1-edf7-4e7c-8679-533f63e60b06" />
      </g>
    </g>
    <g
       fill="#000000"
       fill-opacity="1"
       id="id-fec49bc6-f010-478b-99a8-b3db057f690a"
       transform="matrix(6.0186799,0,0,6.0186799,-595.95956,-465.5041)">
      <g
         transform="translate(181.917,134.765)"
         id="g796">
        <path
           d="m 4.46875,-2 c 0,-1.1875 -0.8125,-2.1875 -1.890625,-2.1875 -0.46875,0 -0.90625,0.15625 -1.265625,0.515625 V -5.625 c 0.203125,0.0625 0.53125,0.125 0.84375,0.125 1.234375,0 1.9375,-0.90625 1.9375,-1.03125 0,-0.0625 -0.03125,-0.109375 -0.109375,-0.109375 0,0 -0.03125,0 -0.078125,0.03125 C 3.703125,-6.515625 3.21875,-6.3125 2.546875,-6.3125 2.15625,-6.3125 1.6875,-6.390625 1.21875,-6.59375 1.140625,-6.625 1.125,-6.625 1.109375,-6.625 1,-6.625 1,-6.546875 1,-6.390625 V -3.4375 c 0,0.171875 0,0.25 0.140625,0.25 0.078125,0 0.09375,-0.015625 0.140625,-0.078125 C 1.390625,-3.421875 1.75,-3.96875 2.5625,-3.96875 c 0.515625,0 0.765625,0.453125 0.84375,0.640625 0.15625,0.375 0.1875,0.75 0.1875,1.25 0,0.359375 0,0.953125 -0.25,1.375 C 3.109375,-0.3125 2.734375,-0.0625 2.28125,-0.0625 c -0.71875,0 -1.296875,-0.53125 -1.46875,-1.109375 0.03125,0 0.0625,0.015625 0.171875,0.015625 0.328125,0 0.5,-0.25 0.5,-0.484375 0,-0.25 -0.171875,-0.5 -0.5,-0.5 C 0.84375,-2.140625 0.5,-2.0625 0.5,-1.609375 0.5,-0.75 1.1875,0.21875 2.296875,0.21875 3.453125,0.21875 4.46875,-0.734375 4.46875,-2 Z m 0,0"
           id="id-a976313b-726b-4eda-891a-9df677d14aa0" />
      </g>
    </g>
    <g
       fill="#000000"
       fill-opacity="1"
       id="id-9cf2cc6f-d6ab-4db1-b59e-9f0e4a6cb033"
       transform="matrix(6.0186799,0,0,6.0186799,-550.97926,-557.18682)">
      <g
         transform="translate(190.226,134.765)"
         id="g800">
        <path
           d="m 1.3125,-3.265625 v -0.25 c 0,-2.515625 1.234375,-2.875 1.75,-2.875 0.234375,0 0.65625,0.0625 0.875,0.40625 -0.15625,0 -0.546875,0 -0.546875,0.4375 0,0.3125 0.234375,0.46875 0.453125,0.46875 0.15625,0 0.46875,-0.09375 0.46875,-0.484375 0,-0.59375 -0.4375,-1.078125 -1.265625,-1.078125 -1.28125,0 -2.625,1.28125 -2.625,3.484375 0,2.671875 1.15625,3.375 2.078125,3.375 1.109375,0 2.0625,-0.9375 2.0625,-2.25 0,-1.265625 -0.890625,-2.21875 -2,-2.21875 -0.671875,0 -1.046875,0.5 -1.25,0.984375 z M 2.5,-0.0625 c -0.625,0 -0.921875,-0.59375 -0.984375,-0.75 -0.1875,-0.46875 -0.1875,-1.265625 -0.1875,-1.4375 0,-0.78125 0.328125,-1.78125 1.21875,-1.78125 0.171875,0 0.625,0 0.9375,0.625 0.171875,0.359375 0.171875,0.875 0.171875,1.359375 0,0.484375 0,0.984375 -0.171875,1.34375 C 3.1875,-0.109375 2.734375,-0.0625 2.5,-0.0625 Z m 0,0"
           id="id-c080b885-92c4-4344-9362-32f4a8217568" />
      </g>
    </g>
    <g
       fill="#000000"
       fill-opacity="1"
       id="id-44217dc9-bd60-46ba-9511-6a48b85772ff"
       transform="matrix(6.0186799,0,0,6.0186799,-409.42991,-534.23117)">
      <g
         transform="translate(198.525,134.765)"
         id="g804">
        <path
           d="m 4.75,-6.078125 c 0.078125,-0.109375 0.078125,-0.125 0.078125,-0.34375 H 2.40625 c -1.203125,0 -1.234375,-0.125 -1.265625,-0.3125 h -0.25 L 0.5625,-4.6875 h 0.25 c 0.03125,-0.15625 0.109375,-0.78125 0.25,-0.90625 0.0625,-0.0625 0.84375,-0.0625 0.96875,-0.0625 h 2.0625 C 3.984375,-5.5 3.203125,-4.40625 2.984375,-4.078125 2.078125,-2.734375 1.75,-1.34375 1.75,-0.328125 c 0,0.09375 0,0.546875 0.46875,0.546875 0.453125,0 0.453125,-0.453125 0.453125,-0.546875 V -0.84375 c 0,-0.546875 0.03125,-1.09375 0.109375,-1.625 0.046875,-0.234375 0.171875,-1.09375 0.625,-1.703125 z m 0,0"
           id="id-1ceb9c5e-f236-4e62-bce0-852398c028ca" />
      </g>
    </g>
    <g
       fill="#000000"
       fill-opacity="1"
       id="id-e80825a1-efe4-4b47-b85c-5e32504a9905"
       transform="matrix(6.0186799,0,0,6.0186799,-453.02859,-717.87038)">
      <g
         transform="translate(206.824,134.765)"
         id="g808">
        <path
           d="m 1.625,-4.5625 c -0.453125,-0.296875 -0.5,-0.625 -0.5,-0.796875 0,-0.609375 0.65625,-1.03125 1.359375,-1.03125 0.71875,0 1.359375,0.515625 1.359375,1.234375 0,0.578125 -0.390625,1.046875 -0.984375,1.390625 z m 1.453125,0.953125 C 3.796875,-3.984375 4.28125,-4.5 4.28125,-5.15625 c 0,-0.921875 -0.875,-1.484375 -1.78125,-1.484375 -1,0 -1.8125,0.734375 -1.8125,1.671875 0,0.171875 0.015625,0.625 0.4375,1.09375 0.109375,0.109375 0.484375,0.359375 0.734375,0.53125 C 1.28125,-3.046875 0.421875,-2.5 0.421875,-1.5 c 0,1.046875 1.015625,1.71875 2.0625,1.71875 1.125,0 2.078125,-0.828125 2.078125,-1.890625 0,-0.359375 -0.109375,-0.8125 -0.5,-1.234375 C 3.875,-3.109375 3.71875,-3.203125 3.078125,-3.609375 Z m -1,0.421875 1.234375,0.78125 c 0.28125,0.1875 0.75,0.484375 0.75,1.09375 0,0.734375 -0.75,1.25 -1.5625,1.25 -0.859375,0 -1.578125,-0.609375 -1.578125,-1.4375 0,-0.578125 0.3125,-1.21875 1.15625,-1.6875 z m 0,0"
           id="id-03db31fb-a0f9-4306-953c-97fe3b9e0f12" />
      </g>
    </g>
  </g>
</svg>
