<?xml version="1.0" encoding="UTF-8" standalone="no"?>
<!-- Created with Inkscape (http://www.inkscape.org/) -->

<svg
   width="473.01755mm"
   height="322.48871mm"
   viewBox="0 0 473.01755 322.48871"
   version="1.1"
   id="svg5"
   inkscape:version="1.2.2 (b0a8486541, 2022-12-01)"
   sodipodi:docname="set.svg"
   xmlns:inkscape="http://www.inkscape.org/namespaces/inkscape"
   xmlns:sodipodi="http://sodipodi.sourceforge.net/DTD/sodipodi-0.dtd"
   xmlns="http://www.w3.org/2000/svg"
   xmlns:svg="http://www.w3.org/2000/svg">
  <sodipodi:namedview
     id="namedview7"
     pagecolor="#ffffff"
     bordercolor="#000000"
     borderopacity="0.25"
     inkscape:showpageshadow="2"
     inkscape:pageopacity="0.0"
     inkscape:pagecheckerboard="0"
     inkscape:deskcolor="#d1d1d1"
     inkscape:document-units="mm"
     showgrid="false"
     inkscape:zoom="0.2102413"
     inkscape:cx="273.49526"
     inkscape:cy="575.52917"
     inkscape:window-width="1920"
     inkscape:window-height="1131"
     inkscape:window-x="0"
     inkscape:window-y="32"
     inkscape:window-maximized="1"
     inkscape:current-layer="layer1" />
  <defs
     id="defs2" />
  <g
     inkscape:label="Calque 1"
     inkscape:groupmode="layer"
     id="layer1"
     transform="translate(-2.8454678,3.9350373)">
    <path
       style="fill:#000000;fill-opacity:1;stroke:#010301;stroke-width:10;stroke-linecap:round;stroke-linejoin:round;stroke-dasharray:none"
       id="path234"
       sodipodi:type="arc"
       sodipodi:cx="33.208473"
       sodipodi:cy="192.58716"
       sodipodi:rx="22.863005"
       sodipodi:ry="22.863005"
       sodipodi:start="0"
       sodipodi:end="6.2766013"
       sodipodi:open="true"
       sodipodi:arc-type="chord"
       d="m 56.071478,192.58716 a 22.863005,22.863005 0 0 1 -22.825372,22.86297 22.863005,22.863005 0 0 1 -22.900514,-22.78771 22.863005,22.863005 0 0 1 22.749984,-22.93799 22.863005,22.863005 0 0 1 22.975406,22.7122 z" />
    <path
       style="fill:#000000;fill-opacity:1;stroke:#010301;stroke-width:10;stroke-linecap:round;stroke-linejoin:round;stroke-dasharray:none"
       id="path234-3"
       sodipodi:type="arc"
       sodipodi:cx="197.58052"
       sodipodi:cy="125.84746"
       sodipodi:rx="22.863005"
       sodipodi:ry="22.863005"
       sodipodi:start="0"
       sodipodi:end="6.2766013"
       sodipodi:open="true"
       sodipodi:arc-type="chord"
       d="m 220.44353,125.84746 a 22.863005,22.863005 0 0 1 -22.82538,22.86297 22.863005,22.863005 0 0 1 -22.90051,-22.78771 22.863005,22.863005 0 0 1 22.74998,-22.93799 22.863005,22.863005 0 0 1 22.97541,22.7122 z" />
    <path
       style="fill:#000000;fill-opacity:1;stroke:#010301;stroke-width:10;stroke-linecap:round;stroke-linejoin:round;stroke-dasharray:none"
       id="path234-6"
       sodipodi:type="arc"
       sodipodi:cx="183.73729"
       sodipodi:cy="288.19067"
       sodipodi:rx="22.863005"
       sodipodi:ry="22.863005"
       sodipodi:start="0"
       sodipodi:end="6.2766013"
       sodipodi:open="true"
       sodipodi:arc-type="chord"
       d="m 206.60029,288.19067 a 22.863005,22.863005 0 0 1 -22.82537,22.86298 22.863005,22.863005 0 0 1 -22.90051,-22.78771 22.863005,22.863005 0 0 1 22.74998,-22.93799 22.863005,22.863005 0 0 1 22.97541,22.71219 z" />
    <path
       style="fill:#000000;fill-opacity:1;stroke:#010301;stroke-width:10;stroke-linecap:round;stroke-linejoin:round;stroke-dasharray:none"
       id="path234-7"
       sodipodi:type="arc"
       sodipodi:cx="422.84744"
       sodipodi:cy="260.50424"
       sodipodi:rx="22.863005"
       sodipodi:ry="22.863005"
       sodipodi:start="0"
       sodipodi:end="6.2766013"
       sodipodi:open="true"
       sodipodi:arc-type="chord"
       d="m 445.71045,260.50424 a 22.863005,22.863005 0 0 1 -22.82537,22.86298 22.863005,22.863005 0 0 1 -22.90052,-22.78771 22.863005,22.863005 0 0 1 22.74999,-22.93799 22.863005,22.863005 0 0 1 22.9754,22.71219 z" />
    <path
       style="fill:#000000;fill-opacity:1;stroke:#010301;stroke-width:10;stroke-linecap:round;stroke-linejoin:round;stroke-dasharray:none"
       id="path234-5"
       sodipodi:type="arc"
       sodipodi:cx="298.25848"
       sodipodi:cy="86.834747"
       sodipodi:rx="22.863005"
       sodipodi:ry="22.863005"
       sodipodi:start="0"
       sodipodi:end="6.2766013"
       sodipodi:open="true"
       sodipodi:arc-type="chord"
       d="M 321.12149,86.834747 A 22.863005,22.863005 0 0 1 298.29612,109.69772 22.863005,22.863005 0 0 1 275.3956,86.910012 22.863005,22.863005 0 0 1 298.14559,63.972021 22.863005,22.863005 0 0 1 321.12099,86.684218 Z" />
    <path
       style="fill:#000000;fill-opacity:1;stroke:#010301;stroke-width:10;stroke-linecap:round;stroke-linejoin:round;stroke-dasharray:none"
       id="path234-35"
       sodipodi:type="arc"
       sodipodi:cx="145.98305"
       sodipodi:cy="26.427969"
       sodipodi:rx="22.863005"
       sodipodi:ry="22.863005"
       sodipodi:start="0"
       sodipodi:end="6.2766013"
       sodipodi:open="true"
       sodipodi:arc-type="chord"
       d="M 168.84605,26.427969 A 22.863005,22.863005 0 0 1 146.02068,49.290943 22.863005,22.863005 0 0 1 123.12017,26.503234 22.863005,22.863005 0 0 1 145.87015,3.565243 22.863005,22.863005 0 0 1 168.84556,26.27744 Z" />
    <path
       style="fill:#000000;fill-opacity:1;stroke:#010301;stroke-width:10;stroke-linecap:round;stroke-linejoin:round;stroke-dasharray:none"
       id="path234-62"
       sodipodi:type="arc"
       sodipodi:cx="445.5"
       sodipodi:cy="133.3983"
       sodipodi:rx="22.863005"
       sodipodi:ry="22.863005"
       sodipodi:start="0"
       sodipodi:end="6.2766013"
       sodipodi:open="true"
       sodipodi:arc-type="chord"
       d="m 468.363,133.3983 a 22.863005,22.863005 0 0 1 -22.82537,22.86297 22.863005,22.863005 0 0 1 -22.90051,-22.7877 22.863005,22.863005 0 0 1 22.74998,-22.938 22.863005,22.863005 0 0 1 22.97541,22.7122 z" />
    <path
       style="fill:#000000;fill-opacity:1;stroke:#010301;stroke-width:10;stroke-linecap:round;stroke-linejoin:round;stroke-dasharray:none"
       id="path234-9"
       sodipodi:type="arc"
       sodipodi:cx="256.72882"
       sodipodi:cy="211.42374"
       sodipodi:rx="22.863005"
       sodipodi:ry="22.863005"
       sodipodi:start="0"
       sodipodi:end="6.2766013"
       sodipodi:open="true"
       sodipodi:arc-type="chord"
       d="m 279.59183,211.42374 a 22.863005,22.863005 0 0 1 -22.82538,22.86297 22.863005,22.863005 0 0 1 -22.90051,-22.78771 22.863005,22.863005 0 0 1 22.74998,-22.93799 22.863005,22.863005 0 0 1 22.97541,22.7122 z" />
  </g>
</svg>
