<?xml version="1.0" encoding="UTF-8" standalone="no"?>
<!-- Created with Inkscape (http://www.inkscape.org/) -->

<svg
   width="197.67734mm"
   height="218.59683mm"
   viewBox="0 0 197.67734 218.59683"
   version="1.1"
   id="svg5"
   inkscape:version="1.2.2 (b0a8486541, 2022-12-01)"
   sodipodi:docname="SRC.svg"
   xml:space="preserve"
   xmlns:inkscape="http://www.inkscape.org/namespaces/inkscape"
   xmlns:sodipodi="http://sodipodi.sourceforge.net/DTD/sodipodi-0.dtd"
   xmlns="http://www.w3.org/2000/svg"
   xmlns:svg="http://www.w3.org/2000/svg"><sodipodi:namedview
     id="namedview7"
     pagecolor="#ffffff"
     bordercolor="#000000"
     borderopacity="0.25"
     inkscape:showpageshadow="2"
     inkscape:pageopacity="0.0"
     inkscape:pagecheckerboard="0"
     inkscape:deskcolor="#d1d1d1"
     inkscape:document-units="mm"
     showgrid="false"
     inkscape:zoom="0.70798177"
     inkscape:cx="266.95602"
     inkscape:cy="593.23561"
     inkscape:window-width="1920"
     inkscape:window-height="1131"
     inkscape:window-x="0"
     inkscape:window-y="0"
     inkscape:window-maximized="1"
     inkscape:current-layer="layer1" /><defs
     id="defs2"><marker
   style="overflow:visible"
   id="Arrow2"
   refX="0"
   refY="0"
   orient="auto-start-reverse"
   inkscape:stockid="Arrow2"
   markerWidth="7.6999998"
   markerHeight="5.5999999"
   viewBox="0 0 7.7 5.6"
   inkscape:isstock="true"
   inkscape:collect="always"
   preserveAspectRatio="xMidYMid"><path
     transform="scale(0.7)"
     d="M -2,-4 9,0 -2,4 c 2,-2.33 2,-5.66 0,-8 z"
     style="fill:context-stroke;fill-rule:evenodd;stroke:none"
     id="arrow2L" /></marker><clipPath
   id="clipPath6231">
      <path
   clip-rule="nonzero"
   d="M 0,0 H 40 V 6.808594 H 0 Z m 0,0"
   id="path7395" />
    </clipPath>
    <clipPath
   id="clipPath8794">
      <path
   clip-rule="nonzero"
   d="M 43,0 H 86 V 6.808594 H 43 Z m 0,0"
   id="path2853" />
    </clipPath>
    <clipPath
   id="clipPath7750">
      <path
   clip-rule="nonzero"
   d="m 90,0 h 50.58594 V 6.808594 H 90 Z m 0,0"
   id="path1654" />
    </clipPath>
  
  
  
<marker
   style="overflow:visible"
   id="Arrow2-3"
   refX="0"
   refY="0"
   orient="auto-start-reverse"
   inkscape:stockid="Arrow2"
   markerWidth="7.6999998"
   markerHeight="5.5999999"
   viewBox="0 0 7.7 5.6"
   inkscape:isstock="true"
   inkscape:collect="always"
   preserveAspectRatio="xMidYMid"><path
     transform="scale(0.7)"
     d="M -2,-4 9,0 -2,4 c 2,-2.33 2,-5.66 0,-8 z"
     style="fill:context-stroke;fill-rule:evenodd;stroke:none"
     id="arrow2L-0" /></marker><marker
   style="overflow:visible"
   id="Arrow2-3-2"
   refX="0"
   refY="0"
   orient="auto-start-reverse"
   inkscape:stockid="Arrow2"
   markerWidth="7.6999998"
   markerHeight="5.5999999"
   viewBox="0 0 7.7 5.6"
   inkscape:isstock="true"
   inkscape:collect="always"
   preserveAspectRatio="xMidYMid"><path
     transform="scale(0.7)"
     d="M -2,-4 9,0 -2,4 c 2,-2.33 2,-5.66 0,-8 z"
     style="fill:context-stroke;fill-rule:evenodd;stroke:none"
     id="arrow2L-0-5" /></marker></defs><g
     inkscape:label="Calque 1"
     inkscape:groupmode="layer"
     id="layer1"
     transform="translate(84.31389,3.1604842)"><polygon
       style="font-size:14px;font-family:Times-Roman;fill:none;stroke:none"
       points="268,178 -2,178 -2,-2 268,-2 "
       id="polygon343"
       transform="matrix(0.35277778,0,0,0.35277778,-83.608334,-2.4549286)" /><circle
       style="font-size:14px;font-family:Times-Roman;fill:#ffffff;stroke:#000000;stroke-width:1.05833"
       cx="1.7763568e-15"
       cy="26.825628"
       id="ellipse347"
       r="8.4666672" /><circle
       style="font-size:14px;font-family:Times-Roman;fill:#ffffff;stroke:#000000;stroke-width:1.05833"
       cx="-17.638889"
       cy="45.170071"
       id="ellipse354"
       r="8.4666672" /><path
       style="font-size:14px;font-family:Times-Roman;fill:none;stroke:#000000;stroke-width:1.05833"
       d="m -5.9972215,32.822849 c -1.763889,2.116667 -3.880556,4.233333 -5.6444455,5.997222"
       id="path361" /><circle
       style="font-size:14px;font-family:Times-Roman;fill:#ffffff;stroke:#000000;stroke-width:1.05833"
       cx="-45.155556"
       cy="49.4034"
       id="ellipse366"
       r="8.4666672" /><path
       style="font-size:14px;font-family:Times-Roman;fill:none;stroke:#000000;stroke-width:1.05833"
       d="m -26.105556,46.58118 c -3.527778,0.35278 -7.408333,1.05834 -10.583333,1.41111"
       id="path373" /><circle
       style="font-size:14px;font-family:Times-Roman;fill:#ffffff;stroke:#000000;stroke-width:1.05833"
       cx="-23.636112"
       cy="18.006186"
       id="ellipse378"
       r="8.4666672" /><path
       style="font-size:14px;font-family:Times-Roman;fill:none;stroke:#000000;stroke-width:1.05833"
       d="m -19.402778,36.703405 c -0.705556,-3.175 -1.763889,-7.055556 -2.469444,-10.230556"
       id="path385" /><circle
       style="font-size:14px;font-family:Times-Roman;fill:#ffffff;stroke:#000000;stroke-width:1.05833"
       cx="-51.152779"
       cy="22.239515"
       id="ellipse390"
       r="8.4666672" /><path
       style="font-size:14px;font-family:Times-Roman;fill:none;stroke:#000000;stroke-width:1.05833"
       d="M -46.919445,40.93674 C -47.625,37.761738 -48.683334,33.881182 -49.388889,30.706182"
       id="path397" /><path
       style="font-size:14px;font-family:Times-Roman;fill:none;stroke:#000000;stroke-width:1.05833"
       d="m -42.686112,20.828404 c 3.527778,-0.352777 7.408334,-1.058333 10.583334,-1.411111"
       id="path402" /><path
       style="font-size:14px;font-family:Times-Roman;fill:none;stroke:#000000;stroke-width:1.05833"
       d="m -15.522222,20.828404 c 2.469444,1.058334 4.938888,2.116667 7.4083335,3.175001"
       id="path407" /><circle
       style="font-size:14px;font-family:Times-Roman;fill:#ffffff;stroke:#000000;stroke-width:1.05833"
       cx="-73.377777"
       cy="7.7756248"
       id="ellipse412"
       r="8.4666672" /><path
       style="font-size:14px;font-family:Times-Roman;fill:none;stroke:#000000;stroke-width:1.05833"
       d="m -66.322223,12.361738 c 2.469445,1.763889 5.644445,3.527778 8.113889,5.291666"
       id="path419" /><polygon
       style="font-size:14px;font-family:Times-Roman;fill:none;stroke:none"
       points="-2,-2 268,-2 268,178 -2,178 "
       id="polygon343-1"
       transform="matrix(0.35277778,0,0,0.35277778,18.818999,54.323256)" /><circle
       style="font-size:14px;font-family:Times-Roman;fill:#fcaf5f;fill-opacity:0.713335;stroke:#000000;stroke-width:1.05833"
       cx="102.42734"
       cy="83.603813"
       id="ellipse347-0"
       r="8.4666672" /><circle
       style="font-size:14px;font-family:Times-Roman;fill:#5ffc7c;fill-opacity:0.713335;stroke:#000000;stroke-width:1.05833"
       cx="84.788445"
       cy="101.94826"
       id="ellipse354-3"
       r="8.4666672" /><path
       style="font-size:14px;font-family:Times-Roman;fill:none;stroke:#000000;stroke-width:1.05833"
       d="m 96.430111,89.601034 c -1.763889,2.116667 -3.880556,4.233336 -5.644445,5.997226"
       id="path361-0" /><circle
       style="font-size:14px;font-family:Times-Roman;fill:#ffffff;stroke:#000000;stroke-width:1.05833"
       cx="57.271774"
       cy="106.18159"
       id="ellipse366-4"
       r="8.4666672" /><path
       style="font-size:14px;font-family:Times-Roman;fill:none;stroke:#000000;stroke-width:1.05833"
       d="m 76.321777,103.35936 c -3.527778,0.35278 -7.408333,1.05834 -10.583333,1.41111"
       id="path373-4" /><circle
       style="font-size:14px;font-family:Times-Roman;fill:#ffffff;stroke:#000000;stroke-width:1.05833"
       cx="78.791222"
       cy="74.78437"
       id="ellipse378-4"
       r="8.4666672" /><path
       style="font-size:14px;font-family:Times-Roman;fill:none;stroke:#000000;stroke-width:1.05833"
       d="m 83.024555,93.48159 c -0.705556,-3.175 -1.763889,-7.055556 -2.469444,-10.230556"
       id="path385-4" /><circle
       style="font-size:14px;font-family:Times-Roman;fill:#625ffc;fill-opacity:0.713335;stroke:#000000;stroke-width:1.05833"
       cx="51.274551"
       cy="79.0177"
       id="ellipse390-7"
       r="8.4666672" /><path
       style="font-size:14px;font-family:Times-Roman;fill:none;stroke:#000000;stroke-width:1.058;stroke-dasharray:none"
       d="m 55.507888,97.71492 c -0.705555,-3.175 -1.763889,-7.055553 -2.469444,-10.230553"
       id="path397-6" /><path
       style="font-size:14px;font-family:Times-Roman;fill:none;stroke:#000000;stroke-width:1.05833"
       d="m 59.741221,77.606589 c 3.527778,-0.352777 7.408334,-1.058333 10.583334,-1.411111"
       id="path402-3" /><path
       style="font-size:14px;font-family:Times-Roman;fill:none;stroke:#000000;stroke-width:1.05833"
       d="m 86.905111,77.606589 c 2.469444,1.058334 4.938888,2.116667 7.408333,3.175001"
       id="path407-1" /><circle
       style="font-size:14px;font-family:Times-Roman;fill:#ffffff;stroke:#000000;stroke-width:1.05833"
       cx="29.049555"
       cy="64.55381"
       id="ellipse412-7"
       r="8.4666672" /><path
       style="font-size:14px;font-family:Times-Roman;fill:none;stroke:#000000;stroke-width:1.05833"
       d="m 36.10511,69.139923 c 2.469445,1.763889 5.644445,3.527778 8.113889,5.291666"
       id="path419-5" /><circle
       style="font-size:14px;font-family:Times-Roman;fill:#fcaf5f;fill-opacity:0.713335;stroke:#000000;stroke-width:1.05833"
       cx="-4.2459269"
       cy="135.56665"
       id="ellipse347-0-7"
       r="8.4666672" /><circle
       style="font-size:14px;font-family:Times-Roman;fill:#5ffc7c;fill-opacity:0.713335;stroke:#000000;stroke-width:1.05833"
       cx="-21.884813"
       cy="153.91109"
       id="ellipse354-3-7"
       r="8.4666672" /><circle
       style="font-size:14px;font-family:Times-Roman;fill:#625ffc;fill-opacity:0.713335;stroke:#000000;stroke-width:1.05833"
       cx="-55.398712"
       cy="130.98053"
       id="ellipse390-7-6"
       r="8.4666672" /><circle
       style="font-size:14px;font-family:Times-Roman;fill:#fcaf5f;fill-opacity:0.713335;stroke:#000000;stroke-width:1.05833"
       cx="77.909271"
       cy="188.09608"
       id="ellipse347-0-4"
       r="8.4666672" /><circle
       style="font-size:14px;font-family:Times-Roman;fill:#5ffc7c;fill-opacity:0.713335;stroke:#000000;stroke-width:1.05833"
       cx="60.270382"
       cy="206.44052"
       id="ellipse354-3-3"
       r="8.4666672" /><circle
       style="font-size:14px;font-family:Times-Roman;fill:#625ffc;fill-opacity:0.713335;stroke:#000000;stroke-width:1.05833"
       cx="42.102108"
       cy="184.5683"
       id="ellipse390-7-0"
       r="8.4666672" /><path
       style="fill:none;fill-rule:evenodd;stroke:#000000;stroke-width:1;stroke-linecap:butt;stroke-linejoin:miter;stroke-dasharray:none;stroke-opacity:1"
       d="m 47.511934,191.08102 7.348622,8.84678"
       id="path2458"
       inkscape:connector-type="polyline"
       inkscape:connector-curvature="0"
       inkscape:connection-start="#ellipse390-7-0"
       inkscape:connection-end="#ellipse354-3-3" /><path
       style="fill:none;fill-rule:evenodd;stroke:#000000;stroke-width:1;stroke-linecap:butt;stroke-linejoin:miter;stroke-dasharray:none;stroke-opacity:1"
       d="m 66.138598,200.33758 5.902457,-6.13855"
       id="path2460"
       inkscape:connector-type="polyline"
       inkscape:connector-curvature="0"
       inkscape:connection-start="#ellipse354-3-3"
       inkscape:connection-end="#ellipse347-0-4" /><g
       id="g3472"
       transform="translate(-44.086045,11.733055)"><g
         clip-path="url(#clipPath6231)"
         id="g59"
         transform="matrix(0.99376169,0,0,0.99376169,75.571396,7.7756247)">
    <g
   fill="#000000"
   fill-opacity="1"
   id="g57">
      <g
   id="use45"
   transform="translate(0,6.8080001)">
        <path
   d="m 3.484375,-3.875 -1.28125,-0.296875 c -0.625,-0.15625 -1,-0.6875 -1,-1.265625 0,-0.703125 0.53125,-1.3125 1.3125,-1.3125 1.65625,0 1.875,1.640625 1.9375,2.078125 0.015625,0.0625 0.015625,0.125 0.125,0.125 0.125,0 0.125,-0.046875 0.125,-0.234375 v -2 c 0,-0.171875 0,-0.25 -0.109375,-0.25 -0.0625,0 -0.078125,0.015625 -0.140625,0.140625 l -0.359375,0.5625 C 3.796875,-6.625 3.390625,-7.03125 2.5,-7.03125 c -1.109375,0 -1.9375,0.875 -1.9375,1.9375 0,0.828125 0.53125,1.5625 1.296875,1.828125 0.109375,0.03125 0.625,0.15625 1.328125,0.328125 0.265625,0.0625 0.5625,0.140625 0.84375,0.5 0.203125,0.265625 0.3125,0.59375 0.3125,0.921875 0,0.703125 -0.5,1.421875 -1.34375,1.421875 -0.28125,0 -1.046875,-0.046875 -1.578125,-0.53125 C 0.84375,-1.171875 0.8125,-1.796875 0.8125,-2.15625 0.796875,-2.265625 0.71875,-2.265625 0.6875,-2.265625 c -0.125,0 -0.125,0.078125 -0.125,0.25 v 2 c 0,0.171875 0,0.234375 0.109375,0.234375 0.0625,0 0.078125,-0.015625 0.140625,-0.125 0,-0.015625 0.03125,-0.046875 0.359375,-0.578125 0.3125,0.34375 0.953125,0.703125 1.84375,0.703125 1.15625,0 1.953125,-0.96875 1.953125,-2.078125 0,-0.984375 -0.65625,-1.8125 -1.484375,-2.015625 z m 0,0"
   id="path99" />
      </g>
      <g
   id="use47"
   transform="translate(5.5352211,6.8080001)">
        <path
   d="m 1.359375,-0.78125 c 0,0.359375 -0.03125,0.46875 -0.796875,0.46875 H 0.328125 V 0 h 5.75 L 6.5,-2.578125 H 6.25 C 6,-1.03125 5.765625,-0.3125 4.0625,-0.3125 H 2.734375 C 2.265625,-0.3125 2.25,-0.375 2.25,-0.703125 V -3.375 h 0.890625 c 0.96875,0 1.078125,0.328125 1.078125,1.171875 h 0.25 V -4.84375 h -0.25 c 0,0.859375 -0.109375,1.171875 -1.078125,1.171875 H 2.25 v -2.40625 c 0,-0.328125 0.015625,-0.390625 0.484375,-0.390625 h 1.28125 c 1.53125,0 1.796875,0.546875 1.953125,1.9375 h 0.25 l -0.28125,-2.25 H 0.328125 v 0.3125 H 0.5625 c 0.765625,0 0.796875,0.109375 0.796875,0.46875 z m 0,0"
   id="path103" />
      </g>
      <g
   id="use49"
   transform="translate(12.315766,6.8080001)">
        <path
   d="m 5.796875,-2.578125 h -0.25 c -0.109375,1.015625 -0.25,2.265625 -2,2.265625 h -0.8125 C 2.265625,-0.3125 2.25,-0.375 2.25,-0.703125 v -5.3125 C 2.25,-6.359375 2.25,-6.5 3.1875,-6.5 H 3.515625 V -6.8125 C 3.15625,-6.78125 2.25,-6.78125 1.84375,-6.78125 c -0.390625,0 -1.171875,0 -1.515625,-0.03125 V -6.5 H 0.5625 c 0.765625,0 0.796875,0.109375 0.796875,0.46875 v 5.25 c 0,0.359375 -0.03125,0.46875 -0.796875,0.46875 H 0.328125 V 0 h 5.1875 z m 0,0"
   id="path107" />
      </g>
      <g
   id="use51"
   transform="translate(18.542391,6.8080001)">
        <path
   d="m 1.359375,-0.78125 c 0,0.359375 -0.03125,0.46875 -0.796875,0.46875 H 0.328125 V 0 h 5.75 L 6.5,-2.578125 H 6.25 C 6,-1.03125 5.765625,-0.3125 4.0625,-0.3125 H 2.734375 C 2.265625,-0.3125 2.25,-0.375 2.25,-0.703125 V -3.375 h 0.890625 c 0.96875,0 1.078125,0.328125 1.078125,1.171875 h 0.25 V -4.84375 h -0.25 c 0,0.859375 -0.109375,1.171875 -1.078125,1.171875 H 2.25 v -2.40625 c 0,-0.328125 0.015625,-0.390625 0.484375,-0.390625 h 1.28125 c 1.53125,0 1.796875,0.546875 1.953125,1.9375 h 0.25 l -0.28125,-2.25 H 0.328125 v 0.3125 H 0.5625 c 0.765625,0 0.796875,0.109375 0.796875,0.46875 z m 0,0"
   id="path111" />
      </g>
      <g
   id="use53"
   transform="translate(25.322937,6.8080001)">
        <path
   d="m 0.5625,-3.40625 c 0,2.0625 1.609375,3.625 3.46875,3.625 1.625,0 2.59375,-1.390625 2.59375,-2.546875 C 6.625,-2.421875 6.625,-2.5 6.5,-2.5 6.390625,-2.5 6.390625,-2.4375 6.375,-2.328125 6.296875,-0.90625 5.234375,-0.09375 4.140625,-0.09375 c -0.609375,0 -2.5625,-0.328125 -2.5625,-3.3125 0,-2.96875 1.953125,-3.3125 2.5625,-3.3125 1.078125,0 1.96875,0.90625 2.171875,2.359375 C 6.328125,-4.21875 6.328125,-4.1875 6.46875,-4.1875 6.625,-4.1875 6.625,-4.21875 6.625,-4.421875 V -6.78125 c 0,-0.171875 0,-0.25 -0.109375,-0.25 -0.03125,0 -0.078125,0 -0.15625,0.125 l -0.5,0.734375 C 5.5,-6.53125 4.984375,-7.03125 4.03125,-7.03125 c -1.875,0 -3.46875,1.59375 -3.46875,3.625 z m 0,0"
   id="path115" />
      </g>
      <g
   id="use55"
   transform="translate(32.517925,6.8080001)">
        <path
   d="m 6.640625,-6.75 h -6.09375 l -0.1875,2.25 h 0.25 C 0.75,-6.109375 0.890625,-6.4375 2.40625,-6.4375 c 0.171875,0 0.4375,0 0.53125,0.015625 0.21875,0.046875 0.21875,0.15625 0.21875,0.375 v 5.265625 c 0,0.328125 0,0.46875 -1.046875,0.46875 H 1.703125 V 0 C 2.109375,-0.03125 3.125,-0.03125 3.59375,-0.03125 c 0.453125,0 1.484375,0 1.890625,0.03125 v -0.3125 h -0.40625 c -1.046875,0 -1.046875,-0.140625 -1.046875,-0.46875 v -5.265625 c 0,-0.1875 0,-0.328125 0.1875,-0.375 0.109375,-0.015625 0.375,-0.015625 0.5625,-0.015625 1.515625,0 1.65625,0.328125 1.796875,1.9375 h 0.25 z m 0,0"
   id="path119" />
      </g>
    </g>
  </g></g><g
       id="g3488"
       transform="translate(-55.027684,123.31958)"><g
         clip-path="url(#clipPath8794)"
         id="g75"
         transform="matrix(0.99376169,0,0,0.99376169,75.571396,7.7756247)">
    <g
   fill="#000000"
   fill-opacity="1"
   id="g73">
      <g
   id="use61"
   transform="translate(43.03046,6.8080001)">
        <path
   d="M 2.234375,-3.515625 V -6.09375 c 0,-0.234375 0,-0.359375 0.21875,-0.390625 C 2.546875,-6.5 2.84375,-6.5 3.046875,-6.5 c 0.890625,0 2,0.046875 2,1.484375 0,0.6875 -0.234375,1.5 -1.703125,1.5 z m 2.109375,0.125 C 5.296875,-3.625 6.078125,-4.234375 6.078125,-5.015625 6.078125,-5.96875 4.9375,-6.8125 3.484375,-6.8125 H 0.34375 V -6.5 h 0.25 c 0.765625,0 0.78125,0.109375 0.78125,0.46875 v 5.25 c 0,0.359375 -0.015625,0.46875 -0.78125,0.46875 h -0.25 V 0 c 0.359375,-0.03125 1.078125,-0.03125 1.453125,-0.03125 0.390625,0 1.109375,0 1.46875,0.03125 v -0.3125 h -0.25 c -0.765625,0 -0.78125,-0.109375 -0.78125,-0.46875 V -3.296875 H 3.375 c 0.15625,0 0.578125,0 0.9375,0.34375 0.375,0.34375 0.375,0.65625 0.375,1.328125 0,0.640625 0,1.046875 0.40625,1.421875 0.40625,0.359375 0.953125,0.421875 1.25,0.421875 0.78125,0 0.953125,-0.8125 0.953125,-1.09375 0,-0.0625 0,-0.171875 -0.125,-0.171875 -0.109375,0 -0.109375,0.09375 -0.125,0.15625 C 6.984375,-0.171875 6.640625,0 6.390625,0 5.90625,0 5.828125,-0.515625 5.6875,-1.4375 L 5.546875,-2.234375 C 5.375,-2.875 4.890625,-3.203125 4.34375,-3.390625 Z m 0,0"
   id="path123" />
      </g>
      <g
   id="use63"
   transform="translate(50.363934,6.8080001)">
        <path
   d="m 1.359375,-0.78125 c 0,0.359375 -0.03125,0.46875 -0.796875,0.46875 H 0.328125 V 0 h 5.75 L 6.5,-2.578125 H 6.25 C 6,-1.03125 5.765625,-0.3125 4.0625,-0.3125 H 2.734375 C 2.265625,-0.3125 2.25,-0.375 2.25,-0.703125 V -3.375 h 0.890625 c 0.96875,0 1.078125,0.328125 1.078125,1.171875 h 0.25 V -4.84375 h -0.25 c 0,0.859375 -0.109375,1.171875 -1.078125,1.171875 H 2.25 v -2.40625 c 0,-0.328125 0.015625,-0.390625 0.484375,-0.390625 h 1.28125 c 1.53125,0 1.796875,0.546875 1.953125,1.9375 h 0.25 l -0.28125,-2.25 H 0.328125 v 0.3125 H 0.5625 c 0.765625,0 0.796875,0.109375 0.796875,0.46875 z m 0,0"
   id="path127" />
      </g>
      <g
   id="use65"
   transform="translate(57.144478,6.8080001)">
        <path
   d="M 0.34375,-6.8125 V -6.5 h 0.25 c 0.765625,0 0.78125,0.109375 0.78125,0.46875 v 5.25 c 0,0.359375 -0.015625,0.46875 -0.78125,0.46875 h -0.25 V 0 H 4 C 5.671875,0 7.046875,-1.46875 7.046875,-3.34375 7.046875,-5.25 5.703125,-6.8125 4,-6.8125 Z m 2.375,6.5 C 2.25,-0.3125 2.234375,-0.375 2.234375,-0.703125 V -6.09375 C 2.234375,-6.4375 2.25,-6.5 2.71875,-6.5 h 1 c 0.625,0 1.3125,0.21875 1.8125,0.921875 0.4375,0.59375 0.515625,1.453125 0.515625,2.234375 0,1.09375 -0.1875,1.703125 -0.546875,2.1875 -0.203125,0.265625 -0.765625,0.84375 -1.765625,0.84375 z m 0,0"
   id="path131" />
      </g>
      <g
   id="use67"
   transform="translate(64.754906,6.8080001)">
        <path
   d="m 5.796875,-2.296875 c 0,1.40625 -0.96875,2.203125 -1.90625,2.203125 -0.46875,0 -1.640625,-0.25 -1.640625,-2.140625 V -6.03125 C 2.25,-6.390625 2.265625,-6.5 3.03125,-6.5 h 0.234375 v -0.3125 c -0.34375,0.03125 -1.078125,0.03125 -1.46875,0.03125 -0.375,0 -1.125,0 -1.46875,-0.03125 V -6.5 H 0.5625 c 0.765625,0 0.796875,0.109375 0.796875,0.46875 v 3.765625 c 0,1.390625 1.15625,2.484375 2.515625,2.484375 1.140625,0 2.03125,-0.921875 2.203125,-2.0625 0.03125,-0.203125 0.03125,-0.296875 0.03125,-0.6875 v -3.1875 c 0,-0.328125 0,-0.78125 1.03125,-0.78125 v -0.3125 c -0.359375,0.015625 -0.84375,0.03125 -1.171875,0.03125 -0.359375,0 -0.828125,-0.015625 -1.1875,-0.03125 V -6.5 c 1.015625,0 1.015625,0.46875 1.015625,0.734375 z m 0,0"
   id="path135" />
      </g>
      <g
   id="use69"
   transform="translate(72.22686,6.8080001)">
        <path
   d="m 0.5625,-3.40625 c 0,2.0625 1.609375,3.625 3.46875,3.625 1.625,0 2.59375,-1.390625 2.59375,-2.546875 C 6.625,-2.421875 6.625,-2.5 6.5,-2.5 6.390625,-2.5 6.390625,-2.4375 6.375,-2.328125 6.296875,-0.90625 5.234375,-0.09375 4.140625,-0.09375 c -0.609375,0 -2.5625,-0.328125 -2.5625,-3.3125 0,-2.96875 1.953125,-3.3125 2.5625,-3.3125 1.078125,0 1.96875,0.90625 2.171875,2.359375 C 6.328125,-4.21875 6.328125,-4.1875 6.46875,-4.1875 6.625,-4.1875 6.625,-4.21875 6.625,-4.421875 V -6.78125 c 0,-0.171875 0,-0.25 -0.109375,-0.25 -0.03125,0 -0.078125,0 -0.15625,0.125 l -0.5,0.734375 C 5.5,-6.53125 4.984375,-7.03125 4.03125,-7.03125 c -1.875,0 -3.46875,1.59375 -3.46875,3.625 z m 0,0"
   id="path139" />
      </g>
      <g
   id="use71"
   transform="translate(79.421844,6.8080001)">
        <path
   d="m 1.359375,-0.78125 c 0,0.359375 -0.03125,0.46875 -0.796875,0.46875 H 0.328125 V 0 h 5.75 L 6.5,-2.578125 H 6.25 C 6,-1.03125 5.765625,-0.3125 4.0625,-0.3125 H 2.734375 C 2.265625,-0.3125 2.25,-0.375 2.25,-0.703125 V -3.375 h 0.890625 c 0.96875,0 1.078125,0.328125 1.078125,1.171875 h 0.25 V -4.84375 h -0.25 c 0,0.859375 -0.109375,1.171875 -1.078125,1.171875 H 2.25 v -2.40625 c 0,-0.328125 0.015625,-0.390625 0.484375,-0.390625 h 1.28125 c 1.53125,0 1.796875,0.546875 1.953125,1.9375 h 0.25 l -0.28125,-2.25 H 0.328125 v 0.3125 H 0.5625 c 0.765625,0 0.796875,0.109375 0.796875,0.46875 z m 0,0"
   id="path143" />
      </g>
    </g>
  </g></g><g
       id="g3506"
       transform="translate(-226.16961,179.50106)"><g
         clip-path="url(#clipPath7750)"
         id="g93"
         transform="matrix(0.99376169,0,0,0.99376169,75.571396,7.7756247)">
    <g
   fill="#000000"
   fill-opacity="1"
   id="g91">
      <g
   id="use77"
   transform="translate(89.5299,6.8080001)">
        <path
   d="m 0.5625,-3.40625 c 0,2.0625 1.609375,3.625 3.46875,3.625 1.625,0 2.59375,-1.390625 2.59375,-2.546875 C 6.625,-2.421875 6.625,-2.5 6.5,-2.5 6.390625,-2.5 6.390625,-2.4375 6.375,-2.328125 6.296875,-0.90625 5.234375,-0.09375 4.140625,-0.09375 c -0.609375,0 -2.5625,-0.328125 -2.5625,-3.3125 0,-2.96875 1.953125,-3.3125 2.5625,-3.3125 1.078125,0 1.96875,0.90625 2.171875,2.359375 C 6.328125,-4.21875 6.328125,-4.1875 6.46875,-4.1875 6.625,-4.1875 6.625,-4.21875 6.625,-4.421875 V -6.78125 c 0,-0.171875 0,-0.25 -0.109375,-0.25 -0.03125,0 -0.078125,0 -0.15625,0.125 l -0.5,0.734375 C 5.5,-6.53125 4.984375,-7.03125 4.03125,-7.03125 c -1.875,0 -3.46875,1.59375 -3.46875,3.625 z m 0,0"
   id="path147" />
      </g>
      <g
   id="use79"
   transform="translate(96.724892,6.8080001)">
        <path
   d="m 7.1875,-3.375 c 0,-2.03125 -1.5,-3.65625 -3.3125,-3.65625 -1.796875,0 -3.3125,1.59375 -3.3125,3.65625 0,2.046875 1.53125,3.59375 3.3125,3.59375 1.8125,0 3.3125,-1.578125 3.3125,-3.59375 z M 3.875,-0.046875 c -0.953125,0 -2.296875,-0.875 -2.296875,-3.46875 0,-2.578125 1.46875,-3.265625 2.296875,-3.265625 0.859375,0 2.28125,0.703125 2.28125,3.265625 0,2.640625 -1.359375,3.46875 -2.28125,3.46875 z m 0,0"
   id="path151" />
      </g>
      <g
   id="use81"
   transform="translate(104.4738,6.8080001)">
        <path
   d="M 2.3125,-6.671875 C 2.21875,-6.796875 2.21875,-6.8125 2.03125,-6.8125 H 0.328125 V -6.5 H 0.625 c 0.140625,0 0.34375,0.015625 0.484375,0.015625 0.234375,0.03125 0.25,0.046875 0.25,0.234375 v 5.203125 c 0,0.265625 0,0.734375 -1.03125,0.734375 V 0 C 0.671875,-0.015625 1.171875,-0.03125 1.5,-0.03125 c 0.328125,0 0.8125,0.015625 1.15625,0.03125 v -0.3125 c -1.015625,0 -1.015625,-0.46875 -1.015625,-0.734375 v -5.1875 c 0.046875,0.046875 0.046875,0.0625 0.09375,0.125 L 5.796875,-0.125 C 5.890625,-0.015625 5.90625,0 5.96875,0 6.109375,0 6.109375,-0.0625 6.109375,-0.265625 v -5.5 c 0,-0.265625 0,-0.734375 1.03125,-0.734375 v -0.3125 c -0.359375,0.015625 -0.84375,0.03125 -1.171875,0.03125 -0.328125,0 -0.8125,-0.015625 -1.15625,-0.03125 V -6.5 c 1.015625,0 1.015625,0.46875 1.015625,0.734375 V -1.5 Z m 0,0"
   id="path155" />
      </g>
      <g
   id="use83"
   transform="translate(111.94575,6.8080001)">
        <path
   d="M 2.3125,-6.671875 C 2.21875,-6.796875 2.21875,-6.8125 2.03125,-6.8125 H 0.328125 V -6.5 H 0.625 c 0.140625,0 0.34375,0.015625 0.484375,0.015625 0.234375,0.03125 0.25,0.046875 0.25,0.234375 v 5.203125 c 0,0.265625 0,0.734375 -1.03125,0.734375 V 0 C 0.671875,-0.015625 1.171875,-0.03125 1.5,-0.03125 c 0.328125,0 0.8125,0.015625 1.15625,0.03125 v -0.3125 c -1.015625,0 -1.015625,-0.46875 -1.015625,-0.734375 v -5.1875 c 0.046875,0.046875 0.046875,0.0625 0.09375,0.125 L 5.796875,-0.125 C 5.890625,-0.015625 5.90625,0 5.96875,0 6.109375,0 6.109375,-0.0625 6.109375,-0.265625 v -5.5 c 0,-0.265625 0,-0.734375 1.03125,-0.734375 v -0.3125 c -0.359375,0.015625 -0.84375,0.03125 -1.171875,0.03125 -0.328125,0 -0.8125,-0.015625 -1.15625,-0.03125 V -6.5 c 1.015625,0 1.015625,0.46875 1.015625,0.734375 V -1.5 Z m 0,0"
   id="path159" />
      </g>
      <g
   id="use85"
   transform="translate(119.4177,6.8080001)">
        <path
   d="m 1.359375,-0.78125 c 0,0.359375 -0.03125,0.46875 -0.796875,0.46875 H 0.328125 V 0 h 5.75 L 6.5,-2.578125 H 6.25 C 6,-1.03125 5.765625,-0.3125 4.0625,-0.3125 H 2.734375 C 2.265625,-0.3125 2.25,-0.375 2.25,-0.703125 V -3.375 h 0.890625 c 0.96875,0 1.078125,0.328125 1.078125,1.171875 h 0.25 V -4.84375 h -0.25 c 0,0.859375 -0.109375,1.171875 -1.078125,1.171875 H 2.25 v -2.40625 c 0,-0.328125 0.015625,-0.390625 0.484375,-0.390625 h 1.28125 c 1.53125,0 1.796875,0.546875 1.953125,1.9375 h 0.25 l -0.28125,-2.25 H 0.328125 v 0.3125 H 0.5625 c 0.765625,0 0.796875,0.109375 0.796875,0.46875 z m 0,0"
   id="path163" />
      </g>
      <g
   id="use87"
   transform="translate(126.19825,6.8080001)">
        <path
   d="m 0.5625,-3.40625 c 0,2.0625 1.609375,3.625 3.46875,3.625 1.625,0 2.59375,-1.390625 2.59375,-2.546875 C 6.625,-2.421875 6.625,-2.5 6.5,-2.5 6.390625,-2.5 6.390625,-2.4375 6.375,-2.328125 6.296875,-0.90625 5.234375,-0.09375 4.140625,-0.09375 c -0.609375,0 -2.5625,-0.328125 -2.5625,-3.3125 0,-2.96875 1.953125,-3.3125 2.5625,-3.3125 1.078125,0 1.96875,0.90625 2.171875,2.359375 C 6.328125,-4.21875 6.328125,-4.1875 6.46875,-4.1875 6.625,-4.1875 6.625,-4.21875 6.625,-4.421875 V -6.78125 c 0,-0.171875 0,-0.25 -0.109375,-0.25 -0.03125,0 -0.078125,0 -0.15625,0.125 l -0.5,0.734375 C 5.5,-6.53125 4.984375,-7.03125 4.03125,-7.03125 c -1.875,0 -3.46875,1.59375 -3.46875,3.625 z m 0,0"
   id="path167" />
      </g>
      <g
   id="use89"
   transform="translate(133.39323,6.8080001)">
        <path
   d="m 6.640625,-6.75 h -6.09375 l -0.1875,2.25 h 0.25 C 0.75,-6.109375 0.890625,-6.4375 2.40625,-6.4375 c 0.171875,0 0.4375,0 0.53125,0.015625 0.21875,0.046875 0.21875,0.15625 0.21875,0.375 v 5.265625 c 0,0.328125 0,0.46875 -1.046875,0.46875 H 1.703125 V 0 C 2.109375,-0.03125 3.125,-0.03125 3.59375,-0.03125 c 0.453125,0 1.484375,0 1.890625,0.03125 v -0.3125 h -0.40625 c -1.046875,0 -1.046875,-0.140625 -1.046875,-0.46875 v -5.265625 c 0,-0.1875 0,-0.328125 0.1875,-0.375 0.109375,-0.015625 0.375,-0.015625 0.5625,-0.015625 1.515625,0 1.65625,0.328125 1.796875,1.9375 h 0.25 z m 0,0"
   id="path171" />
      </g>
    </g>
  </g></g><g
       style="fill:#000000"
       id="g5332"
       transform="matrix(8.8194444,0,0,8.8194444,177.23864,-96.557916)"><g
         id="g5699"><path
           style="fill:none;fill-opacity:0.713335;stroke:#000000;stroke-width:0.226772;stroke-linecap:round;stroke-linejoin:round;stroke-dasharray:none;stroke-opacity:1;marker-end:url(#Arrow2)"
           d="m -18.85635,14.189945 c 2.538503,0.209739 4.341673,0.786981 6.213808,2.837842"
           id="path5813"
           sodipodi:nodetypes="cc" /><path
           style="fill:none;fill-opacity:0.713335;stroke:#000000;stroke-width:0.226772;stroke-linecap:round;stroke-linejoin:round;stroke-dasharray:none;stroke-opacity:1;marker-end:url(#Arrow2-3)"
           d="m -12.642542,24.227787 c -0.96,1.589181 -1.430238,3.558308 -5.83047,3.558308"
           id="path5813-9"
           sodipodi:nodetypes="cc" /><path
           style="fill:none;fill-opacity:0.713335;stroke:#000000;stroke-width:0.226772;stroke-linecap:round;stroke-linejoin:round;stroke-dasharray:none;stroke-opacity:1;marker-end:url(#Arrow2-3-2)"
           d="m -22.351914,29.724852 c 0.96,1.589181 1.430238,3.558308 5.830471,3.558308"
           id="path5813-9-4"
           sodipodi:nodetypes="cc" /></g></g></g></svg>
