<?xml version="1.0" encoding="UTF-8" standalone="no"?>
<!-- Created with Inkscape (http://www.inkscape.org/) -->

<svg
   version="1.1"
   id="svg787"
   width="328"
   height="122.66667"
   viewBox="0 0 328 122.66667"
   sodipodi:docname="tottering.svg"
   inkscape:version="1.2.2 (b0a8486541, 2022-12-01)"
   xmlns:inkscape="http://www.inkscape.org/namespaces/inkscape"
   xmlns:sodipodi="http://sodipodi.sourceforge.net/DTD/sodipodi-0.dtd"
   xmlns="http://www.w3.org/2000/svg"
   xmlns:svg="http://www.w3.org/2000/svg">
  <defs
     id="defs791" />
  <sodipodi:namedview
     id="namedview789"
     pagecolor="#ffffff"
     bordercolor="#000000"
     borderopacity="0.25"
     inkscape:showpageshadow="2"
     inkscape:pageopacity="0.0"
     inkscape:pagecheckerboard="0"
     inkscape:deskcolor="#d1d1d1"
     showgrid="false"
     inkscape:zoom="5.179878"
     inkscape:cx="163.90347"
     inkscape:cy="61.391407"
     inkscape:window-width="3840"
     inkscape:window-height="1531"
     inkscape:window-x="0"
     inkscape:window-y="32"
     inkscape:window-maximized="1"
     inkscape:current-layer="g795">
    <inkscape:page
       x="0"
       y="0"
       id="page793"
       width="328"
       height="122.66667" />
  </sodipodi:namedview>
  <g
     id="g795"
     inkscape:groupmode="layer"
     inkscape:label="Page 1"
     transform="matrix(1.3333333,0,0,-1.3333333,0,122.66667)">
    <g
       id="g797"
       transform="scale(0.1)">
      <path
         d="m 302.031,597.93 c 0,-73.16 -59.332,-132.461 -132.5,-132.461 -73.1599,0 -132.4997,59.301 -132.4997,132.461 0,73.199 59.3398,132.5 132.4997,132.5 73.168,0 132.5,-59.301 132.5,-132.5 z"
         style="fill:none;stroke:#000000;stroke-width:20.3153;stroke-linecap:round;stroke-linejoin:round;stroke-miterlimit:4;stroke-dasharray:none;stroke-opacity:1"
         id="path799" />
      <path
         d="m 275.16,150.352 c 0,-73.2036 -59.34,-132.5004 -132.5,-132.5004 -73.1717,0 -132.4998,59.2968 -132.4998,132.5004 0,73.168 59.3281,132.5 132.4998,132.5 73.16,0 132.5,-59.332 132.5,-132.5 z"
         style="fill:none;stroke:#000000;stroke-width:20.3153;stroke-linecap:round;stroke-linejoin:round;stroke-miterlimit:4;stroke-dasharray:none;stroke-opacity:1"
         id="path801" />
      <path
         d="m 916.02,362.23 c 0,-73.171 -59.34,-132.5 -132.5,-132.5 -73.168,0 -132.5,59.329 -132.5,132.5 0,73.161 59.332,132.5 132.5,132.5 73.16,0 132.5,-59.339 132.5,-132.5 z"
         style="fill:none;stroke:#000000;stroke-width:20.3153;stroke-linecap:round;stroke-linejoin:round;stroke-miterlimit:4;stroke-dasharray:none;stroke-opacity:1"
         id="path803" />
      <path
         d="M 293.199,550.469 659.84,409.691"
         style="fill:none;stroke:#000000;stroke-width:18.5479;stroke-linecap:butt;stroke-linejoin:miter;stroke-miterlimit:4;stroke-dasharray:none;stroke-opacity:1"
         id="path805" />
      <g
         id="g807"
         transform="scale(10)">
        <text
           xml:space="preserve"
           transform="matrix(1,0,0,-1,11.8211,52.7848)"
           style="font-style:oblique;font-variant:normal;font-size:19.2309px;font-family:'DejaVu Sans';-inkscape-font-specification:DejaVuSans-Oblique;writing-mode:lr-tb;fill:#000000;fill-opacity:1;fill-rule:nonzero;stroke:none"
           id="text815"><tspan
             x="0"
             y="0"
             id="tspan809">1</tspan><tspan
             x="60.9715"
             y="23.6992"
             id="tspan811">2</tspan><tspan
             x="-3.0725999"
             y="44.750801"
             id="tspan813">3</tspan></text>
      </g>
      <path
         d="M 268.441,191.91 657.73,320.621"
         style="fill:none;stroke:#000000;stroke-width:18.5479;stroke-linecap:butt;stroke-linejoin:miter;stroke-miterlimit:4;stroke-dasharray:none;stroke-opacity:1"
         id="path817" />
      <path
         d="m 1259.61,777.34 c 0,-73.16 -59.3,-132.5 -132.46,-132.5 -73.2,0 -132.502,59.34 -132.502,132.5 0,73.172 59.302,132.5 132.502,132.5 73.16,0 132.46,-59.328 132.46,-132.5 z"
         style="fill:none;stroke:#000000;stroke-width:20.3153;stroke-linecap:round;stroke-linejoin:round;stroke-miterlimit:4;stroke-dasharray:none;stroke-opacity:1"
         id="path819" />
      <g
         id="g821"
         transform="scale(10)">
        <text
           xml:space="preserve"
           transform="matrix(1,0,0,-1,107.107,70.5984)"
           style="font-style:oblique;font-variant:normal;font-size:19.2309px;font-family:'DejaVu Sans';-inkscape-font-specification:DejaVuSans-Oblique;writing-mode:lr-tb;fill:#000000;fill-opacity:1;fill-rule:nonzero;stroke:none"
           id="text825"><tspan
             x="0"
             y="0"
             id="tspan823">4</tspan></text>
      </g>
      <path
         d="m 1614.92,228.441 c 0,-73.171 -59.33,-132.4605 -132.5,-132.4605 -73.2,0 -132.5,59.2895 -132.5,132.4605 0,73.2 59.3,132.5 132.5,132.5 73.17,0 132.5,-59.3 132.5,-132.5 z"
         style="fill:none;stroke:#000000;stroke-width:20.3153;stroke-linecap:round;stroke-linejoin:round;stroke-miterlimit:4;stroke-dasharray:none;stroke-opacity:1"
         id="path827" />
      <g
         id="g829"
         transform="scale(10)">
        <text
           xml:space="preserve"
           transform="matrix(1,0,0,-1,142.461,15.7086)"
           style="font-style:oblique;font-variant:normal;font-size:19.2309px;font-family:'DejaVu Sans';-inkscape-font-specification:DejaVuSans-Oblique;writing-mode:lr-tb;fill:#000000;fill-opacity:1;fill-rule:nonzero;stroke:none"
           id="text833"><tspan
             x="0"
             y="0"
             id="tspan831">5</tspan></text>
      </g>
      <path
         d="m 2443.67,206.52 c 0,-73.161 -59.29,-132.5005 -132.5,-132.5005 -73.16,0 -132.46,59.3395 -132.46,132.5005 0,73.171 59.3,132.5 132.46,132.5 73.21,0 132.5,-59.329 132.5,-132.5 z"
         style="fill:none;stroke:#000000;stroke-width:20.3153;stroke-linecap:round;stroke-linejoin:round;stroke-miterlimit:4;stroke-dasharray:none;stroke-opacity:1"
         id="path835" />
      <g
         id="g837"
         transform="scale(10)">
        <text
           xml:space="preserve"
           transform="matrix(1,0,0,-1,224.822,13.5164)"
           style="font-style:oblique;font-variant:normal;font-size:19.2309px;font-family:'DejaVu Sans';-inkscape-font-specification:DejaVuSans-Oblique;writing-mode:lr-tb;fill:#000000;fill-opacity:1;fill-rule:nonzero;stroke:none"
           id="text841"><tspan
             x="0"
             y="0"
             id="tspan839">6</tspan></text>
      </g>
      <path
         d="M 868.012,464.301 1042.66,675.27"
         style="fill:none;stroke:#000000;stroke-width:18.5479;stroke-linecap:butt;stroke-linejoin:miter;stroke-miterlimit:4;stroke-dasharray:none;stroke-opacity:1"
         id="path843" />
      <path
         d="m 1614.84,224.961 563.91,-14.922"
         style="fill:none;stroke:#000000;stroke-width:18.5479;stroke-linecap:butt;stroke-linejoin:miter;stroke-miterlimit:4;stroke-dasharray:none;stroke-opacity:1"
         id="path845" />
      <path
         d="M 913.629,337.301 1352.27,253.359"
         style="fill:none;stroke:#000000;stroke-width:18.5479;stroke-linecap:butt;stroke-linejoin:miter;stroke-miterlimit:4;stroke-dasharray:none;stroke-opacity:1"
         id="path847" />
      <path
         d="m 347.578,613.238 277.5,-115.617"
         style="fill:none;stroke:#0000ff;stroke-width:12.5264;stroke-linecap:butt;stroke-linejoin:miter;stroke-miterlimit:1;stroke-dasharray:25.0528, 12.5264;stroke-dashoffset:0;stroke-opacity:1"
         id="path849" />
      <path
         d="m 576.25,550.82 64.18,-59.449 -87.418,3.707 c 18.976,11.402 28.277,33.942 23.238,55.742 z"
         style="fill:#0000ff;fill-opacity:1;fill-rule:evenodd;stroke:none"
         id="path851" />
      <path
         d="m 576.25,550.824 64.176,-59.457 -87.422,3.715 c 18.988,11.406 28.281,33.938 23.246,55.742 z"
         style="fill:none;stroke:#0000ff;stroke-width:4.6974;stroke-linecap:butt;stroke-linejoin:round;stroke-miterlimit:4;stroke-dasharray:none;stroke-opacity:1"
         id="path853" />
      <path
         d="m 973.48,408.16 341.87,-78.39"
         style="fill:none;stroke:#ff0000;stroke-width:12.5264;stroke-linecap:butt;stroke-linejoin:miter;stroke-miterlimit:1;stroke-dasharray:25.0528, 12.5264;stroke-dashoffset:0;stroke-opacity:1"
         id="path855" />
      <path
         d="m 1258.24,373.949 73.28,-47.777 -86.75,-11.094 c 16.75,14.453 22.14,38.242 13.47,58.871 z"
         style="fill:#ff0000;fill-opacity:1;fill-rule:evenodd;stroke:none"
         id="path857" />
      <path
         d="m 1258.24,373.945 73.28,-47.773 -86.75,-11.094 c 16.76,14.449 22.14,38.246 13.47,58.867 z"
         style="fill:none;stroke:#ff0000;stroke-width:4.69739;stroke-linecap:butt;stroke-linejoin:round;stroke-miterlimit:4;stroke-dasharray:none;stroke-opacity:1"
         id="path859" />
      <path
         d="M 1295.47,172.73 943.75,243.711"
         style="fill:none;stroke:#ff0000;stroke-width:12.5264;stroke-linecap:butt;stroke-linejoin:miter;stroke-miterlimit:1;stroke-dasharray:25.0528, 12.5264;stroke-dashoffset:0;stroke-opacity:1"
         id="path861" />
      <path
         d="m 1001.99,201.02 -74.529,45.859 86.489,13.351 c -16.372,-14.878 -21.141,-38.82 -11.96,-59.21 z"
         style="fill:#ff0000;fill-opacity:1;fill-rule:evenodd;stroke:none"
         id="path863" />
      <path
         d="m 1001.99,201.016 -74.525,45.863 86.485,13.355 c -16.368,-14.879 -21.137,-38.832 -11.96,-59.218 z"
         style="fill:none;stroke:#ff0000;stroke-width:4.69739;stroke-linecap:butt;stroke-linejoin:round;stroke-miterlimit:4;stroke-dasharray:none;stroke-opacity:1"
         id="path865" />
    </g>
  </g>
</svg>
