<?xml version="1.0" encoding="UTF-8" standalone="no"?>
<!-- Created with Inkscape (http://www.inkscape.org/) -->

<svg
   version="1.1"
   id="svg20119"
   width="654.896"
   height="220.37894"
   viewBox="0 0 654.896 220.37893"
   sodipodi:docname="correspondance_mapping_edit_path.svg"
   inkscape:version="1.2.2 (b0a8486541, 2022-12-01)"
   xmlns:inkscape="http://www.inkscape.org/namespaces/inkscape"
   xmlns:sodipodi="http://sodipodi.sourceforge.net/DTD/sodipodi-0.dtd"
   xmlns="http://www.w3.org/2000/svg"
   xmlns:svg="http://www.w3.org/2000/svg">
  <defs
     id="defs20123" />
  <sodipodi:namedview
     id="namedview20121"
     pagecolor="#ffffff"
     bordercolor="#000000"
     borderopacity="0.25"
     inkscape:showpageshadow="2"
     inkscape:pageopacity="0.0"
     inkscape:pagecheckerboard="0"
     inkscape:deskcolor="#d1d1d1"
     showgrid="false"
     inkscape:zoom="1.4265509"
     inkscape:cx="444.77907"
     inkscape:cy="115.66359"
     inkscape:window-width="1920"
     inkscape:window-height="1131"
     inkscape:window-x="0"
     inkscape:window-y="32"
     inkscape:window-maximized="1"
     inkscape:current-layer="g20127">
    <inkscape:page
       x="0"
       y="0"
       id="page20125"
       width="654.896"
       height="220.37894" />
  </sodipodi:namedview>
  <g
     id="g20127"
     inkscape:groupmode="layer"
     inkscape:label="Page 1"
     transform="matrix(1.3333333,0,0,-1.3333333,0,353.0848)">
    <path
       d="m 132.789,57.892 v 0.25 l 0.012,0.082 v 0.078 l 0.011,0.082 0.012,0.066 v 0.078 l 0.012,0.071 0.012,0.066 0.011,0.071 0.02,0.066 0.023,0.125 0.036,0.113 0.046,0.113 0.032,0.106 0.093,0.18 0.055,0.093 0.047,0.079 0.055,0.066 0.058,0.07 0.059,0.067 0.066,0.058 0.059,0.055 0.066,0.047 0.059,0.047 0.066,0.035 0.059,0.031 0.066,0.035 0.071,0.024 0.054,0.023 0.071,0.012 0.054,0.019 0.071,0.012 h 0.054 l 0.059,0.012 h 0.054 c 0.106,0 0.821,-0.012 1.219,-0.422 -0.465,-0.031 -0.535,-0.375 -0.535,-0.52 0,-0.296 0.203,-0.523 0.524,-0.523 0.296,0 0.523,0.191 0.523,0.531 0,0.774 -0.863,1.219 -1.742,1.219 -1.41,0 -2.453,-1.227 -2.453,-2.641 0,-1.441 1.125,-2.57 2.433,-2.57 1.524,0 1.887,1.367 1.887,1.48 0,0.114 -0.113,0.114 -0.148,0.114 -0.102,0 -0.125,-0.047 -0.149,-0.114 -0.328,-1.058 -1.066,-1.195 -1.488,-1.195 -0.594,0 -1.594,0.488 -1.594,2.309 z"
       style="fill:#000000;fill-opacity:1;fill-rule:evenodd;stroke:none"
       id="path20131" />
    <path
       d="m 140.238,52.708 v 0.043 h -0.011 v 0.012 l -0.008,0.012 -0.012,0.011 v 0.012 h -0.012 v 0.012 l -0.011,0.011 v 0.012 h -0.012 l -0.012,0.012 -0.012,0.008 -0.011,0.011 v 0.012 h -0.012 v 0.012 h -0.012 V 52.9 l -0.011,0.011 h -0.012 v 0.012 l -0.008,0.012 -0.012,0.011 h -0.011 v 0.012 c -1.422,1.43 -1.786,3.57 -1.786,5.297 0,1.981 0.43,3.949 1.829,5.371 0.136,0.137 0.136,0.16 0.136,0.18 0,0.094 -0.031,0.113 -0.113,0.113 -0.102,0 -1.125,-0.762 -1.797,-2.203 -0.578,-1.242 -0.715,-2.504 -0.715,-3.461 0,-0.875 0.125,-2.25 0.75,-3.523 0.684,-1.399 1.66,-2.141 1.762,-2.141 0.082,0 0.113,0.035 0.113,0.117 z"
       style="fill:#000000;fill-opacity:1;fill-rule:evenodd;stroke:none"
       id="path20133" />
    <path
       d="m 171.031,58.028 -0.058,-0.042 -0.055,-0.036 -0.047,-0.047 -0.055,-0.042 -0.046,-0.047 -0.059,-0.047 -0.043,-0.043 -0.047,-0.035 -0.035,-0.047 -0.043,-0.043 -0.047,-0.035 -0.035,-0.047 -0.031,-0.035 -0.035,-0.043 -0.102,-0.102 -0.023,-0.035 -0.036,-0.035 -0.023,-0.035 -0.023,-0.032 -0.02,-0.035 -0.023,-0.023 -0.024,-0.035 -0.012,-0.02 -0.023,-0.023 -0.024,-0.047 -0.019,-0.024 -0.012,-0.011 v -0.02 L 170.02,56.95 c -0.512,-0.785 -0.606,-1.504 -0.606,-1.515 0,-0.137 0.137,-0.137 0.231,-0.137 0.191,0 0.203,0.023 0.25,0.23 0.261,1.114 0.921,2.071 2.207,2.583 0.132,0.042 0.168,0.066 0.168,0.144 0,0.082 -0.067,0.117 -0.09,0.129 -0.5,0.191 -1.868,0.762 -2.297,2.66 -0.035,0.137 -0.047,0.172 -0.238,0.172 -0.094,0 -0.231,0 -0.231,-0.137 0,-0.023 0.106,-0.73 0.582,-1.492 0.227,-0.34 0.559,-0.738 1.035,-1.101 h -8.418 c -0.203,0 -0.41,0 -0.41,-0.231 0,-0.227 0.207,-0.227 0.41,-0.227 z"
       style="fill:#000000;fill-opacity:1;fill-rule:evenodd;stroke:none"
       id="path20135" />
    <path
       d="m 177.66,57.997 0.106,-0.035 0.031,-0.012 0.07,-0.023 0.031,-0.012 0.036,-0.012 h 0.023 l 0.035,-0.011 0.067,-0.012 0.07,-0.012 0.055,-0.007 h 0.058 l 0.055,-0.012 h 0.285 l 0.047,-0.012 v 0.25 c -0.238,0 -0.387,0 -0.594,0.055 0.262,0.094 0.492,0.105 0.684,0.105 0.285,0 0.332,-0.011 0.535,-0.07 -0.172,-0.078 -0.195,-0.09 -0.625,-0.09 v -0.25 c 0.297,0 0.922,0 0.922,0.352 0,0.273 -0.399,0.308 -0.832,0.308 -0.239,0 -0.625,-0.023 -1.047,-0.219 -0.262,0.137 -0.453,0.356 -0.453,0.661 0,0.695 1.113,1.105 2.125,1.105 0.183,0 0.594,0 1.047,-0.32 0.125,-0.09 0.148,-0.113 0.226,-0.113 0.149,0 0.309,0.148 0.309,0.308 0,0.215 -0.696,0.649 -1.469,0.649 -1.297,0 -2.523,-0.766 -2.523,-1.629 0,-0.489 0.41,-0.774 0.453,-0.809 -0.668,-0.375 -1.035,-1 -1.035,-1.523 0,-0.739 0.648,-1.434 1.855,-1.434 1.492,0 2.129,1.004 2.129,1.172 0,0.07 -0.059,0.113 -0.125,0.113 -0.059,0 -0.094,-0.043 -0.117,-0.078 -0.156,-0.262 -0.43,-0.684 -1.797,-0.684 -0.68,0 -1.649,0.172 -1.649,0.981 0,0.387 0.321,0.988 1.012,1.32 z"
       style="fill:#000000;fill-opacity:1;fill-rule:evenodd;stroke:none"
       id="path20137" />
    <path
       d="m 184.621,58.255 v 0.356 l -0.012,0.191 -0.011,0.207 -0.02,0.203 -0.023,0.215 -0.035,0.23 -0.036,0.227 -0.043,0.227 -0.058,0.238 -0.055,0.238 -0.07,0.242 -0.078,0.239 -0.094,0.25 -0.043,0.113 -0.059,0.125 -0.054,0.125 -0.059,0.113 c -0.672,1.399 -1.648,2.125 -1.762,2.125 -0.07,0 -0.113,-0.043 -0.113,-0.113 0,-0.02 0,-0.043 0.215,-0.25 1.113,-1.125 1.75,-2.922 1.75,-5.301 0,-1.934 -0.418,-3.922 -1.816,-5.355 -0.149,-0.137 -0.149,-0.161 -0.149,-0.192 0,-0.07 0.043,-0.117 0.113,-0.117 0.114,0 1.137,0.773 1.797,2.219 0.578,1.242 0.715,2.504 0.715,3.445 z"
       style="fill:#000000;fill-opacity:1;fill-rule:evenodd;stroke:none"
       id="path20139" />
    <g
       id="g20141"
       transform="matrix(1,0,0,-1,0,264.61441)">
      <path
         d="m 156.531,205.949 c 0,4.102 -3.394,7.426 -7.578,7.426 -4.187,0 -7.578,-3.324 -7.578,-7.426 0,-4.101 3.391,-7.429 7.578,-7.429 4.184,0 7.578,3.328 7.578,7.429 z"
         style="fill:#ffffff;fill-opacity:1;fill-rule:nonzero;stroke:#000000;stroke-width:1.3736;stroke-linecap:round;stroke-linejoin:round;stroke-miterlimit:4;stroke-dasharray:none;stroke-opacity:1"
         id="path20143" />
    </g>
    <text
       xml:space="preserve"
       transform="scale(1,-1)"
       style="font-variant:normal;font-weight:normal;font-size:10.9888px;font-family:'DejaVu Sans';-inkscape-font-specification:DejaVuSans;writing-mode:lr-tb;fill:#666666;fill-opacity:1;fill-rule:nonzero;stroke:none"
       id="text20147"
       x="145.10426"
       y="-54.666893"><tspan
         x="145.10426"
         y="-54.666893"
         id="tspan20145">C</tspan></text>
    <g
       id="g20149"
       transform="matrix(1,0,0,-1,0,264.61441)">
      <path
         d="m 152.184,202.559 v 1.14 c -0.368,-0.344 -0.758,-0.597 -1.172,-0.765 -0.418,-0.164 -0.856,-0.25 -1.313,-0.25 -0.918,0 -1.621,0.281 -2.109,0.843 -0.481,0.563 -0.719,1.371 -0.719,2.422 0,1.063 0.238,1.875 0.719,2.438 0.488,0.554 1.191,0.828 2.109,0.828 0.457,0 0.895,-0.082 1.313,-0.25 0.414,-0.164 0.804,-0.422 1.172,-0.766 v 1.141 c -0.387,0.25 -0.793,0.445 -1.219,0.578 -0.418,0.125 -0.86,0.187 -1.328,0.187 -1.219,0 -2.18,-0.367 -2.875,-1.109 -0.7,-0.738 -1.047,-1.754 -1.047,-3.047 0,-1.281 0.347,-2.289 1.047,-3.031 0.695,-0.75 1.656,-1.125 2.875,-1.125 0.476,0 0.925,0.07 1.343,0.203 0.426,0.125 0.829,0.313 1.204,0.563 z"
         style="fill:none;stroke:#666666;stroke-width:1.3736;stroke-linecap:butt;stroke-linejoin:miter;stroke-miterlimit:4;stroke-dasharray:none;stroke-opacity:1"
         id="path20151" />
    </g>
    <path
       d="m 132.789,39.064 v 0.25 l 0.012,0.082 v 0.078 l 0.011,0.078 0.012,0.07 V 39.7 l 0.012,0.071 0.012,0.066 0.011,0.07 0.02,0.067 0.023,0.125 0.036,0.113 0.046,0.113 0.032,0.102 0.046,0.094 0.047,0.09 0.055,0.089 0.047,0.082 0.055,0.067 0.058,0.07 0.059,0.067 0.066,0.058 0.059,0.055 0.066,0.047 0.059,0.047 0.066,0.031 0.059,0.035 0.066,0.035 0.071,0.024 0.054,0.019 0.071,0.012 0.054,0.023 0.071,0.012 h 0.054 l 0.059,0.012 h 0.054 c 0.106,0 0.821,-0.012 1.219,-0.422 -0.465,-0.031 -0.535,-0.375 -0.535,-0.524 0,-0.293 0.203,-0.523 0.524,-0.523 0.296,0 0.523,0.195 0.523,0.535 0,0.774 -0.863,1.219 -1.742,1.219 -1.41,0 -2.453,-1.231 -2.453,-2.641 0,-1.445 1.125,-2.57 2.433,-2.57 1.524,0 1.887,1.367 1.887,1.48 0,0.114 -0.113,0.114 -0.148,0.114 -0.102,0 -0.125,-0.047 -0.149,-0.114 -0.328,-1.058 -1.066,-1.195 -1.488,-1.195 -0.594,0 -1.594,0.488 -1.594,2.309 z"
       style="fill:#000000;fill-opacity:1;fill-rule:evenodd;stroke:none"
       id="path20153" />
    <path
       d="m 140.238,33.876 v 0.047 h -0.011 v 0.012 l -0.008,0.011 -0.012,0.012 v 0.012 h -0.012 v 0.012 l -0.011,0.007 v 0.012 h -0.012 l -0.035,0.035 v 0.012 h -0.012 v 0.012 h -0.012 v 0.011 l -0.011,0.012 h -0.012 v 0.012 l -0.008,0.012 -0.012,0.007 h -0.011 v 0.012 c -1.422,1.434 -1.786,3.574 -1.786,5.301 0,1.98 0.43,3.949 1.829,5.371 0.136,0.137 0.136,0.156 0.136,0.18 0,0.09 -0.031,0.113 -0.113,0.113 -0.102,0 -1.125,-0.762 -1.797,-2.207 -0.578,-1.238 -0.715,-2.5 -0.715,-3.457 0,-0.875 0.125,-2.25 0.75,-3.524 0.684,-1.402 1.66,-2.14 1.762,-2.14 0.082,0 0.113,0.035 0.113,0.113 z"
       style="fill:#000000;fill-opacity:1;fill-rule:evenodd;stroke:none"
       id="path20155" />
    <path
       d="m 171.031,39.2 -0.058,-0.047 -0.055,-0.031 -0.047,-0.047 -0.055,-0.047 -0.046,-0.042 -0.059,-0.047 -0.043,-0.047 -0.047,-0.031 -0.035,-0.047 -0.043,-0.047 -0.047,-0.031 -0.035,-0.047 -0.031,-0.036 -0.035,-0.042 -0.071,-0.071 -0.031,-0.035 -0.023,-0.031 -0.036,-0.035 -0.046,-0.071 -0.02,-0.031 -0.023,-0.023 -0.024,-0.036 -0.012,-0.023 -0.023,-0.019 -0.024,-0.047 -0.019,-0.024 -0.012,-0.012 V 38.13 l -0.011,-0.012 c -0.512,-0.781 -0.606,-1.5 -0.606,-1.511 0,-0.137 0.137,-0.137 0.231,-0.137 0.191,0 0.203,0.023 0.25,0.226 0.261,1.118 0.921,2.071 2.207,2.582 0.132,0.047 0.168,0.071 0.168,0.149 0,0.082 -0.067,0.113 -0.09,0.125 -0.5,0.195 -1.868,0.762 -2.297,2.664 -0.035,0.137 -0.047,0.168 -0.238,0.168 -0.094,0 -0.231,0 -0.231,-0.137 0,-0.019 0.106,-0.726 0.582,-1.488 0.227,-0.34 0.559,-0.738 1.035,-1.106 h -8.418 c -0.203,0 -0.41,0 -0.41,-0.226 0,-0.227 0.207,-0.227 0.41,-0.227 z"
       style="fill:#000000;fill-opacity:1;fill-rule:evenodd;stroke:none"
       id="path20157" />
    <path
       d="m 177.66,39.165 0.07,-0.023 0.036,-0.008 0.031,-0.012 0.07,-0.023 0.031,-0.012 0.036,-0.012 h 0.023 l 0.035,-0.011 0.067,-0.012 0.07,-0.012 0.055,-0.012 h 0.058 l 0.055,-0.011 h 0.285 l 0.047,-0.008 v 0.25 c -0.238,0 -0.387,0 -0.594,0.055 0.262,0.089 0.492,0.101 0.684,0.101 0.285,0 0.332,-0.012 0.535,-0.066 -0.172,-0.082 -0.195,-0.09 -0.625,-0.09 v -0.25 c 0.297,0 0.922,0 0.922,0.352 0,0.273 -0.399,0.304 -0.832,0.304 -0.239,0 -0.625,-0.019 -1.047,-0.215 -0.262,0.137 -0.453,0.352 -0.453,0.661 0,0.695 1.113,1.101 2.125,1.101 0.183,0 0.594,0 1.047,-0.316 0.125,-0.09 0.148,-0.114 0.226,-0.114 0.149,0 0.309,0.149 0.309,0.305 0,0.219 -0.696,0.649 -1.469,0.649 -1.297,0 -2.523,-0.762 -2.523,-1.625 0,-0.489 0.41,-0.774 0.453,-0.809 -0.668,-0.375 -1.035,-1 -1.035,-1.524 0,-0.738 0.648,-1.433 1.855,-1.433 1.492,0 2.129,1 2.129,1.172 0,0.07 -0.059,0.113 -0.125,0.113 -0.059,0 -0.094,-0.043 -0.117,-0.078 -0.156,-0.262 -0.43,-0.684 -1.797,-0.684 -0.68,0 -1.649,0.172 -1.649,0.981 0,0.387 0.321,0.988 1.012,1.316 z"
       style="fill:#000000;fill-opacity:1;fill-rule:evenodd;stroke:none"
       id="path20159" />
    <path
       d="m 184.621,39.427 v 0.355 l -0.012,0.192 -0.011,0.203 -0.02,0.207 -0.023,0.215 -0.035,0.226 -0.036,0.231 -0.043,0.226 -0.058,0.239 -0.055,0.238 -0.07,0.238 -0.078,0.239 -0.094,0.25 -0.043,0.117 -0.059,0.125 -0.054,0.125 -0.059,0.113 c -0.672,1.398 -1.648,2.125 -1.762,2.125 -0.07,0 -0.113,-0.043 -0.113,-0.113 0,-0.024 0,-0.043 0.215,-0.25 1.113,-1.125 1.75,-2.922 1.75,-5.301 0,-1.934 -0.418,-3.922 -1.816,-5.356 -0.149,-0.136 -0.149,-0.16 -0.149,-0.195 0,-0.066 0.043,-0.113 0.113,-0.113 0.114,0 1.137,0.773 1.797,2.219 0.578,1.238 0.715,2.504 0.715,3.445 z"
       style="fill:#000000;fill-opacity:1;fill-rule:evenodd;stroke:none"
       id="path20161" />
    <g
       id="g20163"
       transform="matrix(1,0,0,-1,0,264.61441)">
      <path
         d="m 156.891,224.32 c 0,4.364 -3.606,7.899 -8.059,7.899 -4.449,0 -8.055,-3.535 -8.055,-7.899 0,-4.359 3.606,-7.894 8.055,-7.894 4.453,0 8.059,3.535 8.059,7.894 z"
         style="fill:#ffffff;fill-opacity:1;fill-rule:nonzero;stroke:#000000;stroke-width:1.46039;stroke-linecap:round;stroke-linejoin:round;stroke-miterlimit:4;stroke-dasharray:none;stroke-opacity:1"
         id="path20165" />
    </g>
    <text
       xml:space="preserve"
       transform="scale(1,-1)"
       style="font-variant:normal;font-weight:normal;font-size:11.6832px;font-family:'DejaVu Sans';-inkscape-font-specification:DejaVuSans;writing-mode:lr-tb;fill:#ff0c0c;fill-opacity:1;fill-rule:nonzero;stroke:none"
       id="text20169"
       x="144.23573"
       y="-36.04034"><tspan
         x="144.23573"
         y="-36.04034"
         id="tspan20167">O</tspan></text>
    <g
       id="g20171"
       transform="matrix(1,0,0,-1,0,264.61441)">
      <path
         d="m 148.844,220.84 c -0.844,0 -1.512,0.312 -2,0.937 -0.492,0.625 -0.735,1.477 -0.735,2.547 0,1.074 0.243,1.922 0.735,2.547 0.488,0.625 1.156,0.938 2,0.938 0.832,0 1.492,-0.313 1.984,-0.938 0.488,-0.625 0.734,-1.473 0.734,-2.547 0,-1.07 -0.246,-1.922 -0.734,-2.547 -0.492,-0.625 -1.152,-0.937 -1.984,-0.937 z m 0,-0.938 c 1.187,0 2.14,0.403 2.859,1.203 0.719,0.805 1.078,1.875 1.078,3.219 0,1.344 -0.359,2.418 -1.078,3.219 -0.719,0.805 -1.672,1.203 -2.859,1.203 -1.199,0 -2.156,-0.398 -2.875,-1.203 -0.719,-0.801 -1.078,-1.875 -1.078,-3.219 0,-1.344 0.359,-2.414 1.078,-3.219 0.719,-0.8 1.676,-1.203 2.875,-1.203 z"
         style="fill:none;stroke:#ff0c0c;stroke-width:1.46039;stroke-linecap:butt;stroke-linejoin:miter;stroke-miterlimit:4;stroke-dasharray:none;stroke-opacity:1"
         id="path20173" />
    </g>
    <path
       d="m 132.789,23.318 v 0.25 l 0.012,0.078 v 0.082 l 0.011,0.078 0.012,0.066 v 0.082 l 0.012,0.067 0.012,0.07 0.011,0.066 0.024,0.071 0.019,0.125 0.036,0.113 0.046,0.113 0.032,0.102 0.046,0.094 0.047,0.089 0.055,0.09 0.047,0.078 0.059,0.071 0.054,0.066 0.059,0.07 0.066,0.055 0.059,0.059 0.066,0.047 0.059,0.043 0.066,0.035 0.059,0.035 0.066,0.035 0.071,0.02 0.054,0.023 0.071,0.012 0.054,0.023 0.071,0.012 h 0.054 l 0.059,0.012 h 0.054 c 0.106,0 0.821,-0.012 1.219,-0.422 -0.465,-0.035 -0.535,-0.375 -0.535,-0.524 0,-0.297 0.203,-0.523 0.524,-0.523 0.296,0 0.523,0.195 0.523,0.535 0,0.773 -0.863,1.219 -1.742,1.219 -1.41,0 -2.453,-1.231 -2.453,-2.641 0,-1.445 1.125,-2.57 2.433,-2.57 1.524,0 1.887,1.363 1.887,1.476 0,0.118 -0.113,0.118 -0.148,0.118 -0.102,0 -0.125,-0.047 -0.149,-0.118 -0.328,-1.054 -1.066,-1.191 -1.488,-1.191 -0.594,0 -1.594,0.488 -1.594,2.309 z"
       style="fill:#000000;fill-opacity:1;fill-rule:evenodd;stroke:none"
       id="path20175" />
    <path
       d="m 140.238,18.13 v 0.047 h -0.011 v 0.012 l -0.008,0.011 -0.012,0.012 v 0.008 h -0.012 v 0.012 l -0.011,0.011 v 0.012 h -0.012 l -0.035,0.035 v 0.012 h -0.012 v 0.012 h -0.012 v 0.011 l -0.011,0.012 h -0.012 v 0.012 l -0.012,0.008 -0.008,0.011 h -0.011 v 0.012 c -1.422,1.434 -1.786,3.574 -1.786,5.301 0,1.98 0.43,3.945 1.829,5.367 0.136,0.137 0.136,0.16 0.136,0.184 0,0.089 -0.035,0.113 -0.113,0.113 -0.102,0 -1.125,-0.762 -1.797,-2.207 -0.578,-1.238 -0.715,-2.5 -0.715,-3.457 0,-0.875 0.125,-2.25 0.75,-3.524 0.684,-1.402 1.66,-2.14 1.762,-2.14 0.078,0 0.113,0.035 0.113,0.113 z"
       style="fill:#000000;fill-opacity:1;fill-rule:evenodd;stroke:none"
       id="path20177" />
    <path
       d="m 171.031,23.454 -0.058,-0.047 -0.055,-0.035 -0.047,-0.043 -0.055,-0.047 -0.046,-0.046 -0.059,-0.043 -0.043,-0.047 -0.047,-0.035 -0.035,-0.043 -0.043,-0.047 -0.047,-0.035 -0.035,-0.043 -0.035,-0.036 -0.031,-0.046 -0.036,-0.032 -0.035,-0.035 -0.031,-0.035 -0.023,-0.035 -0.036,-0.031 -0.046,-0.071 -0.02,-0.035 -0.023,-0.019 -0.024,-0.036 -0.012,-0.023 -0.023,-0.023 -0.012,-0.024 -0.012,-0.019 -0.023,-0.024 -0.008,-0.012 v -0.023 l -0.011,-0.012 c -0.512,-0.785 -0.606,-1.5 -0.606,-1.511 0,-0.137 0.137,-0.137 0.231,-0.137 0.191,0 0.203,0.023 0.25,0.226 0.261,1.114 0.917,2.071 2.207,2.582 0.132,0.047 0.168,0.071 0.168,0.149 0,0.078 -0.067,0.113 -0.09,0.125 -0.5,0.191 -1.868,0.762 -2.297,2.66 -0.035,0.137 -0.047,0.172 -0.238,0.172 -0.094,0 -0.231,0 -0.231,-0.137 0,-0.023 0.106,-0.726 0.582,-1.488 0.227,-0.344 0.559,-0.742 1.035,-1.106 h -8.418 c -0.203,0 -0.41,0 -0.41,-0.226 0,-0.227 0.207,-0.227 0.41,-0.227 z"
       style="fill:#000000;fill-opacity:1;fill-rule:evenodd;stroke:none"
       id="path20179" />
    <path
       d="m 177.66,23.419 0.106,-0.035 0.031,-0.012 0.035,-0.011 0.035,-0.008 0.031,-0.012 0.036,-0.012 h 0.023 l 0.035,-0.011 0.067,-0.012 0.07,-0.012 0.055,-0.012 h 0.058 l 0.055,-0.011 h 0.285 l 0.047,-0.012 v 0.25 c -0.238,0 -0.387,0 -0.594,0.059 0.262,0.089 0.492,0.101 0.684,0.101 0.285,0 0.332,-0.012 0.535,-0.066 -0.172,-0.082 -0.195,-0.094 -0.625,-0.094 v -0.25 c 0.297,0 0.922,0 0.922,0.352 0,0.273 -0.399,0.308 -0.832,0.308 -0.239,0 -0.625,-0.023 -1.047,-0.215 -0.262,0.137 -0.453,0.352 -0.453,0.66 0,0.692 1.113,1.102 2.125,1.102 0.183,0 0.594,0 1.047,-0.32 0.125,-0.09 0.148,-0.114 0.226,-0.114 0.149,0 0.309,0.149 0.309,0.309 0,0.215 -0.696,0.648 -1.469,0.648 -1.297,0 -2.523,-0.761 -2.523,-1.625 0,-0.492 0.41,-0.773 0.453,-0.808 -0.668,-0.375 -1.035,-1 -1.035,-1.524 0,-0.742 0.648,-1.433 1.855,-1.433 1.492,0 2.129,1 2.129,1.172 0,0.066 -0.059,0.113 -0.125,0.113 -0.059,0 -0.094,-0.047 -0.117,-0.082 -0.156,-0.262 -0.43,-0.68 -1.797,-0.68 -0.68,0 -1.649,0.168 -1.649,0.977 0,0.387 0.321,0.988 1.012,1.32 z"
       style="fill:#000000;fill-opacity:1;fill-rule:evenodd;stroke:none"
       id="path20181" />
    <path
       d="m 184.621,23.681 v 0.351 l -0.012,0.196 -0.011,0.203 -0.02,0.207 -0.023,0.215 -0.071,0.453 -0.043,0.23 -0.058,0.239 -0.055,0.238 -0.07,0.238 -0.078,0.238 -0.094,0.25 -0.043,0.114 -0.059,0.125 -0.054,0.125 -0.059,0.117 c -0.672,1.398 -1.648,2.125 -1.762,2.125 -0.07,0 -0.113,-0.047 -0.113,-0.113 0,-0.024 0,-0.047 0.215,-0.25 1.113,-1.125 1.75,-2.922 1.75,-5.301 0,-1.934 -0.418,-3.926 -1.816,-5.356 -0.149,-0.136 -0.149,-0.16 -0.149,-0.195 0,-0.066 0.043,-0.113 0.113,-0.113 0.114,0 1.137,0.773 1.797,2.219 0.578,1.238 0.715,2.5 0.715,3.445 z"
       style="fill:#000000;fill-opacity:1;fill-rule:evenodd;stroke:none"
       id="path20183" />
    <g
       id="g20185"
       transform="matrix(1,0,0,-1,0,264.61441)">
      <path
         d="m 155.633,244.043 -13.75,-7.949"
         style="fill:#000000;fill-opacity:1;fill-rule:nonzero;stroke:#000000;stroke-width:1.07407;stroke-linecap:round;stroke-linejoin:miter;stroke-miterlimit:4;stroke-dasharray:none;stroke-opacity:1"
         id="path20187" />
    </g>
    <path
       d="m 212.785,41.685 v 0.203 l 0.016,0.094 v 0.093 l 0.011,0.09 v 0.094 l 0.016,0.082 0.012,0.094 0.012,0.078 0.015,0.082 0.012,0.078 0.016,0.082 0.039,0.148 0.078,0.266 0.054,0.121 0.055,0.106 0.051,0.105 0.055,0.11 0.066,0.093 0.066,0.078 0.067,0.082 0.07,0.079 0.133,0.132 0.078,0.055 0.066,0.055 0.082,0.039 0.079,0.039 0.066,0.043 0.082,0.023 0.078,0.028 0.07,0.015 0.079,0.028 0.066,0.011 h 0.066 l 0.082,0.012 h 0.067 c 0.105,0 0.949,-0.012 1.414,-0.492 -0.547,-0.039 -0.625,-0.442 -0.625,-0.613 0,-0.348 0.238,-0.618 0.613,-0.618 0.348,0 0.613,0.227 0.613,0.629 0,0.907 -1.015,1.43 -2.031,1.43 -1.668,0 -2.898,-1.441 -2.898,-3.098 0,-1.699 1.324,-3.019 2.875,-3.019 1.773,0 2.203,1.601 2.203,1.734 0,0.133 -0.133,0.133 -0.176,0.133 -0.117,0 -0.144,-0.051 -0.172,-0.133 -0.386,-1.242 -1.258,-1.402 -1.738,-1.402 -0.707,0 -1.883,0.574 -1.883,2.711 z"
       style="fill:#000000;fill-opacity:1;fill-rule:evenodd;stroke:none"
       id="path20189" />
    <path
       d="m 221.551,35.595 v 0.027 l -0.016,0.012 v 0.016 l -0.012,0.011 v 0.016 h -0.015 v 0.012 l -0.028,0.027 v 0.012 h -0.011 v 0.015 h -0.012 v 0.012 h -0.016 v 0.016 h -0.011 v 0.011 l -0.016,0.012 -0.012,0.016 h -0.011 v 0.011 l -0.016,0.016 h -0.012 v 0.012 l -0.015,0.012 -0.012,0.015 -0.016,0.012 c -1.668,1.683 -2.093,4.195 -2.093,6.226 0,2.325 0.507,4.633 2.148,6.305 0.176,0.16 0.176,0.188 0.176,0.211 0,0.109 -0.055,0.137 -0.137,0.137 -0.133,0 -1.336,-0.895 -2.121,-2.594 -0.668,-1.453 -0.828,-2.937 -0.828,-4.059 0,-1.031 0.144,-2.644 0.867,-4.14 0.801,-1.645 1.949,-2.512 2.082,-2.512 0.082,0 0.137,0.039 0.137,0.133 z"
       style="fill:#000000;fill-opacity:1;fill-rule:evenodd;stroke:none"
       id="path20191" />
    <path
       d="m 254.422,41.845 -0.067,-0.051 -0.066,-0.043 -0.066,-0.051 -0.067,-0.054 -0.16,-0.16 -0.055,-0.04 -0.05,-0.054 -0.055,-0.051 -0.039,-0.043 -0.055,-0.051 -0.039,-0.043 -0.039,-0.051 -0.082,-0.082 -0.027,-0.039 -0.039,-0.039 -0.028,-0.043 -0.039,-0.039 -0.054,-0.078 -0.028,-0.027 -0.012,-0.039 -0.027,-0.028 -0.012,-0.027 -0.027,-0.027 -0.016,-0.028 -0.011,-0.027 -0.012,-0.012 -0.016,-0.027 -0.011,-0.012 c -0.602,-0.922 -0.707,-1.765 -0.707,-1.777 0,-0.16 0.16,-0.16 0.265,-0.16 0.227,0 0.242,0.027 0.293,0.265 0.309,1.309 1.098,2.434 2.594,3.036 0.16,0.05 0.199,0.078 0.199,0.171 0,0.094 -0.082,0.133 -0.109,0.149 -0.586,0.226 -2.188,0.894 -2.696,3.125 -0.039,0.16 -0.054,0.199 -0.281,0.199 -0.105,0 -0.265,0 -0.265,-0.16 0,-0.027 0.117,-0.856 0.679,-1.75 0.266,-0.402 0.657,-0.867 1.231,-1.297 h -9.899 c -0.242,0 -0.48,0 -0.48,-0.266 0,-0.265 0.238,-0.265 0.48,-0.265 z"
       style="fill:#000000;fill-opacity:1;fill-rule:evenodd;stroke:none"
       id="path20193" />
    <path
       d="m 282.973,42.114 v 0.2 l -0.012,0.105 v 0.109 l -0.012,0.227 -0.015,0.238 -0.028,0.243 -0.027,0.253 -0.024,0.266 -0.054,0.27 -0.055,0.265 -0.051,0.281 -0.082,0.282 -0.078,0.281 -0.094,0.277 -0.109,0.297 -0.051,0.133 -0.054,0.145 -0.067,0.148 -0.066,0.133 c -0.801,1.644 -1.949,2.5 -2.086,2.5 -0.078,0 -0.117,-0.055 -0.117,-0.137 0,-0.023 0,-0.051 0.254,-0.293 1.293,-1.32 2.054,-3.434 2.054,-6.223 0,-2.269 -0.492,-4.609 -2.137,-6.293 -0.171,-0.16 -0.171,-0.187 -0.171,-0.226 0,-0.078 0.039,-0.133 0.117,-0.133 0.137,0 1.336,0.906 2.125,2.606 0.679,1.453 0.84,2.937 0.84,4.046 z"
       style="fill:#000000;fill-opacity:1;fill-rule:evenodd;stroke:none"
       id="path20195" />
    <g
       id="g20197"
       transform="matrix(1,0,0,-1,0,264.61441)">
      <path
         d="m 277.188,222.723 c 0,4.222 -3.497,7.644 -7.805,7.644 -4.309,0 -7.801,-3.422 -7.801,-7.644 0,-4.227 3.492,-7.649 7.801,-7.649 4.308,0 7.805,3.422 7.805,7.649 z"
         style="fill:#ffffff;fill-opacity:1;fill-rule:nonzero;stroke:#000000;stroke-width:1.41447;stroke-linecap:round;stroke-linejoin:round;stroke-miterlimit:4;stroke-dasharray:none;stroke-opacity:1"
         id="path20199" />
    </g>
    <text
       xml:space="preserve"
       transform="scale(1,-1)"
       style="font-variant:normal;font-weight:normal;font-size:11.3158px;font-family:'DejaVu Sans';-inkscape-font-specification:DejaVuSans;writing-mode:lr-tb;fill:#1eef1e;fill-opacity:1;fill-rule:nonzero;stroke:none"
       id="text20203"
       x="264.80588"
       y="-37.768616"><tspan
         x="264.80588"
         y="-37.768616"
         id="tspan20201">D</tspan></text>
    <g
       id="g20205"
       transform="matrix(1,0,0,-1,0,264.61441)">
      <path
         d="m 267.023,219.52 v 6.406 h 1.36 c 1.133,0 1.961,-0.254 2.484,-0.766 0.531,-0.519 0.797,-1.332 0.797,-2.437 0,-1.102 -0.266,-1.911 -0.797,-2.422 -0.523,-0.52 -1.351,-0.781 -2.484,-0.781 z m -1.109,-0.922 h 2.297 c 1.594,0 2.766,0.336 3.516,1 0.75,0.668 1.125,1.711 1.125,3.125 0,1.418 -0.383,2.461 -1.141,3.125 -0.75,0.668 -1.918,1 -3.5,1 h -2.297 z"
         style="fill:none;stroke:#1eef1e;stroke-width:1.41447;stroke-linecap:butt;stroke-linejoin:miter;stroke-miterlimit:4;stroke-dasharray:none;stroke-opacity:1"
         id="path20207" />
    </g>
    <g
       id="g20209"
       transform="matrix(1,0,0,-1,0,264.61441)">
      <path
         d="m 240.387,221.711 c 0,4.223 -3.492,7.648 -7.805,7.648 -4.309,0 -7.801,-3.425 -7.801,-7.648 0,-4.223 3.492,-7.649 7.801,-7.649 4.313,0 7.805,3.426 7.805,7.649 z"
         style="fill:#ffffff;fill-opacity:1;fill-rule:nonzero;stroke:#000000;stroke-width:1.41447;stroke-linecap:round;stroke-linejoin:round;stroke-miterlimit:4;stroke-dasharray:none;stroke-opacity:1"
         id="path20211" />
    </g>
    <text
       xml:space="preserve"
       transform="scale(1,-1)"
       style="font-variant:normal;font-weight:normal;font-size:11.3158px;font-family:'DejaVu Sans';-inkscape-font-specification:DejaVuSans;writing-mode:lr-tb;fill:#0c0cff;fill-opacity:1;fill-rule:nonzero;stroke:none"
       id="text20215"
       x="228.35141"
       y="-38.77895"><tspan
         x="228.35141"
         y="-38.77895"
         id="tspan20213">N</tspan></text>
    <g
       id="g20217"
       transform="matrix(1,0,0,-1,0,264.61441)">
      <path
         d="m 229.461,217.586 h 1.5 l 3.656,6.906 v -6.906 h 1.094 v 8.25 h -1.516 l -3.656,-6.906 v 6.906 h -1.078 z"
         style="fill:none;stroke:#0c0cff;stroke-width:1.41447;stroke-linecap:butt;stroke-linejoin:miter;stroke-miterlimit:4;stroke-dasharray:none;stroke-opacity:1"
         id="path20219" />
    </g>
    <path
       d="m 304.141,59.696 v 0.2 l 0.011,0.093 v 0.094 l 0.012,0.094 v 0.094 l 0.016,0.082 0.011,0.093 0.016,0.079 0.012,0.082 0.011,0.078 0.016,0.082 0.039,0.144 0.039,0.133 0.043,0.137 0.051,0.117 0.055,0.109 0.054,0.106 0.051,0.105 0.067,0.094 0.066,0.082 0.07,0.078 0.067,0.082 0.132,0.133 0.079,0.055 0.066,0.051 0.082,0.043 0.082,0.039 0.066,0.039 0.079,0.027 0.082,0.027 0.066,0.012 0.078,0.027 0.067,0.016 h 0.066 l 0.082,0.012 h 0.066 c 0.106,0 0.95,-0.012 1.414,-0.492 -0.546,-0.043 -0.625,-0.442 -0.625,-0.618 0,-0.347 0.239,-0.613 0.614,-0.613 0.347,0 0.613,0.227 0.613,0.629 0,0.906 -1.016,1.43 -2.027,1.43 -1.672,0 -2.899,-1.446 -2.899,-3.102 0,-1.695 1.321,-3.019 2.871,-3.019 1.778,0 2.203,1.605 2.203,1.738 0,0.133 -0.132,0.133 -0.171,0.133 -0.122,0 -0.149,-0.055 -0.176,-0.133 -0.387,-1.242 -1.254,-1.402 -1.735,-1.402 -0.711,0 -1.886,0.574 -1.886,2.71 z"
       style="fill:#000000;fill-opacity:1;fill-rule:evenodd;stroke:none"
       id="path20221" />
    <path
       d="m 312.902,53.607 v 0.027 l -0.015,0.012 v 0.011 l -0.012,0.016 v 0.012 h -0.016 V 53.7 l -0.011,0.012 -0.012,0.016 v 0.011 h -0.016 v 0.012 h -0.011 v 0.016 h -0.016 v 0.011 h -0.012 v 0.016 l -0.011,0.012 -0.016,0.012 h -0.012 v 0.015 l -0.015,0.012 h -0.012 v 0.016 l -0.016,0.011 -0.011,0.016 -0.012,0.012 c -1.672,1.683 -2.098,4.195 -2.098,6.222 0,2.324 0.508,4.637 2.149,6.305 0.175,0.16 0.175,0.187 0.175,0.215 0,0.109 -0.054,0.133 -0.132,0.133 -0.137,0 -1.336,-0.895 -2.125,-2.59 -0.668,-1.457 -0.829,-2.938 -0.829,-4.063 0,-1.027 0.145,-2.644 0.868,-4.14 0.8,-1.641 1.949,-2.508 2.086,-2.508 0.078,0 0.132,0.039 0.132,0.133 z"
       style="fill:#000000;fill-opacity:1;fill-rule:evenodd;stroke:none"
       id="path20223" />
    <path
       d="m 330.777,59.857 -0.07,-0.055 -0.066,-0.039 -0.067,-0.051 -0.066,-0.055 -0.051,-0.054 -0.055,-0.051 -0.054,-0.055 -0.051,-0.039 -0.242,-0.242 -0.039,-0.055 -0.043,-0.039 -0.039,-0.039 -0.028,-0.039 -0.039,-0.043 -0.027,-0.039 -0.039,-0.039 -0.028,-0.039 -0.027,-0.043 -0.023,-0.023 -0.016,-0.043 -0.027,-0.028 -0.012,-0.023 -0.027,-0.028 -0.012,-0.027 -0.016,-0.027 -0.011,-0.012 -0.016,-0.027 -0.012,-0.016 c -0.601,-0.922 -0.707,-1.762 -0.707,-1.773 0,-0.161 0.16,-0.161 0.266,-0.161 0.226,0 0.242,0.024 0.293,0.266 0.308,1.309 1.097,2.43 2.594,3.031 0.16,0.055 0.199,0.082 0.199,0.176 0,0.094 -0.082,0.133 -0.106,0.145 -0.59,0.226 -2.191,0.894 -2.699,3.125 -0.039,0.16 -0.055,0.203 -0.281,0.203 -0.106,0 -0.266,0 -0.266,-0.16 0,-0.028 0.121,-0.856 0.68,-1.75 0.269,-0.403 0.656,-0.871 1.23,-1.297 h -9.898 c -0.242,0 -0.481,0 -0.481,-0.266 0,-0.269 0.239,-0.269 0.481,-0.269 z"
       style="fill:#000000;fill-opacity:1;fill-rule:evenodd;stroke:none"
       id="path20225" />
    <path
       d="m 359.328,60.122 v 0.203 l -0.016,0.106 v 0.109 l -0.011,0.227 -0.016,0.238 -0.027,0.242 -0.024,0.254 -0.027,0.266 -0.055,0.265 -0.054,0.27 -0.051,0.281 -0.082,0.278 -0.078,0.281 -0.094,0.281 -0.109,0.293 -0.051,0.137 -0.055,0.144 -0.066,0.149 -0.067,0.132 c -0.8,1.645 -1.949,2.497 -2.082,2.497 -0.082,0 -0.121,-0.051 -0.121,-0.133 0,-0.028 0,-0.051 0.254,-0.293 1.293,-1.324 2.055,-3.434 2.055,-6.227 0,-2.269 -0.492,-4.605 -2.137,-6.289 -0.172,-0.16 -0.172,-0.187 -0.172,-0.226 0,-0.082 0.039,-0.133 0.121,-0.133 0.133,0 1.332,0.906 2.121,2.601 0.684,1.457 0.844,2.942 0.844,4.047 z"
       style="fill:#000000;fill-opacity:1;fill-rule:evenodd;stroke:none"
       id="path20227" />
    <g
       id="g20229"
       transform="matrix(1,0,0,-1,0,264.61441)">
      <path
         d="m 353.539,204.711 c 0,4.223 -3.492,7.648 -7.805,7.648 -4.308,0 -7.8,-3.425 -7.8,-7.648 0,-4.223 3.492,-7.649 7.8,-7.649 4.313,0 7.805,3.426 7.805,7.649 z"
         style="fill:#ffffff;fill-opacity:1;fill-rule:nonzero;stroke:#000000;stroke-width:1.41447;stroke-linecap:round;stroke-linejoin:round;stroke-miterlimit:4;stroke-dasharray:none;stroke-opacity:1"
         id="path20231" />
    </g>
    <text
       xml:space="preserve"
       transform="scale(1,-1)"
       style="font-variant:normal;font-weight:normal;font-size:11.3158px;font-family:'DejaVu Sans';-inkscape-font-specification:DejaVuSans;writing-mode:lr-tb;fill:#1eef1e;fill-opacity:1;fill-rule:nonzero;stroke:none"
       id="text20235"
       x="341.15805"
       y="-55.779133"><tspan
         x="341.15805"
         y="-55.779133"
         id="tspan20233">D</tspan></text>
    <g
       id="g20237"
       transform="matrix(1,0,0,-1,0,264.61441)">
      <path
         d="m 343.375,201.508 v 6.406 h 1.359 c 1.133,0 1.961,-0.254 2.485,-0.766 0.531,-0.519 0.797,-1.332 0.797,-2.437 0,-1.102 -0.266,-1.91 -0.797,-2.422 -0.524,-0.519 -1.352,-0.781 -2.485,-0.781 z m -1.109,-0.922 h 2.296 c 1.594,0 2.766,0.336 3.516,1 0.75,0.668 1.125,1.711 1.125,3.125 0,1.418 -0.383,2.461 -1.141,3.125 -0.75,0.668 -1.917,1 -3.5,1 h -2.296 z"
         style="fill:none;stroke:#1eef1e;stroke-width:1.41447;stroke-linecap:butt;stroke-linejoin:miter;stroke-miterlimit:4;stroke-dasharray:none;stroke-opacity:1"
         id="path20239" />
    </g>
    <path
       d="m 315.629,60.962 0.035,-0.012 0.031,-0.011 0.035,-0.012 0.036,-0.008 0.035,-0.012 0.031,-0.011 0.07,-0.024 h 0.024 l 0.031,-0.011 0.07,-0.012 0.067,-0.012 0.058,-0.012 h 0.055 l 0.059,-0.011 h 0.285 l 0.043,-0.012 v 0.25 c -0.239,0 -0.387,0 -0.59,0.059 0.262,0.089 0.488,0.101 0.684,0.101 0.281,0 0.328,-0.012 0.535,-0.066 -0.172,-0.082 -0.196,-0.094 -0.629,-0.094 v -0.25 c 0.297,0 0.922,0 0.922,0.355 0,0.274 -0.399,0.305 -0.828,0.305 -0.239,0 -0.626,-0.023 -1.047,-0.215 -0.262,0.137 -0.457,0.352 -0.457,0.66 0,0.692 1.117,1.102 2.128,1.102 0.18,0 0.59,0 1.047,-0.316 0.125,-0.094 0.149,-0.114 0.227,-0.114 0.148,0 0.309,0.145 0.309,0.305 0,0.219 -0.696,0.648 -1.469,0.648 -1.297,0 -2.524,-0.761 -2.524,-1.625 0,-0.488 0.407,-0.773 0.453,-0.808 -0.671,-0.375 -1.035,-1 -1.035,-1.524 0,-0.738 0.649,-1.433 1.856,-1.433 1.488,0 2.125,1 2.125,1.172 0,0.066 -0.055,0.113 -0.125,0.113 -0.055,0 -0.09,-0.047 -0.114,-0.078 -0.16,-0.262 -0.433,-0.684 -1.796,-0.684 -0.684,0 -1.649,0.172 -1.649,0.977 0,0.386 0.317,0.992 1.012,1.32 z"
       style="fill:#000000;fill-opacity:1;fill-rule:evenodd;stroke:none"
       id="path20241" />
    <path
       d="m 304.141,41.267 v 0.203 l 0.011,0.094 v 0.093 l 0.012,0.09 v 0.094 l 0.016,0.082 0.011,0.094 0.016,0.078 0.012,0.082 0.011,0.078 0.016,0.082 0.039,0.149 0.039,0.132 0.043,0.133 0.051,0.121 0.109,0.211 0.051,0.11 0.067,0.093 0.066,0.078 0.07,0.082 0.067,0.079 0.132,0.132 0.079,0.055 0.066,0.055 0.164,0.078 0.066,0.043 0.079,0.023 0.082,0.028 0.066,0.015 0.078,0.024 0.067,0.015 h 0.066 l 0.082,0.012 h 0.066 c 0.106,0 0.95,-0.012 1.414,-0.492 -0.546,-0.039 -0.625,-0.442 -0.625,-0.613 0,-0.348 0.239,-0.618 0.614,-0.618 0.347,0 0.613,0.227 0.613,0.629 0,0.907 -1.016,1.43 -2.027,1.43 -1.672,0 -2.899,-1.441 -2.899,-3.102 0,-1.695 1.321,-3.015 2.871,-3.015 1.778,0 2.203,1.601 2.203,1.734 0,0.133 -0.132,0.133 -0.171,0.133 -0.122,0 -0.149,-0.051 -0.176,-0.133 -0.387,-1.242 -1.254,-1.402 -1.735,-1.402 -0.711,0 -1.886,0.574 -1.886,2.711 z"
       style="fill:#000000;fill-opacity:1;fill-rule:evenodd;stroke:none"
       id="path20243" />
    <path
       d="m 312.902,35.177 v 0.027 l -0.015,0.012 v 0.016 l -0.012,0.011 v 0.016 h -0.016 v 0.012 l -0.011,0.011 -0.012,0.016 v 0.012 h -0.016 v 0.015 h -0.011 v 0.012 h -0.016 v 0.016 h -0.012 v 0.011 l -0.027,0.028 h -0.012 v 0.011 l -0.015,0.016 h -0.012 v 0.012 l -0.016,0.012 -0.011,0.015 -0.012,0.012 c -1.672,1.683 -2.098,4.195 -2.098,6.226 0,2.325 0.508,4.633 2.149,6.305 0.175,0.16 0.175,0.188 0.175,0.211 0,0.109 -0.054,0.137 -0.132,0.137 -0.137,0 -1.336,-0.895 -2.125,-2.594 -0.668,-1.453 -0.829,-2.937 -0.829,-4.059 0,-1.031 0.145,-2.644 0.868,-4.14 0.8,-1.645 1.949,-2.512 2.086,-2.512 0.078,0 0.132,0.039 0.132,0.133 z"
       style="fill:#000000;fill-opacity:1;fill-rule:evenodd;stroke:none"
       id="path20245" />
    <path
       d="m 330.777,41.427 -0.07,-0.051 -0.066,-0.043 -0.067,-0.051 -0.066,-0.054 -0.051,-0.055 -0.055,-0.051 -0.054,-0.054 -0.051,-0.04 -0.055,-0.054 -0.054,-0.051 -0.04,-0.043 -0.054,-0.051 -0.039,-0.043 -0.039,-0.05 -0.082,-0.083 -0.028,-0.039 -0.039,-0.039 -0.027,-0.043 -0.039,-0.039 -0.055,-0.078 -0.023,-0.027 -0.016,-0.039 -0.027,-0.028 -0.012,-0.027 -0.027,-0.027 -0.012,-0.028 -0.016,-0.027 -0.011,-0.012 -0.016,-0.027 -0.012,-0.012 c -0.601,-0.922 -0.707,-1.765 -0.707,-1.777 0,-0.16 0.16,-0.16 0.266,-0.16 0.226,0 0.242,0.027 0.293,0.265 0.308,1.309 1.097,2.434 2.594,3.032 0.16,0.054 0.199,0.082 0.199,0.175 0,0.094 -0.082,0.133 -0.106,0.149 -0.59,0.226 -2.191,0.894 -2.699,3.125 -0.039,0.16 -0.055,0.199 -0.281,0.199 -0.106,0 -0.266,0 -0.266,-0.16 0,-0.027 0.121,-0.856 0.68,-1.75 0.269,-0.402 0.656,-0.867 1.23,-1.297 h -9.898 c -0.242,0 -0.481,0 -0.481,-0.266 0,-0.265 0.239,-0.265 0.481,-0.265 z"
       style="fill:#000000;fill-opacity:1;fill-rule:evenodd;stroke:none"
       id="path20247" />
    <path
       d="m 359.328,41.696 v 0.2 l -0.016,0.105 v 0.11 l -0.011,0.226 -0.016,0.238 -0.027,0.243 -0.024,0.253 -0.027,0.266 -0.055,0.27 -0.054,0.265 -0.051,0.281 -0.082,0.282 -0.078,0.281 -0.094,0.277 -0.109,0.297 -0.051,0.133 -0.055,0.145 -0.066,0.148 -0.067,0.133 c -0.8,1.644 -1.949,2.5 -2.082,2.5 -0.082,0 -0.121,-0.055 -0.121,-0.137 0,-0.023 0,-0.051 0.254,-0.293 1.293,-1.32 2.055,-3.433 2.055,-6.223 0,-2.273 -0.492,-4.609 -2.137,-6.293 -0.172,-0.16 -0.172,-0.187 -0.172,-0.226 0,-0.078 0.039,-0.133 0.121,-0.133 0.133,0 1.332,0.906 2.121,2.606 0.684,1.453 0.844,2.937 0.844,4.046 z"
       style="fill:#000000;fill-opacity:1;fill-rule:evenodd;stroke:none"
       id="path20249" />
    <g
       id="g20251"
       transform="matrix(1,0,0,-1,0,264.61441)">
      <path
         d="m 354.238,222.129 c 0,4.223 -3.492,7.648 -7.8,7.648 -4.313,0 -7.805,-3.425 -7.805,-7.648 0,-4.223 3.492,-7.649 7.805,-7.649 4.308,0 7.8,3.426 7.8,7.649 z"
         style="fill:#ffffff;fill-opacity:1;fill-rule:nonzero;stroke:#000000;stroke-width:1.41447;stroke-linecap:round;stroke-linejoin:round;stroke-miterlimit:4;stroke-dasharray:none;stroke-opacity:1"
         id="path20253" />
    </g>
    <text
       xml:space="preserve"
       transform="scale(1,-1)"
       style="font-variant:normal;font-weight:normal;font-size:11.3158px;font-family:'DejaVu Sans';-inkscape-font-specification:DejaVuSans;writing-mode:lr-tb;fill:#0c0cff;fill-opacity:1;fill-rule:nonzero;stroke:none"
       id="text20257"
       x="342.20358"
       y="-38.360893"><tspan
         x="342.20358"
         y="-38.360893"
         id="tspan20255">N</tspan></text>
    <g
       id="g20259"
       transform="matrix(1,0,0,-1,0,264.61441)">
      <path
         d="m 343.312,218.004 h 1.5 l 3.657,6.906 v -6.906 h 1.093 v 8.25 h -1.515 l -3.656,-6.906 v 6.906 h -1.079 z"
         style="fill:none;stroke:#0c0cff;stroke-width:1.41447;stroke-linecap:butt;stroke-linejoin:miter;stroke-miterlimit:4;stroke-dasharray:none;stroke-opacity:1"
         id="path20261" />
    </g>
    <path
       d="m 315.199,41.571 0.071,-0.023 0.031,-0.012 0.105,-0.035 0.032,-0.012 0.035,-0.011 h 0.023 l 0.035,-0.012 0.067,-0.012 0.07,-0.008 0.055,-0.011 h 0.058 l 0.055,-0.012 h 0.285 l 0.047,-0.012 v 0.25 c -0.238,0 -0.387,0 -0.594,0.055 0.262,0.094 0.488,0.105 0.684,0.105 0.285,0 0.328,-0.011 0.535,-0.07 -0.172,-0.078 -0.195,-0.09 -0.625,-0.09 v -0.25 c 0.293,0 0.922,0 0.922,0.352 0,0.273 -0.399,0.308 -0.832,0.308 -0.238,0 -0.625,-0.023 -1.047,-0.218 -0.262,0.136 -0.453,0.355 -0.453,0.66 0,0.695 1.113,1.105 2.125,1.105 0.183,0 0.594,0 1.047,-0.32 0.125,-0.09 0.148,-0.113 0.226,-0.113 0.149,0 0.309,0.148 0.309,0.308 0,0.215 -0.695,0.649 -1.469,0.649 -1.297,0 -2.523,-0.762 -2.523,-1.629 0,-0.488 0.41,-0.774 0.453,-0.805 -0.668,-0.379 -1.035,-1.004 -1.035,-1.527 0,-0.738 0.648,-1.434 1.855,-1.434 1.488,0 2.125,1.004 2.125,1.172 0,0.07 -0.055,0.113 -0.125,0.113 -0.055,0 -0.09,-0.043 -0.113,-0.078 -0.156,-0.261 -0.43,-0.683 -1.797,-0.683 -0.68,0 -1.648,0.172 -1.648,0.98 0,0.387 0.32,0.988 1.011,1.32 z"
       style="fill:#000000;fill-opacity:1;fill-rule:evenodd;stroke:none"
       id="path20263" />
    <path
       d="m 304.141,22.763 v 0.199 l 0.011,0.094 v 0.094 l 0.012,0.093 v 0.094 l 0.016,0.082 0.011,0.094 0.016,0.078 0.012,0.082 0.011,0.078 0.016,0.082 0.039,0.145 0.039,0.133 0.043,0.136 0.051,0.117 0.055,0.11 0.054,0.105 0.051,0.106 0.067,0.093 0.066,0.083 0.07,0.078 0.067,0.082 0.132,0.132 0.079,0.055 0.066,0.051 0.082,0.043 0.082,0.039 0.066,0.039 0.079,0.027 0.082,0.028 0.066,0.011 0.078,0.028 0.067,0.015 h 0.066 l 0.082,0.012 h 0.066 c 0.106,0 0.95,-0.012 1.414,-0.496 -0.546,-0.039 -0.625,-0.437 -0.625,-0.613 0,-0.348 0.239,-0.614 0.614,-0.614 0.347,0 0.613,0.227 0.613,0.629 0,0.907 -1.016,1.426 -2.027,1.426 -1.672,0 -2.899,-1.441 -2.899,-3.097 0,-1.696 1.321,-3.02 2.871,-3.02 1.778,0 2.203,1.605 2.203,1.738 0,0.133 -0.132,0.133 -0.171,0.133 -0.122,0 -0.149,-0.055 -0.176,-0.133 -0.387,-1.242 -1.254,-1.402 -1.735,-1.402 -0.711,0 -1.886,0.574 -1.886,2.711 z"
       style="fill:#000000;fill-opacity:1;fill-rule:evenodd;stroke:none"
       id="path20265" />
    <path
       d="M 312.902,16.673 V 16.7 l -0.015,0.012 v 0.012 l -0.012,0.015 v 0.012 h -0.016 v 0.016 l -0.011,0.011 -0.012,0.016 v 0.012 h -0.016 v 0.012 h -0.011 v 0.015 h -0.016 v 0.012 h -0.012 v 0.016 l -0.011,0.011 -0.016,0.012 h -0.012 V 16.9 l -0.015,0.011 h -0.012 v 0.016 l -0.016,0.012 -0.011,0.015 -0.012,0.012 c -1.672,1.684 -2.098,4.195 -2.098,6.223 0,2.324 0.508,4.636 2.149,6.304 0.175,0.16 0.175,0.188 0.175,0.215 0,0.106 -0.054,0.133 -0.132,0.133 -0.137,0 -1.336,-0.895 -2.125,-2.59 -0.668,-1.457 -0.829,-2.937 -0.829,-4.062 0,-1.028 0.145,-2.645 0.868,-4.141 0.8,-1.641 1.949,-2.508 2.086,-2.508 0.078,0 0.132,0.039 0.132,0.133 z"
       style="fill:#000000;fill-opacity:1;fill-rule:evenodd;stroke:none"
       id="path20267" />
    <path
       d="m 330.777,22.923 -0.07,-0.055 -0.066,-0.039 -0.067,-0.054 -0.066,-0.051 -0.051,-0.055 -0.055,-0.055 -0.054,-0.05 -0.051,-0.039 -0.242,-0.243 -0.039,-0.054 -0.043,-0.039 -0.039,-0.039 -0.028,-0.039 -0.039,-0.043 -0.027,-0.04 -0.039,-0.039 -0.028,-0.039 -0.027,-0.043 -0.023,-0.023 -0.016,-0.043 -0.027,-0.027 -0.012,-0.024 -0.027,-0.027 -0.012,-0.027 -0.016,-0.028 -0.011,-0.012 -0.016,-0.027 -0.012,-0.016 c -0.601,-0.921 -0.707,-1.761 -0.707,-1.773 0,-0.16 0.16,-0.16 0.266,-0.16 0.226,0 0.242,0.023 0.293,0.266 0.308,1.308 1.097,2.429 2.594,3.031 0.16,0.054 0.199,0.082 0.199,0.176 0,0.093 -0.082,0.132 -0.106,0.144 -0.59,0.227 -2.191,0.895 -2.699,3.125 -0.039,0.16 -0.055,0.203 -0.281,0.203 -0.106,0 -0.266,0 -0.266,-0.16 0,-0.027 0.121,-0.855 0.68,-1.75 0.269,-0.402 0.656,-0.871 1.23,-1.297 h -9.898 c -0.242,0 -0.481,0 -0.481,-0.265 0,-0.27 0.239,-0.27 0.481,-0.27 z"
       style="fill:#000000;fill-opacity:1;fill-rule:evenodd;stroke:none"
       id="path20269" />
    <path
       d="m 359.328,23.189 v 0.203 l -0.016,0.105 v 0.106 l -0.011,0.23 -0.016,0.238 -0.027,0.243 -0.024,0.254 -0.027,0.265 -0.055,0.266 -0.054,0.269 -0.051,0.282 -0.082,0.277 -0.078,0.281 -0.094,0.281 -0.109,0.293 -0.051,0.133 -0.055,0.149 -0.066,0.148 -0.067,0.133 c -0.8,1.644 -1.949,2.496 -2.082,2.496 -0.082,0 -0.121,-0.051 -0.121,-0.133 0,-0.027 0,-0.055 0.254,-0.293 1.293,-1.324 2.055,-3.433 2.055,-6.226 0,-2.27 -0.492,-4.606 -2.137,-6.289 -0.172,-0.161 -0.172,-0.188 -0.172,-0.227 0,-0.082 0.039,-0.133 0.121,-0.133 0.133,0 1.332,0.906 2.121,2.602 0.684,1.457 0.844,2.941 0.844,4.047 z"
       style="fill:#000000;fill-opacity:1;fill-rule:evenodd;stroke:none"
       id="path20271" />
    <path
       d="m 315.199,23.064 0.035,-0.012 0.036,-0.008 0.031,-0.012 0.105,-0.035 0.032,-0.011 0.035,-0.012 h 0.023 l 0.035,-0.012 0.067,-0.012 0.07,-0.011 0.055,-0.012 h 0.058 l 0.055,-0.012 h 0.285 l 0.047,-0.012 v 0.254 c -0.238,0 -0.387,0 -0.594,0.055 0.262,0.09 0.488,0.102 0.684,0.102 0.285,0 0.328,-0.012 0.535,-0.067 -0.172,-0.082 -0.195,-0.09 -0.625,-0.09 v -0.254 c 0.293,0 0.922,0 0.922,0.356 0,0.273 -0.399,0.305 -0.832,0.305 -0.238,0 -0.625,-0.02 -1.047,-0.215 -0.262,0.137 -0.453,0.351 -0.453,0.66 0,0.695 1.113,1.102 2.125,1.102 0.183,0 0.594,0 1.047,-0.317 0.125,-0.09 0.148,-0.113 0.226,-0.113 0.149,0 0.309,0.148 0.309,0.305 0,0.218 -0.695,0.648 -1.469,0.648 -1.297,0 -2.523,-0.762 -2.523,-1.625 0,-0.488 0.41,-0.773 0.453,-0.809 -0.668,-0.375 -1.035,-1 -1.035,-1.523 0,-0.738 0.648,-1.434 1.855,-1.434 1.488,0 2.125,1 2.125,1.172 0,0.071 -0.055,0.113 -0.125,0.113 -0.055,0 -0.09,-0.042 -0.113,-0.078 -0.156,-0.261 -0.43,-0.683 -1.797,-0.683 -0.68,0 -1.648,0.172 -1.648,0.976 0,0.387 0.32,0.993 1.011,1.321 z"
       style="fill:#000000;fill-opacity:1;fill-rule:evenodd;stroke:none"
       id="path20273" />
    <g
       id="g20275"
       transform="matrix(1,0,0,-1,0,264.61441)">
      <path
         d="m 353.77,233.918 -16.754,9.684"
         style="fill:#000000;fill-opacity:1;fill-rule:nonzero;stroke:#000000;stroke-width:1.30884;stroke-linecap:round;stroke-linejoin:miter;stroke-miterlimit:4;stroke-dasharray:none;stroke-opacity:1"
         id="path20277" />
    </g>
    <g
       id="g20279"
       transform="matrix(1,0,0,-1,0,264.61441)">
      <path
         d="m 165.734,184.082 c -0.027,0.918 1.2,1.68 2.704,1.684 l 111.66,0.277 c 0.152,8.488 0,0 0.152,8.488 0.016,0.828 4.613,0.805 5.574,0.524 l 39.246,-11.489 c 0.957,-0.281 -0.015,-0.968 -2.144,-1.543 l -36.735,-9.929 c -2.129,-0.574 -5.546,-0.914 -5.574,-0.528 -0.433,9 0,0 -0.433,9 l -111.582,-0.277 c -1.5,-0.004 -2.778,0.75 -2.805,1.672 z"
         style="fill:#000000;fill-opacity:1;fill-rule:nonzero;stroke:#000000;stroke-width:0.279151;stroke-linecap:round;stroke-linejoin:round;stroke-miterlimit:4;stroke-dasharray:none;stroke-opacity:1"
         id="path20281" />
    </g>
    <g
       id="g20283"
       transform="matrix(1,0,0,-1,0,264.61441)">
      <path
         d="M 429.539,131.574 V 109.375"
         style="fill:none;stroke:#000000;stroke-width:1.5;stroke-linecap:round;stroke-linejoin:miter;stroke-miterlimit:4;stroke-dasharray:none;stroke-opacity:1"
         id="path20285" />
    </g>
    <g
       id="g20287"
       transform="matrix(1,0,0,-1,0,264.61441)">
      <path
         d="m 403.516,94.375 -19.2,11.098"
         style="fill:#000000;fill-opacity:1;fill-rule:nonzero;stroke:#000000;stroke-width:1.5;stroke-linecap:round;stroke-linejoin:miter;stroke-miterlimit:4;stroke-dasharray:none;stroke-opacity:1"
         id="path20289" />
    </g>
    <g
       id="g20291"
       transform="matrix(1,0,0,-1,0,264.61441)">
      <path
         d="M 429.539,49.375 V 27.176"
         style="fill:none;stroke:#000000;stroke-width:1.5;stroke-linecap:round;stroke-linejoin:miter;stroke-miterlimit:4;stroke-dasharray:none;stroke-opacity:1"
         id="path20293" />
    </g>
    <g
       id="g20295"
       transform="matrix(1,0,0,-1,0,264.61441)">
      <path
         d="m 455.492,94.375 19.274,11.098"
         style="fill:#000000;fill-opacity:1;fill-rule:nonzero;stroke:#000000;stroke-width:1.5;stroke-linecap:round;stroke-linejoin:miter;stroke-miterlimit:4;stroke-dasharray:none;stroke-opacity:1"
         id="path20297" />
    </g>
    <g
       id="g20299"
       transform="matrix(1,0,0,-1,0,264.61441)">
      <path
         d="m 429.539,109.375 -26.023,-15"
         style="fill:#000000;fill-opacity:1;fill-rule:nonzero;stroke:#000000;stroke-width:1.5;stroke-linecap:round;stroke-linejoin:miter;stroke-miterlimit:4;stroke-dasharray:none;stroke-opacity:1"
         id="path20301" />
    </g>
    <g
       id="g20303"
       transform="matrix(1,0,0,-1,0,264.61441)">
      <path
         d="m 403.516,94.375 v -30"
         style="fill:none;stroke:#000000;stroke-width:1.5;stroke-linecap:round;stroke-linejoin:miter;stroke-miterlimit:4;stroke-dasharray:none;stroke-opacity:1"
         id="path20305" />
    </g>
    <g
       id="g20307"
       transform="matrix(1,0,0,-1,0,264.61441)">
      <path
         d="m 403.516,64.375 26.023,-15"
         style="fill:#000000;fill-opacity:1;fill-rule:nonzero;stroke:#000000;stroke-width:1.5;stroke-linecap:round;stroke-linejoin:miter;stroke-miterlimit:4;stroke-dasharray:none;stroke-opacity:1"
         id="path20309" />
    </g>
    <g
       id="g20311"
       transform="matrix(1,0,0,-1,0,264.61441)">
      <path
         d="m 429.539,49.375 25.953,15"
         style="fill:#000000;fill-opacity:1;fill-rule:nonzero;stroke:#000000;stroke-width:1.5;stroke-linecap:round;stroke-linejoin:miter;stroke-miterlimit:4;stroke-dasharray:none;stroke-opacity:1"
         id="path20313" />
    </g>
    <g
       id="g20315"
       transform="matrix(1,0,0,-1,0,264.61441)">
      <path
         d="m 455.492,64.375 v 30"
         style="fill:none;stroke:#000000;stroke-width:1.5;stroke-linecap:round;stroke-linejoin:miter;stroke-miterlimit:4;stroke-dasharray:none;stroke-opacity:1"
         id="path20317" />
    </g>
    <g
       id="g20319"
       transform="matrix(1,0,0,-1,0,264.61441)">
      <path
         d="m 455.492,94.375 -25.953,15"
         style="fill:#000000;fill-opacity:1;fill-rule:nonzero;stroke:#000000;stroke-width:1.5;stroke-linecap:round;stroke-linejoin:miter;stroke-miterlimit:4;stroke-dasharray:none;stroke-opacity:1"
         id="path20321" />
    </g>
    <g
       id="g20323"
       transform="matrix(1,0,0,-1,0,264.61441)">
      <path
         d="m 384.301,108.602 c 0,4.476 -3.707,8.109 -8.278,8.109 -4.57,0 -8.273,-3.633 -8.273,-8.109 0,-4.481 3.703,-8.11 8.273,-8.11 4.571,0 8.278,3.629 8.278,8.11 z"
         style="fill:#ffffff;fill-opacity:1;fill-rule:nonzero;stroke:#000000;stroke-width:1.5;stroke-linecap:round;stroke-linejoin:round;stroke-miterlimit:4;stroke-dasharray:none;stroke-opacity:1"
         id="path20325" />
    </g>
    <text
       xml:space="preserve"
       transform="scale(1,-1)"
       style="font-variant:normal;font-weight:normal;font-size:12px;font-family:'DejaVu Sans';-inkscape-font-specification:DejaVuSans;writing-mode:lr-tb;fill:#1eef1e;fill-opacity:1;fill-rule:nonzero;stroke:none"
       id="text20329"
       x="371.16901"
       y="-151.63985"><tspan
         x="371.16901"
         y="-151.63985"
         id="tspan20327">D</tspan></text>
    <g
       id="g20331"
       transform="matrix(1,0,0,-1,0,264.61441)">
      <path
         d="m 373.527,105.191 v 6.813 h 1.438 c 1.207,0 2.086,-0.27 2.64,-0.813 0.563,-0.55 0.844,-1.421 0.844,-2.609 0,-1.164 -0.281,-2.02 -0.844,-2.562 -0.554,-0.551 -1.433,-0.829 -2.64,-0.829 z m -1.187,-0.968 h 2.437 c 1.696,0 2.942,0.355 3.735,1.062 0.789,0.699 1.187,1.797 1.187,3.297 0,1.512 -0.402,2.621 -1.203,3.328 -0.793,0.711 -2.031,1.063 -3.719,1.063 h -2.437 z"
         style="fill:none;stroke:#1eef1e;stroke-width:1.5;stroke-linecap:butt;stroke-linejoin:miter;stroke-miterlimit:4;stroke-dasharray:none;stroke-opacity:1"
         id="path20333" />
    </g>
    <g
       id="g20335"
       transform="matrix(1,0,0,-1,0,264.61441)">
      <path
         d="m 438.527,135.207 c 0,4.477 -3.707,8.109 -8.277,8.109 -4.57,0 -8.273,-3.632 -8.273,-8.109 0,-4.48 3.703,-8.109 8.273,-8.109 4.57,0 8.277,3.629 8.277,8.109 z"
         style="fill:#ffffff;fill-opacity:1;fill-rule:nonzero;stroke:#000000;stroke-width:1.5;stroke-linecap:round;stroke-linejoin:round;stroke-miterlimit:4;stroke-dasharray:none;stroke-opacity:1"
         id="path20337" />
    </g>
    <text
       xml:space="preserve"
       transform="scale(1,-1)"
       style="font-variant:normal;font-weight:normal;font-size:12px;font-family:'DejaVu Sans';-inkscape-font-specification:DejaVuSans;writing-mode:lr-tb;fill:#0c0cff;fill-opacity:1;fill-rule:nonzero;stroke:none"
       id="text20341"
       x="425.76221"
       y="-125.03385"><tspan
         x="425.76221"
         y="-125.03385"
         id="tspan20339">N</tspan></text>
    <g
       id="g20343"
       transform="matrix(1,0,0,-1,0,264.61441)">
      <path
         d="m 426.934,130.832 h 1.593 l 3.891,7.313 v -7.313 h 1.141 v 8.75 h -1.594 l -3.875,-7.312 v 7.312 h -1.156 z"
         style="fill:none;stroke:#0c0cff;stroke-width:1.5;stroke-linecap:butt;stroke-linejoin:miter;stroke-miterlimit:4;stroke-dasharray:none;stroke-opacity:1"
         id="path20345" />
    </g>
    <g
       id="g20347"
       transform="matrix(1,0,0,-1,0,264.61441)">
      <path
         d="m 437.77,20.809 c 0,4.476 -3.708,8.109 -8.278,8.109 -4.57,0 -8.273,-3.633 -8.273,-8.109 0,-4.481 3.703,-8.114 8.273,-8.114 4.57,0 8.278,3.633 8.278,8.114 z"
         style="fill:#ffffff;fill-opacity:1;fill-rule:nonzero;stroke:#000000;stroke-width:1.5;stroke-linecap:round;stroke-linejoin:round;stroke-miterlimit:4;stroke-dasharray:none;stroke-opacity:1"
         id="path20349" />
    </g>
    <text
       xml:space="preserve"
       transform="scale(1,-1)"
       style="font-variant:normal;font-weight:normal;font-size:12px;font-family:'DejaVu Sans';-inkscape-font-specification:DejaVuSans;writing-mode:lr-tb;fill:#0c0cff;fill-opacity:1;fill-rule:nonzero;stroke:none"
       id="text20353"
       x="425.00458"
       y="-239.43362"><tspan
         x="425.00458"
         y="-239.43362"
         id="tspan20351">N</tspan></text>
    <g
       id="g20355"
       transform="matrix(1,0,0,-1,0,264.61441)">
      <path
         d="m 426.176,16.43 h 1.594 l 3.89,7.312 V 16.43 h 1.141 v 8.75 h -1.594 l -3.875,-7.313 v 7.313 h -1.156 z"
         style="fill:none;stroke:#0c0cff;stroke-width:1.5;stroke-linecap:butt;stroke-linejoin:miter;stroke-miterlimit:4;stroke-dasharray:none;stroke-opacity:1"
         id="path20357" />
    </g>
    <g
       id="g20359"
       transform="matrix(1,0,0,-1,0,264.61441)">
      <path
         d="m 490.422,109.828 c 0,4.477 -3.703,8.11 -8.274,8.11 -4.57,0 -8.277,-3.633 -8.277,-8.11 0,-4.48 3.707,-8.113 8.277,-8.113 4.571,0 8.274,3.633 8.274,8.113 z"
         style="fill:#ffffff;fill-opacity:1;fill-rule:nonzero;stroke:#000000;stroke-width:1.5;stroke-linecap:round;stroke-linejoin:round;stroke-miterlimit:4;stroke-dasharray:none;stroke-opacity:1"
         id="path20361" />
    </g>
    <text
       xml:space="preserve"
       transform="scale(1,-1)"
       style="font-variant:normal;font-weight:normal;font-size:12px;font-family:'DejaVu Sans';-inkscape-font-specification:DejaVuSans;writing-mode:lr-tb;fill:#1eef1e;fill-opacity:1;fill-rule:nonzero;stroke:none"
       id="text20365"
       x="477.29257"
       y="-150.41393"><tspan
         x="477.29257"
         y="-150.41393"
         id="tspan20363">D</tspan></text>
    <g
       id="g20367"
       transform="matrix(1,0,0,-1,0,264.61441)">
      <path
         d="m 479.652,106.418 v 6.812 h 1.438 c 1.207,0 2.086,-0.269 2.64,-0.812 0.563,-0.551 0.844,-1.422 0.844,-2.609 0,-1.164 -0.281,-2.02 -0.844,-2.563 -0.554,-0.551 -1.433,-0.828 -2.64,-0.828 z m -1.187,-0.969 h 2.437 c 1.696,0 2.942,0.356 3.735,1.063 0.789,0.699 1.187,1.797 1.187,3.297 0,1.511 -0.402,2.621 -1.203,3.328 -0.793,0.711 -2.031,1.062 -3.719,1.062 h -2.437 z"
         style="fill:none;stroke:#1eef1e;stroke-width:1.5;stroke-linecap:butt;stroke-linejoin:miter;stroke-miterlimit:4;stroke-dasharray:none;stroke-opacity:1"
         id="path20369" />
    </g>
    <g
       id="g20371"
       transform="matrix(1,0,0,-1,0,264.61441)">
      <path
         d="m 412.008,64.75 c 0,4.477 -3.703,8.109 -8.274,8.109 -4.57,0 -8.277,-3.632 -8.277,-8.109 0,-4.48 3.707,-8.113 8.277,-8.113 4.571,0 8.274,3.633 8.274,8.113 z"
         style="fill:#ffffff;fill-opacity:1;fill-rule:nonzero;stroke:#000000;stroke-width:1.5;stroke-linecap:round;stroke-linejoin:round;stroke-miterlimit:4;stroke-dasharray:none;stroke-opacity:1"
         id="path20373" />
    </g>
    <text
       xml:space="preserve"
       transform="scale(1,-1)"
       style="font-variant:normal;font-weight:normal;font-size:12px;font-family:'DejaVu Sans';-inkscape-font-specification:DejaVuSans;writing-mode:lr-tb;fill:#666666;fill-opacity:1;fill-rule:nonzero;stroke:none"
       id="text20377"
       x="399.53281"
       y="-195.49785"><tspan
         x="399.53281"
         y="-195.49785"
         id="tspan20375">C</tspan></text>
    <g
       id="g20379"
       transform="matrix(1,0,0,-1,0,264.61441)">
      <path
         d="m 407.266,61.039 v 1.25 c -0.407,-0.375 -0.836,-0.648 -1.282,-0.828 -0.449,-0.188 -0.929,-0.281 -1.437,-0.281 -1,0 -1.766,0.308 -2.297,0.922 -0.531,0.617 -0.797,1.5 -0.797,2.656 0,1.148 0.266,2.027 0.797,2.64 0.531,0.618 1.297,0.922 2.297,0.922 0.508,0 0.988,-0.093 1.437,-0.281 0.446,-0.187 0.875,-0.461 1.282,-0.828 v 1.234 c -0.418,0.282 -0.86,0.496 -1.328,0.641 -0.461,0.133 -0.946,0.203 -1.454,0.203 -1.336,0 -2.382,-0.406 -3.14,-1.219 -0.762,-0.812 -1.141,-1.914 -1.141,-3.312 0,-1.406 0.379,-2.516 1.141,-3.328 0.758,-0.813 1.804,-1.219 3.14,-1.219 0.52,0 1.008,0.074 1.469,0.219 0.469,0.136 0.906,0.34 1.313,0.609 z"
         style="fill:none;stroke:#666666;stroke-width:1.5;stroke-linecap:butt;stroke-linejoin:miter;stroke-miterlimit:4;stroke-dasharray:none;stroke-opacity:1"
         id="path20381" />
    </g>
    <g
       id="g20383"
       transform="matrix(1,0,0,-1,0,264.61441)">
      <path
         d="m 438.527,50.355 c 0,4.477 -3.707,8.11 -8.277,8.11 -4.57,0 -8.273,-3.633 -8.273,-8.11 0,-4.48 3.703,-8.113 8.273,-8.113 4.57,0 8.277,3.633 8.277,8.113 z"
         style="fill:#ffffff;fill-opacity:1;fill-rule:nonzero;stroke:#000000;stroke-width:1.5;stroke-linecap:round;stroke-linejoin:round;stroke-miterlimit:4;stroke-dasharray:none;stroke-opacity:1"
         id="path20385" />
    </g>
    <text
       xml:space="preserve"
       transform="scale(1,-1)"
       style="font-variant:normal;font-weight:normal;font-size:12px;font-family:'DejaVu Sans';-inkscape-font-specification:DejaVuSans;writing-mode:lr-tb;fill:#666666;fill-opacity:1;fill-rule:nonzero;stroke:none"
       id="text20389"
       x="426.04932"
       y="-209.89252"><tspan
         x="426.04932"
         y="-209.89252"
         id="tspan20387">C</tspan></text>
    <g
       id="g20391"
       transform="matrix(1,0,0,-1,0,264.61441)">
      <path
         d="m 433.785,46.645 v 1.25 c -0.406,-0.375 -0.836,-0.649 -1.281,-0.829 -0.449,-0.187 -0.93,-0.281 -1.438,-0.281 -1,0 -1.765,0.309 -2.296,0.922 -0.532,0.617 -0.797,1.5 -0.797,2.656 0,1.149 0.265,2.028 0.797,2.641 0.531,0.617 1.296,0.922 2.296,0.922 0.508,0 0.989,-0.094 1.438,-0.281 0.445,-0.188 0.875,-0.461 1.281,-0.829 v 1.235 c -0.418,0.281 -0.859,0.496 -1.328,0.64 -0.461,0.133 -0.945,0.204 -1.453,0.204 -1.336,0 -2.383,-0.407 -3.141,-1.219 -0.761,-0.813 -1.14,-1.914 -1.14,-3.313 0,-1.406 0.379,-2.515 1.14,-3.328 0.758,-0.812 1.805,-1.219 3.141,-1.219 0.519,0 1.008,0.075 1.469,0.219 0.468,0.137 0.906,0.34 1.312,0.61 z"
         style="fill:none;stroke:#666666;stroke-width:1.5;stroke-linecap:butt;stroke-linejoin:miter;stroke-miterlimit:4;stroke-dasharray:none;stroke-opacity:1"
         id="path20393" />
    </g>
    <g
       id="g20395"
       transform="matrix(1,0,0,-1,0,264.61441)">
      <path
         d="m 463.906,64.75 c 0,4.477 -3.707,8.109 -8.277,8.109 -4.57,0 -8.274,-3.632 -8.274,-8.109 0,-4.48 3.704,-8.113 8.274,-8.113 4.57,0 8.277,3.633 8.277,8.113 z"
         style="fill:#ffffff;fill-opacity:1;fill-rule:nonzero;stroke:#000000;stroke-width:1.5;stroke-linecap:round;stroke-linejoin:round;stroke-miterlimit:4;stroke-dasharray:none;stroke-opacity:1"
         id="path20397" />
    </g>
    <text
       xml:space="preserve"
       transform="scale(1,-1)"
       style="font-variant:normal;font-weight:normal;font-size:12px;font-family:'DejaVu Sans';-inkscape-font-specification:DejaVuSans;writing-mode:lr-tb;fill:#666666;fill-opacity:1;fill-rule:nonzero;stroke:none"
       id="text20401"
       x="451.42938"
       y="-195.49785"><tspan
         x="451.42938"
         y="-195.49785"
         id="tspan20399">C</tspan></text>
    <g
       id="g20403"
       transform="matrix(1,0,0,-1,0,264.61441)">
      <path
         d="m 459.164,61.039 v 1.25 c -0.406,-0.375 -0.836,-0.648 -1.281,-0.828 -0.449,-0.188 -0.93,-0.281 -1.438,-0.281 -1,0 -1.765,0.308 -2.297,0.922 -0.531,0.617 -0.796,1.5 -0.796,2.656 0,1.148 0.265,2.027 0.796,2.64 0.532,0.618 1.297,0.922 2.297,0.922 0.508,0 0.989,-0.093 1.438,-0.281 0.445,-0.187 0.875,-0.461 1.281,-0.828 v 1.234 c -0.418,0.282 -0.859,0.496 -1.328,0.641 -0.461,0.133 -0.945,0.203 -1.453,0.203 -1.336,0 -2.383,-0.406 -3.141,-1.219 -0.762,-0.812 -1.14,-1.914 -1.14,-3.312 0,-1.406 0.378,-2.516 1.14,-3.328 0.758,-0.813 1.805,-1.219 3.141,-1.219 0.519,0 1.008,0.074 1.469,0.219 0.468,0.136 0.906,0.34 1.312,0.609 z"
         style="fill:none;stroke:#666666;stroke-width:1.5;stroke-linecap:butt;stroke-linejoin:miter;stroke-miterlimit:4;stroke-dasharray:none;stroke-opacity:1"
         id="path20405" />
    </g>
    <g
       id="g20407"
       transform="matrix(1,0,0,-1,0,264.61441)">
      <path
         d="m 463.906,95.055 c 0,4.476 -3.707,8.109 -8.277,8.109 -4.57,0 -8.274,-3.633 -8.274,-8.109 0,-4.481 3.704,-8.114 8.274,-8.114 4.57,0 8.277,3.633 8.277,8.114 z"
         style="fill:#ffffff;fill-opacity:1;fill-rule:nonzero;stroke:#000000;stroke-width:1.5;stroke-linecap:round;stroke-linejoin:round;stroke-miterlimit:4;stroke-dasharray:none;stroke-opacity:1"
         id="path20409" />
    </g>
    <text
       xml:space="preserve"
       transform="scale(1,-1)"
       style="font-variant:normal;font-weight:normal;font-size:12px;font-family:'DejaVu Sans';-inkscape-font-specification:DejaVuSans;writing-mode:lr-tb;fill:#666666;fill-opacity:1;fill-rule:nonzero;stroke:none"
       id="text20413"
       x="451.42938"
       y="-165.19327"><tspan
         x="451.42938"
         y="-165.19327"
         id="tspan20411">C</tspan></text>
    <g
       id="g20415"
       transform="matrix(1,0,0,-1,0,264.61441)">
      <path
         d="m 459.164,91.344 v 1.25 c -0.406,-0.375 -0.836,-0.649 -1.281,-0.828 -0.449,-0.188 -0.93,-0.282 -1.438,-0.282 -1,0 -1.765,0.309 -2.297,0.922 -0.531,0.617 -0.796,1.5 -0.796,2.656 0,1.149 0.265,2.028 0.796,2.641 0.532,0.617 1.297,0.922 2.297,0.922 0.508,0 0.989,-0.094 1.438,-0.281 0.445,-0.188 0.875,-0.461 1.281,-0.828 v 1.234 c -0.418,0.281 -0.859,0.496 -1.328,0.641 -0.461,0.132 -0.945,0.203 -1.453,0.203 -1.336,0 -2.383,-0.406 -3.141,-1.219 -0.762,-0.813 -1.14,-1.914 -1.14,-3.313 0,-1.406 0.378,-2.515 1.14,-3.328 0.758,-0.812 1.805,-1.218 3.141,-1.218 0.519,0 1.008,0.074 1.469,0.218 0.468,0.137 0.906,0.34 1.312,0.61 z"
         style="fill:none;stroke:#666666;stroke-width:1.5;stroke-linecap:butt;stroke-linejoin:miter;stroke-miterlimit:4;stroke-dasharray:none;stroke-opacity:1"
         id="path20417" />
    </g>
    <g
       id="g20419"
       transform="matrix(1,0,0,-1,0,264.61441)">
      <path
         d="m 437.391,109.449 c 0,4.477 -3.707,8.11 -8.278,8.11 -4.57,0 -8.273,-3.633 -8.273,-8.11 0,-4.48 3.703,-8.113 8.273,-8.113 4.571,0 8.278,3.633 8.278,8.113 z"
         style="fill:#ffffff;fill-opacity:1;fill-rule:nonzero;stroke:#000000;stroke-width:1.5;stroke-linecap:round;stroke-linejoin:round;stroke-miterlimit:4;stroke-dasharray:none;stroke-opacity:1"
         id="path20421" />
    </g>
    <text
       xml:space="preserve"
       transform="scale(1,-1)"
       style="font-variant:normal;font-weight:normal;font-size:12px;font-family:'DejaVu Sans';-inkscape-font-specification:DejaVuSans;writing-mode:lr-tb;fill:#666666;fill-opacity:1;fill-rule:nonzero;stroke:none"
       id="text20425"
       x="424.91287"
       y="-150.7986"><tspan
         x="424.91287"
         y="-150.7986"
         id="tspan20423">C</tspan></text>
    <g
       id="g20427"
       transform="matrix(1,0,0,-1,0,264.61441)">
      <path
         d="m 432.648,105.738 v 1.25 c -0.406,-0.375 -0.836,-0.648 -1.281,-0.828 -0.449,-0.187 -0.929,-0.281 -1.437,-0.281 -1,0 -1.766,0.309 -2.297,0.922 -0.531,0.617 -0.797,1.5 -0.797,2.656 0,1.148 0.266,2.027 0.797,2.641 0.531,0.617 1.297,0.922 2.297,0.922 0.508,0 0.988,-0.094 1.437,-0.282 0.445,-0.187 0.875,-0.461 1.281,-0.828 v 1.235 c -0.418,0.281 -0.859,0.496 -1.328,0.64 -0.461,0.133 -0.945,0.203 -1.453,0.203 -1.336,0 -2.383,-0.406 -3.14,-1.218 -0.762,-0.813 -1.141,-1.915 -1.141,-3.313 0,-1.406 0.379,-2.516 1.141,-3.328 0.757,-0.813 1.804,-1.219 3.14,-1.219 0.52,0 1.008,0.074 1.469,0.219 0.469,0.137 0.906,0.34 1.312,0.609 z"
         style="fill:none;stroke:#666666;stroke-width:1.5;stroke-linecap:butt;stroke-linejoin:miter;stroke-miterlimit:4;stroke-dasharray:none;stroke-opacity:1"
         id="path20429" />
    </g>
    <g
       id="g20431"
       transform="matrix(1,0,0,-1,0,264.61441)">
      <path
         d="m 411.629,94.676 c 0,4.476 -3.703,8.109 -8.274,8.109 -4.57,0 -8.277,-3.633 -8.277,-8.109 0,-4.481 3.707,-8.114 8.277,-8.114 4.571,0 8.274,3.633 8.274,8.114 z"
         style="fill:#ffffff;fill-opacity:1;fill-rule:nonzero;stroke:#000000;stroke-width:1.5;stroke-linecap:round;stroke-linejoin:round;stroke-miterlimit:4;stroke-dasharray:none;stroke-opacity:1"
         id="path20433" />
    </g>
    <text
       xml:space="preserve"
       transform="scale(1,-1)"
       style="font-variant:normal;font-weight:normal;font-size:12px;font-family:'DejaVu Sans';-inkscape-font-specification:DejaVuSans;writing-mode:lr-tb;fill:#666666;fill-opacity:1;fill-rule:nonzero;stroke:none"
       id="text20437"
       x="399.15399"
       y="-165.57208"><tspan
         x="399.15399"
         y="-165.57208"
         id="tspan20435">C</tspan></text>
    <g
       id="g20439"
       transform="matrix(1,0,0,-1,0,264.61441)">
      <path
         d="m 406.887,90.965 v 1.25 c -0.407,-0.375 -0.836,-0.649 -1.282,-0.828 -0.449,-0.188 -0.929,-0.282 -1.437,-0.282 -1,0 -1.766,0.309 -2.297,0.922 -0.531,0.618 -0.797,1.5 -0.797,2.657 0,1.148 0.266,2.027 0.797,2.64 0.531,0.617 1.297,0.922 2.297,0.922 0.508,0 0.988,-0.094 1.437,-0.281 0.446,-0.188 0.875,-0.461 1.282,-0.828 v 1.234 c -0.418,0.281 -0.86,0.496 -1.328,0.641 -0.461,0.133 -0.946,0.203 -1.454,0.203 -1.335,0 -2.382,-0.406 -3.14,-1.219 -0.762,-0.812 -1.141,-1.914 -1.141,-3.312 0,-1.407 0.379,-2.516 1.141,-3.329 0.758,-0.812 1.805,-1.218 3.14,-1.218 0.52,0 1.008,0.074 1.469,0.218 0.469,0.137 0.906,0.34 1.313,0.61 z"
         style="fill:none;stroke:#666666;stroke-width:1.5;stroke-linecap:butt;stroke-linejoin:miter;stroke-miterlimit:4;stroke-dasharray:none;stroke-opacity:1"
         id="path20441" />
    </g>
    <g
       id="g20443"
       transform="matrix(1,0,0,-1,0,264.61441)">
      <path
         d="M 8.566,55.336 V 40.934"
         style="fill:none;stroke:#000000;stroke-width:1.5;stroke-linecap:round;stroke-linejoin:miter;stroke-miterlimit:4;stroke-dasharray:none;stroke-opacity:1"
         id="path20445" />
    </g>
    <g
       id="g20447"
       transform="matrix(1,0,0,-1,0,264.61441)">
      <path
         d="M 34.516,78.133 15.316,67.035"
         style="fill:#000000;fill-opacity:1;fill-rule:nonzero;stroke:#000000;stroke-width:1.5;stroke-linecap:round;stroke-linejoin:miter;stroke-miterlimit:4;stroke-dasharray:none;stroke-opacity:1"
         id="path20449" />
    </g>
    <g
       id="g20451"
       transform="matrix(1,0,0,-1,0,264.61441)">
      <path
         d="M 60.543,63.133 V 40.934"
         style="fill:none;stroke:#000000;stroke-width:1.5;stroke-linecap:round;stroke-linejoin:miter;stroke-miterlimit:4;stroke-dasharray:none;stroke-opacity:1"
         id="path20453" />
    </g>
    <g
       id="g20455"
       transform="matrix(1,0,0,-1,0,264.61441)">
      <path
         d="m 86.492,108.133 19.274,11.101"
         style="fill:#000000;fill-opacity:1;fill-rule:nonzero;stroke:#000000;stroke-width:1.5;stroke-linecap:round;stroke-linejoin:miter;stroke-miterlimit:4;stroke-dasharray:none;stroke-opacity:1"
         id="path20457" />
    </g>
    <g
       id="g20459"
       transform="matrix(1,0,0,-1,0,264.61441)">
      <path
         d="m 60.543,123.133 -26.027,-15"
         style="fill:#000000;fill-opacity:1;fill-rule:nonzero;stroke:#000000;stroke-width:1.5;stroke-linecap:round;stroke-linejoin:miter;stroke-miterlimit:4;stroke-dasharray:none;stroke-opacity:1"
         id="path20461" />
    </g>
    <g
       id="g20463"
       transform="matrix(1,0,0,-1,0,264.61441)">
      <path
         d="m 34.516,108.133 v -30"
         style="fill:none;stroke:#000000;stroke-width:1.5;stroke-linecap:round;stroke-linejoin:miter;stroke-miterlimit:4;stroke-dasharray:none;stroke-opacity:1"
         id="path20465" />
    </g>
    <g
       id="g20467"
       transform="matrix(1,0,0,-1,0,264.61441)">
      <path
         d="m 34.516,78.133 26.027,-15"
         style="fill:#000000;fill-opacity:1;fill-rule:nonzero;stroke:#000000;stroke-width:1.5;stroke-linecap:round;stroke-linejoin:miter;stroke-miterlimit:4;stroke-dasharray:none;stroke-opacity:1"
         id="path20469" />
    </g>
    <g
       id="g20471"
       transform="matrix(1,0,0,-1,0,264.61441)">
      <path
         d="m 60.543,63.133 25.949,15"
         style="fill:#000000;fill-opacity:1;fill-rule:nonzero;stroke:#000000;stroke-width:1.5;stroke-linecap:round;stroke-linejoin:miter;stroke-miterlimit:4;stroke-dasharray:none;stroke-opacity:1"
         id="path20473" />
    </g>
    <g
       id="g20475"
       transform="matrix(1,0,0,-1,0,264.61441)">
      <path
         d="m 86.492,78.133 v 30"
         style="fill:none;stroke:#000000;stroke-width:1.5;stroke-linecap:round;stroke-linejoin:miter;stroke-miterlimit:4;stroke-dasharray:none;stroke-opacity:1"
         id="path20477" />
    </g>
    <g
       id="g20479"
       transform="matrix(1,0,0,-1,0,264.61441)">
      <path
         d="m 86.492,108.133 -25.949,15"
         style="fill:#000000;fill-opacity:1;fill-rule:nonzero;stroke:#000000;stroke-width:1.5;stroke-linecap:round;stroke-linejoin:miter;stroke-miterlimit:4;stroke-dasharray:none;stroke-opacity:1"
         id="path20481" />
    </g>
    <g
       id="g20483"
       transform="matrix(1,0,0,-1,0,264.61441)">
      <path
         d="m 18.863,62.367 c 0,4.477 -3.703,8.11 -8.273,8.11 -4.57,0 -8.278,-3.633 -8.278,-8.11 0,-4.48 3.708,-8.109 8.278,-8.109 4.57,0 8.273,3.629 8.273,8.109 z"
         style="fill:#ffffff;fill-opacity:1;fill-rule:nonzero;stroke:#000000;stroke-width:1.5;stroke-linecap:round;stroke-linejoin:round;stroke-miterlimit:4;stroke-dasharray:none;stroke-opacity:1"
         id="path20485" />
    </g>
    <text
       xml:space="preserve"
       transform="scale(1,-1)"
       style="font-variant:normal;font-weight:normal;font-size:12px;font-family:'DejaVu Sans';-inkscape-font-specification:DejaVuSans;writing-mode:lr-tb;fill:#ff0c0c;fill-opacity:1;fill-rule:nonzero;stroke:none"
       id="text20489"
       x="5.866538"
       y="-197.8804"><tspan
         x="5.866538"
         y="-197.8804"
         id="tspan20487">O</tspan></text>
    <g
       id="g20491"
       transform="matrix(1,0,0,-1,0,264.61441)">
      <path
         d="m 10.602,58.781 c -0.868,0 -1.555,0.324 -2.063,0.969 -0.5,0.637 -0.75,1.512 -0.75,2.625 0,1.094 0.25,1.965 0.75,2.609 0.508,0.637 1.195,0.954 2.063,0.954 0.851,0 1.531,-0.317 2.031,-0.954 0.508,-0.644 0.765,-1.515 0.765,-2.609 0,-1.113 -0.257,-1.988 -0.765,-2.625 -0.5,-0.645 -1.18,-0.969 -2.031,-0.969 z m 0,-0.953 c 1.218,0 2.191,0.414 2.921,1.234 0.739,0.825 1.11,1.93 1.11,3.313 0,1.375 -0.371,2.477 -1.11,3.297 -0.73,0.824 -1.703,1.234 -2.921,1.234 -1.231,0 -2.215,-0.41 -2.954,-1.234 -0.742,-0.82 -1.109,-1.922 -1.109,-3.297 0,-1.383 0.367,-2.488 1.109,-3.313 0.739,-0.82 1.723,-1.234 2.954,-1.234 z"
         style="fill:none;stroke:#ff0c0c;stroke-width:1.5;stroke-linecap:butt;stroke-linejoin:miter;stroke-miterlimit:4;stroke-dasharray:none;stroke-opacity:1"
         id="path20493" />
    </g>
    <g
       id="g20495"
       transform="matrix(1,0,0,-1,0,264.61441)">
      <path
         d="m 17.301,33.492 c 0,4.477 -3.707,8.11 -8.278,8.11 -4.57,0 -8.273,-3.633 -8.273,-8.11 0,-4.48 3.703,-8.113 8.273,-8.113 4.571,0 8.278,3.633 8.278,8.113 z"
         style="fill:#ffffff;fill-opacity:1;fill-rule:nonzero;stroke:#000000;stroke-width:1.5;stroke-linecap:round;stroke-linejoin:round;stroke-miterlimit:4;stroke-dasharray:none;stroke-opacity:1"
         id="path20497" />
    </g>
    <text
       xml:space="preserve"
       transform="scale(1,-1)"
       style="font-variant:normal;font-weight:normal;font-size:12px;font-family:'DejaVu Sans';-inkscape-font-specification:DejaVuSans;writing-mode:lr-tb;fill:#666666;fill-opacity:1;fill-rule:nonzero;stroke:none"
       id="text20501"
       x="4.8241658"
       y="-226.75563"><tspan
         x="4.8241658"
         y="-226.75563"
         id="tspan20499">C</tspan></text>
    <g
       id="g20503"
       transform="matrix(1,0,0,-1,0,264.61441)">
      <path
         d="m 12.559,29.781 v 1.25 c -0.407,-0.375 -0.836,-0.648 -1.282,-0.828 -0.449,-0.187 -0.929,-0.281 -1.437,-0.281 -1,0 -1.766,0.308 -2.297,0.922 -0.531,0.617 -0.797,1.5 -0.797,2.656 0,1.148 0.266,2.027 0.797,2.641 0.531,0.617 1.297,0.921 2.297,0.921 0.508,0 0.988,-0.093 1.437,-0.281 0.446,-0.187 0.875,-0.461 1.282,-0.828 v 1.235 c -0.418,0.281 -0.86,0.496 -1.329,0.64 -0.46,0.133 -0.945,0.203 -1.453,0.203 -1.336,0 -2.382,-0.406 -3.14,-1.219 C 5.875,36 5.496,34.898 5.496,33.5 c 0,-1.406 0.379,-2.516 1.141,-3.328 0.758,-0.813 1.804,-1.219 3.14,-1.219 0.52,0 1.008,0.074 1.469,0.219 0.469,0.137 0.906,0.34 1.313,0.609 z"
         style="fill:none;stroke:#666666;stroke-width:1.5;stroke-linecap:butt;stroke-linejoin:miter;stroke-miterlimit:4;stroke-dasharray:none;stroke-opacity:1"
         id="path20505" />
    </g>
    <g
       id="g20507"
       transform="matrix(1,0,0,-1,0,264.61441)">
      <path
         d="m 68.793,35 c 0,4.48 -3.707,8.109 -8.277,8.109 -4.571,0 -8.274,-3.629 -8.274,-8.109 0,-4.48 3.703,-8.109 8.274,-8.109 4.57,0 8.277,3.629 8.277,8.109 z"
         style="fill:#ffffff;fill-opacity:1;fill-rule:nonzero;stroke:#000000;stroke-width:1.5;stroke-linecap:round;stroke-linejoin:round;stroke-miterlimit:4;stroke-dasharray:none;stroke-opacity:1"
         id="path20509" />
    </g>
    <text
       xml:space="preserve"
       transform="scale(1,-1)"
       style="font-variant:normal;font-weight:normal;font-size:12px;font-family:'DejaVu Sans';-inkscape-font-specification:DejaVuSans;writing-mode:lr-tb;fill:#0c0cff;fill-opacity:1;fill-rule:nonzero;stroke:none"
       id="text20513"
       x="56.028076"
       y="-225.2404"><tspan
         x="56.028076"
         y="-225.2404"
         id="tspan20511">N</tspan></text>
    <g
       id="g20515"
       transform="matrix(1,0,0,-1,0,264.61441)">
      <path
         d="m 57.199,30.625 h 1.594 l 3.891,7.313 v -7.313 h 1.14 v 8.75 H 62.23 l -3.875,-7.313 v 7.313 h -1.156 z"
         style="fill:none;stroke:#0c0cff;stroke-width:1.5;stroke-linecap:butt;stroke-linejoin:miter;stroke-miterlimit:4;stroke-dasharray:none;stroke-opacity:1"
         id="path20517" />
    </g>
    <g
       id="g20519"
       transform="matrix(1,0,0,-1,0,264.61441)">
      <path
         d="m 121.391,121.766 c 0,4.476 -3.707,8.109 -8.278,8.109 -4.57,0 -8.273,-3.633 -8.273,-8.109 0,-4.481 3.703,-8.11 8.273,-8.11 4.571,0 8.278,3.629 8.278,8.11 z"
         style="fill:#ffffff;fill-opacity:1;fill-rule:nonzero;stroke:#000000;stroke-width:1.5;stroke-linecap:round;stroke-linejoin:round;stroke-miterlimit:4;stroke-dasharray:none;stroke-opacity:1"
         id="path20521" />
    </g>
    <text
       xml:space="preserve"
       transform="scale(1,-1)"
       style="font-variant:normal;font-weight:normal;font-size:12px;font-family:'DejaVu Sans';-inkscape-font-specification:DejaVuSans;writing-mode:lr-tb;fill:#0c0cff;fill-opacity:1;fill-rule:nonzero;stroke:none"
       id="text20525"
       x="108.62578"
       y="-138.47531"><tspan
         x="108.62578"
         y="-138.47531"
         id="tspan20523">N</tspan></text>
    <g
       id="g20527"
       transform="matrix(1,0,0,-1,0,264.61441)">
      <path
         d="m 109.797,117.391 h 1.594 l 3.89,7.312 v -7.312 h 1.141 v 8.75 h -1.594 l -3.875,-7.313 v 7.313 h -1.156 z"
         style="fill:none;stroke:#0c0cff;stroke-width:1.5;stroke-linecap:butt;stroke-linejoin:miter;stroke-miterlimit:4;stroke-dasharray:none;stroke-opacity:1"
         id="path20529" />
    </g>
    <g
       id="g20531"
       transform="matrix(1,0,0,-1,0,264.61441)">
      <path
         d="m 69.492,63.43 c 0,4.476 -3.703,8.109 -8.273,8.109 -4.571,0 -8.278,-3.633 -8.278,-8.109 0,-4.481 3.707,-8.11 8.278,-8.11 4.57,0 8.273,3.629 8.273,8.11 z"
         style="fill:#ffffff;fill-opacity:1;fill-rule:nonzero;stroke:#000000;stroke-width:1.5;stroke-linecap:round;stroke-linejoin:round;stroke-miterlimit:4;stroke-dasharray:none;stroke-opacity:1"
         id="path20533" />
    </g>
    <text
       xml:space="preserve"
       transform="scale(1,-1)"
       style="font-variant:normal;font-weight:normal;font-size:12px;font-family:'DejaVu Sans';-inkscape-font-specification:DejaVuSans;writing-mode:lr-tb;fill:#666666;fill-opacity:1;fill-rule:nonzero;stroke:none"
       id="text20537"
       x="57.016296"
       y="-196.81749"><tspan
         x="57.016296"
         y="-196.81749"
         id="tspan20535">C</tspan></text>
    <g
       id="g20539"
       transform="matrix(1,0,0,-1,0,264.61441)">
      <path
         d="m 64.75,59.719 v 1.25 c -0.406,-0.375 -0.836,-0.649 -1.281,-0.828 -0.449,-0.188 -0.93,-0.282 -1.438,-0.282 -1,0 -1.765,0.309 -2.297,0.922 -0.531,0.617 -0.796,1.5 -0.796,2.657 0,1.148 0.265,2.027 0.796,2.64 0.532,0.617 1.297,0.922 2.297,0.922 0.508,0 0.989,-0.094 1.438,-0.281 0.445,-0.188 0.875,-0.461 1.281,-0.828 v 1.234 c -0.418,0.281 -0.859,0.496 -1.328,0.641 -0.461,0.132 -0.945,0.203 -1.453,0.203 -1.336,0 -2.383,-0.407 -3.141,-1.219 -0.762,-0.812 -1.14,-1.914 -1.14,-3.312 0,-1.407 0.378,-2.516 1.14,-3.329 0.758,-0.812 1.805,-1.218 3.141,-1.218 0.519,0 1.008,0.074 1.469,0.218 0.468,0.137 0.906,0.34 1.312,0.61 z"
         style="fill:none;stroke:#666666;stroke-width:1.5;stroke-linecap:butt;stroke-linejoin:miter;stroke-miterlimit:4;stroke-dasharray:none;stroke-opacity:1"
         id="path20541" />
    </g>
    <g
       id="g20543"
       transform="matrix(1,0,0,-1,0,264.61441)">
      <path
         d="m 42.977,77.824 c 0,4.477 -3.707,8.11 -8.278,8.11 -4.57,0 -8.273,-3.633 -8.273,-8.11 0,-4.48 3.703,-8.109 8.273,-8.109 4.571,0 8.278,3.629 8.278,8.109 z"
         style="fill:#ffffff;fill-opacity:1;fill-rule:nonzero;stroke:#000000;stroke-width:1.5;stroke-linecap:round;stroke-linejoin:round;stroke-miterlimit:4;stroke-dasharray:none;stroke-opacity:1"
         id="path20545" />
    </g>
    <text
       xml:space="preserve"
       transform="scale(1,-1)"
       style="font-variant:normal;font-weight:normal;font-size:12px;font-family:'DejaVu Sans';-inkscape-font-specification:DejaVuSans;writing-mode:lr-tb;fill:#666666;fill-opacity:1;fill-rule:nonzero;stroke:none"
       id="text20549"
       x="30.499802"
       y="-182.42281"><tspan
         x="30.499802"
         y="-182.42281"
         id="tspan20547">C</tspan></text>
    <g
       id="g20551"
       transform="matrix(1,0,0,-1,0,264.61441)">
      <path
         d="m 38.234,74.113 v 1.25 c -0.406,-0.375 -0.836,-0.648 -1.281,-0.828 -0.449,-0.187 -0.93,-0.281 -1.437,-0.281 -1,0 -1.766,0.308 -2.297,0.922 -0.531,0.617 -0.797,1.5 -0.797,2.656 0,1.148 0.266,2.027 0.797,2.641 0.531,0.617 1.297,0.922 2.297,0.922 0.507,0 0.988,-0.094 1.437,-0.282 0.445,-0.187 0.875,-0.461 1.281,-0.828 v 1.235 c -0.418,0.281 -0.859,0.496 -1.328,0.64 -0.461,0.133 -0.945,0.203 -1.453,0.203 -1.336,0 -2.383,-0.406 -3.141,-1.218 -0.761,-0.813 -1.14,-1.915 -1.14,-3.313 0,-1.406 0.379,-2.516 1.14,-3.328 0.758,-0.813 1.805,-1.219 3.141,-1.219 0.52,0 1.008,0.074 1.469,0.219 0.469,0.137 0.906,0.34 1.312,0.609 z"
         style="fill:none;stroke:#666666;stroke-width:1.5;stroke-linecap:butt;stroke-linejoin:miter;stroke-miterlimit:4;stroke-dasharray:none;stroke-opacity:1"
         id="path20553" />
    </g>
    <g
       id="g20555"
       transform="matrix(1,0,0,-1,0,264.61441)">
      <path
         d="m 42.598,108.508 c 0,4.476 -3.707,8.109 -8.278,8.109 -4.57,0 -8.273,-3.633 -8.273,-8.109 0,-4.481 3.703,-8.11 8.273,-8.11 4.571,0 8.278,3.629 8.278,8.11 z"
         style="fill:#ffffff;fill-opacity:1;fill-rule:nonzero;stroke:#000000;stroke-width:1.5;stroke-linecap:round;stroke-linejoin:round;stroke-miterlimit:4;stroke-dasharray:none;stroke-opacity:1"
         id="path20557" />
    </g>
    <text
       xml:space="preserve"
       transform="scale(1,-1)"
       style="font-variant:normal;font-weight:normal;font-size:12px;font-family:'DejaVu Sans';-inkscape-font-specification:DejaVuSans;writing-mode:lr-tb;fill:#666666;fill-opacity:1;fill-rule:nonzero;stroke:none"
       id="text20561"
       x="30.120991"
       y="-151.73943"><tspan
         x="30.120991"
         y="-151.73943"
         id="tspan20559">C</tspan></text>
    <g
       id="g20563"
       transform="matrix(1,0,0,-1,0,264.61441)">
      <path
         d="m 37.855,104.797 v 1.25 c -0.406,-0.375 -0.835,-0.649 -1.281,-0.828 -0.449,-0.188 -0.929,-0.281 -1.437,-0.281 -1,0 -1.766,0.308 -2.297,0.921 -0.531,0.618 -0.797,1.5 -0.797,2.657 0,1.148 0.266,2.027 0.797,2.64 0.531,0.617 1.297,0.922 2.297,0.922 0.508,0 0.988,-0.094 1.437,-0.281 0.446,-0.188 0.875,-0.461 1.281,-0.828 v 1.234 c -0.417,0.281 -0.859,0.496 -1.328,0.641 -0.461,0.133 -0.945,0.203 -1.453,0.203 -1.336,0 -2.383,-0.406 -3.14,-1.219 -0.762,-0.812 -1.141,-1.914 -1.141,-3.312 0,-1.407 0.379,-2.516 1.141,-3.328 0.757,-0.813 1.804,-1.219 3.14,-1.219 0.52,0 1.008,0.074 1.469,0.219 0.469,0.136 0.906,0.339 1.312,0.609 z"
         style="fill:none;stroke:#666666;stroke-width:1.5;stroke-linecap:butt;stroke-linejoin:miter;stroke-miterlimit:4;stroke-dasharray:none;stroke-opacity:1"
         id="path20565" />
    </g>
    <g
       id="g20567"
       transform="matrix(1,0,0,-1,0,264.61441)">
      <path
         d="m 68.734,122.523 c 0,4.477 -3.703,8.11 -8.273,8.11 -4.57,0 -8.277,-3.633 -8.277,-8.11 0,-4.48 3.707,-8.109 8.277,-8.109 4.57,0 8.273,3.629 8.273,8.109 z"
         style="fill:#ffffff;fill-opacity:1;fill-rule:nonzero;stroke:#000000;stroke-width:1.5;stroke-linecap:round;stroke-linejoin:round;stroke-miterlimit:4;stroke-dasharray:none;stroke-opacity:1"
         id="path20569" />
    </g>
    <text
       xml:space="preserve"
       transform="scale(1,-1)"
       style="font-variant:normal;font-weight:normal;font-size:12px;font-family:'DejaVu Sans';-inkscape-font-specification:DejaVuSans;writing-mode:lr-tb;fill:#666666;fill-opacity:1;fill-rule:nonzero;stroke:none"
       id="text20573"
       x="56.258686"
       y="-137.72356"><tspan
         x="56.258686"
         y="-137.72356"
         id="tspan20571">C</tspan></text>
    <g
       id="g20575"
       transform="matrix(1,0,0,-1,0,264.61441)">
      <path
         d="m 63.992,118.812 v 1.25 c -0.406,-0.374 -0.836,-0.648 -1.281,-0.828 -0.449,-0.187 -0.93,-0.281 -1.438,-0.281 -1,0 -1.765,0.309 -2.296,0.922 -0.532,0.617 -0.797,1.5 -0.797,2.656 0,1.149 0.265,2.028 0.797,2.641 0.531,0.617 1.296,0.922 2.296,0.922 0.508,0 0.989,-0.094 1.438,-0.282 0.445,-0.187 0.875,-0.46 1.281,-0.828 v 1.235 c -0.418,0.281 -0.859,0.496 -1.328,0.64 -0.461,0.133 -0.945,0.203 -1.453,0.203 -1.336,0 -2.383,-0.406 -3.141,-1.218 -0.761,-0.813 -1.14,-1.914 -1.14,-3.313 0,-1.406 0.379,-2.515 1.14,-3.328 0.758,-0.812 1.805,-1.219 3.141,-1.219 0.519,0 1.008,0.075 1.469,0.219 0.468,0.137 0.906,0.34 1.312,0.609 z"
         style="fill:none;stroke:#666666;stroke-width:1.5;stroke-linecap:butt;stroke-linejoin:miter;stroke-miterlimit:4;stroke-dasharray:none;stroke-opacity:1"
         id="path20577" />
    </g>
    <g
       id="g20579"
       transform="matrix(1,0,0,-1,0,264.61441)">
      <path
         d="m 94.871,108.129 c 0,4.476 -3.703,8.109 -8.273,8.109 -4.571,0 -8.278,-3.633 -8.278,-8.109 0,-4.481 3.707,-8.109 8.278,-8.109 4.57,0 8.273,3.628 8.273,8.109 z"
         style="fill:#ffffff;fill-opacity:1;fill-rule:nonzero;stroke:#000000;stroke-width:1.5;stroke-linecap:round;stroke-linejoin:round;stroke-miterlimit:4;stroke-dasharray:none;stroke-opacity:1"
         id="path20581" />
    </g>
    <text
       xml:space="preserve"
       transform="scale(1,-1)"
       style="font-variant:normal;font-weight:normal;font-size:12px;font-family:'DejaVu Sans';-inkscape-font-specification:DejaVuSans;writing-mode:lr-tb;fill:#666666;fill-opacity:1;fill-rule:nonzero;stroke:none"
       id="text20585"
       x="82.396378"
       y="-152.11824"><tspan
         x="82.396378"
         y="-152.11824"
         id="tspan20583">C</tspan></text>
    <g
       id="g20587"
       transform="matrix(1,0,0,-1,0,264.61441)">
      <path
         d="m 90.129,104.418 v 1.25 c -0.406,-0.375 -0.836,-0.648 -1.281,-0.828 -0.45,-0.188 -0.93,-0.281 -1.438,-0.281 -1,0 -1.765,0.308 -2.297,0.921 -0.531,0.618 -0.797,1.5 -0.797,2.657 0,1.148 0.266,2.027 0.797,2.64 0.532,0.618 1.297,0.922 2.297,0.922 0.508,0 0.988,-0.094 1.438,-0.281 0.445,-0.188 0.875,-0.461 1.281,-0.828 v 1.234 c -0.418,0.281 -0.859,0.496 -1.328,0.641 -0.461,0.133 -0.946,0.203 -1.453,0.203 -1.336,0 -2.383,-0.406 -3.141,-1.219 -0.762,-0.812 -1.141,-1.914 -1.141,-3.312 0,-1.407 0.379,-2.516 1.141,-3.328 0.758,-0.813 1.805,-1.219 3.141,-1.219 0.519,0 1.007,0.074 1.468,0.219 0.469,0.136 0.907,0.339 1.313,0.609 z"
         style="fill:none;stroke:#666666;stroke-width:1.5;stroke-linecap:butt;stroke-linejoin:miter;stroke-miterlimit:4;stroke-dasharray:none;stroke-opacity:1"
         id="path20589" />
    </g>
    <g
       id="g20591"
       transform="matrix(1,0,0,-1,0,264.61441)">
      <path
         d="m 94.492,77.445 c 0,4.477 -3.703,8.11 -8.273,8.11 -4.571,0 -8.274,-3.633 -8.274,-8.11 0,-4.48 3.703,-8.109 8.274,-8.109 4.57,0 8.273,3.629 8.273,8.109 z"
         style="fill:#ffffff;fill-opacity:1;fill-rule:nonzero;stroke:#000000;stroke-width:1.5;stroke-linecap:round;stroke-linejoin:round;stroke-miterlimit:4;stroke-dasharray:none;stroke-opacity:1"
         id="path20593" />
    </g>
    <text
       xml:space="preserve"
       transform="scale(1,-1)"
       style="font-variant:normal;font-weight:normal;font-size:12px;font-family:'DejaVu Sans';-inkscape-font-specification:DejaVuSans;writing-mode:lr-tb;fill:#666666;fill-opacity:1;fill-rule:nonzero;stroke:none"
       id="text20597"
       x="82.017578"
       y="-182.80162"><tspan
         x="82.017578"
         y="-182.80162"
         id="tspan20595">C</tspan></text>
    <g
       id="g20599"
       transform="matrix(1,0,0,-1,0,264.61441)">
      <path
         d="m 89.754,73.734 v 1.25 c -0.406,-0.375 -0.836,-0.648 -1.281,-0.828 -0.45,-0.187 -0.93,-0.281 -1.438,-0.281 -1,0 -1.765,0.309 -2.297,0.922 -0.531,0.617 -0.797,1.5 -0.797,2.656 0,1.149 0.266,2.027 0.797,2.641 0.532,0.617 1.297,0.922 2.297,0.922 0.508,0 0.988,-0.094 1.438,-0.282 0.445,-0.187 0.875,-0.461 1.281,-0.828 v 1.235 c -0.418,0.281 -0.859,0.496 -1.328,0.64 -0.461,0.133 -0.946,0.203 -1.453,0.203 -1.336,0 -2.383,-0.406 -3.141,-1.218 -0.762,-0.813 -1.141,-1.914 -1.141,-3.313 0,-1.406 0.379,-2.515 1.141,-3.328 0.758,-0.813 1.805,-1.219 3.141,-1.219 0.519,0 1.007,0.074 1.468,0.219 0.469,0.137 0.907,0.34 1.313,0.609 z"
         style="fill:none;stroke:#666666;stroke-width:1.5;stroke-linecap:butt;stroke-linejoin:miter;stroke-miterlimit:4;stroke-dasharray:none;stroke-opacity:1"
         id="path20601" />
    </g>
    <g
       id="g20603"
       transform="matrix(1,0,0,-1,0,264.61441)">
      <path
         d="M 70.441,61.566 C 184.008,28.398 306.176,1.344 420.793,45.461"
         style="fill:none;stroke:#cf0833;stroke-width:1.125;stroke-linecap:butt;stroke-linejoin:miter;stroke-miterlimit:4;stroke-dasharray:none;stroke-opacity:1"
         id="path20605" />
    </g>
    <g
       id="g20607"
       transform="matrix(1,0.292059,0.292059,-1,0,264.61441)">
      <path
         d="m 59.134,75.685 4.32,-4.321 -15.117,4.32 15.118,4.317 z"
         style="fill:#cf0833;fill-opacity:1;fill-rule:evenodd;stroke:#cf0833;stroke-width:1.15188;stroke-linecap:butt;stroke-linejoin:miter;stroke-miterlimit:4;stroke-dasharray:none;stroke-opacity:1"
         id="path20609" />
    </g>
    <g
       id="g20611"
       transform="matrix(-1,0.384937,0.384937,1,0,264.61441)">
      <path
         d="m -370.507,106.138 -12.618,-4.64 12.621,-4.639 c -2.017,2.737 -2.004,6.486 -0.003,9.279 z"
         style="fill:#cf0833;fill-opacity:1;fill-rule:evenodd;stroke:#cf0833;stroke-width:0.721807;stroke-linecap:butt;stroke-linejoin:round;stroke-miterlimit:4;stroke-dasharray:none;stroke-opacity:1"
         id="path20613" />
    </g>
    <g
       id="g20615"
       transform="matrix(1,0,0,-1,0,264.61441)">
      <path
         d="M 95.461,73.887 C 209.828,47.281 333.367,10.23 445.625,65.16"
         style="fill:none;stroke:#cf0833;stroke-width:1.125;stroke-linecap:butt;stroke-linejoin:miter;stroke-miterlimit:4;stroke-dasharray:none;stroke-opacity:1"
         id="path20617" />
    </g>
    <g
       id="g20619"
       transform="matrix(1,0.232627,0.232627,-1,0,264.61441)">
      <path
         d="m 85.211,91.162 4.383,-4.383 -15.339,4.381 15.339,4.385 z"
         style="fill:#cf0833;fill-opacity:1;fill-rule:evenodd;stroke:#cf0833;stroke-width:1.16879;stroke-linecap:butt;stroke-linejoin:miter;stroke-miterlimit:4;stroke-dasharray:none;stroke-opacity:1"
         id="path20621" />
    </g>
    <g
       id="g20623"
       transform="matrix(-1,0.489317,0.489317,1,0,264.61441)">
      <path
         d="m -374.461,127.84 -12.145,-4.464 12.146,-4.467 c -1.94,2.637 -1.929,6.245 -0.001,8.931 z"
         style="fill:#cf0833;fill-opacity:1;fill-rule:evenodd;stroke:#cf0833;stroke-width:0.694727;stroke-linecap:butt;stroke-linejoin:round;stroke-miterlimit:4;stroke-dasharray:none;stroke-opacity:1"
         id="path20625" />
    </g>
    <g
       id="g20627"
       transform="matrix(1,0,0,-1,0,264.61441)">
      <path
         d="M 96.277,105.684 C 212.031,83.219 332.449,41.402 447.828,88.953"
         style="fill:none;stroke:#cf0833;stroke-width:1.125;stroke-linecap:butt;stroke-linejoin:miter;stroke-miterlimit:4;stroke-dasharray:none;stroke-opacity:1"
         id="path20629" />
    </g>
    <g
       id="g20631"
       transform="matrix(1,0.194096,0.194096,-1,0,264.61441)">
      <path
         d="m 84.061,119.855 4.416,-4.416 -15.463,4.416 15.462,4.419 z"
         style="fill:#cf0833;fill-opacity:1;fill-rule:evenodd;stroke:#cf0833;stroke-width:1.17801;stroke-linecap:butt;stroke-linejoin:miter;stroke-miterlimit:4;stroke-dasharray:none;stroke-opacity:1"
         id="path20633" />
    </g>
    <g
       id="g20635"
       transform="matrix(-1,0.412138,0.412138,1,0,264.61441)">
      <path
         d="m -403.023,86.347 -12.5,-4.598 12.5,-4.597 c -1.999,2.714 -1.984,6.427 0,9.195 z"
         style="fill:#cf0833;fill-opacity:1;fill-rule:evenodd;stroke:#cf0833;stroke-width:0.715087;stroke-linecap:butt;stroke-linejoin:round;stroke-miterlimit:4;stroke-dasharray:none;stroke-opacity:1"
         id="path20637" />
    </g>
    <g
       id="g20639"
       transform="matrix(1,0,0,-1,0,264.61441)">
      <path
         d="m 68.453,128.719 c 115.371,36.265 248.758,62.238 355.836,-10.836"
         style="fill:none;stroke:#cf0833;stroke-width:1.125;stroke-linecap:butt;stroke-linejoin:miter;stroke-miterlimit:4;stroke-dasharray:none;stroke-opacity:1"
         id="path20641" />
    </g>
    <g
       id="g20643"
       transform="matrix(1,-0.314319,-0.314319,-1,0,264.61441)">
      <path
         d="m 109.854,97.565 4.291,-4.294 -15.026,4.293 15.025,4.293 z"
         style="fill:#cf0833;fill-opacity:1;fill-rule:evenodd;stroke:#cf0833;stroke-width:1.14478;stroke-linecap:butt;stroke-linejoin:miter;stroke-miterlimit:4;stroke-dasharray:none;stroke-opacity:1"
         id="path20645" />
    </g>
    <g
       id="g20647"
       transform="matrix(-1,-0.682441,-0.682441,1,0,264.61441)">
      <path
         d="m -224.652,-273.851 -11.17,-4.107 11.169,-4.105 c -1.783,2.424 -1.775,5.743 0.001,8.212 z"
         style="fill:#cf0833;fill-opacity:1;fill-rule:evenodd;stroke:#cf0833;stroke-width:0.63885;stroke-linecap:butt;stroke-linejoin:round;stroke-miterlimit:4;stroke-dasharray:none;stroke-opacity:1"
         id="path20649" />
    </g>
    <g
       id="g20651"
       transform="matrix(1,0,0,-1,0,264.61441)">
      <path
         d="M 43.688,106.156 C 157.445,68.254 277.477,64.332 394.164,91.188"
         style="fill:none;stroke:#cf0833;stroke-width:1.125;stroke-linecap:butt;stroke-linejoin:miter;stroke-miterlimit:4;stroke-dasharray:none;stroke-opacity:1"
         id="path20653" />
    </g>
    <g
       id="g20655"
       transform="matrix(1,0.33318,0.33318,-1,0,264.61441)">
      <path
         d="m 18.16,108.648 4.27,-4.269 -14.943,4.272 14.942,4.267 z"
         style="fill:#cf0833;fill-opacity:1;fill-rule:evenodd;stroke:#cf0833;stroke-width:1.13847;stroke-linecap:butt;stroke-linejoin:miter;stroke-miterlimit:4;stroke-dasharray:none;stroke-opacity:1"
         id="path20657" />
    </g>
    <g
       id="g20659"
       transform="matrix(-1,0.230153,0.230153,1,0,264.61441)">
      <path
         d="m -382.545,4.419 -13.178,-4.846 13.178,-4.845 c -2.104,2.859 -2.094,6.774 0,9.691 z"
         style="fill:#cf0833;fill-opacity:1;fill-rule:evenodd;stroke:#cf0833;stroke-width:0.753732;stroke-linecap:butt;stroke-linejoin:round;stroke-miterlimit:4;stroke-dasharray:none;stroke-opacity:1"
         id="path20661" />
    </g>
    <g
       id="g20663"
       transform="matrix(1,0,0,-1,0,264.61441)">
      <path
         d="M 44.379,79.781 C 161.062,63.059 276.363,35.367 393.973,60.84"
         style="fill:none;stroke:#cf0833;stroke-width:1.125;stroke-linecap:butt;stroke-linejoin:miter;stroke-miterlimit:4;stroke-dasharray:none;stroke-opacity:1"
         id="path20665" />
    </g>
    <g
       id="g20667"
       transform="matrix(1,0.14331,0.14331,-1,0,264.61441)">
      <path
         d="m 43.419,84.406 4.455,-4.451 -15.592,4.453 15.593,4.453 z"
         style="fill:#cf0833;fill-opacity:1;fill-rule:evenodd;stroke:#cf0833;stroke-width:1.18786;stroke-linecap:butt;stroke-linejoin:miter;stroke-miterlimit:4;stroke-dasharray:none;stroke-opacity:1"
         id="path20669" />
    </g>
    <g
       id="g20671"
       transform="matrix(-1,0.216604,0.216604,1,0,264.61441)">
      <path
         d="m -377.153,28.275 -13.212,-4.857 13.212,-4.862 c -2.108,2.871 -2.098,6.794 0,9.719 z"
         style="fill:#cf0833;fill-opacity:1;fill-rule:evenodd;stroke:#cf0833;stroke-width:0.755908;stroke-linecap:butt;stroke-linejoin:round;stroke-miterlimit:4;stroke-dasharray:none;stroke-opacity:1"
         id="path20673" />
    </g>
    <g
       id="g20675"
       transform="matrix(1,0,0,-1,0,264.61441)">
      <path
         d="M 70.25,31.344 C 186.289,11.199 302.781,-18.781 419.086,17.102"
         style="fill:none;stroke:#cf0833;stroke-width:1.125;stroke-linecap:butt;stroke-linejoin:miter;stroke-miterlimit:4;stroke-dasharray:none;stroke-opacity:1"
         id="path20677" />
    </g>
    <g
       id="g20679"
       transform="matrix(1,0.1736,0.1736,-1,0,264.61441)">
      <path
         d="m 73.998,42.268 4.434,-4.433 -15.519,4.43 15.519,4.437 z"
         style="fill:#cf0833;fill-opacity:1;fill-rule:evenodd;stroke:#cf0833;stroke-width:1.18232;stroke-linecap:butt;stroke-linejoin:miter;stroke-miterlimit:4;stroke-dasharray:none;stroke-opacity:1"
         id="path20681" />
    </g>
    <g
       id="g20683"
       transform="matrix(-1,0.30851,0.30851,1,0,264.61441)">
      <path
         d="m -375.991,107.212 -12.919,-4.753 12.917,-4.751 c -2.064,2.805 -2.051,6.645 0.002,9.504 z"
         style="fill:#cf0833;fill-opacity:1;fill-rule:evenodd;stroke:#cf0833;stroke-width:0.739065;stroke-linecap:butt;stroke-linejoin:round;stroke-miterlimit:4;stroke-dasharray:none;stroke-opacity:1"
         id="path20685" />
    </g>
    <g
       id="g20687"
       transform="matrix(1,0,0,-1,0,264.61441)">
      <path
         d="M 120.648,128.852 C 236.02,165.113 369.594,190.895 476.672,117.82"
         style="fill:none;stroke:#cf0833;stroke-width:1.125;stroke-linecap:butt;stroke-linejoin:miter;stroke-miterlimit:4;stroke-dasharray:none;stroke-opacity:1"
         id="path20689" />
    </g>
    <g
       id="g20691"
       transform="matrix(1,-0.314319,-0.314319,-1,0,264.61441)">
      <path
         d="m 157.393,82.751 4.292,-4.29 -15.025,4.293 15.025,4.293 z"
         style="fill:#cf0833;fill-opacity:1;fill-rule:evenodd;stroke:#cf0833;stroke-width:1.14478;stroke-linecap:butt;stroke-linejoin:miter;stroke-miterlimit:4;stroke-dasharray:none;stroke-opacity:1"
         id="path20693" />
    </g>
    <g
       id="g20695"
       transform="matrix(-1,-0.682441,-0.682441,1,0,264.61441)">
      <path
         d="m -260.422,-298.199 -11.166,-4.108 11.166,-4.107 c -1.783,2.424 -1.774,5.742 0,8.215 z"
         style="fill:#cf0833;fill-opacity:1;fill-rule:evenodd;stroke:#cf0833;stroke-width:0.63885;stroke-linecap:butt;stroke-linejoin:round;stroke-miterlimit:4;stroke-dasharray:none;stroke-opacity:1"
         id="path20697" />
    </g>
  </g>
</svg>
