<?xml version="1.0" encoding="UTF-8" standalone="no"?>
<svg xmlns="http://www.w3.org/2000/svg" width="600" height="600" xmlns:xlink="http://www.w3.org/1999/xlink" viewBox="-312 -300 600 600">
<g style="fill:none;stroke-width:10;">
  <path id="black" style="stroke:#000000;" d="m 225.24221,-108.47095 v 216.9419 m -381.11466,86.98692 211.502671,48.27411 M -155.87245,-195.45787 v 390.91574"/>
  <path id="green" style="stroke:#00ff00;" d="m -250,0 94.12755,-195.45787 211.502671,-48.27411"/>
  <path id="blue" style="stroke:#0000ff;" d="M 225.24221,-108.47095 0,0 225.24221,108.47095 55.630221,243.73198 0,0 55.630221,-243.73198 Z"/>
  <path id="red" style="stroke:#ff0000;" d="m 0,0 h -250 l 94.12755,195.45787 z"/>
</g>
<g style="fill:#ffffff;stroke:#000000;stroke-width:5;">
  <circle id="a" cx="-155.87245" cy="-195.45787" r="40"/>
  <circle id="b" cx="55.630222" cy="-243.73198" r="40"/>
  <circle id="c" cx="225.2422" cy="-108.47095" r="40"/>
  <circle id="d" cx="0" cy="0" r="40"/>
  <circle id="e" cx="225.2422" cy="108.47095" r="40"/>
  <circle id="f" cx="55.630222" cy="243.73198" r="40"/>
  <circle id="g" cx="-155.87245" cy="195.45787" r="40"/>
  <circle id="h" cx="-250" cy="0" r="40"/>
</g>
<g style="fill:#000000;">
  <path id="A" d="m -155.87245,-216.14031 -8.91928,24.1862 h 17.8711 z m -3.71094,-6.47786 h 7.45442 l 18.52214,48.60026 h -6.83594 l -4.42708,-12.46745 h -21.90755 l -4.42708,12.46745 h -6.9336 z"/>
  <path id="B" d="m 45.922806,-242.64149 v 17.80599 H 56.46968 q 5.30599,0 7.845052,-2.18099 2.571615,-2.21354 2.571615,-6.73828 0,-4.55729 -2.571615,-6.70573 -2.539062,-2.18099 -7.845052,-2.18099 z m 0,-19.98698 v 14.64844 h 9.733072 q 4.817708,0 7.161458,-1.79036 2.376302,-1.82292 2.376302,-5.53386 0,-3.67838 -2.376302,-5.5013 -2.34375,-1.82292 -7.161458,-1.82292 z m -6.575521,-5.40364 H 56.14416 q 7.519531,0 11.588541,3.125 4.06901,3.125 4.06901,8.88672 0,4.45963 -2.083333,7.09635 -2.083333,2.63672 -6.119792,3.28776 4.850261,1.04167 7.519531,4.36198 2.701823,3.28776 2.701823,8.23568 0,6.51041 -4.427083,10.05859 -4.427083,3.54818 -12.597656,3.54818 H 39.347285 Z"/>
  <path id="C" d="m 242.14197,-129.06014 v 6.93359 q -3.32031,-3.09245 -7.09635,-4.6224 -3.74349,-1.52994 -7.97526,-1.52994 -8.33334,0 -12.76042,5.11067 -4.42708,5.07813 -4.42708,14.71354 0,9.602869 4.42708,14.713546 4.42708,5.078125 12.76042,5.078125 4.23177,0 7.97526,-1.529948 3.77604,-1.529948 7.09635,-4.622396 v 6.868489 q -3.45052,2.34375 -7.32422,3.515625 -3.84114,1.171875 -8.13802,1.171875 -11.03515,0 -17.38281,-6.738281 -6.34766,-6.770833 -6.34766,-18.457035 0,-11.71874 6.34766,-18.45703 6.34766,-6.77083 17.38281,-6.77083 4.36198,0 8.20313,1.17188 3.87369,1.13932 7.25911,3.45052 z"/>
  <path id="D" d="m -12.579725,-18.896484 v 37.792967 h 7.942708 q 10.058593,0 14.713541,-4.557291 4.6875,-4.5572916 4.6875,-14.3880201 0,-9.7656247 -4.6875,-14.2903649 -4.654948,-4.557291 -14.713541,-4.557291 z m -6.575521,-5.403646 h 13.509114 q 14.127604,0 20.735676,5.891927 6.608073,5.859375 6.608073,18.3593749 0,12.5651031 -6.640625,18.4570301 -6.640624,5.891927 -20.703124,5.891927 h -13.509114 z"/>
  <path id="E" d="m 209.37306,84.170817 h 30.72917 v 5.533854 h -24.15365 v 14.388019 h 23.14454 v 5.53386 h -23.14454 v 17.61067 h 24.73959 v 5.53386 h -31.31511 z"/>
  <path id="F" d="m 41.665379,219.43185 h 27.929687 v 5.53385 H 48.2409 v 14.32292 h 19.270833 v 5.53385 H 48.2409 v 23.20964 h -6.575521 z"/>
  <path id="G" d="m -144.75437,212.79185 v -13.05338 h -10.74219 v -5.40365 h 17.25261 v 20.86589 q -3.8086,2.70182 -8.39844,4.10156 -4.58984,1.36719 -9.79818,1.36719 -11.39323,0 -17.83854,-6.64063 -6.41276,-6.67317 -6.41276,-18.55469 0,-11.91406 6.41276,-18.55468 6.44531,-6.67318 17.83854,-6.67318 4.75261,0 9.01693,1.17188 4.29687,1.17187 7.91016,3.45052 v 6.99869 q -3.64584,-3.09244 -7.7474,-4.65494 -4.10156,-1.5625 -8.6263,-1.5625 -8.91927,0 -13.41146,4.98047 -4.45963,4.98046 -4.45963,14.84374 0,9.83073 4.45963,14.8112 4.49219,4.98047 13.41146,4.98047 3.48307,0 6.21745,-0.58594 2.73437,-0.61849 4.91536,-1.88802 z"/>
  <path id="H" d="m -268.52214,-24.30013 h 6.57552 v 19.921875 h 23.89323 V -24.30013 h 6.57552 v 48.600259 h -6.57552 V 1.1555989 h -23.89323 V 24.300129 h -6.57552 z"/>
</g>
</svg>