<?xml version="1.0" encoding="UTF-8" standalone="no"?>
<!-- Created with Inkscape (http://www.inkscape.org/) -->

<svg
   width="564.54022mm"
   height="274.71112mm"
   viewBox="0 0 564.54022 274.71112"
   version="1.1"
   id="svg10819"
   xml:space="preserve"
   inkscape:version="1.2.2 (b0a8486541, 2022-12-01)"
   sodipodi:docname="edge_level.svg"
   xmlns:inkscape="http://www.inkscape.org/namespaces/inkscape"
   xmlns:sodipodi="http://sodipodi.sourceforge.net/DTD/sodipodi-0.dtd"
   xmlns="http://www.w3.org/2000/svg"
   xmlns:svg="http://www.w3.org/2000/svg"><sodipodi:namedview
     id="namedview10821"
     pagecolor="#ffffff"
     bordercolor="#000000"
     borderopacity="0.25"
     inkscape:showpageshadow="2"
     inkscape:pageopacity="0.0"
     inkscape:pagecheckerboard="0"
     inkscape:deskcolor="#d1d1d1"
     inkscape:document-units="mm"
     showgrid="false"
     inkscape:zoom="0.2102413"
     inkscape:cx="1422.1754"
     inkscape:cy="703.95302"
     inkscape:window-width="1920"
     inkscape:window-height="1131"
     inkscape:window-x="0"
     inkscape:window-y="32"
     inkscape:window-maximized="1"
     inkscape:current-layer="svg10819"><inkscape:page
       x="0"
       y="0"
       width="564.54022"
       height="274.71112"
       id="page11088" /><inkscape:page
       x="491.22858"
       y="37.46384"
       width="76.429871"
       height="37.191677"
       id="page11090" /></sodipodi:namedview><defs
     id="defs10816" /><g
     inkscape:label="Calque 1"
     inkscape:groupmode="layer"
     id="layer1"
     transform="translate(271.22858,37.463838)" /><g
     id="g10966"
     transform="matrix(2.6057444,0,0,2.6057445,0.00416529,0.00416529)"><g
       id="g10968"><path
         d="m 48.961,97.711 c 0,2.074 -1.676,3.75 -3.75,3.75 -2.07,0 -3.75,-1.676 -3.75,-3.75 0,-2.07 1.68,-3.75 3.75,-3.75 2.074,0 3.75,1.68 3.75,3.75 z"
         style="fill:#80ced6;fill-opacity:1;fill-rule:nonzero;stroke:#000000;stroke-width:0.425197;stroke-linecap:butt;stroke-linejoin:miter;stroke-miterlimit:4;stroke-dasharray:none;stroke-opacity:1"
         id="path10970" /></g><g
       id="g10972"><path
         d="m 63.961,82.711 c 0,2.074 -1.676,3.75 -3.75,3.75 -2.07,0 -3.75,-1.676 -3.75,-3.75 0,-2.07 1.68,-3.75 3.75,-3.75 2.074,0 3.75,1.68 3.75,3.75 z"
         style="fill:#618685;fill-opacity:1;fill-rule:nonzero;stroke:#000000;stroke-width:0.425197;stroke-linecap:butt;stroke-linejoin:miter;stroke-miterlimit:4;stroke-dasharray:none;stroke-opacity:1"
         id="path10974" /></g><g
       id="g10976"><path
         d="m 71.461,101.461 c 0,2.074 -1.676,3.75 -3.75,3.75 -2.07,0 -3.75,-1.676 -3.75,-3.75 0,-2.07 1.68,-3.75 3.75,-3.75 2.074,0 3.75,1.68 3.75,3.75 z"
         style="fill:#b5e7a0;fill-opacity:1;fill-rule:nonzero;stroke:#000000;stroke-width:0.425197;stroke-linecap:butt;stroke-linejoin:miter;stroke-miterlimit:4;stroke-dasharray:none;stroke-opacity:1"
         id="path10978" /></g><g
       id="g10980"><path
         d="m 67.711,56.461 c 0,2.074 -1.676,3.75 -3.75,3.75 -2.07,0 -3.75,-1.676 -3.75,-3.75 0,-2.07 1.68,-3.75 3.75,-3.75 2.074,0 3.75,1.68 3.75,3.75 z"
         style="fill:#ff7b25;fill-opacity:1;fill-rule:nonzero;stroke:#000000;stroke-width:0.425197;stroke-linecap:butt;stroke-linejoin:miter;stroke-miterlimit:4;stroke-dasharray:none;stroke-opacity:1"
         id="path10982" /></g><g
       id="g10984"><path
         d="m 33.961,67.711 c 0,2.074 -1.676,3.75 -3.75,3.75 -2.07,0 -3.75,-1.676 -3.75,-3.75 0,-2.07 1.68,-3.75 3.75,-3.75 2.074,0 3.75,1.68 3.75,3.75 z"
         style="fill:#618685;fill-opacity:1;fill-rule:nonzero;stroke:#000000;stroke-width:0.425197;stroke-linecap:butt;stroke-linejoin:miter;stroke-miterlimit:4;stroke-dasharray:none;stroke-opacity:1"
         id="path10986" /></g><g
       id="g10988"><path
         d="m 26.461,86.461 c 0,2.074 -1.676,3.75 -3.75,3.75 -2.07,0 -3.75,-1.676 -3.75,-3.75 0,-2.07 1.68,-3.75 3.75,-3.75 2.074,0 3.75,1.68 3.75,3.75 z"
         style="fill:#b5e7a0;fill-opacity:1;fill-rule:nonzero;stroke:#000000;stroke-width:0.425197;stroke-linecap:butt;stroke-linejoin:miter;stroke-miterlimit:4;stroke-dasharray:none;stroke-opacity:1"
         id="path10990" /></g><g
       id="g10992"><path
         d="m 45.211,41.461 c 0,2.074 -1.676,3.75 -3.75,3.75 -2.07,0 -3.75,-1.676 -3.75,-3.75 0,-2.07 1.68,-3.75 3.75,-3.75 2.074,0 3.75,1.68 3.75,3.75 z"
         style="fill:#b5e7a0;fill-opacity:1;fill-rule:nonzero;stroke:#000000;stroke-width:0.425197;stroke-linecap:butt;stroke-linejoin:miter;stroke-miterlimit:4;stroke-dasharray:none;stroke-opacity:1"
         id="path10994" /></g><g
       id="g10996"><path
         d="m 26.461,52.711 c 0,2.074 -1.676,3.75 -3.75,3.75 -2.07,0 -3.75,-1.676 -3.75,-3.75 0,-2.07 1.68,-3.75 3.75,-3.75 2.074,0 3.75,1.68 3.75,3.75 z"
         style="fill:#80ced6;fill-opacity:1;fill-rule:nonzero;stroke:#000000;stroke-width:0.425197;stroke-linecap:butt;stroke-linejoin:miter;stroke-miterlimit:4;stroke-dasharray:none;stroke-opacity:1"
         id="path10998" /></g><g
       id="g11000"><path
         d="m 45.211,18.961 c 0,2.074 -1.676,3.75 -3.75,3.75 -2.07,0 -3.75,-1.676 -3.75,-3.75 0,-2.07 1.68,-3.75 3.75,-3.75 2.074,0 3.75,1.68 3.75,3.75 z"
         style="fill:#618685;fill-opacity:1;fill-rule:nonzero;stroke:#000000;stroke-width:0.425197;stroke-linecap:butt;stroke-linejoin:miter;stroke-miterlimit:4;stroke-dasharray:none;stroke-opacity:1"
         id="path11002" /></g><g
       id="g11004"><path
         d="m 7.711,78.961 c 0,2.074 -1.676,3.75 -3.75,3.75 -2.07,0 -3.75,-1.676 -3.75,-3.75 0,-2.07 1.68,-3.75 3.75,-3.75 2.074,0 3.75,1.68 3.75,3.75 z"
         style="fill:#80ced6;fill-opacity:1;fill-rule:nonzero;stroke:#000000;stroke-width:0.425197;stroke-linecap:butt;stroke-linejoin:miter;stroke-miterlimit:4;stroke-dasharray:none;stroke-opacity:1"
         id="path11006" /></g><g
       id="g11008"><path
         d="m 7.711,97.711 c 0,2.074 -1.676,3.75 -3.75,3.75 -2.07,0 -3.75,-1.676 -3.75,-3.75 0,-2.07 1.68,-3.75 3.75,-3.75 2.074,0 3.75,1.68 3.75,3.75 z"
         style="fill:#ff7b25;fill-opacity:1;fill-rule:nonzero;stroke:#000000;stroke-width:0.425197;stroke-linecap:butt;stroke-linejoin:miter;stroke-miterlimit:4;stroke-dasharray:none;stroke-opacity:1"
         id="path11010" /></g><g
       id="g11012"><path
         d="m 56.461,3.961 c 0,2.074 -1.676,3.75 -3.75,3.75 -2.07,0 -3.75,-1.676 -3.75,-3.75 0,-2.07 1.68,-3.75 3.75,-3.75 2.074,0 3.75,1.68 3.75,3.75 z"
         style="fill:#b5e7a0;fill-opacity:1;fill-rule:nonzero;stroke:#000000;stroke-width:0.425197;stroke-linecap:butt;stroke-linejoin:miter;stroke-miterlimit:4;stroke-dasharray:none;stroke-opacity:1"
         id="path11014" /></g><g
       id="g11016"><path
         d="m 67.711,30.211 c 0,2.074 -1.676,3.75 -3.75,3.75 -2.07,0 -3.75,-1.676 -3.75,-3.75 0,-2.07 1.68,-3.75 3.75,-3.75 2.074,0 3.75,1.68 3.75,3.75 z"
         style="fill:#80ced6;fill-opacity:1;fill-rule:nonzero;stroke:#000000;stroke-width:0.425197;stroke-linecap:butt;stroke-linejoin:miter;stroke-miterlimit:4;stroke-dasharray:none;stroke-opacity:1"
         id="path11018" /></g><g
       id="g11020"><path
         d="m 98.648,52.711 h 33.75"
         style="fill:none;stroke:#000000;stroke-width:0.751181;stroke-linecap:butt;stroke-linejoin:miter;stroke-miterlimit:4;stroke-dasharray:none;stroke-opacity:1"
         id="path11022" /></g><g
       id="g11024"
       transform="scale(-1)"><path
         d="m -124.887,-52.711 3.004,-3.008 -10.515,3.008 10.515,3.004 z"
         style="fill:#000000;fill-opacity:1;fill-rule:evenodd;stroke:#000000;stroke-width:0.80126;stroke-linecap:butt;stroke-linejoin:miter;stroke-miterlimit:4;stroke-dasharray:none;stroke-opacity:1"
         id="path11026" /></g><g
       id="g11028"><path
         d="m 197.688,3.961 -11.25,15 22.5,11.25 z"
         style="fill:none;stroke:#000000;stroke-width:0.425197;stroke-linecap:butt;stroke-linejoin:miter;stroke-miterlimit:4;stroke-dasharray:none;stroke-opacity:1"
         id="path11030" /></g><g
       id="g11032"><path
         d="m 186.438,18.961 v 22.5 l 22.5,15 -22.5,-15 -18.75,11.25 18.75,-11.25 -11.25,26.25 -7.5,-15 7.5,15 -26.25,11.25 18.75,7.5 -18.75,11.25 18.75,-11.25 7.5,-18.75 -7.5,18.75 22.5,11.25 15,-15 7.5,18.75 -7.5,-18.75 -37.5,3.75"
         style="fill:none;stroke:#000000;stroke-width:0.425197;stroke-linecap:butt;stroke-linejoin:miter;stroke-miterlimit:4;stroke-dasharray:none;stroke-opacity:1"
         id="path11034" /></g><g
       id="g11036"><path
         d="m 193.938,97.711 c 0,2.074 -1.676,3.75 -3.75,3.75 -2.071,0 -3.75,-1.676 -3.75,-3.75 0,-2.07 1.679,-3.75 3.75,-3.75 2.074,0 3.75,1.68 3.75,3.75 z"
         style="fill:#80ced6;fill-opacity:1;fill-rule:nonzero;stroke:#000000;stroke-width:0.425197;stroke-linecap:butt;stroke-linejoin:miter;stroke-miterlimit:4;stroke-dasharray:none;stroke-opacity:1"
         id="path11038" /></g><g
       id="g11040"><path
         d="m 208.938,82.711 c 0,2.074 -1.676,3.75 -3.75,3.75 -2.071,0 -3.75,-1.676 -3.75,-3.75 0,-2.07 1.679,-3.75 3.75,-3.75 2.074,0 3.75,1.68 3.75,3.75 z"
         style="fill:#618685;fill-opacity:1;fill-rule:nonzero;stroke:#000000;stroke-width:0.425197;stroke-linecap:butt;stroke-linejoin:miter;stroke-miterlimit:4;stroke-dasharray:none;stroke-opacity:1"
         id="path11042" /></g><g
       id="g11044"><path
         d="m 216.438,101.461 c 0,2.074 -1.676,3.75 -3.75,3.75 -2.071,0 -3.75,-1.676 -3.75,-3.75 0,-2.07 1.679,-3.75 3.75,-3.75 2.074,0 3.75,1.68 3.75,3.75 z"
         style="fill:#b5e7a0;fill-opacity:1;fill-rule:nonzero;stroke:#000000;stroke-width:0.425197;stroke-linecap:butt;stroke-linejoin:miter;stroke-miterlimit:4;stroke-dasharray:none;stroke-opacity:1"
         id="path11046" /></g><g
       id="g11048"><path
         d="m 212.688,56.461 c 0,2.074 -1.676,3.75 -3.75,3.75 -2.071,0 -3.75,-1.676 -3.75,-3.75 0,-2.07 1.679,-3.75 3.75,-3.75 2.074,0 3.75,1.68 3.75,3.75 z"
         style="fill:#ff7b25;fill-opacity:1;fill-rule:nonzero;stroke:#000000;stroke-width:0.425197;stroke-linecap:butt;stroke-linejoin:miter;stroke-miterlimit:4;stroke-dasharray:none;stroke-opacity:1"
         id="path11050" /></g><g
       id="g11052"><path
         d="m 178.938,67.711 c 0,2.074 -1.676,3.75 -3.75,3.75 -2.071,0 -3.75,-1.676 -3.75,-3.75 0,-2.07 1.679,-3.75 3.75,-3.75 2.074,0 3.75,1.68 3.75,3.75 z"
         style="fill:#618685;fill-opacity:1;fill-rule:nonzero;stroke:#000000;stroke-width:0.425197;stroke-linecap:butt;stroke-linejoin:miter;stroke-miterlimit:4;stroke-dasharray:none;stroke-opacity:1"
         id="path11054" /></g><g
       id="g11056"><path
         d="m 171.438,86.461 c 0,2.074 -1.676,3.75 -3.75,3.75 -2.071,0 -3.75,-1.676 -3.75,-3.75 0,-2.07 1.679,-3.75 3.75,-3.75 2.074,0 3.75,1.68 3.75,3.75 z"
         style="fill:#b5e7a0;fill-opacity:1;fill-rule:nonzero;stroke:#000000;stroke-width:0.425197;stroke-linecap:butt;stroke-linejoin:miter;stroke-miterlimit:4;stroke-dasharray:none;stroke-opacity:1"
         id="path11058" /></g><g
       id="g11060"><path
         d="m 190.188,41.461 c 0,2.074 -1.676,3.75 -3.75,3.75 -2.071,0 -3.75,-1.676 -3.75,-3.75 0,-2.07 1.679,-3.75 3.75,-3.75 2.074,0 3.75,1.68 3.75,3.75 z"
         style="fill:#b5e7a0;fill-opacity:1;fill-rule:nonzero;stroke:#000000;stroke-width:0.425197;stroke-linecap:butt;stroke-linejoin:miter;stroke-miterlimit:4;stroke-dasharray:none;stroke-opacity:1"
         id="path11062" /></g><g
       id="g11064"><path
         d="m 171.438,52.711 c 0,2.074 -1.676,3.75 -3.75,3.75 -2.071,0 -3.75,-1.676 -3.75,-3.75 0,-2.07 1.679,-3.75 3.75,-3.75 2.074,0 3.75,1.68 3.75,3.75 z"
         style="fill:#80ced6;fill-opacity:1;fill-rule:nonzero;stroke:#000000;stroke-width:0.425197;stroke-linecap:butt;stroke-linejoin:miter;stroke-miterlimit:4;stroke-dasharray:none;stroke-opacity:1"
         id="path11066" /></g><g
       id="g11068"><path
         d="m 190.188,18.961 c 0,2.074 -1.676,3.75 -3.75,3.75 -2.071,0 -3.75,-1.676 -3.75,-3.75 0,-2.07 1.679,-3.75 3.75,-3.75 2.074,0 3.75,1.68 3.75,3.75 z"
         style="fill:#618685;fill-opacity:1;fill-rule:nonzero;stroke:#000000;stroke-width:0.425197;stroke-linecap:butt;stroke-linejoin:miter;stroke-miterlimit:4;stroke-dasharray:none;stroke-opacity:1"
         id="path11070" /></g><g
       id="g11072"><path
         d="m 152.688,78.961 c 0,2.074 -1.676,3.75 -3.75,3.75 -2.071,0 -3.75,-1.676 -3.75,-3.75 0,-2.07 1.679,-3.75 3.75,-3.75 2.074,0 3.75,1.68 3.75,3.75 z"
         style="fill:#80ced6;fill-opacity:1;fill-rule:nonzero;stroke:#000000;stroke-width:0.425197;stroke-linecap:butt;stroke-linejoin:miter;stroke-miterlimit:4;stroke-dasharray:none;stroke-opacity:1"
         id="path11074" /></g><g
       id="g11076"><path
         d="m 152.688,97.711 c 0,2.074 -1.676,3.75 -3.75,3.75 -2.071,0 -3.75,-1.676 -3.75,-3.75 0,-2.07 1.679,-3.75 3.75,-3.75 2.074,0 3.75,1.68 3.75,3.75 z"
         style="fill:#ff7b25;fill-opacity:1;fill-rule:nonzero;stroke:#000000;stroke-width:0.425197;stroke-linecap:butt;stroke-linejoin:miter;stroke-miterlimit:4;stroke-dasharray:none;stroke-opacity:1"
         id="path11078" /></g><g
       id="g11080"><path
         d="m 201.438,3.961 c 0,2.074 -1.676,3.75 -3.75,3.75 -2.071,0 -3.75,-1.676 -3.75,-3.75 0,-2.07 1.679,-3.75 3.75,-3.75 2.074,0 3.75,1.68 3.75,3.75 z"
         style="fill:#b5e7a0;fill-opacity:1;fill-rule:nonzero;stroke:#000000;stroke-width:0.425197;stroke-linecap:butt;stroke-linejoin:miter;stroke-miterlimit:4;stroke-dasharray:none;stroke-opacity:1"
         id="path11082" /></g><g
       id="g11084"><path
         d="m 212.688,30.211 c 0,2.074 -1.676,3.75 -3.75,3.75 -2.071,0 -3.75,-1.676 -3.75,-3.75 0,-2.07 1.679,-3.75 3.75,-3.75 2.074,0 3.75,1.68 3.75,3.75 z"
         style="fill:#80ced6;fill-opacity:1;fill-rule:nonzero;stroke:#000000;stroke-width:0.425197;stroke-linecap:butt;stroke-linejoin:miter;stroke-miterlimit:4;stroke-dasharray:none;stroke-opacity:1"
         id="path11086" /></g></g></svg>
