<?xml version="1.0" encoding="UTF-8" standalone="no"?>
<!-- Created with Inkscape (http://www.inkscape.org/) -->

<svg
   version="1.1"
   id="svg227"
   width="1556.1536"
   height="390.86929"
   viewBox="0 0 1556.1535 390.8693"
   sodipodi:docname="wl_iso_graphs.svg"
   inkscape:version="1.2.2 (b0a8486541, 2022-12-01)"
   xmlns:inkscape="http://www.inkscape.org/namespaces/inkscape"
   xmlns:sodipodi="http://sodipodi.sourceforge.net/DTD/sodipodi-0.dtd"
   xmlns="http://www.w3.org/2000/svg"
   xmlns:svg="http://www.w3.org/2000/svg">
  <defs
     id="defs231" />
  <sodipodi:namedview
     id="namedview229"
     pagecolor="#ffffff"
     bordercolor="#000000"
     borderopacity="0.25"
     inkscape:showpageshadow="2"
     inkscape:pageopacity="0.0"
     inkscape:pagecheckerboard="0"
     inkscape:deskcolor="#d1d1d1"
     showgrid="false"
     inkscape:zoom="0.30164314"
     inkscape:cx="1216.6695"
     inkscape:cy="-92.824919"
     inkscape:window-width="1920"
     inkscape:window-height="1131"
     inkscape:window-x="0"
     inkscape:window-y="32"
     inkscape:window-maximized="1"
     inkscape:current-layer="g233" />
  <g
     inkscape:groupmode="layer"
     inkscape:label="Image"
     id="g233"
     transform="translate(-79.58283,-553.3691)">
    <path
       style="fill:#000000;fill-opacity:1;stroke:#000300;stroke-width:3.77953;stroke-linecap:round;stroke-linejoin:round;stroke-dasharray:none;stroke-opacity:1"
       id="path1576"
       sodipodi:type="arc"
       sodipodi:cx="247.87914"
       sodipodi:cy="581.21527"
       sodipodi:rx="25.956404"
       sodipodi:ry="25.956404"
       sodipodi:start="0"
       sodipodi:end="6.2766013"
       sodipodi:open="true"
       sodipodi:arc-type="chord"
       d="m 273.83554,581.21527 a 25.956404,25.956404 0 0 1 -25.91368,25.95637 25.956404,25.956404 0 0 1 -25.99899,-25.87092 25.956404,25.956404 0 0 1 25.82809,-26.04154 25.956404,25.956404 0 0 1 26.08402,25.7852 z" />
    <path
       style="fill:#000000;fill-opacity:1;stroke:#000300;stroke-width:3.77953;stroke-linecap:round;stroke-linejoin:round;stroke-dasharray:none;stroke-opacity:1"
       id="path1576-3"
       sodipodi:type="arc"
       sodipodi:cx="120.22329"
       sodipodi:cy="684.19586"
       sodipodi:rx="25.956404"
       sodipodi:ry="25.956404"
       sodipodi:start="0"
       sodipodi:end="6.2766013"
       sodipodi:open="true"
       sodipodi:arc-type="chord"
       d="m 146.17969,684.19586 a 25.956404,25.956404 0 0 1 -25.91368,25.95637 25.956404,25.956404 0 0 1 -25.998984,-25.87092 25.956404,25.956404 0 0 1 25.828094,-26.04154 25.956404,25.956404 0 0 1 26.08401,25.7852 z" />
    <path
       style="fill:#000000;fill-opacity:1;stroke:#000300;stroke-width:3.77953;stroke-linecap:round;stroke-linejoin:round;stroke-dasharray:none;stroke-opacity:1"
       id="path1576-6"
       sodipodi:type="arc"
       sodipodi:cx="107.429"
       sodipodi:cy="843.63361"
       sodipodi:rx="25.956404"
       sodipodi:ry="25.956404"
       sodipodi:start="0"
       sodipodi:end="6.2766013"
       sodipodi:open="true"
       sodipodi:arc-type="chord"
       d="m 133.3854,843.63361 a 25.956404,25.956404 0 0 1 -25.91367,25.95636 25.956404,25.956404 0 0 1 -25.998992,-25.87092 25.956404,25.956404 0 0 1 25.828092,-26.04153 25.956404,25.956404 0 0 1 26.08401,25.78519 z" />
    <path
       style="fill:#000000;fill-opacity:1;stroke:#000300;stroke-width:3.77953;stroke-linecap:round;stroke-linejoin:round;stroke-dasharray:none;stroke-opacity:1"
       id="path1576-7"
       sodipodi:type="arc"
       sodipodi:cx="257.14944"
       sodipodi:cy="916.3678"
       sodipodi:rx="25.956404"
       sodipodi:ry="25.956404"
       sodipodi:start="0"
       sodipodi:end="6.2766013"
       sodipodi:open="true"
       sodipodi:arc-type="chord"
       d="m 283.10585,916.3678 a 25.956404,25.956404 0 0 1 -25.91368,25.95637 25.956404,25.956404 0 0 1 -25.99899,-25.87092 25.956404,25.956404 0 0 1 25.82809,-26.04154 25.956404,25.956404 0 0 1 26.08402,25.78519 z" />
    <path
       style="fill:#000000;fill-opacity:1;stroke:#000300;stroke-width:3.77953;stroke-linecap:round;stroke-linejoin:round;stroke-dasharray:none;stroke-opacity:1"
       id="path1576-9"
       sodipodi:type="arc"
       sodipodi:cx="-524.99133"
       sodipodi:cy="582.51331"
       sodipodi:rx="25.956404"
       sodipodi:ry="25.956404"
       sodipodi:start="0"
       sodipodi:end="6.2766013"
       sodipodi:open="true"
       sodipodi:arc-type="chord"
       d="m -499.03493,582.51331 a 25.956404,25.956404 0 0 1 -25.91368,25.95636 25.956404,25.956404 0 0 1 -25.99899,-25.87092 25.956404,25.956404 0 0 1 25.82809,-26.04153 25.956404,25.956404 0 0 1 26.08402,25.78519 z"
       transform="scale(-1,1)" />
    <path
       style="fill:#000000;fill-opacity:1;stroke:#000300;stroke-width:3.77953;stroke-linecap:round;stroke-linejoin:round;stroke-dasharray:none;stroke-opacity:1"
       id="path1576-3-1"
       sodipodi:type="arc"
       sodipodi:cx="-656.02429"
       sodipodi:cy="676.38275"
       sodipodi:rx="25.956404"
       sodipodi:ry="25.956404"
       sodipodi:start="0"
       sodipodi:end="6.2766013"
       sodipodi:open="true"
       sodipodi:arc-type="chord"
       d="m -630.06789,676.38275 a 25.956404,25.956404 0 0 1 -25.91368,25.95637 25.956404,25.956404 0 0 1 -25.99899,-25.87092 25.956404,25.956404 0 0 1 25.8281,-26.04154 25.956404,25.956404 0 0 1 26.08401,25.7852 z"
       transform="scale(-1,1)" />
    <path
       style="fill:#000000;fill-opacity:1;stroke:#000300;stroke-width:3.77953;stroke-linecap:round;stroke-linejoin:round;stroke-dasharray:none;stroke-opacity:1"
       id="path1576-6-2"
       sodipodi:type="arc"
       sodipodi:cx="-668.8186"
       sodipodi:cy="835.8205"
       sodipodi:rx="25.956404"
       sodipodi:ry="25.956404"
       sodipodi:start="0"
       sodipodi:end="6.2766013"
       sodipodi:open="true"
       sodipodi:arc-type="chord"
       d="m -642.8622,835.8205 a 25.956404,25.956404 0 0 1 -25.91368,25.95636 25.956404,25.956404 0 0 1 -25.99899,-25.87092 25.956404,25.956404 0 0 1 25.82809,-26.04153 25.956404,25.956404 0 0 1 26.08402,25.78519 z"
       transform="scale(-1,1)" />
    <path
       style="fill:#000000;fill-opacity:1;stroke:#000300;stroke-width:3.77953;stroke-linecap:round;stroke-linejoin:round;stroke-dasharray:none;stroke-opacity:1"
       id="path1576-7-7"
       sodipodi:type="arc"
       sodipodi:cx="-528.21301"
       sodipodi:cy="916.39221"
       sodipodi:rx="25.956404"
       sodipodi:ry="25.956404"
       sodipodi:start="0"
       sodipodi:end="6.2766013"
       sodipodi:open="true"
       sodipodi:arc-type="chord"
       d="m -502.25661,916.39221 a 25.956404,25.956404 0 0 1 -25.91368,25.95637 25.956404,25.956404 0 0 1 -25.99899,-25.87092 25.956404,25.956404 0 0 1 25.82809,-26.04154 25.956404,25.956404 0 0 1 26.08402,25.7852 z"
       transform="scale(-1,1)" />
    <path
       style="fill:#000000;fill-opacity:1;stroke:#000300;stroke-width:3.77953;stroke-linecap:round;stroke-linejoin:round;stroke-dasharray:none;stroke-opacity:1"
       id="path1576-5"
       sodipodi:type="arc"
       sodipodi:cx="383.37335"
       sodipodi:cy="827.75098"
       sodipodi:rx="25.956404"
       sodipodi:ry="25.956404"
       sodipodi:start="0"
       sodipodi:end="6.2766013"
       sodipodi:open="true"
       sodipodi:arc-type="chord"
       d="m 409.32976,827.75098 a 25.956404,25.956404 0 0 1 -25.91368,25.95637 25.956404,25.956404 0 0 1 -25.99899,-25.87093 25.956404,25.956404 0 0 1 25.82809,-26.04153 25.956404,25.956404 0 0 1 26.08401,25.78519 z" />
    <path
       style="fill:#000000;fill-opacity:1;stroke:#000300;stroke-width:3.77953;stroke-linecap:round;stroke-linejoin:round;stroke-dasharray:none;stroke-opacity:1"
       id="path1576-35"
       sodipodi:type="arc"
       sodipodi:cx="385.48053"
       sodipodi:cy="673.01105"
       sodipodi:rx="25.956404"
       sodipodi:ry="25.956404"
       sodipodi:start="0"
       sodipodi:end="6.2766013"
       sodipodi:open="true"
       sodipodi:arc-type="chord"
       d="m 411.43693,673.01105 a 25.956404,25.956404 0 0 1 -25.91368,25.95637 25.956404,25.956404 0 0 1 -25.99898,-25.87092 25.956404,25.956404 0 0 1 25.82809,-26.04154 25.956404,25.956404 0 0 1 26.08401,25.78519 z" />
    <path
       style="fill:none;fill-rule:evenodd;stroke:#000000;stroke-width:11.3386;stroke-linecap:butt;stroke-linejoin:miter;stroke-dasharray:none;stroke-opacity:1"
       d="m 109.50522,817.76049 8.64187,-107.69183"
       id="path1814"
       inkscape:connector-type="polyline"
       inkscape:connector-curvature="0"
       inkscape:connection-start="#path1576-6"
       inkscape:connection-end="#path1576-3" />
    <path
       style="fill:none;fill-rule:evenodd;stroke:#000000;stroke-width:11.3386;stroke-linecap:butt;stroke-linejoin:miter;stroke-dasharray:none;stroke-opacity:1"
       d="m 140.42538,667.89873 87.25159,-70.38628"
       id="path1816"
       inkscape:connector-type="polyline"
       inkscape:connector-curvature="0"
       inkscape:connection-start="#path1576-3"
       inkscape:connection-end="#path1576" />
    <path
       style="fill:none;fill-rule:evenodd;stroke:#000000;stroke-width:11.3386;stroke-linecap:butt;stroke-linejoin:miter;stroke-dasharray:none;stroke-opacity:1"
       d="m 269.4717,595.61996 94.41656,62.98659"
       id="path1818"
       inkscape:connector-type="polyline"
       inkscape:connector-curvature="0"
       inkscape:connection-start="#path1576"
       inkscape:connection-end="#path1576-35" />
    <path
       style="fill:none;fill-rule:evenodd;stroke:#000000;stroke-width:11.3386;stroke-linecap:butt;stroke-linejoin:miter;stroke-dasharray:none;stroke-opacity:1"
       d="m 385.1271,698.96468 -1.40033,102.83279"
       id="path1820"
       inkscape:connector-type="polyline"
       inkscape:connector-curvature="0"
       inkscape:connection-end="#path1576-5"
       inkscape:connection-start="#path1576-35" />
    <path
       style="fill:none;fill-rule:evenodd;stroke:#000000;stroke-width:11.3386;stroke-linecap:butt;stroke-linejoin:miter;stroke-dasharray:none;stroke-opacity:1"
       d="m 362.12998,842.66511 -83.73719,58.78857"
       id="path1822"
       inkscape:connector-type="polyline"
       inkscape:connector-curvature="0"
       inkscape:connection-end="#path1576-7"
       inkscape:connection-start="#path1576-5" />
    <path
       style="fill:none;fill-rule:evenodd;stroke:#000000;stroke-width:11.3386;stroke-linecap:butt;stroke-linejoin:miter;stroke-dasharray:none;stroke-opacity:1"
       d="M 233.80247,905.02583 130.77604,854.9756"
       id="path1824"
       inkscape:connector-type="polyline"
       inkscape:connector-curvature="0"
       inkscape:connection-start="#path1576-7"
       inkscape:connection-end="#path1576-6" />
    <path
       style="display:inline;fill:none;fill-rule:evenodd;stroke:#000000;stroke-width:11.3386;stroke-linecap:butt;stroke-linejoin:miter;stroke-dasharray:none;stroke-opacity:1"
       d="m 405.37112,841.52813 98.19797,61.50121"
       id="path1828"
       inkscape:connector-type="polyline"
       inkscape:connector-curvature="0"
       inkscape:connection-start="#path1576-5" />
    <path
       style="fill:none;fill-rule:evenodd;stroke:#000000;stroke-width:11.3386;stroke-linecap:butt;stroke-linejoin:miter;stroke-dasharray:none;stroke-opacity:1"
       d="m 550.73355,903.48719 95.56459,-54.76171"
       id="path1830"
       inkscape:connector-type="polyline"
       inkscape:connector-curvature="0"
       inkscape:connection-start="#path1576-7-7"
       inkscape:connection-end="#path1576-6-2" />
    <path
       style="fill:none;fill-rule:evenodd;stroke:#000000;stroke-width:11.3386;stroke-linecap:butt;stroke-linejoin:miter;stroke-dasharray:none;stroke-opacity:1"
       d="M 666.74238,809.94738 658.10049,702.25555"
       id="path1832"
       inkscape:connector-type="polyline"
       inkscape:connector-curvature="0"
       inkscape:connection-start="#path1576-6-2"
       inkscape:connection-end="#path1576-3-1" />
    <path
       style="fill:none;fill-rule:evenodd;stroke:#000000;stroke-width:11.3386;stroke-linecap:butt;stroke-linejoin:miter;stroke-dasharray:none;stroke-opacity:1"
       d="M 634.92385,661.2668 546.09161,597.62913"
       id="path1834"
       inkscape:connector-type="polyline"
       inkscape:connector-curvature="0"
       inkscape:connection-start="#path1576-3-1"
       inkscape:connection-end="#path1576-9" />
    <path
       style="fill:none;fill-rule:evenodd;stroke:#000000;stroke-width:11.3386;stroke-linecap:butt;stroke-linejoin:miter;stroke-dasharray:none;stroke-opacity:1"
       d="m 407.25625,658.88559 95.95906,-62.24663"
       id="path1836"
       inkscape:connector-type="polyline"
       inkscape:connector-curvature="0"
       inkscape:connection-start="#path1576-35"
       inkscape:connection-end="#path1576-9" />
    <path
       style="fill:#000000;fill-opacity:1;stroke:#000300;stroke-width:3.77953;stroke-linecap:round;stroke-linejoin:round;stroke-dasharray:none;stroke-opacity:1"
       id="path1576-0"
       sodipodi:type="arc"
       sodipodi:cx="1052.4371"
       sodipodi:cy="637.54327"
       sodipodi:rx="25.956404"
       sodipodi:ry="25.956404"
       sodipodi:start="0"
       sodipodi:end="6.2766013"
       sodipodi:open="true"
       sodipodi:arc-type="chord"
       d="m 1078.3935,637.54327 a 25.956404,25.956404 0 0 1 -25.9136,25.95637 25.956404,25.956404 0 0 1 -25.999,-25.87092 25.956404,25.956404 0 0 1 25.8281,-26.04153 25.956404,25.956404 0 0 1 26.084,25.78519 z" />
    <path
       style="fill:#000000;fill-opacity:1;stroke:#000300;stroke-width:3.77953;stroke-linecap:round;stroke-linejoin:round;stroke-dasharray:none;stroke-opacity:1"
       id="path1576-3-9"
       sodipodi:type="arc"
       sodipodi:cx="893.63483"
       sodipodi:cy="705.23138"
       sodipodi:rx="25.956404"
       sodipodi:ry="25.956404"
       sodipodi:start="0"
       sodipodi:end="6.2766013"
       sodipodi:open="true"
       sodipodi:arc-type="chord"
       d="m 919.59123,705.23138 a 25.956404,25.956404 0 0 1 -25.91368,25.95637 25.956404,25.956404 0 0 1 -25.99899,-25.87092 25.956404,25.956404 0 0 1 25.82809,-26.04153 25.956404,25.956404 0 0 1 26.08402,25.78519 z" />
    <path
       style="fill:#000000;fill-opacity:1;stroke:#000300;stroke-width:3.77953;stroke-linecap:round;stroke-linejoin:round;stroke-dasharray:none;stroke-opacity:1"
       id="path1576-6-3"
       sodipodi:type="arc"
       sodipodi:cx="895.11298"
       sodipodi:cy="861.79974"
       sodipodi:rx="25.956404"
       sodipodi:ry="25.956404"
       sodipodi:start="0"
       sodipodi:end="6.2766013"
       sodipodi:open="true"
       sodipodi:arc-type="chord"
       d="m 921.06938,861.79974 a 25.956404,25.956404 0 0 1 -25.91368,25.95637 25.956404,25.956404 0 0 1 -25.99899,-25.87092 25.956404,25.956404 0 0 1 25.82809,-26.04153 25.956404,25.956404 0 0 1 26.08402,25.78519 z" />
    <path
       style="fill:#000000;fill-opacity:1;stroke:#000300;stroke-width:3.77953;stroke-linecap:round;stroke-linejoin:round;stroke-dasharray:none;stroke-opacity:1"
       id="path1576-7-6"
       sodipodi:type="arc"
       sodipodi:cx="1066.8643"
       sodipodi:cy="892.6488"
       sodipodi:rx="25.956404"
       sodipodi:ry="25.956404"
       sodipodi:start="0"
       sodipodi:end="6.2766013"
       sodipodi:open="true"
       sodipodi:arc-type="chord"
       d="m 1092.8207,892.6488 a 25.956404,25.956404 0 0 1 -25.9137,25.95637 25.956404,25.956404 0 0 1 -25.999,-25.87092 25.956404,25.956404 0 0 1 25.8281,-26.04153 25.956404,25.956404 0 0 1 26.084,25.78519 z" />
    <path
       style="fill:#000000;fill-opacity:1;stroke:#000300;stroke-width:3.77953;stroke-linecap:round;stroke-linejoin:round;stroke-dasharray:none;stroke-opacity:1"
       id="path1576-9-0"
       sodipodi:type="arc"
       sodipodi:cx="-1434.5771"
       sodipodi:cy="622.71075"
       sodipodi:rx="25.956404"
       sodipodi:ry="25.956404"
       sodipodi:start="0"
       sodipodi:end="6.2766013"
       sodipodi:open="true"
       sodipodi:arc-type="chord"
       d="m -1408.6207,622.71075 a 25.956404,25.956404 0 0 1 -25.9137,25.95637 25.956404,25.956404 0 0 1 -25.999,-25.87092 25.956404,25.956404 0 0 1 25.8281,-26.04153 25.956404,25.956404 0 0 1 26.084,25.78519 z"
       transform="scale(-1,1)" />
    <path
       style="fill:#000000;fill-opacity:1;stroke:#000300;stroke-width:3.77953;stroke-linecap:round;stroke-linejoin:round;stroke-dasharray:none;stroke-opacity:1"
       id="path1576-3-1-6"
       sodipodi:type="arc"
       sodipodi:cx="-1607.8903"
       sodipodi:cy="688.65881"
       sodipodi:rx="25.956404"
       sodipodi:ry="25.956404"
       sodipodi:start="0"
       sodipodi:end="6.2766013"
       sodipodi:open="true"
       sodipodi:arc-type="chord"
       d="m -1581.9339,688.65881 a 25.956404,25.956404 0 0 1 -25.9136,25.95637 25.956404,25.956404 0 0 1 -25.999,-25.87092 25.956404,25.956404 0 0 1 25.8281,-26.04153 25.956404,25.956404 0 0 1 26.084,25.78519 z"
       transform="scale(-1,1)" />
    <path
       style="fill:#000000;fill-opacity:1;stroke:#000300;stroke-width:3.77953;stroke-linecap:round;stroke-linejoin:round;stroke-dasharray:none;stroke-opacity:1"
       id="path1576-6-2-2"
       sodipodi:type="arc"
       sodipodi:cx="-1604.2301"
       sodipodi:cy="856.85602"
       sodipodi:rx="25.956404"
       sodipodi:ry="25.956404"
       sodipodi:start="0"
       sodipodi:end="6.2766013"
       sodipodi:open="true"
       sodipodi:arc-type="chord"
       d="m -1578.2737,856.85602 a 25.956404,25.956404 0 0 1 -25.9137,25.95637 25.956404,25.956404 0 0 1 -25.999,-25.87092 25.956404,25.956404 0 0 1 25.8281,-26.04154 25.956404,25.956404 0 0 1 26.084,25.78519 z"
       transform="scale(-1,1)" />
    <path
       style="fill:#000000;fill-opacity:1;stroke:#000300;stroke-width:3.77953;stroke-linecap:round;stroke-linejoin:round;stroke-dasharray:none;stroke-opacity:1"
       id="path1576-7-7-6"
       sodipodi:type="arc"
       sodipodi:cx="-1427.8334"
       sodipodi:cy="898.42725"
       sodipodi:rx="25.956404"
       sodipodi:ry="25.956404"
       sodipodi:start="0"
       sodipodi:end="6.2766013"
       sodipodi:open="true"
       sodipodi:arc-type="chord"
       d="m -1401.877,898.42725 a 25.956404,25.956404 0 0 1 -25.9136,25.95636 25.956404,25.956404 0 0 1 -25.999,-25.87092 25.956404,25.956404 0 0 1 25.8281,-26.04153 25.956404,25.956404 0 0 1 26.084,25.78519 z"
       transform="scale(-1,1)" />
    <path
       style="fill:#000000;fill-opacity:1;stroke:#000300;stroke-width:3.77953;stroke-linecap:round;stroke-linejoin:round;stroke-dasharray:none;stroke-opacity:1"
       id="path1576-5-1"
       sodipodi:type="arc"
       sodipodi:cx="1309.2377"
       sodipodi:cy="760.05609"
       sodipodi:rx="25.956404"
       sodipodi:ry="25.956404"
       sodipodi:start="0"
       sodipodi:end="6.2766013"
       sodipodi:open="true"
       sodipodi:arc-type="chord"
       d="m 1335.1941,760.05609 a 25.956404,25.956404 0 0 1 -25.9137,25.95637 25.956404,25.956404 0 0 1 -25.999,-25.87092 25.956404,25.956404 0 0 1 25.8281,-26.04154 25.956404,25.956404 0 0 1 26.084,25.7852 z" />
    <path
       style="fill:#000000;fill-opacity:1;stroke:#000300;stroke-width:3.77953;stroke-linecap:round;stroke-linejoin:round;stroke-dasharray:none;stroke-opacity:1"
       id="path1576-35-8"
       sodipodi:type="arc"
       sodipodi:cx="1167.8733"
       sodipodi:cy="756.74725"
       sodipodi:rx="25.956404"
       sodipodi:ry="25.956404"
       sodipodi:start="0"
       sodipodi:end="6.2766013"
       sodipodi:open="true"
       sodipodi:arc-type="chord"
       d="m 1193.8297,756.74725 a 25.956404,25.956404 0 0 1 -25.9137,25.95637 25.956404,25.956404 0 0 1 -25.999,-25.87092 25.956404,25.956404 0 0 1 25.8281,-26.04153 25.956404,25.956404 0 0 1 26.084,25.78519 z" />
    <path
       style="fill:none;fill-rule:evenodd;stroke:#000000;stroke-width:11.3386;stroke-linecap:butt;stroke-linejoin:miter;stroke-dasharray:none;stroke-opacity:1"
       d="M 894.86794,835.84495 893.87986,731.18618"
       id="path1814-7"
       inkscape:connector-type="polyline"
       inkscape:connector-curvature="0"
       inkscape:connection-start="#path1576-6-3"
       inkscape:connection-end="#path1576-3-9" />
    <path
       style="fill:none;fill-rule:evenodd;stroke:#000000;stroke-width:11.3386;stroke-linecap:butt;stroke-linejoin:miter;stroke-dasharray:none;stroke-opacity:1"
       d="M 917.51223,695.05385 1028.5598,647.72079"
       id="path1816-9"
       inkscape:connector-type="polyline"
       inkscape:connector-curvature="0"
       inkscape:connection-start="#path1576-3-9"
       inkscape:connection-end="#path1576-0" />
    <path
       style="fill:none;fill-rule:evenodd;stroke:#000000;stroke-width:11.3386;stroke-linecap:butt;stroke-linejoin:miter;stroke-dasharray:none;stroke-opacity:1"
       d="m 1070.4937,656.18921 79.323,81.91209"
       id="path1818-2"
       inkscape:connector-type="polyline"
       inkscape:connector-curvature="0"
       inkscape:connection-start="#path1576-0"
       inkscape:connection-end="#path1576-35-8" />
    <path
       style="fill:none;fill-rule:evenodd;stroke:#000000;stroke-width:11.3386;stroke-linecap:butt;stroke-linejoin:miter;stroke-dasharray:none;stroke-opacity:1"
       d="M 1041.317,888.06014 920.66007,866.38838"
       id="path1824-3"
       inkscape:connector-type="polyline"
       inkscape:connector-curvature="0"
       inkscape:connection-start="#path1576-7-6"
       inkscape:connection-end="#path1576-6-3" />
    <path
       style="fill:none;fill-rule:evenodd;stroke:#000000;stroke-width:11.3386;stroke-linecap:butt;stroke-linejoin:miter;stroke-dasharray:none;stroke-opacity:1"
       d="m 1326.1289,779.76391 84.8131,98.95543"
       id="path1828-7"
       inkscape:connector-type="polyline"
       inkscape:connector-curvature="0"
       inkscape:connection-end="#path1576-7-7-6"
       inkscape:connection-start="#path1576-5-1" />
    <path
       style="fill:none;fill-rule:evenodd;stroke:#000000;stroke-width:11.3386;stroke-linecap:butt;stroke-linejoin:miter;stroke-dasharray:none;stroke-opacity:1"
       d="M 1453.0974,892.47329 1578.966,862.80998"
       id="path1830-5"
       inkscape:connector-type="polyline"
       inkscape:connector-curvature="0"
       inkscape:connection-start="#path1576-7-7-6"
       inkscape:connection-end="#path1576-6-2-2" />
    <path
       style="fill:none;fill-rule:evenodd;stroke:#000000;stroke-width:11.3386;stroke-linecap:butt;stroke-linejoin:miter;stroke-dasharray:none;stroke-opacity:1"
       d="m 1604.7948,830.90621 2.5308,-116.29759"
       id="path1832-9"
       inkscape:connector-type="polyline"
       inkscape:connector-curvature="0"
       inkscape:connection-end="#path1576-3-1-6"
       inkscape:connection-start="#path1576-6-2-2" />
    <path
       style="fill:none;fill-rule:evenodd;stroke:#000000;stroke-width:11.3386;stroke-linecap:butt;stroke-linejoin:miter;stroke-dasharray:none;stroke-opacity:1"
       d="M 1583.631,679.42782 1458.8362,631.94166"
       id="path1834-2"
       inkscape:connector-type="polyline"
       inkscape:connector-curvature="0"
       inkscape:connection-start="#path1576-3-1-6"
       inkscape:connection-end="#path1576-9-0" />
    <path
       style="display:inline;fill:none;fill-rule:evenodd;stroke:#000000;stroke-width:11.3386;stroke-linecap:butt;stroke-linejoin:miter;stroke-dasharray:none;stroke-opacity:1"
       d="m 1326.7342,740.88357 90.3463,-99.00026"
       id="path1836-2"
       inkscape:connector-type="polyline"
       inkscape:connector-curvature="0"
       inkscape:connection-end="#path1576-9-0"
       inkscape:connection-start="#path1576-5-1" />
    <path
       style="fill:none;fill-rule:evenodd;stroke:#000000;stroke-width:11.3386;stroke-linecap:butt;stroke-linejoin:miter;stroke-dasharray:none;stroke-opacity:1"
       d="m 1082.3477,871.81678 70.0421,-94.23743"
       id="path1985"
       inkscape:connector-type="polyline"
       inkscape:connector-curvature="0"
       inkscape:connection-start="#path1576-7-6"
       inkscape:connection-end="#path1576-35-8" />
    <path
       style="fill:none;fill-rule:evenodd;stroke:#000000;stroke-width:11.3386;stroke-linecap:butt;stroke-linejoin:miter;stroke-dasharray:none;stroke-opacity:1"
       d="m 1283.2887,759.44871 -89.4663,-2.09408"
       id="path1987"
       inkscape:connector-type="polyline"
       inkscape:connector-curvature="0"
       inkscape:connection-start="#path1576-5-1"
       inkscape:connection-end="#path1576-35-8" />
  </g>
</svg>
