<?xml version="1.0" encoding="utf-8" standalone="no"?>
<!DOCTYPE svg PUBLIC "-//W3C//DTD SVG 1.1//EN"
  "http://www.w3.org/Graphics/SVG/1.1/DTD/svg11.dtd">
<svg xmlns:xlink="http://www.w3.org/1999/xlink" width="460.8pt" height="345.6pt" viewBox="0 0 460.8 345.6" xmlns="http://www.w3.org/2000/svg" version="1.1">
 <metadata>
  <rdf:RDF xmlns:dc="http://purl.org/dc/elements/1.1/" xmlns:cc="http://creativecommons.org/ns#" xmlns:rdf="http://www.w3.org/1999/02/22-rdf-syntax-ns#">
   <cc:Work>
    <dc:type rdf:resource="http://purl.org/dc/dcmitype/StillImage"/>
    <dc:date>2025-09-19T16:16:44.809465</dc:date>
    <dc:format>image/svg+xml</dc:format>
    <dc:creator>
     <cc:Agent>
      <dc:title>Matplotlib v3.8.3, https://matplotlib.org/</dc:title>
     </cc:Agent>
    </dc:creator>
   </cc:Work>
  </rdf:RDF>
 </metadata>
 <defs>
  <style type="text/css">*{stroke-linejoin: round; stroke-linecap: butt}</style>
 </defs>
 <g id="figure_1">
  <g id="patch_1">
   <path d="M 0 345.6 
L 460.8 345.6 
L 460.8 0 
L 0 0 
z
" style="fill: #ffffff"/>
  </g>
  <g id="axes_1">
   <g id="patch_2">
    <path d="M 57.6 307.584 
L 414.72 307.584 
L 414.72 41.472 
L 57.6 41.472 
z
" style="fill: #ffffff"/>
   </g>
   <g id="matplotlib.axis_1">
    <g id="xtick_1">
     <g id="line2d_1">
      <defs>
       <path id="m84de8a28e5" d="M 0 0 
L 0 3.5 
" style="stroke: #000000; stroke-width: 0.8"/>
      </defs>
      <g>
       <use xlink:href="#m84de8a28e5" x="73.832862" y="307.584" style="stroke: #000000; stroke-width: 0.8"/>
      </g>
     </g>
     <g id="text_1">
      <!-- 0.00 -->
      <g transform="translate(62.70005 322.182437) scale(0.1 -0.1)">
       <defs>
        <path id="DejaVuSans-30" d="M 2034 4250 
Q 1547 4250 1301 3770 
Q 1056 3291 1056 2328 
Q 1056 1369 1301 889 
Q 1547 409 2034 409 
Q 2525 409 2770 889 
Q 3016 1369 3016 2328 
Q 3016 3291 2770 3770 
Q 2525 4250 2034 4250 
z
M 2034 4750 
Q 2819 4750 3233 4129 
Q 3647 3509 3647 2328 
Q 3647 1150 3233 529 
Q 2819 -91 2034 -91 
Q 1250 -91 836 529 
Q 422 1150 422 2328 
Q 422 3509 836 4129 
Q 1250 4750 2034 4750 
z
" transform="scale(0.015625)"/>
        <path id="DejaVuSans-2e" d="M 684 794 
L 1344 794 
L 1344 0 
L 684 0 
L 684 794 
z
" transform="scale(0.015625)"/>
       </defs>
       <use xlink:href="#DejaVuSans-30"/>
       <use xlink:href="#DejaVuSans-2e" x="63.623047"/>
       <use xlink:href="#DejaVuSans-30" x="95.410156"/>
       <use xlink:href="#DejaVuSans-30" x="159.033203"/>
      </g>
     </g>
    </g>
    <g id="xtick_2">
     <g id="line2d_2">
      <g>
       <use xlink:href="#m84de8a28e5" x="114.41461" y="307.584" style="stroke: #000000; stroke-width: 0.8"/>
      </g>
     </g>
     <g id="text_2">
      <!-- 0.25 -->
      <g transform="translate(103.281798 322.182437) scale(0.1 -0.1)">
       <defs>
        <path id="DejaVuSans-32" d="M 1228 531 
L 3431 531 
L 3431 0 
L 469 0 
L 469 531 
Q 828 903 1448 1529 
Q 2069 2156 2228 2338 
Q 2531 2678 2651 2914 
Q 2772 3150 2772 3378 
Q 2772 3750 2511 3984 
Q 2250 4219 1831 4219 
Q 1534 4219 1204 4116 
Q 875 4013 500 3803 
L 500 4441 
Q 881 4594 1212 4672 
Q 1544 4750 1819 4750 
Q 2544 4750 2975 4387 
Q 3406 4025 3406 3419 
Q 3406 3131 3298 2873 
Q 3191 2616 2906 2266 
Q 2828 2175 2409 1742 
Q 1991 1309 1228 531 
z
" transform="scale(0.015625)"/>
        <path id="DejaVuSans-35" d="M 691 4666 
L 3169 4666 
L 3169 4134 
L 1269 4134 
L 1269 2991 
Q 1406 3038 1543 3061 
Q 1681 3084 1819 3084 
Q 2600 3084 3056 2656 
Q 3513 2228 3513 1497 
Q 3513 744 3044 326 
Q 2575 -91 1722 -91 
Q 1428 -91 1123 -41 
Q 819 9 494 109 
L 494 744 
Q 775 591 1075 516 
Q 1375 441 1709 441 
Q 2250 441 2565 725 
Q 2881 1009 2881 1497 
Q 2881 1984 2565 2268 
Q 2250 2553 1709 2553 
Q 1456 2553 1204 2497 
Q 953 2441 691 2322 
L 691 4666 
z
" transform="scale(0.015625)"/>
       </defs>
       <use xlink:href="#DejaVuSans-30"/>
       <use xlink:href="#DejaVuSans-2e" x="63.623047"/>
       <use xlink:href="#DejaVuSans-32" x="95.410156"/>
       <use xlink:href="#DejaVuSans-35" x="159.033203"/>
      </g>
     </g>
    </g>
    <g id="xtick_3">
     <g id="line2d_3">
      <g>
       <use xlink:href="#m84de8a28e5" x="154.996358" y="307.584" style="stroke: #000000; stroke-width: 0.8"/>
      </g>
     </g>
     <g id="text_3">
      <!-- 0.50 -->
      <g transform="translate(143.863546 322.182437) scale(0.1 -0.1)">
       <use xlink:href="#DejaVuSans-30"/>
       <use xlink:href="#DejaVuSans-2e" x="63.623047"/>
       <use xlink:href="#DejaVuSans-35" x="95.410156"/>
       <use xlink:href="#DejaVuSans-30" x="159.033203"/>
      </g>
     </g>
    </g>
    <g id="xtick_4">
     <g id="line2d_4">
      <g>
       <use xlink:href="#m84de8a28e5" x="195.578107" y="307.584" style="stroke: #000000; stroke-width: 0.8"/>
      </g>
     </g>
     <g id="text_4">
      <!-- 0.75 -->
      <g transform="translate(184.445294 322.182437) scale(0.1 -0.1)">
       <defs>
        <path id="DejaVuSans-37" d="M 525 4666 
L 3525 4666 
L 3525 4397 
L 1831 0 
L 1172 0 
L 2766 4134 
L 525 4134 
L 525 4666 
z
" transform="scale(0.015625)"/>
       </defs>
       <use xlink:href="#DejaVuSans-30"/>
       <use xlink:href="#DejaVuSans-2e" x="63.623047"/>
       <use xlink:href="#DejaVuSans-37" x="95.410156"/>
       <use xlink:href="#DejaVuSans-35" x="159.033203"/>
      </g>
     </g>
    </g>
    <g id="xtick_5">
     <g id="line2d_5">
      <g>
       <use xlink:href="#m84de8a28e5" x="236.159855" y="307.584" style="stroke: #000000; stroke-width: 0.8"/>
      </g>
     </g>
     <g id="text_5">
      <!-- 1.00 -->
      <g transform="translate(225.027042 322.182437) scale(0.1 -0.1)">
       <defs>
        <path id="DejaVuSans-31" d="M 794 531 
L 1825 531 
L 1825 4091 
L 703 3866 
L 703 4441 
L 1819 4666 
L 2450 4666 
L 2450 531 
L 3481 531 
L 3481 0 
L 794 0 
L 794 531 
z
" transform="scale(0.015625)"/>
       </defs>
       <use xlink:href="#DejaVuSans-31"/>
       <use xlink:href="#DejaVuSans-2e" x="63.623047"/>
       <use xlink:href="#DejaVuSans-30" x="95.410156"/>
       <use xlink:href="#DejaVuSans-30" x="159.033203"/>
      </g>
     </g>
    </g>
    <g id="xtick_6">
     <g id="line2d_6">
      <g>
       <use xlink:href="#m84de8a28e5" x="276.741603" y="307.584" style="stroke: #000000; stroke-width: 0.8"/>
      </g>
     </g>
     <g id="text_6">
      <!-- 1.25 -->
      <g transform="translate(265.60879 322.182437) scale(0.1 -0.1)">
       <use xlink:href="#DejaVuSans-31"/>
       <use xlink:href="#DejaVuSans-2e" x="63.623047"/>
       <use xlink:href="#DejaVuSans-32" x="95.410156"/>
       <use xlink:href="#DejaVuSans-35" x="159.033203"/>
      </g>
     </g>
    </g>
    <g id="xtick_7">
     <g id="line2d_7">
      <g>
       <use xlink:href="#m84de8a28e5" x="317.323351" y="307.584" style="stroke: #000000; stroke-width: 0.8"/>
      </g>
     </g>
     <g id="text_7">
      <!-- 1.50 -->
      <g transform="translate(306.190538 322.182437) scale(0.1 -0.1)">
       <use xlink:href="#DejaVuSans-31"/>
       <use xlink:href="#DejaVuSans-2e" x="63.623047"/>
       <use xlink:href="#DejaVuSans-35" x="95.410156"/>
       <use xlink:href="#DejaVuSans-30" x="159.033203"/>
      </g>
     </g>
    </g>
    <g id="xtick_8">
     <g id="line2d_8">
      <g>
       <use xlink:href="#m84de8a28e5" x="357.905099" y="307.584" style="stroke: #000000; stroke-width: 0.8"/>
      </g>
     </g>
     <g id="text_8">
      <!-- 1.75 -->
      <g transform="translate(346.772286 322.182437) scale(0.1 -0.1)">
       <use xlink:href="#DejaVuSans-31"/>
       <use xlink:href="#DejaVuSans-2e" x="63.623047"/>
       <use xlink:href="#DejaVuSans-37" x="95.410156"/>
       <use xlink:href="#DejaVuSans-35" x="159.033203"/>
      </g>
     </g>
    </g>
    <g id="xtick_9">
     <g id="line2d_9">
      <g>
       <use xlink:href="#m84de8a28e5" x="398.486847" y="307.584" style="stroke: #000000; stroke-width: 0.8"/>
      </g>
     </g>
     <g id="text_9">
      <!-- 2.00 -->
      <g transform="translate(387.354035 322.182437) scale(0.1 -0.1)">
       <use xlink:href="#DejaVuSans-32"/>
       <use xlink:href="#DejaVuSans-2e" x="63.623047"/>
       <use xlink:href="#DejaVuSans-30" x="95.410156"/>
       <use xlink:href="#DejaVuSans-30" x="159.033203"/>
      </g>
     </g>
    </g>
   </g>
   <g id="matplotlib.axis_2">
    <g id="ytick_1">
     <g id="line2d_10">
      <defs>
       <path id="m44321e2180" d="M 0 0 
L -3.5 0 
" style="stroke: #000000; stroke-width: 0.8"/>
      </defs>
      <g>
       <use xlink:href="#m44321e2180" x="57.6" y="295.488" style="stroke: #000000; stroke-width: 0.8"/>
      </g>
     </g>
     <g id="text_10">
      <!-- 0.0 -->
      <g transform="translate(34.696875 299.287219) scale(0.1 -0.1)">
       <use xlink:href="#DejaVuSans-30"/>
       <use xlink:href="#DejaVuSans-2e" x="63.623047"/>
       <use xlink:href="#DejaVuSans-30" x="95.410156"/>
      </g>
     </g>
    </g>
    <g id="ytick_2">
     <g id="line2d_11">
      <g>
       <use xlink:href="#m44321e2180" x="57.6" y="247.104035" style="stroke: #000000; stroke-width: 0.8"/>
      </g>
     </g>
     <g id="text_11">
      <!-- 0.2 -->
      <g transform="translate(34.696875 250.903253) scale(0.1 -0.1)">
       <use xlink:href="#DejaVuSans-30"/>
       <use xlink:href="#DejaVuSans-2e" x="63.623047"/>
       <use xlink:href="#DejaVuSans-32" x="95.410156"/>
      </g>
     </g>
    </g>
    <g id="ytick_3">
     <g id="line2d_12">
      <g>
       <use xlink:href="#m44321e2180" x="57.6" y="198.720069" style="stroke: #000000; stroke-width: 0.8"/>
      </g>
     </g>
     <g id="text_12">
      <!-- 0.4 -->
      <g transform="translate(34.696875 202.519288) scale(0.1 -0.1)">
       <defs>
        <path id="DejaVuSans-34" d="M 2419 4116 
L 825 1625 
L 2419 1625 
L 2419 4116 
z
M 2253 4666 
L 3047 4666 
L 3047 1625 
L 3713 1625 
L 3713 1100 
L 3047 1100 
L 3047 0 
L 2419 0 
L 2419 1100 
L 313 1100 
L 313 1709 
L 2253 4666 
z
" transform="scale(0.015625)"/>
       </defs>
       <use xlink:href="#DejaVuSans-30"/>
       <use xlink:href="#DejaVuSans-2e" x="63.623047"/>
       <use xlink:href="#DejaVuSans-34" x="95.410156"/>
      </g>
     </g>
    </g>
    <g id="ytick_4">
     <g id="line2d_13">
      <g>
       <use xlink:href="#m44321e2180" x="57.6" y="150.336104" style="stroke: #000000; stroke-width: 0.8"/>
      </g>
     </g>
     <g id="text_13">
      <!-- 0.6 -->
      <g transform="translate(34.696875 154.135323) scale(0.1 -0.1)">
       <defs>
        <path id="DejaVuSans-36" d="M 2113 2584 
Q 1688 2584 1439 2293 
Q 1191 2003 1191 1497 
Q 1191 994 1439 701 
Q 1688 409 2113 409 
Q 2538 409 2786 701 
Q 3034 994 3034 1497 
Q 3034 2003 2786 2293 
Q 2538 2584 2113 2584 
z
M 3366 4563 
L 3366 3988 
Q 3128 4100 2886 4159 
Q 2644 4219 2406 4219 
Q 1781 4219 1451 3797 
Q 1122 3375 1075 2522 
Q 1259 2794 1537 2939 
Q 1816 3084 2150 3084 
Q 2853 3084 3261 2657 
Q 3669 2231 3669 1497 
Q 3669 778 3244 343 
Q 2819 -91 2113 -91 
Q 1303 -91 875 529 
Q 447 1150 447 2328 
Q 447 3434 972 4092 
Q 1497 4750 2381 4750 
Q 2619 4750 2861 4703 
Q 3103 4656 3366 4563 
z
" transform="scale(0.015625)"/>
       </defs>
       <use xlink:href="#DejaVuSans-30"/>
       <use xlink:href="#DejaVuSans-2e" x="63.623047"/>
       <use xlink:href="#DejaVuSans-36" x="95.410156"/>
      </g>
     </g>
    </g>
    <g id="ytick_5">
     <g id="line2d_14">
      <g>
       <use xlink:href="#m44321e2180" x="57.6" y="101.952138" style="stroke: #000000; stroke-width: 0.8"/>
      </g>
     </g>
     <g id="text_14">
      <!-- 0.8 -->
      <g transform="translate(34.696875 105.751357) scale(0.1 -0.1)">
       <defs>
        <path id="DejaVuSans-38" d="M 2034 2216 
Q 1584 2216 1326 1975 
Q 1069 1734 1069 1313 
Q 1069 891 1326 650 
Q 1584 409 2034 409 
Q 2484 409 2743 651 
Q 3003 894 3003 1313 
Q 3003 1734 2745 1975 
Q 2488 2216 2034 2216 
z
M 1403 2484 
Q 997 2584 770 2862 
Q 544 3141 544 3541 
Q 544 4100 942 4425 
Q 1341 4750 2034 4750 
Q 2731 4750 3128 4425 
Q 3525 4100 3525 3541 
Q 3525 3141 3298 2862 
Q 3072 2584 2669 2484 
Q 3125 2378 3379 2068 
Q 3634 1759 3634 1313 
Q 3634 634 3220 271 
Q 2806 -91 2034 -91 
Q 1263 -91 848 271 
Q 434 634 434 1313 
Q 434 1759 690 2068 
Q 947 2378 1403 2484 
z
M 1172 3481 
Q 1172 3119 1398 2916 
Q 1625 2713 2034 2713 
Q 2441 2713 2670 2916 
Q 2900 3119 2900 3481 
Q 2900 3844 2670 4047 
Q 2441 4250 2034 4250 
Q 1625 4250 1398 4047 
Q 1172 3844 1172 3481 
z
" transform="scale(0.015625)"/>
       </defs>
       <use xlink:href="#DejaVuSans-30"/>
       <use xlink:href="#DejaVuSans-2e" x="63.623047"/>
       <use xlink:href="#DejaVuSans-38" x="95.410156"/>
      </g>
     </g>
    </g>
    <g id="ytick_6">
     <g id="line2d_15">
      <g>
       <use xlink:href="#m44321e2180" x="57.6" y="53.568173" style="stroke: #000000; stroke-width: 0.8"/>
      </g>
     </g>
     <g id="text_15">
      <!-- 1.0 -->
      <g transform="translate(34.696875 57.367392) scale(0.1 -0.1)">
       <use xlink:href="#DejaVuSans-31"/>
       <use xlink:href="#DejaVuSans-2e" x="63.623047"/>
       <use xlink:href="#DejaVuSans-30" x="95.410156"/>
      </g>
     </g>
    </g>
   </g>
   <g id="line2d_16">
    <path d="M 73.832727 53.669268 
L 73.832909 53.568144 
L 73.832942 54.533158 
L 73.833046 53.653854 
L 74.609417 55.552043 
L 75.039641 56.022308 
L 75.233133 56.057087 
L 77.027806 58.351511 
L 77.063083 58.166782 
L 77.656769 58.935286 
L 78.049846 59.369819 
L 79.182127 62.451507 
L 79.753695 60.775538 
L 80.276474 61.914768 
L 80.57856 62.0352 
L 80.714517 62.606762 
L 81.56872 63.452065 
L 81.648604 64.392003 
L 82.096961 63.242578 
L 83.002744 65.705003 
L 83.199456 65.894375 
L 83.8731 66.112572 
L 84.497323 66.758697 
L 84.531169 66.979374 
L 84.803057 66.754256 
L 85.262135 68.258864 
L 85.494118 67.647114 
L 85.676506 68.166348 
L 86.068996 68.006031 
L 86.196655 68.440146 
L 86.36069 68.42277 
L 86.524858 67.752521 
L 86.710997 67.93849 
L 86.780362 69.02767 
L 87.085158 69.60389 
L 87.40885 68.539396 
L 87.442628 69.265333 
L 87.596462 70.017774 
L 87.859898 69.036668 
L 88.134965 70.933343 
L 88.801978 71.290804 
L 89.067886 71.556066 
L 89.352606 71.730787 
L 89.469171 71.634681 
L 89.713666 72.487929 
L 89.751112 72.238586 
L 89.81415 71.571538 
L 89.925478 72.867148 
L 90.30701 73.173549 
L 90.47608 72.867393 
L 90.625125 73.94064 
L 90.841692 73.942774 
L 91.108125 74.254583 
L 91.448546 74.021404 
L 91.518459 74.174468 
L 91.8237 73.438927 
L 92.014131 75.465969 
L 92.241598 74.283609 
L 92.413438 74.462383 
L 92.502357 75.455313 
L 92.66777 75.704006 
L 92.857622 75.411924 
L 93.132171 75.65224 
L 93.258325 74.727731 
L 93.370108 75.934878 
L 93.563656 75.265623 
L 93.828828 76.341076 
L 93.994016 76.261827 
L 94.169276 77.28064 
L 94.311733 77.26857 
L 94.669852 77.476846 
L 94.893377 78.577346 
L 95.029288 78.392444 
L 95.172104 76.904217 
L 95.250536 76.971167 
L 95.674165 79.247062 
L 95.955056 79.50471 
L 96.027805 79.193522 
L 96.377338 79.891832 
L 96.701685 80.676457 
L 97.384448 81.310282 
L 97.568622 81.344024 
L 97.85575 81.8432 
L 97.992975 81.803589 
L 98.042049 80.185861 
L 98.05811 81.637995 
L 98.524408 82.111519 
L 98.625444 81.986473 
L 98.793818 82.414358 
L 98.916772 82.156551 
L 99.547209 83.708065 
L 99.694682 83.692132 
L 99.952179 84.033385 
L 100.05844 83.516026 
L 100.093959 84.539669 
L 100.143523 83.530878 
L 100.404424 83.595752 
L 100.552275 84.892011 
L 100.632138 83.621 
L 100.791884 84.604125 
L 100.858568 84.417175 
L 101.101032 84.495993 
L 101.164437 84.797275 
L 101.320597 83.338334 
L 101.628198 84.623058 
L 101.764496 85.535065 
L 102.060872 86.43359 
L 102.363488 85.073539 
L 102.675456 86.509134 
L 102.818406 85.757674 
L 102.900754 86.958447 
L 103.030407 85.558901 
L 103.183262 85.769498 
L 103.446894 87.487111 
L 103.598668 87.427255 
L 103.777504 86.349769 
L 103.914682 87.968248 
L 104.030591 87.099975 
L 104.178309 87.92447 
L 104.289792 87.239744 
L 104.476424 88.293091 
L 104.567837 87.711465 
L 104.785452 88.823558 
L 104.930499 88.411375 
L 105.139525 89.223859 
L 105.578539 88.65469 
L 105.912992 90.204013 
L 106.016648 88.903168 
L 106.303469 90.601214 
L 106.461662 90.327069 
L 106.591908 90.390933 
L 106.622892 89.846999 
L 106.808665 90.896411 
L 106.970378 90.616051 
L 107.008593 91.300864 
L 107.194292 91.589544 
L 107.340447 91.579176 
L 107.738069 91.923745 
L 108.059533 91.901179 
L 108.488982 92.504911 
L 108.800824 91.895469 
L 109.008878 93.79161 
L 109.099991 93.62368 
L 109.161679 92.466266 
L 109.229485 93.530876 
L 109.290097 93.199717 
L 109.692019 94.02437 
L 109.85112 93.744545 
L 110.016173 93.698402 
L 110.096678 94.416496 
L 110.29687 93.686982 
L 110.596456 94.759897 
L 111.023046 95.50148 
L 111.120112 94.208378 
L 111.389743 95.649943 
L 111.475049 95.056709 
L 111.656671 96.22263 
L 111.788306 95.318496 
L 111.887133 96.580365 
L 112.084844 96.275853 
L 112.49888 96.387258 
L 112.758666 97.164154 
L 112.841533 97.342337 
L 113.242919 96.149927 
L 113.34112 97.893495 
L 113.553324 96.447474 
L 113.764517 97.729155 
L 114.023923 98.346398 
L 114.532278 96.018781 
L 114.561861 98.022694 
L 114.618849 96.482225 
L 114.695958 99.458117 
L 114.853222 98.950563 
L 115.053843 99.393719 
L 115.433062 98.439924 
L 115.612474 100.063564 
L 115.682592 99.245933 
L 115.917811 100.558486 
L 116.241435 98.955408 
L 116.614487 101.604581 
L 116.769395 99.817971 
L 116.87404 100.07983 
L 117.088922 102.263987 
L 117.130033 101.357906 
L 117.325196 102.475796 
L 117.439947 101.49854 
L 117.716762 102.967401 
L 117.992783 103.621501 
L 118.141223 102.533849 
L 118.162625 102.769637 
L 118.399195 103.508538 
L 118.585307 102.878678 
L 118.650751 101.040229 
L 118.724401 104.152904 
L 118.913135 101.839144 
L 118.931741 103.404919 
L 119.14193 104.100677 
L 119.523873 103.805422 
L 119.738155 104.465852 
L 119.933454 103.021085 
L 119.982813 103.969819 
L 120.087342 103.079744 
L 120.217385 104.268664 
L 120.404537 102.519386 
L 120.546799 105.916905 
L 120.67287 104.653681 
L 120.700649 100.431378 
L 120.935583 106.462627 
L 121.047315 106.295937 
L 121.160522 105.863942 
L 121.26732 106.638199 
L 121.377339 96.160914 
L 121.377407 96.31232 
L 121.537976 107.524627 
L 121.77815 105.468342 
L 122.099239 107.095804 
L 122.269943 106.755142 
L 122.318049 103.383665 
L 122.476349 108.161048 
L 122.749298 107.171838 
L 123.004396 108.361595 
L 123.123118 107.935064 
L 123.331508 108.160355 
L 123.471246 109.481143 
L 123.780744 109.161706 
L 123.899258 108.458335 
L 124.153577 110.948028 
L 124.26336 109.340912 
L 124.614278 109.725914 
L 124.71885 108.229829 
L 124.882719 111.007293 
L 125.002181 111.064596 
L 125.085792 111.344999 
L 125.372818 110.420461 
L 125.424369 109.715777 
L 125.639406 111.903049 
L 125.894678 111.266441 
L 126.28634 112.973585 
L 126.480429 112.043207 
L 126.702036 112.865554 
L 126.978357 112.75324 
L 127.04964 112.145658 
L 127.239202 114.28301 
L 127.584402 113.752399 
L 127.733863 115.536068 
L 127.781399 114.848919 
L 127.89181 115.01881 
L 128.133851 113.570381 
L 128.475215 116.172561 
L 128.714518 114.432396 
L 128.924122 115.899095 
L 129.141355 115.390835 
L 129.282616 111.14934 
L 129.424976 116.305207 
L 129.512132 116.300766 
L 129.728553 116.160694 
L 129.987284 117.094187 
L 130.152879 117.248014 
L 130.306844 116.941339 
L 130.464288 117.668142 
L 130.617479 116.709488 
L 130.694979 118.136648 
L 130.824364 117.640889 
L 131.204958 118.295854 
L 131.445963 119.548148 
L 131.677293 117.571546 
L 131.882568 119.725869 
L 131.979893 119.682336 
L 132.230313 119.373109 
L 132.253321 118.881778 
L 132.328388 119.175778 
L 132.568532 118.266539 
L 132.798048 122.088814 
L 132.943228 120.455902 
L 132.984547 120.587812 
L 133.109854 120.119148 
L 133.379755 117.77551 
L 133.513896 119.182786 
L 133.778224 119.371826 
L 133.902234 121.149943 
L 134.033433 120.217936 
L 134.186305 120.814242 
L 134.42449 119.484399 
L 134.639551 122.313442 
L 134.79893 122.219513 
L 134.924711 122.966878 
L 134.946098 121.665269 
L 135.173432 118.732954 
L 135.357106 121.461809 
L 135.713206 121.821144 
L 136.020048 123.029156 
L 136.075396 123.460603 
L 136.18992 123.420286 
L 136.382897 123.696262 
L 136.607314 123.730119 
L 136.889324 124.67147 
L 137.080249 123.456436 
L 137.289742 123.942836 
L 137.470276 123.118514 
L 137.655038 124.281032 
L 138.075044 125.225527 
L 138.147233 123.632917 
L 138.306002 124.837108 
L 138.394542 119.483909 
L 138.486159 124.021697 
L 138.626337 123.759074 
L 138.777922 125.277538 
L 138.786659 124.76191 
L 139.061195 127.194386 
L 139.153295 125.433659 
L 139.277412 125.259124 
L 139.408243 125.826418 
L 139.76294 126.703977 
L 139.85146 128.288685 
L 139.947088 126.03132 
L 140.075834 127.432236 
L 140.249731 127.33675 
L 140.312878 128.515029 
L 140.560337 125.805106 
L 140.621331 128.843881 
L 140.751746 128.273487 
L 140.987856 128.054757 
L 141.116055 129.216915 
L 141.270727 129.05233 
L 141.518738 127.824145 
L 141.58739 129.72131 
L 142.157327 129.52222 
L 142.287152 127.352107 
L 142.365121 130.084322 
L 142.413706 127.897786 
L 142.668166 128.978041 
L 142.798426 123.436306 
L 142.884523 129.787136 
L 143.053495 131.05793 
L 143.15919 131.023467 
L 143.356322 131.186091 
L 143.665776 130.287393 
L 143.806269 132.721773 
L 144.062199 132.197766 
L 144.382078 131.266004 
L 144.518483 131.398448 
L 144.766503 130.971398 
L 144.917934 132.550137 
L 144.994747 131.637899 
L 145.255311 131.328686 
L 145.678762 133.973101 
L 145.797083 132.446619 
L 145.953012 133.693924 
L 146.367058 134.859196 
L 146.532092 133.588459 
L 146.72011 135.167948 
L 146.84042 132.214709 
L 147.171489 133.973634 
L 147.358308 133.175109 
L 147.52487 133.677962 
L 147.666645 136.020806 
L 147.956584 132.629747 
L 148.023035 127.506324 
L 148.068045 130.383427 
L 148.2618 136.284828 
L 148.348541 135.068078 
L 148.430724 136.760759 
L 148.613232 137.254268 
L 148.649907 135.277421 
L 148.761097 136.298844 
L 149.022445 136.881134 
L 149.241807 136.684192 
L 149.431368 138.323651 
L 149.478245 137.819298 
L 149.611815 136.836707 
L 149.731674 134.131226 
L 150.033906 138.927786 
L 150.168409 138.896006 
L 150.353467 135.207443 
L 150.52552 138.724485 
L 150.638437 138.280219 
L 150.969217 139.049415 
L 151.09879 140.860207 
L 151.139461 138.236787 
L 151.216008 138.651883 
L 151.384854 138.7091 
L 151.516227 137.417945 
L 151.736595 138.80101 
L 151.829523 137.843422 
L 152.128959 140.750258 
L 152.273786 139.760573 
L 152.360124 140.913819 
L 152.517031 140.055626 
L 152.620224 141.700867 
L 152.805688 141.074612 
L 152.941764 140.128603 
L 153.041382 141.384805 
L 153.546068 142.731735 
L 153.885347 141.85357 
L 153.991815 142.970594 
L 154.439764 145.123865 
L 154.587281 142.319523 
L 154.721005 144.076761 
L 154.99632 128.817724 
L 154.996354 121.73307 
L 155.09498 142.595484 
L 155.207573 144.827125 
L 155.348796 144.932878 
L 155.4712 145.373813 
L 155.696048 144.941876 
L 155.915129 146.109052 
L 156.005062 145.744799 
L 156.014263 145.233886 
L 156.479226 146.823367 
L 156.646234 147.150345 
L 156.840836 146.283413 
L 156.92361 146.916488 
L 156.997898 145.704555 
L 157.090589 146.396303 
L 157.287 145.748678 
L 157.495341 147.403249 
L 157.608815 147.578028 
L 157.717954 146.951917 
L 158.043146 148.875239 
L 158.19297 147.975143 
L 158.268941 144.436226 
L 158.305137 147.331988 
L 158.473529 148.714043 
L 158.511592 148.51054 
L 158.64042 148.607065 
L 158.765679 148.920474 
L 158.781885 150.063093 
L 158.987788 148.477938 
L 159.231338 150.298449 
L 159.278371 147.23369 
L 159.393944 149.41045 
L 159.445737 146.983424 
L 159.719987 148.410353 
L 159.892287 150.278405 
L 160.174133 150.709795 
L 160.195545 146.407608 
L 160.326473 143.195755 
L 160.490433 150.571194 
L 160.729948 151.478934 
L 160.736257 150.4964 
L 161.010749 151.299237 
L 161.123787 150.328167 
L 161.483994 151.232604 
L 161.632696 151.781614 
L 161.793009 153.628873 
L 162.147314 152.571805 
L 162.24163 141.650297 
L 162.253221 152.877485 
L 162.432671 151.979104 
L 162.630999 153.774828 
L 162.976035 154.273715 
L 163.206842 153.5779 
L 163.373811 155.196855 
L 163.43915 154.610138 
L 163.516911 154.668321 
L 163.887568 155.194764 
L 164.179437 155.346731 
L 164.237016 154.509735 
L 164.403917 154.266448 
L 164.505403 153.740365 
L 164.58867 155.324828 
L 164.654463 148.440735 
L 164.889392 156.838059 
L 165.50147 155.07896 
L 165.546335 156.197989 
L 165.668033 136.05772 
L 165.879877 156.230794 
L 166.053145 157.186045 
L 166.275941 157.223882 
L 166.424701 158.078543 
L 166.435131 157.07539 
L 166.586291 159.009426 
L 166.749235 157.930945 
L 167.085079 158.735094 
L 167.19773 151.698486 
L 167.630619 160.593629 
L 167.75879 157.804413 
L 167.86043 159.838737 
L 168.081775 159.210477 
L 168.261942 160.912589 
L 168.438732 159.726092 
L 168.653991 159.631672 
L 168.71037 157.826547 
L 168.752216 151.502783 
L 168.821744 158.119221 
L 169.143917 162.286498 
L 169.448122 161.508953 
L 169.687328 161.76787 
L 169.844477 161.237188 
L 169.941202 161.930249 
L 170.188719 162.770663 
L 170.350251 161.489126 
L 170.513979 161.684641 
L 170.821812 163.718244 
L 171.008713 163.368656 
L 171.245723 163.664891 
L 171.393322 161.244225 
L 171.647834 163.961588 
L 171.844381 163.003625 
L 171.907436 164.427858 
L 172.069354 164.257852 
L 172.231312 165.284322 
L 172.330572 164.694764 
L 172.582143 163.976209 
L 172.66003 164.812759 
L 172.959756 164.083087 
L 173.414134 166.017512 
L 173.481195 165.554126 
L 173.596555 166.962382 
L 173.902367 164.43204 
L 174.026987 164.658672 
L 174.108396 163.727688 
L 174.176395 165.309008 
L 174.284441 154.096571 
L 174.451497 166.476501 
L 174.652785 166.270229 
L 174.677892 165.985789 
L 174.873511 167.359655 
L 174.984788 165.906338 
L 175.095707 166.625512 
L 175.325847 162.813028 
L 175.395868 156.834151 
L 175.618645 166.473559 
L 176.043881 168.993548 
L 176.149102 167.760057 
L 176.323424 170.061647 
L 176.473122 169.469479 
L 176.567003 170.228582 
L 176.78384 169.380929 
L 176.886777 169.415493 
L 176.893975 170.807181 
L 176.991552 169.97748 
L 177.110105 169.267591 
L 177.414833 170.05784 
L 177.540904 169.726104 
L 177.643996 171.134576 
L 177.722251 169.419343 
L 177.810356 171.924839 
L 177.882699 167.087068 
L 177.984852 169.354469 
L 178.195912 168.241742 
L 178.477042 172.202344 
L 178.69324 170.999148 
L 178.948139 172.315898 
L 178.967229 172.065545 
L 179.073765 170.798875 
L 179.230062 171.738698 
L 179.341436 170.755789 
L 179.367086 172.268501 
L 179.548027 173.331827 
L 179.733031 172.510302 
L 179.896536 181.305756 
L 179.904634 170.396267 
L 179.99479 173.134221 
L 180.205802 174.57893 
L 180.643558 175.130362 
L 180.819602 172.144449 
L 180.928006 175.042114 
L 181.094007 174.24555 
L 181.273351 176.516398 
L 181.722708 167.605494 
L 181.841029 175.956768 
L 182.077303 175.376807 
L 182.138752 174.156091 
L 182.252564 174.171203 
L 182.541434 175.672746 
L 182.645958 175.754757 
L 182.897113 174.376393 
L 182.956259 172.330043 
L 183.003592 175.958253 
L 183.366479 172.954366 
L 183.502099 176.933202 
L 183.63503 177.225327 
L 183.691719 175.412567 
L 183.957242 177.729413 
L 184.342199 177.42945 
L 184.466286 175.719451 
L 184.52073 178.80793 
L 184.732593 178.157854 
L 184.902146 180.181471 
L 185.118469 178.252078 
L 185.388511 171.488879 
L 185.507267 177.514259 
L 185.660255 178.739596 
L 185.779147 177.780595 
L 186.021401 179.963419 
L 186.349002 178.873388 
L 186.491569 181.085822 
L 186.564803 177.505441 
L 186.848922 181.358517 
L 186.991799 181.586014 
L 187.158875 181.371819 
L 187.249185 181.069347 
L 187.296721 183.279107 
L 187.347411 179.103682 
L 187.604139 181.938997 
L 187.706602 181.748494 
L 187.810951 180.569133 
L 188.196624 181.021215 
L 188.415638 184.307761 
L 188.66569 182.621013 
L 188.961226 181.922494 
L 189.161014 183.492062 
L 189.499993 183.122597 
L 189.689139 183.103376 
L 189.72726 182.326912 
L 189.85634 183.110744 
L 189.938939 185.604814 
L 190.023861 181.555106 
L 190.277077 185.136049 
L 190.411159 182.960471 
L 190.466928 170.1443 
L 190.474504 183.559552 
L 190.594799 183.642047 
L 191.035573 186.422294 
L 191.254054 186.218906 
L 191.304415 185.593884 
L 191.54634 185.93939 
L 191.591892 185.379371 
L 191.634938 175.272625 
L 191.657975 186.696323 
L 191.827324 186.291905 
L 191.947687 183.345696 
L 192.161553 186.554146 
L 192.248225 190.129833 
L 192.290314 186.750807 
L 192.630676 186.297579 
L 192.876075 188.21641 
L 193.190178 186.040147 
L 193.336664 187.597854 
L 193.438082 187.569888 
L 193.654387 189.260529 
L 193.765316 187.878156 
L 193.881605 188.790098 
L 194.001754 187.526831 
L 194.097967 189.756684 
L 194.273112 185.547885 
L 194.379222 189.319505 
L 194.592237 187.331222 
L 194.829798 190.434604 
L 194.897778 189.88744 
L 194.949299 188.89092 
L 195.07895 189.588271 
L 195.249267 187.590918 
L 195.754693 191.465645 
L 195.894919 191.280339 
L 195.920898 189.84633 
L 196.220691 190.526291 
L 196.317039 189.80943 
L 196.49111 191.637749 
L 196.531757 191.489459 
L 196.873755 191.509935 
L 197.047545 192.023191 
L 197.127184 193.593415 
L 197.246133 191.909796 
L 197.683996 194.702191 
L 197.771258 193.444663 
L 197.962774 196.227779 
L 198.028538 193.493631 
L 198.181023 195.902575 
L 198.211627 194.400181 
L 198.481591 190.515447 
L 198.571369 195.537321 
L 198.65959 194.79426 
L 198.690213 193.410676 
L 198.819235 193.914408 
L 198.92044 195.214885 
L 199.02417 194.367708 
L 199.033536 163.30384 
L 199.096601 194.96312 
L 199.350126 192.717009 
L 199.449377 196.837019 
L 199.51814 195.337379 
L 199.579308 195.696902 
L 199.927286 193.641814 
L 200.07054 195.594055 
L 200.220616 195.093047 
L 200.440452 197.09996 
L 200.482617 196.387923 
L 200.623753 196.839572 
L 200.841509 196.958129 
L 200.997738 196.036453 
L 201.129769 198.197929 
L 201.439151 199.198068 
L 201.733352 197.558451 
L 201.851644 198.861257 
L 201.907578 198.613969 
L 202.335871 199.023751 
L 202.372464 199.819075 
L 202.56725 198.816635 
L 202.73417 198.975077 
L 202.763332 196.510972 
L 203.127496 199.429675 
L 203.21624 201.086741 
L 203.390281 198.449975 
L 203.497273 200.988248 
L 203.723388 200.553426 
L 204.032305 202.931757 
L 204.067543 200.567291 
L 204.316647 201.26966 
L 204.376238 200.932235 
L 204.453022 200.949704 
L 204.551577 203.461337 
L 204.72945 199.572551 
L 204.911087 201.132587 
L 205.089773 201.301887 
L 205.135286 202.337182 
L 205.154937 201.370416 
L 205.31286 201.903355 
L 205.345572 203.815178 
L 205.386432 203.591077 
L 205.48069 201.177886 
L 205.587275 203.554055 
L 205.653716 200.691724 
L 205.740998 202.693597 
L 205.828987 201.87027 
L 205.947607 201.854488 
L 206.062223 202.36096 
L 206.147405 200.570679 
L 206.267758 203.59453 
L 206.518371 200.942523 
L 206.6004 205.834498 
L 206.731386 202.278264 
L 206.887074 204.651288 
L 207.199319 202.466576 
L 207.31081 203.967585 
L 207.426886 197.528574 
L 207.546039 204.672961 
L 207.574185 201.62614 
L 207.93237 206.622873 
L 208.1479 204.168255 
L 208.334897 205.535127 
L 208.59864 204.25297 
L 208.723608 205.607823 
L 208.851604 202.90759 
L 208.922458 203.210776 
L 209.080255 195.645035 
L 209.098319 205.352395 
L 209.178064 193.446213 
L 209.381432 205.775796 
L 209.564917 205.059751 
L 209.611204 206.409204 
L 209.745654 201.218499 
L 209.799633 207.676321 
L 210.122948 204.422782 
L 210.361738 204.808108 
L 210.405577 207.654404 
L 210.579851 205.609056 
L 210.895958 208.580211 
L 210.905972 207.967913 
L 211.07922 207.014082 
L 211.294586 208.687326 
L 211.310522 210.326901 
L 211.566089 208.442345 
L 211.820543 209.024347 
L 212.00338 202.828528 
L 212.083299 203.714883 
L 212.383189 209.856275 
L 212.530343 210.840301 
L 212.702053 208.513405 
L 212.975772 210.437708 
L 213.113027 206.715518 
L 213.144531 207.222228 
L 213.274869 211.239838 
L 213.331354 209.509774 
L 213.504641 210.219482 
L 213.819596 210.468371 
L 213.970504 211.315692 
L 214.118006 210.528781 
L 214.206459 216.164632 
L 214.481387 209.569608 
L 214.535385 211.902942 
L 214.632401 209.654589 
L 214.677411 213.824289 
L 215.15948 211.225094 
L 215.196615 212.4633 
L 215.390433 209.111989 
L 215.552381 211.697536 
L 216.046515 214.547912 
L 216.170719 212.948691 
L 216.285344 215.040477 
L 216.361499 214.627379 
L 216.55316 211.917463 
L 216.739925 214.346904 
L 216.87692 211.192845 
L 217.004878 214.755922 
L 217.162965 215.239438 
L 217.228516 228.499781 
L 217.257658 216.613051 
L 217.386545 214.61342 
L 217.58552 216.61941 
L 217.672435 213.563649 
L 217.824349 213.28277 
L 217.884782 213.699567 
L 218.074624 214.098484 
L 218.267929 216.546476 
L 218.485259 217.077216 
L 218.50938 215.462854 
L 219.095131 217.204368 
L 219.417498 214.054101 
L 219.523569 216.998161 
L 219.713315 216.78827 
L 219.734697 215.856147 
L 219.987894 218.21445 
L 220.113791 216.9146 
L 220.50316 215.771404 
L 220.734519 218.579661 
L 221.018783 209.654164 
L 221.05286 216.941023 
L 221.21592 218.234918 
L 221.2693 217.314324 
L 221.488342 220.489364 
L 221.5698 215.181608 
L 221.713974 216.956056 
L 221.739072 195.833058 
L 221.990527 220.220143 
L 222.244904 220.433308 
L 222.28647 218.642825 
L 222.394641 219.750549 
L 222.502841 219.56781 
L 222.514549 221.17882 
L 222.675829 220.803097 
L 222.810569 218.099879 
L 222.946964 223.135235 
L 223.078288 221.522423 
L 223.227097 221.590627 
L 223.327654 221.85966 
L 223.551901 218.104854 
L 223.79074 221.508602 
L 223.883498 220.056323 
L 223.920458 217.337395 
L 223.954226 221.837613 
L 224.030487 220.602802 
L 224.113396 223.596523 
L 224.207267 220.701691 
L 224.308086 230.800853 
L 224.40217 224.124156 
L 224.685515 221.871737 
L 224.913014 221.070089 
L 224.959649 219.246795 
L 225.424041 222.410054 
L 225.447011 216.68163 
L 225.530055 220.722196 
L 225.693822 221.255762 
L 226.024877 225.701279 
L 226.313379 220.325377 
L 226.409756 224.661255 
L 226.509771 221.01753 
L 226.620749 221.430203 
L 226.741372 224.55587 
L 226.982242 225.436666 
L 227.092581 229.894231 
L 227.416157 223.720293 
L 227.64324 224.302353 
L 227.667167 223.964575 
L 227.907766 226.508406 
L 227.96729 226.104882 
L 228.197459 232.773439 
L 228.333341 226.795831 
L 228.387533 225.757011 
L 228.691022 222.661329 
L 228.854441 225.884855 
L 228.949289 225.869995 
L 228.991813 226.019086 
L 229.154176 225.535945 
L 229.374525 223.270468 
L 229.596808 226.672198 
L 229.726353 225.956967 
L 229.950359 227.985862 
L 230.014091 230.34407 
L 230.144816 227.202707 
L 230.425936 227.498294 
L 230.627688 230.599087 
L 230.834539 229.365005 
L 230.878282 233.878236 
L 230.995858 228.768252 
L 231.034705 229.118553 
L 231.268493 232.674867 
L 231.278139 228.045472 
L 231.467536 227.166493 
L 231.603669 231.305443 
L 231.722551 227.538113 
L 231.83619 235.235519 
L 232.00849 230.726887 
L 232.154705 231.5217 
L 232.231615 233.633226 
L 232.236337 225.69934 
L 232.342331 229.507621 
L 232.405851 229.228206 
L 232.567663 229.463166 
L 232.616359 231.03003 
L 232.728885 227.645532 
L 232.854211 234.219936 
L 233.002535 227.491754 
L 233.142732 230.622418 
L 233.32763 224.175504 
L 233.485659 233.767285 
L 233.663184 233.312809 
L 233.862808 223.354152 
L 233.994587 234.649256 
L 234.312774 230.870311 
L 234.624575 236.283348 
L 235.30681 233.046408 
L 235.433848 237.428404 
L 235.494087 247.245313 
L 235.874216 240.016413 
L 235.963027 235.919939 
L 236.159487 204.341491 
L 236.159622 213.577528 
L 236.160164 193.646241 
L 236.159816 220.125537 
L 236.160396 210.29716 
L 237.211633 238.585377 
L 237.623052 241.829451 
L 239.039653 238.534931 
L 239.656811 236.700664 
L 239.832885 239.919257 
L 239.935212 237.307917 
L 240.236293 247.650938 
L 240.59471 241.352838 
L 240.745782 243.169391 
L 240.78253 241.263271 
L 240.949179 242.096922 
L 241.198496 248.458815 
L 241.470299 243.732759 
L 241.85871 246.224492 
L 242.236149 243.197743 
L 242.60368 245.963668 
L 242.798524 243.412587 
L 242.911611 248.070053 
L 243.139158 245.781113 
L 243.292746 247.530124 
L 243.97829 244.284678 
L 244.248738 248.164797 
L 244.436925 246.342714 
L 244.636549 249.51912 
L 244.83594 248.073929 
L 244.966114 253.80842 
L 245.070144 253.01024 
L 245.22052 248.808662 
L 245.588419 246.471088 
L 245.682387 249.39314 
L 246.076758 248.497517 
L 246.210356 252.925814 
L 246.351927 251.571296 
L 246.472193 251.900836 
L 246.508186 255.332764 
L 246.706048 250.566765 
L 246.911903 251.511072 
L 247.272101 248.629027 
L 247.46708 252.796679 
L 247.846067 251.009629 
L 248.242296 255.003126 
L 248.437643 252.347586 
L 248.625579 253.016448 
L 248.692475 254.075549 
L 248.736227 253.386972 
L 248.972734 253.987629 
L 249.084988 255.179224 
L 249.31718 253.75962 
L 249.609417 253.873084 
L 249.722077 255.673919 
L 249.770861 273.543597 
L 249.897203 256.165752 
L 250.050752 255.673566 
L 250.242868 258.210343 
L 250.517612 255.531631 
L 250.599369 257.79621 
L 250.784809 254.784734 
L 250.865618 258.066436 
L 251.21107 257.179515 
L 251.357169 257.744234 
L 251.651903 258.124525 
L 251.731706 257.039241 
L 251.919254 260.039393 
L 252.014325 259.367691 
L 252.039152 258.362537 
L 252.129405 272.601705 
L 252.149956 257.394168 
L 252.251045 258.60148 
L 252.350857 260.041719 
L 252.47416 259.851085 
L 252.898487 258.286319 
L 253.166922 256.306415 
L 253.195968 260.391047 
L 253.261393 259.50502 
L 253.416781 262.349891 
L 253.467925 262.14513 
L 253.74652 261.96662 
L 253.874216 259.165115 
L 254.126784 262.521185 
L 254.324976 262.646764 
L 254.542306 262.521221 
L 254.648542 261.91556 
L 254.775194 262.944528 
L 255.179085 261.89728 
L 255.230133 262.175487 
L 255.30086 264.240697 
L 255.533922 263.077631 
L 255.605501 269.892103 
L 255.691961 262.575773 
L 255.880594 260.341036 
L 256.197793 261.700853 
L 256.339732 260.67558 
L 256.465222 263.413163 
L 256.969448 264.881062 
L 257.135518 264.804282 
L 257.171201 263.804077 
L 257.225712 265.311972 
L 257.290751 265.083999 
L 257.457013 265.59649 
L 257.806935 265.303539 
L 257.886739 266.22263 
L 258.129166 265.373935 
L 258.172745 267.979244 
L 258.392145 266.5313 
L 258.54432 269.02618 
L 258.687091 267.990989 
L 258.907865 269.23247 
L 258.945793 267.556207 
L 259.267018 271.89764 
L 259.294051 267.960917 
L 259.549483 270.461334 
L 260.008815 266.917486 
L 260.112826 284.699886 
L 260.267826 266.040664 
L 260.452859 266.063885 
L 260.553948 267.214213 
L 260.627482 266.289965 
L 260.833704 271.400715 
L 260.921673 268.784219 
L 261.063322 268.008015 
L 261.159264 265.921456 
L 261.289301 267.587449 
L 261.334041 269.793486 
L 261.357881 268.664198 
L 261.54036 265.598882 
L 261.683169 267.024544 
L 261.828224 265.638541 
L 262.088319 271.421611 
L 262.378253 265.22583 
L 262.583179 269.894356 
L 262.768057 270.636885 
L 262.881415 267.336577 
L 262.954116 271.281441 
L 263.102421 269.193631 
L 263.163183 271.578341 
L 263.214386 263.276794 
L 263.31025 272.894575 
L 263.63488 271.770067 
L 263.76488 279.137771 
L 263.909353 272.570353 
L 263.964078 287.261351 
L 263.973676 275.999975 
L 264.2168 267.59348 
L 264.556737 275.142488 
L 264.701095 273.572016 
L 264.809595 274.572653 
L 264.888373 290.686642 
L 265.13589 272.960324 
L 265.249247 272.56321 
L 265.321562 276.389853 
L 265.504931 274.966447 
L 265.623184 276.531278 
L 265.832638 275.583227 
L 265.896554 275.892739 
L 266.034738 277.529823 
L 266.106511 275.765665 
L 266.187243 277.313531 
L 266.27707 282.766856 
L 266.46545 275.273409 
L 266.518027 278.618428 
L 266.702634 277.527479 
L 266.900497 275.381667 
L 266.935271 276.700641 
L 267.047293 274.895325 
L 267.144221 276.052596 
L 267.421578 276.120525 
L 267.629929 275.568581 
L 267.686375 271.422321 
L 267.936234 279.33177 
L 268.126163 276.202622 
L 268.34895 280.128023 
L 268.583444 276.962527 
L 268.613031 279.028129 
L 268.625241 295.487999 
L 268.710579 274.487082 
L 268.776411 278.818061 
L 269.040086 278.534079 
L 269.192996 280.194241 
L 269.223745 262.803447 
L 269.256196 279.293717 
L 269.528405 282.264153 
L 269.591102 279.678821 
L 269.824048 281.196687 
L 270.014945 278.897684 
L 270.186819 281.007442 
L 270.194173 282.66497 
L 270.276549 278.35052 
L 270.321559 279.132112 
L 270.396041 278.113124 
L 270.571263 278.741722 
L 270.587112 280.68455 
L 270.670649 279.459794 
L 270.805583 269.99366 
L 270.914142 280.568158 
L 271.071213 281.029667 
L 271.223504 281.868927 
L 271.252472 281.419896 
L 271.684752 283.146541 
L 271.787989 280.551236 
L 271.845771 284.915129 
L 271.926967 283.669003 
L 272.164847 281.240199 
L 272.346959 282.600682 
L 272.46645 293.008088 
L 272.581472 286.164623 
L 272.796847 285.025565 
L 272.861673 282.489229 
L 273.198494 284.201424 
L 273.249871 283.21378 
L 273.385346 283.751636 
L 273.655504 282.694565 
L 273.776931 284.029612 
L 273.963551 283.786051 
L 274.21786 284.464394 
L 274.325083 283.926798 
L 274.391999 285.18371 
L 274.582431 279.620756 
L 274.748345 286.653216 
L 274.836992 285.427577 
L 274.918807 287.324562 
L 274.973686 284.989854 
L 275.002248 285.482024 
L 275.213986 281.74481 
L 275.255455 285.013063 
L 275.49618 285.218026 
L 275.547692 288.116337 
L 275.683612 287.965566 
L 275.769975 285.374934 
L 275.850262 289.120377 
L 275.928169 287.01749 
L 276.006888 288.725584 
L 276.152291 286.528502 
L 276.248426 289.776852 
L 276.430847 286.938538 
L 276.55953 289.503712 
L 276.741564 295.488 
L 276.741661 295.485775 
L 276.741777 285.700578 
L 276.788722 289.902818 
L 277.00133 284.931106 
L 277.052823 289.441498 
L 277.332753 289.308768 
L 277.400307 286.162301 
L 277.652971 289.422339 
L 277.770451 285.287318 
L 277.829219 286.544512 
L 278.184134 289.380008 
L 278.381919 288.427719 
L 278.434225 291.938669 
L 278.578311 289.555509 
L 278.643775 290.620359 
L 278.742388 286.355507 
L 279.264997 291.39593 
L 279.442077 290.732731 
L 279.524492 288.981687 
L 279.768004 288.184901 
L 279.877607 286.139953 
L 280.138089 294.56676 
L 280.330728 295.433281 
L 280.606729 289.53685 
L 280.719119 291.454828 
L 280.893355 290.738557 
L 281.004177 291.966213 
L 281.349881 292.81836 
L 281.397716 294.750618 
L 281.448415 292.123305 
L 281.557922 293.7783 
L 281.705085 291.217746 
L 281.841238 294.424007 
L 281.893157 292.043158 
L 282.157703 294.623801 
L 282.179801 294.04806 
L 282.378303 280.121137 
L 282.427686 294.962298 
L 282.50627 294.346258 
L 282.569702 290.632617 
L 282.650396 293.668498 
L 282.85834 294.418257 
L 282.893404 287.827155 
L 282.96059 293.924179 
L 283.022919 294.047184 
L 283.234966 293.797125 
L 283.543168 295.195219 
L 283.678315 293.295399 
L 283.740102 294.517343 
L 283.962173 294.954109 
L 284.338683 292.360315 
L 284.538074 294.890323 
L 284.697081 293.670221 
L 284.783579 291.036571 
L 285.030148 295.204553 
L 285.085027 294.77572 
L 285.15351 292.993323 
L 285.274472 294.532048 
L 285.397351 293.824086 
L 285.43493 294.761596 
L 285.603418 291.073259 
L 285.674823 291.749586 
L 285.859624 291.698961 
L 285.985675 291.430537 
L 286.055068 293.110901 
L 286.107276 290.389977 
L 286.591087 292.127432 
L 286.730704 291.647576 
L 286.794272 293.674144 
L 286.859871 289.602139 
L 287.011369 291.018487 
L 287.184521 289.438688 
L 287.375998 288.748543 
L 287.42484 290.86247 
L 287.506017 280.42008 
L 287.822965 290.341024 
L 287.974289 284.132269 
L 288.126232 289.862091 
L 288.22109 289.427519 
L 288.465859 290.946566 
L 288.574553 290.232666 
L 288.621266 291.925376 
L 288.635799 290.141306 
L 288.755077 290.637326 
L 288.835384 294.413874 
L 288.975581 291.362527 
L 289.138206 291.176581 
L 289.230451 287.887376 
L 289.659538 290.57656 
L 290.007564 293.496533 
L 290.088973 291.228263 
L 290.153934 292.524692 
L 290.268626 273.843963 
L 290.268684 291.317561 
L 290.268839 295.486325 
L 290.272051 287.391113 
L 290.28045 289.34663 
L 290.409269 291.343342 
L 290.627779 291.900401 
L 290.659475 287.260089 
L 290.808129 286.355282 
L 290.92973 289.987376 
L 291.038637 289.726087 
L 291.197062 288.533486 
L 291.239963 274.048194 
L 291.368473 287.952987 
L 291.593175 290.309221 
L 291.62553 287.926257 
L 291.827553 288.840194 
L 291.898164 285.687596 
L 291.984392 286.183277 
L 292.072903 288.536329 
L 292.179584 288.468435 
L 292.2268 286.966948 
L 292.375647 292.678335 
L 292.417097 290.181845 
L 292.609793 283.67046 
L 292.729111 288.861249 
L 292.76549 286.617702 
L 292.918459 289.697081 
L 293.078936 284.62259 
L 293.183044 287.970785 
L 293.222965 286.158793 
L 293.330207 288.557388 
L 293.488111 287.466421 
L 293.546918 285.913718 
L 293.652709 288.569558 
L 293.810458 286.0123 
L 293.859667 287.437976 
L 294.018905 286.18165 
L 294.080286 294.568932 
L 294.226327 285.160995 
L 294.353443 284.743862 
L 294.625169 294.315811 
L 294.65733 282.855977 
L 294.770397 286.219463 
L 294.898248 285.880862 
L 295.024803 284.802728 
L 295.063331 288.401238 
L 295.221137 288.591664 
L 295.392392 286.210422 
L 295.517515 293.592932 
L 295.60115 291.148227 
L 295.746727 292.022173 
L 295.858555 284.388124 
L 296.06441 292.838047 
L 296.120141 291.416803 
L 296.30587 270.261124 
L 296.327234 287.914269 
L 296.442101 290.58126 
L 296.567823 290.191543 
L 296.592186 281.735281 
L 296.644704 282.544205 
L 296.791365 287.001952 
L 296.833782 268.660483 
L 296.934058 285.146963 
L 297.139061 280.38294 
L 297.294972 282.783678 
L 297.395306 280.738386 
L 297.49713 285.261794 
L 297.664941 279.250103 
L 297.943013 282.662371 
L 298.052307 279.370054 
L 298.519205 278.674013 
L 298.65739 281.368189 
L 298.73311 279.953735 
L 298.920794 280.301081 
L 298.983568 278.114494 
L 299.191978 281.783963 
L 299.237278 280.41511 
L 299.262453 260.542697 
L 299.504552 280.460266 
L 299.599604 281.911293 
L 299.695817 292.345127 
L 299.833595 280.722846 
L 299.970231 280.576649 
L 300.040959 277.379944 
L 300.213104 281.420799 
L 300.361564 277.146663 
L 300.419404 277.631208 
L 300.47765 277.976931 
L 300.598032 277.197775 
L 300.739332 278.261492 
L 300.779466 279.698008 
L 300.871712 279.314416 
L 300.880826 279.236341 
L 301.004362 280.145274 
L 301.114236 277.932418 
L 301.234154 278.472088 
L 301.281602 277.810007 
L 301.305946 279.440733 
L 301.433507 279.441012 
L 301.62688 281.531853 
L 301.716223 280.307748 
L 301.745075 285.254487 
L 301.807811 279.963238 
L 301.92202 279.613622 
L 301.998649 278.124672 
L 302.13875 279.562371 
L 302.248972 275.963206 
L 302.430677 278.083906 
L 302.571029 281.066871 
L 302.659676 276.839964 
L 302.83006 277.088107 
L 302.934536 276.813029 
L 303.039998 279.948377 
L 303.043675 274.956981 
L 303.127851 277.264087 
L 303.249394 277.169332 
L 303.352669 275.999377 
L 303.530156 277.685451 
L 303.877969 272.802288 
L 304.109947 276.135871 
L 304.159156 278.533994 
L 304.235109 277.152151 
L 304.306997 276.389134 
L 304.375422 290.332993 
L 304.512445 271.92594 
L 304.549077 277.331565 
L 304.682037 271.81211 
L 304.857007 276.370024 
L 305.112381 272.494195 
L 305.292305 279.239645 
L 305.342482 267.70427 
L 305.426504 268.443539 
L 305.487749 268.968991 
L 305.603739 274.573598 
L 305.780064 273.495178 
L 305.81714 274.08239 
L 305.886165 273.549823 
L 305.970883 271.290884 
L 306.025375 272.87426 
L 306.350238 269.314788 
L 306.57287 272.565397 
L 306.642668 269.852563 
L 306.852742 272.78742 
L 307.000311 276.053272 
L 307.034195 270.793052 
L 307.196491 272.05502 
L 307.296554 271.370851 
L 307.381563 274.376625 
L 307.470906 271.027547 
L 307.515026 264.070936 
L 307.576581 270.18646 
L 307.766452 270.367609 
L 307.874081 269.082063 
L 308.115135 271.351098 
L 308.270929 275.124203 
L 308.385719 267.233993 
L 308.497412 270.122297 
L 308.700287 266.62031 
L 308.829551 268.796931 
L 308.991014 274.675666 
L 309.238299 269.274609 
L 309.321005 270.00245 
L 309.408336 268.713473 
L 309.613145 272.095121 
L 309.817529 267.451299 
L 309.99339 265.194745 
L 310.259852 263.689972 
L 310.529739 265.321244 
L 310.643116 266.280917 
L 310.7014 264.584672 
L 310.892742 267.575068 
L 310.971481 282.027545 
L 311.125494 267.554426 
L 311.292009 268.178895 
L 311.301471 267.095454 
L 311.435728 265.183105 
L 311.684793 270.214474 
L 311.719392 268.125921 
L 311.870252 288.69452 
L 311.983455 268.202949 
L 312.160805 261.50186 
L 312.337595 270.20374 
L 312.543334 268.180782 
L 312.621105 256.227724 
L 312.681809 272.208745 
L 312.798127 268.93137 
L 312.923346 269.284845 
L 313.055223 265.406235 
L 313.20436 263.073295 
L 313.253879 268.278815 
L 313.326793 265.659393 
L 313.547741 263.814052 
L 313.604149 262.033415 
L 313.730762 265.600796 
L 313.895245 263.439904 
L 314.008235 259.79062 
L 314.102551 262.031865 
L 314.304806 261.625608 
L 314.376308 266.722727 
L 314.432619 279.678382 
L 314.465748 264.340239 
L 314.490149 261.857211 
L 314.701615 262.932199 
L 314.817314 262.053609 
L 314.977443 264.312986 
L 315.214375 273.391254 
L 315.40382 263.416112 
L 315.438865 266.222354 
L 315.736985 265.411314 
L 315.813653 262.955199 
L 315.956927 267.788758 
L 316.173695 260.881791 
L 316.281615 265.19662 
L 316.507459 262.796313 
L 316.698472 262.879424 
L 316.742457 263.125973 
L 316.913886 262.343749 
L 317.053251 263.932267 
L 317.105479 258.686642 
L 317.239542 259.850793 
L 317.305393 262.027495 
L 317.323486 295.473964 
L 317.323312 254.20309 
L 317.323641 295.450724 
L 317.592019 260.917219 
L 317.795803 258.126587 
L 317.870807 271.790364 
L 317.912837 259.914686 
L 318.131482 265.038599 
L 318.247414 259.230143 
L 318.479005 263.548898 
L 318.603663 257.532545 
L 318.769849 255.394123 
L 318.787419 260.267875 
L 319.016766 261.167467 
L 319.12635 264.755158 
L 319.283576 258.313046 
L 319.389503 261.270758 
L 319.506634 257.83378 
L 319.66773 258.105394 
L 319.89607 265.253077 
L 320.365658 255.8677 
L 320.410591 257.445966 
L 320.875535 261.236933 
L 321.084408 256.090222 
L 321.162973 264.716935 
L 321.39439 257.46761 
L 321.720453 258.769756 
L 321.826147 256.862465 
L 322.105071 260.6454 
L 322.223711 255.484075 
L 322.262568 263.065378 
L 322.348466 260.724232 
L 322.426895 267.199529 
L 322.612567 258.49873 
L 322.906294 255.807772 
L 322.965779 259.516177 
L 323.084303 258.198418 
L 323.321642 258.268161 
L 323.391401 261.12397 
L 323.699951 257.414888 
L 323.744981 257.301187 
L 323.91194 273.631015 
L 324.058775 254.751901 
L 324.353953 256.757948 
L 324.412625 254.855253 
L 324.449121 227.187437 
L 324.450708 257.973595 
L 324.855838 250.863354 
L 324.880181 252.825389 
L 324.990694 260.028139 
L 325.078625 259.763054 
L 325.16104 257.412823 
L 325.255047 257.721769 
L 325.284557 264.848831 
L 325.41533 263.769276 
L 325.439364 253.929634 
L 325.656713 255.864387 
L 325.730691 255.16469 
L 325.885808 257.892305 
L 326.115503 254.163858 
L 326.148032 255.219967 
L 326.232305 251.861907 
L 326.610112 258.170584 
L 326.678827 252.904574 
L 326.916591 257.731293 
L 327.198843 251.138089 
L 327.33697 258.552417 
L 327.616551 251.271106 
L 327.791038 256.529442 
L 327.816659 255.601634 
L 327.940524 250.406088 
L 328.037278 252.699949 
L 328.096608 270.668779 
L 328.123428 252.364691 
L 328.262948 254.438352 
L 328.451387 251.837239 
L 328.518457 252.995366 
L 328.709625 254.044633 
L 328.779172 253.421626 
L 329.029669 256.050846 
L 329.144439 261.930993 
L 329.159436 251.323957 
L 329.399 255.485005 
L 329.563792 248.381256 
L 329.937129 248.807054 
L 330.013062 256.993099 
L 330.242118 251.192901 
L 330.408807 256.856037 
L 330.491396 249.454052 
L 330.570212 251.604302 
L 330.617293 250.499844 
L 330.784833 252.331721 
L 331.009748 249.790741 
L 331.107915 257.316425 
L 331.257324 249.315098 
L 331.46968 249.610937 
L 331.496965 250.141868 
L 331.633389 259.758548 
L 331.734362 249.057352 
L 331.82622 250.674238 
L 331.941745 258.801537 
L 331.977176 253.378248 
L 332.019787 260.323444 
L 332.148316 250.747255 
L 332.250953 252.367983 
L 332.324641 258.845433 
L 332.410443 250.285934 
L 332.60401 245.638774 
L 332.641357 256.813366 
L 332.703822 247.947999 
L 332.835833 249.682295 
L 332.988531 261.355498 
L 333.143725 252.381559 
L 333.354592 246.968335 
L 333.487532 255.538765 
L 333.547578 250.112773 
L 333.696212 250.676909 
L 333.786775 254.817189 
L 333.871357 254.248648 
L 333.970337 255.261884 
L 334.022139 246.54028 
L 334.19115 249.822677 
L 334.21619 254.817265 
L 334.363218 248.475535 
L 334.596009 254.744832 
L 334.74056 249.96866 
L 334.793969 255.912675 
L 334.872611 247.487003 
L 335.180599 249.680212 
L 335.30667 247.499537 
L 335.398761 251.82464 
L 335.535398 245.532152 
L 335.626753 247.924488 
L 335.857842 240.126045 
L 336.00607 250.584213 
L 336.170397 244.301592 
L 336.386276 249.464441 
L 336.490364 244.457961 
L 336.615835 253.889746 
L 336.853871 246.070827 
L 336.910007 246.105221 
L 336.986443 246.673434 
L 337.028145 248.090861 
L 337.143011 244.18307 
L 337.341339 252.522138 
L 337.397011 243.306942 
L 337.59917 243.462104 
L 337.66535 253.161638 
L 337.908842 247.963843 
L 338.141014 241.189263 
L 338.456859 243.904542 
L 338.531592 241.043553 
L 338.652342 246.787615 
L 338.703389 240.771301 
L 339.05424 245.934364 
L 339.202642 243.937058 
L 339.239641 238.021786 
L 339.347 242.485025 
L 339.563517 246.356467 
L 339.627181 243.337068 
L 339.702418 250.532447 
L 339.942891 242.285606 
L 339.976697 247.631346 
L 340.142263 242.628971 
L 340.30394 241.807562 
L 340.315918 242.012763 
L 340.519954 245.840986 
L 340.568544 241.936592 
L 340.849712 245.287496 
L 340.990567 242.678553 
L 341.002487 260.212104 
L 341.106944 240.437546 
L 341.378765 244.881776 
L 341.651439 240.995741 
L 341.705679 242.699454 
L 341.892357 244.201639 
L 341.994898 241.066682 
L 342.230688 239.055278 
L 342.373962 242.388893 
L 342.490725 237.104825 
L 342.830314 244.810324 
L 342.954547 243.583415 
L 343.054842 227.025974 
L 343.239411 238.449253 
L 343.50268 231.101067 
L 343.672368 238.979525 
L 343.812313 238.693784 
L 344.023277 239.916795 
L 344.226306 239.872884 
L 344.34156 239.254826 
L 344.377979 269.82255 
L 344.47065 224.347421 
L 344.532399 234.78007 
L 344.615724 236.17369 
L 344.788875 235.100101 
L 344.901323 240.852512 
L 344.981978 236.816633 
L 344.993375 240.833817 
L 345.139165 234.51806 
L 345.244879 243.651386 
L 345.40017 238.380429 
L 345.648577 234.206886 
L 345.801933 234.008351 
L 345.855186 234.214081 
L 345.985786 235.241737 
L 346.136297 233.543623 
L 346.340062 233.220964 
L 346.507931 238.863664 
L 346.522095 237.132951 
L 346.75924 236.768151 
L 346.892762 233.829512 
L 346.994992 240.790133 
L 347.032069 240.707852 
L 347.331872 240.806867 
L 347.392634 246.784363 
L 347.477216 238.964979 
L 347.682994 245.533778 
L 347.955744 231.684727 
L 348.023569 233.912735 
L 348.161657 221.174624 
L 348.291444 260.830875 
L 348.570038 232.694211 
L 349.137793 228.08403 
L 349.371668 230.484848 
L 349.645735 232.237126 
L 349.666382 234.974222 
L 349.719539 233.665086 
L 349.87303 229.261638 
L 349.902618 229.335683 
L 350.167822 229.505328 
L 350.381204 232.186513 
L 350.629727 244.148424 
L 350.82521 232.771413 
L 350.852707 236.460052 
L 350.942263 295.346137 
L 350.967748 239.288748 
L 351.237635 234.169129 
L 351.67363 230.793088 
L 351.842408 235.702557 
L 351.987985 235.368399 
L 352.095441 255.766125 
L 352.333437 266.506235 
L 352.626429 225.531698 
L 352.863922 244.866953 
L 352.987497 244.394594 
L 353.075892 245.128444 
L 353.412578 253.207496 
L 353.739376 229.779156 
L 353.744078 216.969963 
L 353.949526 241.511381 
L 354.165405 227.795156 
L 354.449844 265.015917 
L 354.460932 243.112379 
L 354.591434 232.132613 
L 354.840112 245.070431 
L 355.162885 223.492991 
L 355.296774 244.85731 
L 355.995573 227.43895 
L 356.17035 252.805313 
L 356.269756 229.896913 
L 356.62169 233.349111 
L 356.70726 229.588082 
L 356.8587 231.102596 
L 357.000716 233.270394 
L 357.074559 226.662039 
L 357.227005 225.325362 
L 357.565375 247.386599 
L 357.65495 222.75174 
L 357.743674 246.488258 
L 358.146288 226.098682 
L 358.308758 244.864715 
L 358.434578 231.006028 
L 358.681592 229.914447 
L 358.782062 240.549597 
L 359.010015 235.711068 
L 359.385384 235.630549 
L 359.550737 237.912926 
L 359.671177 227.548502 
L 359.703919 245.813398 
L 359.787108 224.46556 
L 359.859287 226.366648 
L 360.090936 227.990735 
L 360.145951 221.011683 
L 360.268442 222.037302 
L 360.317458 220.254931 
L 360.433002 220.400251 
L 360.561763 224.906452 
L 360.760825 257.01652 
L 360.771642 228.721194 
L 361.059371 229.973949 
L 361.343519 225.582938 
L 361.476498 236.276978 
L 361.700446 233.562325 
L 362.029953 223.610056 
L 362.150586 232.045281 
L 362.394388 230.673968 
L 362.475314 238.744054 
L 362.662146 226.615414 
L 362.856487 238.996075 
L 363.125407 216.84026 
L 363.231121 233.332168 
L 363.530072 236.262555 
L 363.715938 228.167757 
L 363.934158 232.122325 
L 364.046954 213.202518 
L 364.216332 264.150265 
L 364.49305 229.783431 
L 364.593616 236.264999 
L 364.701169 234.648002 
L 365.04008 231.823739 
L 365.130333 226.743964 
L 365.354377 239.802614 
L 365.81756 227.305995 
L 366.333338 219.015664 
L 366.414651 214.863124 
L 366.946316 254.191482 
L 367.084385 223.152531 
L 367.280351 244.095273 
L 367.406035 222.410458 
L 367.454509 227.462663 
L 367.527327 222.825842 
L 367.727589 228.224173 
L 367.966418 242.65409 
L 368.080839 240.044188 
L 368.122811 227.84251 
L 368.263821 240.758991 
L 368.338593 224.933424 
L 368.56972 231.258183 
L 368.582414 219.402945 
L 368.724798 241.556532 
L 368.947062 220.941049 
L 369.043082 225.547134 
L 369.410826 222.89295 
L 369.455971 241.602026 
L 369.510251 213.353044 
L 369.557177 219.873346 
L 369.759451 220.033843 
L 369.949284 219.329989 
L 370.111889 221.528652 
L 371.018923 217.558461 
L 371.273 235.358983 
L 371.399187 209.142421 
L 371.571391 219.035015 
L 371.693572 206.337964 
L 371.733396 241.814858 
L 371.941225 239.095094 
L 372.179918 226.485991 
L 372.337879 238.898671 
L 372.470007 216.449887 
L 372.618758 251.89854 
L 373.36158 233.606673 
L 373.539395 226.166202 
L 373.676864 232.298178 
L 373.927768 201.225442 
L 374.138963 218.884677 
L 374.58384 223.50351 
L 374.835072 229.176512 
L 374.884204 248.149956 
L 376.477324 219.273587 
L 376.687455 237.610663 
L 377.14253 229.014718 
L 377.365762 257.620479 
L 377.734822 239.413211 
L 378.629917 234.37703 
L 378.842041 256.212406 
L 380.145478 237.811488 
L 381.356766 229.471825 
L 382.358677 247.81438 
L 382.387471 245.997896 
L 383.49887 239.80774 
L 384.310195 228.01974 
L 384.926462 240.833475 
L 385.123861 216.597485 
L 385.458244 239.039222 
L 385.885918 237.752252 
L 386.034281 215.510705 
L 389.277548 227.709093 
L 389.532573 237.069083 
L 390.31015 223.914532 
L 390.951032 225.416176 
L 393.02146 225.578273 
L 393.741391 218.761462 
L 398.486847 295.488 
L 398.486847 295.481876 
L 398.486847 242.693005 
L 398.486886 295.488 
L 398.487273 295.481563 
" clip-path="url(#pc40fe32779)" style="fill: none; stroke: #1f77b4; stroke-opacity: 0.6; stroke-width: 1.5; stroke-linecap: square"/>
   </g>
   <g id="line2d_17">
    <path d="M 73.832727 53.568 
L 73.833046 53.568389 
L 277.829219 295.456508 
L 398.487273 152.349153 
L 398.487273 152.349153 
" clip-path="url(#pc40fe32779)" style="fill: none; stroke-dasharray: 5.55,2.4; stroke-dashoffset: 0; stroke: #008000; stroke-width: 1.5"/>
   </g>
   <g id="patch_3">
    <path d="M 57.6 307.584 
L 57.6 41.472 
" style="fill: none; stroke: #000000; stroke-width: 0.8; stroke-linejoin: miter; stroke-linecap: square"/>
   </g>
   <g id="patch_4">
    <path d="M 414.72 307.584 
L 414.72 41.472 
" style="fill: none; stroke: #000000; stroke-width: 0.8; stroke-linejoin: miter; stroke-linecap: square"/>
   </g>
   <g id="patch_5">
    <path d="M 57.6 307.584 
L 414.72 307.584 
" style="fill: none; stroke: #000000; stroke-width: 0.8; stroke-linejoin: miter; stroke-linecap: square"/>
   </g>
   <g id="patch_6">
    <path d="M 57.6 41.472 
L 414.72 41.472 
" style="fill: none; stroke: #000000; stroke-width: 0.8; stroke-linejoin: miter; stroke-linecap: square"/>
   </g>
  </g>
 </g>
 <defs>
  <clipPath id="pc40fe32779">
   <rect x="57.6" y="41.472" width="357.12" height="266.112"/>
  </clipPath>
 </defs>
</svg>
